<?xml version="1.0" standalone="no"?>
<!DOCTYPE svg PUBLIC "-//W3C//DTD SVG 1.1//EN" "http://www.w3.org/Graphics/SVG/1.1/DTD/svg11.dtd" >
<svg>
<metadata>
Created by FontForge 20130207 at Wed Apr 20 13:16:00 2016
 By Naomi Rubin
Copyright (c) Village Type &#38; Design LLC, 2004. All rights reserved.
</metadata>
<defs>
<font id="GalaxiePolaris-Medium" horiz-adv-x="1228" >
  <font-face 
    font-family="GalaxiePolaris-Medium"
    font-weight="400"
    font-stretch="normal"
    units-per-em="2048"
    panose-1="2 11 5 4 3 3 1 2 1 3"
    ascent="1638"
    descent="-410"
    x-height="1085"
    cap-height="1597"
    bbox="-428 -434 3086 2322"
    underline-thickness="61"
    underline-position="-144"
    unicode-range="U+0020-FF3F"
  />
<missing-glyph horiz-adv-x="1966" 
d="M1075 799l563 -563v1126zM891 799l-563 563v-1126zM412 1462l571 -571l571 571h-1142zM983 707l-571 -572h1142zM184 0v1597h1598v-1597h-1598z" />
    <glyph glyph-name=".notdef" horiz-adv-x="1966" 
d="M1075 799l563 -563v1126zM891 799l-563 563v-1126zM412 1462l571 -571l571 571h-1142zM983 707l-571 -572h1142zM184 0v1597h1598v-1597h-1598z" />
    <glyph glyph-name=".null" horiz-adv-x="0" 
 />
    <glyph glyph-name="nonmarkingreturn" horiz-adv-x="681" 
 />
    <glyph glyph-name="space" unicode=" " horiz-adv-x="471" 
 />
    <glyph glyph-name="exclam" unicode="!" horiz-adv-x="540" 
d="M143 1597h254l-59 -1175h-133zM385 227v-227h-229v227h229z" />
    <glyph glyph-name="quotedbl" unicode="&#x22;" horiz-adv-x="751" 
d="M432 1597h238l-47 -512h-142zM82 1597h240l-50 -512h-141z" />
    <glyph glyph-name="numbersign" unicode="#" horiz-adv-x="1425" 
d="M612 985l-104 -405h305l105 405h-306zM217 1169h246l102 396h197l-103 -396h306l102 396h197l-103 -396h195v-184h-242l-102 -405h196v-185h-245l-101 -395h-198l102 395h-305l-101 -395h-198l102 395h-192v185h239l105 405h-199v184z" />
    <glyph glyph-name="dollar" unicode="$" horiz-adv-x="1132" 
d="M549 1167q-89 1 -155 -41t-66 -102t32 -87q32 -26 123 -42l68 272h-2zM545 393q115 0 195 45t81 116q0 70 -43 100t-160 48l-75 -309h2zM1026 558q0 -92 -46 -166q-78 -123 -291 -165q-87 -16 -187 -16l-56 -211h-182l58 233q-135 31 -228 99l47 178q125 -74 224 -96
l77 315q-231 34 -296 155q-28 52 -28 134t43 150t113 106q137 72 322 74l53 217h182l-57 -234q154 -29 262 -102l-45 -178q-127 80 -262 102l-70 -285q267 -33 336 -161q31 -57 31 -149z" />
    <glyph glyph-name="percent" unicode="%" horiz-adv-x="2244" 
d="M1724 838q186 0 297 -110t111 -320t-110 -322q-110 -111 -297 -111t-298 111t-110 322q1 210 111 320t296 110zM1724 139q232 -1 232 267t-232 268t-231 -268q0 -268 231 -267zM520 727q-186 0 -297 110q-111 111 -111 321t110 321t297 111t298 -112q111 -110 111 -321
t-111 -321t-297 -109zM520 1425q-231 0 -231 -267t231 -267t231 267t-231 267zM1759 1565l-1061 -1565h-213l1061 1565h213z" />
    <glyph glyph-name="ampersand" unicode="&#x26;" horiz-adv-x="1507" 
d="M281 452q0 -198 133 -256q100 -44 200 -44q246 -1 383 192q-184 150 -503 424q-113 -68 -163 -140q-50 -70 -50 -176zM819 1257q0 187 -221 187t-221 -187q0 -61 30 -117q29 -56 55 -82t81 -75l50 25q123 61 146 87q23 25 51 58t29 104zM614 -25q-210 0 -366 104
q-170 113 -170 379q0 142 80 257t207 178q-84 72 -137 156q-52 84 -52 206q0 179 110 273t316 94t311 -105q107 -105 107 -267t-153 -275q-66 -49 -183 -113q180 -164 406 -344q41 119 45 260q0 141 -31 264l201 19q33 -106 32 -254q0 -236 -88 -418l193 -168v-244
q-205 168 -289 240q-186 -242 -539 -242z" />
    <glyph glyph-name="quotesingle" unicode="'" horiz-adv-x="403" 
d="M82 1597h240l-50 -512h-141z" />
    <glyph glyph-name="parenleft" unicode="(" horiz-adv-x="538" 
d="M299 717q0 -520 213 -983h-195q-98 168 -161 431t-64 552q0 289 64 552q63 263 161 431h195q-213 -463 -213 -983z" />
    <glyph glyph-name="parenright" unicode=")" horiz-adv-x="538" 
d="M242 717q0 520 -213 983h194q97 -168 161 -431t64 -552t-62 -552q-64 -263 -163 -431h-194q213 463 213 983z" />
    <glyph glyph-name="asterisk" unicode="*" horiz-adv-x="645" 
d="M322 1204l-97 -168l-135 101l127 143l-190 41l51 164l178 -80l-18 192h168l-19 -192l178 80l51 -164l-190 -41l127 -143l-135 -101z" />
    <glyph glyph-name="plus" unicode="+" horiz-adv-x="1003" 
d="M406 393v309h-310v193h310v309h192v-309h309v-193h-309v-309h-192z" />
    <glyph glyph-name="comma" unicode="," horiz-adv-x="491" 
d="M131 227h236l-177 -532h-124z" />
    <glyph glyph-name="hyphen" unicode="-" horiz-adv-x="737" 
d="M635 594h-533v184h533v-184z" />
    <glyph glyph-name="period" unicode="." horiz-adv-x="491" 
d="M360 227v-227h-229v227h229z" />
    <glyph glyph-name="slash" unicode="/" horiz-adv-x="716" 
d="M696 1782l-471 -1966h-205l472 1966h204z" />
    <glyph glyph-name="zero" unicode="0" horiz-adv-x="1433" 
d="M718 -25q-316 0 -456 197q-139 196 -139 610t138 611q139 197 455 197t455 -198q139 -196 139 -610t-138 -610t-454 -197zM717 158q209 0 299 145t90 479t-90 480t-299 145q-209 0 -299 -145q-90 -146 -90 -480t90 -479t299 -145z" />
    <glyph glyph-name="one" unicode="1" horiz-adv-x="1433" 
d="M1266 0h-1067v184h430v1106q-156 -152 -459 -229v196q170 49 281 126t211 206h165v-1405h439v-184z" />
    <glyph glyph-name="two" unicode="2" horiz-adv-x="1433" 
d="M1329 0h-1214v12q0 315 129 471q47 57 89 95t135 91q93 52 240 113q146 61 178 76q122 60 154 106q54 79 55 158q1 80 -35 140q-60 98 -207 129q-56 12 -114 12q-163 -1 -275 -63t-124 -210l-203 21q55 436 602 436q240 0 398 -122t157 -345q0 -98 -42 -190
q-22 -50 -112 -129q-56 -47 -189 -105q-134 -59 -156 -69q-249 -113 -355 -204t-112 -241l444 2h557v-184z" />
    <glyph glyph-name="three" unicode="3" horiz-adv-x="1433" 
d="M1108 440q0 206 -170 251q-84 22 -217 22h-223v186h223q84 0 134 7t100 31q96 46 96 218q0 256 -353 250q-182 -3 -264 -63t-98 -205l-205 20q52 433 553 433q262 0 416 -107q154 -106 153 -328q1 -143 -71 -229t-176 -111q119 -23 212 -118t93 -257q0 -211 -157 -338
t-468 -127q-526 0 -577 439l204 22q17 -146 103 -212t270 -68q422 -4 422 284z" />
    <glyph glyph-name="four" unicode="4" horiz-adv-x="1433" 
d="M834 549v524l4 203l-123 -191l-369 -538l195 2h293zM1323 365h-293v-365h-196v365h-725v139l745 1083h176v-1038h293v-184z" />
    <glyph glyph-name="five" unicode="5" horiz-adv-x="1433" 
d="M1212 1565v-187h-755l-45 -420q124 96 364 96t384 -136t144 -398t-165 -403q-167 -141 -437 -141t-405 111q-135 112 -164 323l205 22q23 -152 110 -215t261 -60q173 3 283 90t112 269q2 358 -356 365q-256 4 -369 -144l-172 41l80 787h925z" />
    <glyph glyph-name="six" unicode="6" horiz-adv-x="1433" 
d="M1083 502q0 344 -342 344q-165 0 -275 -92t-110 -260q0 -29 2 -56q74 -279 363 -278q162 0 262 83t100 259zM772 1403q-205 0 -325 -130t-121 -419h4q137 184 432 184q246 0 390 -142t144 -392t-156 -389t-403 -140q-311 0 -458 202q-147 201 -147 605t170 606
q171 202 486 201q219 0 343 -106t149 -264l-205 -25q-39 209 -303 209z" />
    <glyph glyph-name="seven" unicode="7" horiz-adv-x="1433" 
d="M123 1378v187h1196v-135l-709 -1430h-215l600 1194l90 186l-356 -2h-606z" />
    <glyph glyph-name="eight" unicode="8" horiz-adv-x="1433" 
d="M717 -25q-297 0 -447 114t-149 323q0 172 85 270t206 125q-106 25 -178 120q-71 95 -70 236q0 219 155 323q156 103 398 103q241 0 397 -103t156 -323q0 -141 -71 -236t-177 -120q121 -27 206 -125t85 -270q1 -209 -149 -323t-447 -114zM717 717q-395 0 -395 -293
q0 -266 395 -266t395 266q0 293 -395 293zM717 1403q-350 0 -350 -250q0 -163 110 -219q88 -45 240 -45q254 0 321 127q29 55 29 137q0 250 -350 250z" />
    <glyph glyph-name="nine" unicode="9" horiz-adv-x="1433" 
d="M344 1063q0 -344 342 -344q166 0 276 92t109 260q0 29 -2 55q-74 279 -362 279q-163 0 -263 -83t-100 -259zM655 162q205 0 325 130t122 419h-4q-137 -184 -432 -185q-246 0 -390 142t-145 393q0 250 156 389t403 139q311 0 459 -201q147 -202 147 -606t-171 -605
q-171 -202 -486 -202q-219 1 -343 107t-149 264l205 25q39 -209 303 -209z" />
    <glyph glyph-name="colon" unicode=":" horiz-adv-x="491" 
d="M360 952v-227h-229v227h229zM360 227v-227h-229v227h229z" />
    <glyph glyph-name="semicolon" unicode=";" horiz-adv-x="491" 
d="M131 227h236l-177 -532h-124zM360 952v-227h-229v227h229z" />
    <glyph glyph-name="less" unicode="&#x3c;" horiz-adv-x="1003" 
d="M96 702v193l811 385v-209l-596 -272l596 -273v-209z" />
    <glyph glyph-name="equal" unicode="=" horiz-adv-x="1003" 
d="M907 524h-811v193h811v-193zM907 881h-811v192h811v-192z" />
    <glyph glyph-name="greater" unicode="&#x3e;" horiz-adv-x="1003" 
d="M907 895v-193l-811 -385v209l596 273l-596 272v209z" />
    <glyph glyph-name="question" unicode="?" horiz-adv-x="1241" 
d="M674 227v-227h-230v227h230zM418 597q0 56 9 93t17 61q8 25 35 51t36 36t48 32t44 25q38 15 141 70t137 126q20 44 20 99q0 246 -293 246q-147 0 -229 -62t-104 -200l-203 22q55 426 536 426q230 0 368 -113t138 -314t-126 -299q-97 -75 -160 -101q-64 -27 -72 -31
q-86 -35 -130 -80q-44 -46 -44 -112t18 -152h-147q-39 121 -39 177z" />
    <glyph glyph-name="at" unicode="@" horiz-adv-x="2136" 
d="M1468 123h-112l-23 147q-37 -74 -127 -122t-196 -48q-201 0 -332 126t-131 378t131 378t332 126q106 0 196 -48t127 -122l23 147h180l-14 -270v-516q186 0 258 127t71 371q0 291 -192 478q-193 187 -579 187t-588 -228t-203 -630q0 -402 207 -630t600 -228q266 0 414 70
t178 164l208 -27q-32 -161 -234 -273t-579 -112q-467 0 -727 276t-260 758t261 761q261 277 725 277t710 -231t246 -612q0 -342 -132 -508t-438 -166zM1026 926q-285 0 -285 -322t285 -321q129 0 210 79t91 177v131q-10 98 -91 177t-210 79z" />
    <glyph glyph-name="A" unicode="A" horiz-adv-x="1486" 
d="M1004 641l-261 719l-260 -719h521zM27 0l616 1620h201l616 -1620h-221l-170 461h-651l-170 -461h-221z" />
    <glyph glyph-name="B" unicode="B" horiz-adv-x="1431" 
d="M791 1409h-422v-498h422q131 -1 199 55t69 198q-1 142 -67 194t-201 51zM369 188h438q167 0 238 65t69 198q0 176 -101 232q-78 42 -198 42h-446v-537zM823 0h-659v1597h647q138 0 223 -39q86 -40 132 -84t76 -122t30 -198t-58 -206q-58 -88 -133 -114q106 -25 176 -125
q70 -101 70 -247t-41 -240q-69 -157 -273 -204q-84 -18 -190 -18z" />
    <glyph glyph-name="C" unicode="C" horiz-adv-x="1550" 
d="M123 799q0 389 172 606t524 217q287 0 442 -120t181 -328l-209 -23q-23 147 -123 216t-291 69q-485 0 -485 -637t485 -637q190 0 291 68q100 69 123 216l209 -22q-28 -209 -182 -329t-441 -120q-352 -1 -524 217t-172 607z" />
    <glyph glyph-name="D" unicode="D" horiz-adv-x="1564" 
d="M369 188h342q276 0 400 158t124 453t-124 453t-400 157h-342v-1221zM711 0h-547v1597h547q367 1 551 -195t184 -604t-184 -602q-184 -196 -551 -196z" />
    <glyph glyph-name="E" unicode="E" horiz-adv-x="1419" 
d="M164 1597h1100v-188h-895v-498h807v-186h-807v-537h936v-188h-1141v1597z" />
    <glyph glyph-name="F" unicode="F" horiz-adv-x="1290" 
d="M369 725v-725h-205v1597h1059v-188h-854v-498h764v-186h-764z" />
    <glyph glyph-name="G" unicode="G" horiz-adv-x="1597" 
d="M123 800q0 388 172 605t524 217q287 0 442 -120t181 -328l-209 -23q-23 147 -123 216t-291 69q-485 0 -485 -636t485 -638q262 0 420 102v406h-344v178h547v-709q-154 -94 -296 -130t-329 -34q-352 1 -523 219t-171 606z" />
    <glyph glyph-name="H" unicode="H" horiz-adv-x="1536" 
d="M1167 1597h205v-1597h-205v725h-798v-725h-205v1597h205v-686h798v686z" />
    <glyph glyph-name="I" unicode="I" horiz-adv-x="606" 
d="M406 1597v-1597h-205v1597h205z" />
    <glyph glyph-name="J" unicode="J" horiz-adv-x="1171" 
d="M819 1597h205v-1167q0 -211 -128 -333t-382 -122q-453 0 -481 371l205 27q20 -217 276 -211q158 2 232 65t73 191v1179z" />
    <glyph glyph-name="K" unicode="K" horiz-adv-x="1458" 
d="M369 1597v-794l731 794h289l-687 -720l730 -877h-279l-592 727l-192 -205v-522h-205v1597h205z" />
    <glyph glyph-name="L" unicode="L" horiz-adv-x="1206" 
d="M369 1597v-1409h811v-188h-1016v1597h205z" />
    <glyph glyph-name="M" unicode="M" horiz-adv-x="1863" 
d="M365 0h-201v1597h221l418 -1007l129 -336l129 336l418 1007h221v-1597h-201v584l6 612l-100 -264l-387 -932h-172l-387 932l-101 264l7 -612v-584z" />
    <glyph glyph-name="N" unicode="N" horiz-adv-x="1544" 
d="M1174 1597h206v-1597h-186l-653 965l-176 272l6 -481v-756h-207v1597h186l654 -964l176 -273l-6 482v755z" />
    <glyph glyph-name="O" unicode="O" horiz-adv-x="1638" 
d="M819 -25q-354 -1 -525 217t-171 607t171 606t525 217q353 0 525 -217t172 -606t-172 -607t-525 -217zM819 1436q-483 0 -483 -637t483 -637t484 637q-1 637 -484 637z" />
    <glyph glyph-name="P" unicode="P" horiz-adv-x="1347" 
d="M369 641v-641h-205v1597h590q210 0 357 -93q79 -50 124 -148t45 -236q0 -372 -333 -456q-87 -23 -191 -23h-387zM369 829h407q105 0 189 49q100 60 100 241t-100 242q-81 48 -189 48h-407v-580z" />
    <glyph glyph-name="Q" unicode="Q" horiz-adv-x="1638" 
d="M819 1436q-483 0 -483 -637t483 -637t484 637q-1 637 -484 637zM1516 799q0 -328 -121 -536t-371 -265v-2l221 -72l400 -137v-219l-1110 452q-412 168 -412 779q0 389 171 606t525 217q353 0 525 -217t172 -606z" />
    <glyph glyph-name="R" unicode="R" horiz-adv-x="1447" 
d="M369 858h454q161 0 225 69t64 208q0 201 -135 251q-62 23 -154 23h-454v-551zM369 670v-670h-205v1597h639q522 0 522 -462q0 -385 -350 -449l418 -686h-252l-387 670h-385z" />
    <glyph glyph-name="S" unicode="S" horiz-adv-x="1460" 
d="M1141 451q0 143 -87 206t-321 86q-319 26 -448 137q-49 42 -82 112t-33 165q-2 229 157 347t400 118q555 0 614 -436l-208 -23q-21 143 -117 208t-289 65q-112 0 -222 -53q-128 -61 -128 -237q0 -96 74 -146t288 -74q160 -14 259 -38q100 -24 184 -73q163 -95 161 -354
q0 -162 -90 -276q-164 -208 -520 -210q-561 0 -622 447l208 20q25 -148 123 -214t278 -65t300 73q121 72 121 215z" />
    <glyph glyph-name="T" unicode="T" horiz-adv-x="1273" 
d="M739 1409v-1409h-204v1409h-494v188h1192v-188h-494z" />
    <glyph glyph-name="U" unicode="U" horiz-adv-x="1581" 
d="M791 -25q-643 0 -644 603v1019h209v-1022q0 -306 215 -382q87 -31 219 -31q261 0 353 122q80 107 82 291v1022h209v-1019q0 -603 -643 -603z" />
    <glyph glyph-name="V" unicode="V" horiz-adv-x="1488" 
d="M1460 1597l-616 -1622h-201l-614 1622h219l368 -1005l127 -359l127 359l369 1005h221z" />
    <glyph glyph-name="W" unicode="W" horiz-adv-x="1953" 
d="M1063 1016l-86 305l-86 -305l-326 -1041h-174l-338 1622h213l176 -942l54 -321l92 321l295 942h188l295 -942l92 -321l53 321l177 942h213l-338 -1622h-174z" />
    <glyph glyph-name="X" unicode="X" horiz-adv-x="1478" 
d="M334 1597l405 -612l406 612h239l-530 -774l567 -823h-247l-435 657l-434 -657h-248l568 823l-531 774h240z" />
    <glyph glyph-name="Y" unicode="Y" horiz-adv-x="1495" 
d="M850 0h-205v664l-620 933h235l305 -469l183 -288l182 288l305 469h235l-620 -933v-664z" />
    <glyph glyph-name="Z" unicode="Z" horiz-adv-x="1409" 
d="M88 0v154l817 1071l150 186l-475 -2h-453v188h1194v-153l-817 -1071l-150 -187l477 2h490v-188h-1233z" />
    <glyph glyph-name="bracketleft" unicode="[" horiz-adv-x="538" 
d="M508 1511h-119v-1589h119v-188h-324v1966h324v-189z" />
    <glyph glyph-name="backslash" unicode="\" horiz-adv-x="716" 
d="M492 -184l-472 1966h205l471 -1966h-204z" />
    <glyph glyph-name="bracketright" unicode="]" horiz-adv-x="538" 
d="M31 -78h119v1589h-119v189h323v-1966h-323v188z" />
    <glyph glyph-name="asciicircum" unicode="^" horiz-adv-x="1036" 
d="M791 819l-273 596l-272 -596h-209l381 803h200l381 -803h-208z" />
    <glyph glyph-name="underscore" unicode="_" horiz-adv-x="634" 
d="M594 -410h-553v185h553v-185z" />
    <glyph glyph-name="grave" unicode="`" 
d="M303 1638h229l193 -426h-195z" />
    <glyph glyph-name="a" unicode="a" horiz-adv-x="1189" 
d="M295 303q0 -156 197 -156q141 -2 247 80t125 181v127l-334 -54q-119 -18 -177 -56t-58 -122zM590 1110q224 0 346 -99q123 -99 123 -298v-443l14 -270h-178l-25 156q-55 -86 -161 -133t-230 -48q-197 0 -293 85t-96 241q0 155 106 229t316 105l352 51v41q0 111 -67 160
q-68 49 -198 52t-186 -43t-75 -140l-203 28q25 156 128 241t327 85z" />
    <glyph glyph-name="b" unicode="b" horiz-adv-x="1251" 
d="M657 158q137 0 220 99q81 99 81 285t-81 285q-81 101 -219 101t-227 -80t-103 -176v-258q14 -98 103 -177t226 -79zM672 1110q236 0 362 -147t127 -419q0 -272 -127 -420t-362 -149q-113 1 -206 49t-144 132l-25 -156h-178l14 270v1368h195v-698q53 78 144 124t200 46z
" />
    <glyph glyph-name="c" unicode="c" horiz-adv-x="1150" 
d="M283 543q0 -185 84 -287t231 -106q229 -2 268 186l203 -25q-53 -336 -471 -336q-240 1 -374 149t-134 418t134 420q134 148 374 148q418 0 471 -336l-203 -24q-39 188 -268 186q-147 -4 -231 -106t-84 -287z" />
    <glyph glyph-name="d" unicode="d" horiz-adv-x="1251" 
d="M594 928q-137 0 -219 -100t-82 -286q0 -184 82 -284t219 -100q136 0 226 79t104 177v258q-14 96 -104 176t-226 80zM580 1110q110 0 200 -46t144 -124v698h194v-1368l15 -270h-179l-24 156q-50 -84 -144 -132t-206 -49q-236 -1 -363 147t-127 420t127 420t363 148z" />
    <glyph glyph-name="e" unicode="e" horiz-adv-x="1191" 
d="M883 629q-8 314 -277 312q-135 -1 -217 -79t-92 -233h586zM1094 463h-799q20 -315 315 -316q233 -6 271 172l204 -24q-20 -141 -136 -230q-117 -89 -351 -89t-371 144t-137 423t136 423t380 144t366 -145t122 -420v-82z" />
    <glyph glyph-name="f" unicode="f" horiz-adv-x="835" 
d="M61 920v165h220v158q0 306 194 386q83 34 183 34t165 -25l-18 -182q-63 29 -125 27q-111 -2 -158 -53t-47 -199v-146h309v-165h-309v-920h-194v920h-220z" />
    <glyph glyph-name="g" unicode="g" horiz-adv-x="1251" 
d="M593 928q-138 0 -218 -89t-80 -271t80 -272q80 -89 218 -89q137 0 227 79t104 177v209q-14 98 -104 177t-227 79zM1118 -25q0 -199 -140 -304t-384 -105t-356 85t-132 240l205 29q31 -190 283 -184q330 4 330 231v228q-50 -78 -142 -124t-204 -46q-229 0 -359 138
q-129 138 -129 404q0 267 129 405t359 138q116 0 208 -48t144 -132l24 155h179l-15 -270v-840z" />
    <glyph glyph-name="h" unicode="h" horiz-adv-x="1198" 
d="M324 1638v-700q119 172 344 172q186 0 302 -96t115 -271v-743h-196v709q0 104 -68 161q-67 58 -187 58t-209 -81t-101 -175v-672h-195v1638h195z" />
    <glyph glyph-name="i" unicode="i" horiz-adv-x="528" 
d="M379 1536v-227h-229v227h229zM166 0v1085h196v-1085h-196z" />
    <glyph glyph-name="j" unicode="j" horiz-adv-x="528" 
d="M166 -2v1087h196v-1099q0 -178 -72 -290q-84 -130 -323 -130q-82 0 -147 24l20 183q54 -29 144 -27t136 54t46 198zM379 1536v-227h-229v227h229z" />
    <glyph glyph-name="k" unicode="k" horiz-adv-x="1148" 
d="M324 0h-195v1638h195v-1052l188 196l299 303h264l-469 -467l537 -618h-254l-420 492l-145 -140v-352z" />
    <glyph glyph-name="l" unicode="l" horiz-adv-x="528" 
d="M166 0v1638h196v-1638h-196z" />
    <glyph glyph-name="m" unicode="m" horiz-adv-x="1800" 
d="M1489 0v715q0 213 -213 213q-104 0 -179 -79t-89 -175v-674h-197v715q0 213 -213 213q-104 0 -180 -79t-90 -175v-674h-195v817l-14 268h178l25 -153q113 178 313 178q260 0 334 -201q57 97 148 149t192 52q178 0 277 -96t100 -273v-741h-197z" />
    <glyph glyph-name="n" unicode="n" horiz-adv-x="1202" 
d="M672 1110q186 0 302 -96t116 -271v-743h-197v709q0 104 -68 161q-67 58 -187 58t-209 -81t-101 -175v-672h-195v817l-14 268h178l25 -153q55 82 147 130t203 48z" />
    <glyph glyph-name="o" unicode="o" horiz-adv-x="1208" 
d="M604 -25q-242 1 -377 145t-135 423t135 423t377 144t377 -144t135 -423t-135 -423t-377 -145zM604 152q147 0 232 95q84 95 84 296t-84 296t-232 95t-231 -95q-84 -95 -84 -296t84 -296t231 -95z" />
    <glyph glyph-name="p" unicode="p" horiz-adv-x="1251" 
d="M657 158q137 0 220 100q81 100 81 286t-81 284q-81 100 -219 100t-227 -79t-103 -177v-258q14 -96 103 -176t226 -80zM672 -25q-109 1 -200 47t-144 123v-555h-195v1225l-14 270h178l25 -155q51 84 144 132t206 48q236 0 362 -147t127 -419q-1 -272 -127 -421
q-126 -148 -362 -148z" />
    <glyph glyph-name="q" unicode="q" horiz-adv-x="1251" 
d="M594 928q-137 0 -219 -100t-82 -284q0 -186 82 -286t219 -100q136 0 226 80t104 176v258q-14 98 -104 177t-226 79zM580 -25q-236 -1 -363 147t-127 420t127 420t363 148q114 0 206 -48t144 -132l24 155h179l-15 -270v-1225h-194v555q-53 -78 -144 -124t-200 -46z" />
    <glyph glyph-name="r" unicode="r" horiz-adv-x="847" 
d="M668 922q-132 0 -228 -79t-112 -177v-666h-195v817l-14 268h178l27 -165q47 84 138 137q90 53 190 53t155 -23l-19 -190q-44 25 -120 25z" />
    <glyph glyph-name="s" unicode="s" horiz-adv-x="1105" 
d="M834 319q0 84 -54 110t-196 40q-12 2 -22 2t-76 8q-67 8 -134 22q-68 13 -100 33t-72 49q-72 55 -73 179q-1 123 70 204q126 144 368 144q418 0 463 -324l-205 -24q-17 90 -77 134t-181 42q-238 -4 -238 -158q0 -56 46 -91q36 -27 238 -48q203 -21 286 -53
q159 -70 159 -253t-144 -271t-345 -89q-430 0 -473 326l205 27q18 -90 79 -137q62 -46 187 -44q289 8 289 172z" />
    <glyph glyph-name="t" unicode="t" horiz-adv-x="860" 
d="M47 920v165h197v291l194 33v-324h332v-165h-332v-512q0 -146 47 -198t158 -54q61 -2 125 26l18 -182q-66 -25 -166 -25t-182 34q-194 80 -194 386v525h-197z" />
    <glyph glyph-name="u" unicode="u" horiz-adv-x="1202" 
d="M115 1085h196v-708q0 -103 68 -161q67 -58 187 -58t209 81t102 175v671h194v-817l14 -268h-178l-24 154q-55 -82 -147 -130t-204 -49q-186 1 -302 97t-115 270v743z" />
    <glyph glyph-name="v" unicode="v" horiz-adv-x="1144" 
d="M477 -25l-448 1110h215l225 -604l102 -291l103 291l225 604h215l-448 -1110h-189z" />
    <glyph glyph-name="w" unicode="w" horiz-adv-x="1665" 
d="M1135 -25l-304 875l-303 -875h-192l-268 1110h198l125 -577l51 -262l88 262l201 577h201l201 -577l88 -262l51 262l125 577h198l-268 -1110h-192z" />
    <glyph glyph-name="x" unicode="x" horiz-adv-x="1142" 
d="M690 246l-119 166l-118 -166l-183 -246h-241l422 563l-80 103l-314 419h240l274 -385l275 385h239l-313 -419l-80 -103l422 -563h-242z" />
    <glyph glyph-name="y" unicode="y" horiz-adv-x="1150" 
d="M1126 1085l-440 -1013l-197 -482h-225l209 463l-448 1032h221l329 -829l330 829h221z" />
    <glyph glyph-name="z" unicode="z" horiz-adv-x="1120" 
d="M113 911v174h911v-143l-549 -610l-147 -160l256 2h458v-174h-968v145l544 607l152 161l-256 -2h-401z" />
    <glyph glyph-name="braceleft" unicode="{" horiz-adv-x="616" 
d="M553 -78h41v-188h-51q-342 0 -342 340v379q0 102 -34 138t-108 36h-43v180h43q74 0 108 36t34 138v379q0 340 342 340h51v-189h-41q-76 -1 -116 -37t-40 -137v-376q0 -170 -108 -244q109 -76 108 -244v-377q0 -100 40 -137t116 -37z" />
    <glyph glyph-name="bar" unicode="|" horiz-adv-x="585" 
d="M395 1700v-1966h-205v1966h205z" />
    <glyph glyph-name="braceright" unicode="}" horiz-adv-x="616" 
d="M63 1511h-43v189h52q344 0 344 -340v-379q0 -102 34 -138t107 -36h41v-180h-41q-73 0 -107 -36t-34 -138v-379q0 -340 -344 -340h-52v188h43q76 0 116 37t40 137v377q0 170 109 244q-109 76 -109 244v376q0 100 -40 137t-116 37z" />
    <glyph glyph-name="asciitilde" unicode="~" horiz-adv-x="995" 
d="M689 674q-52 0 -104 -38t-117 -77t-132 -39q-194 0 -279 142l80 126l2 -2q7 -14 23 -28t25 -22q42 -40 100 -40q94 0 178 77t207 77q84 0 150 -36t91 -71l23 -34l-80 -127q-6 10 -17 25t-55 41t-95 26z" />
    <glyph glyph-name="exclamdown" unicode="&#xa1;" horiz-adv-x="540" 
d="M393 -410h-246l58 1074h133zM385 1085v-227h-229v227h229z" />
    <glyph glyph-name="cent" unicode="&#xa2;" horiz-adv-x="1171" 
d="M293 780q0 -238 133 -336l180 730q-145 -4 -229 -106t-84 -288zM100 780q0 270 134 418t374 150q29 0 41 -2l56 219h182l-62 -248q217 -68 254 -305l-202 -25q-25 106 -97 148l-184 -748h12q229 -2 269 186l202 -24q-53 -336 -471 -336q-37 0 -55 2l-53 -215h-183l64 256
q-281 121 -281 524z" />
    <glyph glyph-name="sterling" unicode="&#xa3;" horiz-adv-x="1447" 
d="M1339 0h-1239v182h226v541h-226v180h226v209q0 229 133 353t389 124q465 0 491 -368l-200 -25q-25 219 -291 213q-328 -2 -328 -283v-223h475v-180h-475v-541h819v-182z" />
    <glyph glyph-name="yen" unicode="&#xa5;" horiz-adv-x="1462" 
d="M1239 371h-408v-371h-200v371h-410v155h410v109h-410v153h336l-530 801h229l322 -497l153 -242l473 739h232l-531 -801h334v-153h-408v-109h408v-155z" />
    <glyph glyph-name="brokenbar" unicode="&#xa6;" horiz-adv-x="585" 
d="M395 1700v-901h-205v901h205zM395 635v-901h-205v901h205z" />
    <glyph glyph-name="section" unicode="&#xa7;" horiz-adv-x="1316" 
d="M1239 592q0 -104 -61 -192q-61 -87 -164 -136q160 -84 160 -286t-156 -306q-156 -106 -396 -106t-377 103q-136 103 -161 290l209 25q20 -122 102 -180q83 -58 231 -56t244 57t96 170t-75 156q-76 41 -224 53t-218 24q-182 30 -267 105q-104 95 -104 283q0 104 61 192
q61 86 164 136q-160 84 -160 286t156 306q157 106 397 106t376 -103t161 -290l-209 -25q-20 123 -102 180q-82 58 -230 56t-246 -58q-96 -56 -96 -170t76 -155t224 -53t218 -24q70 -11 146 -38t121 -68q45 -42 75 -110t29 -172zM279 586q1 -123 77 -166t279 -62
q143 -12 266 40q61 26 99 79t38 125q0 123 -76 166q-77 43 -280 61q-141 12 -266 -39q-61 -26 -99 -79t-38 -125z" />
    <glyph glyph-name="dieresis" unicode="&#xa8;" 
d="M934 1536v-227h-229v227h229zM524 1536v-227h-229v227h229z" />
    <glyph glyph-name="copyright" unicode="&#xa9;" horiz-adv-x="1843" 
d="M285 799q0 -265 186 -451q187 -186 451 -186t450 186t186 450t-186 451t-450 187t-450 -186t-187 -451zM424 799q0 250 131 387t367 137q397 0 462 -346l-204 -27q-20 94 -80 142t-191 44q-129 -3 -207 -88t-78 -249t78 -249q76 -85 206 -88t191 44q60 47 81 141l204 -26
q-66 -346 -462 -347q-236 0 -367 138t-131 387zM98 799q0 339 242 581t582 242t582 -242t241 -582q0 -340 -242 -581q-241 -242 -581 -242t-582 242t-242 582z" />
    <glyph glyph-name="ordfeminine" unicode="&#xaa;" horiz-adv-x="917" 
d="M256 1024q0 -96 129 -96q100 2 174 56t78 122v72l-275 -45q-106 -19 -106 -109zM371 774q-153 0 -225 66t-72 184q0 119 86 174t248 78l229 33v24q0 135 -188 131q-147 -2 -166 -116l-174 22q18 118 96 184t248 66t263 -75t93 -224v-317l12 -205h-159l-15 92
q-41 -53 -117 -85t-159 -32z" />
    <glyph glyph-name="guillemotleft" unicode="&#xab;" horiz-adv-x="1064" 
d="M963 324v-158l-426 289v176l426 289v-158l-252 -219zM512 324v-158l-426 289v176l426 289v-158l-252 -219z" />
    <glyph glyph-name="registered" unicode="&#xae;" horiz-adv-x="1843" 
d="M285 799q0 -265 186 -451q187 -186 451 -186t450 186t186 450t-186 451t-450 187t-450 -186t-187 -451zM727 856h254q102 0 130 62q13 29 13 92q0 116 -143 114h-254v-268zM727 684v-385h-180v999h426q338 0 338 -307q0 -231 -199 -289l193 -403h-220l-165 385h-193z
M98 799q0 339 242 581t582 242t582 -242t241 -582q0 -340 -242 -581q-241 -242 -581 -242t-582 242t-242 582z" />
    <glyph glyph-name="macron" unicode="&#xaf;" 
d="M909 1335h-590v185h590v-185z" />
    <glyph glyph-name="macron" unicode="&#x2c9;" 
d="M909 1335h-590v185h590v-185z" />
    <glyph glyph-name="plusminus" unicode="&#xb1;" horiz-adv-x="1003" 
d="M907 293h-811v192h811v-192zM406 582v309h-310v192h310v310h192v-310h309v-192h-309v-309h-192z" />
    <glyph glyph-name="twosuperior" unicode="&#xb2;" horiz-adv-x="860" 
d="M434 1589q139 0 229 -67q89 -68 89 -178t-53 -168q-19 -23 -64 -48q-45 -26 -69 -34t-100 -36t-124 -63q-49 -35 -61 -86l180 4h307v-161h-676q-4 217 87 308q48 48 96 75q49 27 141 63t128 60t36 69q0 102 -142 103q-80 0 -120 -26t-48 -89l-176 14q25 260 340 260z" />
    <glyph glyph-name="threesuperior" unicode="&#xb3;" horiz-adv-x="872" 
d="M608 999q0 54 -30 77q-30 22 -129 22h-132v143h134q65 0 97 16t32 74q0 100 -144 101q-78 -2 -116 -28t-46 -89l-176 14q18 260 336 260q140 0 230 -60q90 -59 90 -185t-99 -170q51 -18 88 -66t37 -125q0 -119 -90 -187t-266 -69q-319 0 -342 266l174 15
q16 -121 172 -117q180 -4 180 108z" />
    <glyph glyph-name="acute" unicode="&#xb4;" 
d="M711 1638h229l-227 -426h-195z" />
    <glyph glyph-name="mu" unicode="&#xb5;" horiz-adv-x="1202" 
d="M309 -410h-194v1495h194v-696q0 -107 70 -169q69 -62 187 -62t207 82t99 174v671h197v-817l14 -268h-178l-24 154q-55 -82 -147 -130t-212 -48q-119 0 -217 51l4 -156v-281z" />
    <glyph glyph-name="paragraph" unicode="&#xb6;" horiz-adv-x="1347" 
d="M1184 0h-205v1409h-143v-1409h-144v641h-100q-207 0 -356 95q-78 50 -123 148t-45 236q0 371 334 456q87 22 192 21h590v-1597z" />
    <glyph glyph-name="periodcentered" unicode="&#xb7;" horiz-adv-x="491" 
d="M360 801v-228h-229v228h229z" />
    <glyph glyph-name="cedilla" unicode="&#xb8;" 
d="M844 -258q0 -88 -70 -132t-182 -44t-186 37l34 108q53 -29 113 -28q115 0 115 61q0 82 -179 100l62 179h137l-26 -95q182 -43 182 -186z" />
    <glyph glyph-name="onesuperior" unicode="&#xb9;" horiz-adv-x="608" 
d="M403 752h-172v594q-57 -51 -176 -80v170q76 30 120 62t91 91h137v-837z" />
    <glyph glyph-name="ordmasculine" unicode="&#xba;" horiz-adv-x="962" 
d="M481 774q-182 0 -286 110q-105 110 -105 314t104 314t287 110t287 -110t104 -314t-104 -314t-287 -110zM481 934q215 0 215 264t-215 264t-215 -264t215 -264z" />
    <glyph glyph-name="guillemotright" unicode="&#xbb;" horiz-adv-x="1064" 
d="M102 166v158l252 219l-252 219v158l426 -289v-176zM553 166v158l252 219l-252 219v158l426 -289v-176z" />
    <glyph glyph-name="onequarter" unicode="&#xbc;" horiz-adv-x="1767" 
d="M1384 322v167l2 82l-169 -249h167zM1700 160h-144v-160h-172v160h-374v121l397 557h149v-516h144v-162zM1473 1565l-1061 -1565h-213l1061 1565h213zM403 750h-172v596q-57 -51 -176 -80v170q76 30 120 62t91 91h137v-839z" />
    <glyph glyph-name="onehalf" unicode="&#xbd;" horiz-adv-x="1888" 
d="M1460 838q138 0 228 -68t90 -178t-53 -168q-39 -47 -173 -97q-135 -49 -184 -83t-61 -86l180 4h307v-162h-676q-4 217 87 308q49 48 97 75t140 63t128 60q36 25 36 69q0 102 -142 103q-80 0 -120 -26t-48 -89l-176 15q25 260 340 260zM403 750h-172v596q-57 -51 -176 -80
v170q76 30 120 62t91 91h137v-839zM201 0l1059 1565h215l-1061 -1565h-213z" />
    <glyph glyph-name="threequarters" unicode="&#xbe;" horiz-adv-x="2025" 
d="M1645 322v167l2 82l-170 -249h168zM1960 160h-143v-160h-172v160h-375v121l397 557h150v-516h143v-162zM608 999q0 54 -30 77q-30 22 -129 22h-132v143h134q65 0 97 16t32 74q0 100 -144 101q-78 -2 -116 -28t-46 -89l-176 14q18 260 336 260q140 0 230 -60
q90 -59 90 -185t-99 -170q51 -18 88 -66t37 -125q0 -119 -90 -187t-266 -69q-319 0 -342 266l174 15q16 -121 172 -117q180 -4 180 108zM1733 1565l-1061 -1565h-213l1061 1565h213z" />
    <glyph glyph-name="questiondown" unicode="&#xbf;" horiz-adv-x="1142" 
d="M739 1085v-227h-229v227h229zM725 662q37 -100 37 -185t-38 -138q-38 -54 -81 -77q-43 -24 -65 -34t-63 -27q-40 -16 -60 -27q-152 -72 -152 -203q0 -219 293 -219q147 0 226 60t100 200l204 -20q-57 -426 -530 -426q-227 0 -366 106q-138 106 -138 299q0 99 38 177
q53 120 263 205q80 32 119 53q84 44 84 126q0 50 -18 130h147z" />
    <glyph glyph-name="Agrave" unicode="&#xc0;" horiz-adv-x="1486" 
d="M1004 641l-261 719l-260 -719h521zM27 0l616 1620h201l616 -1620h-221l-170 461h-651l-170 -461h-221zM414 2109h229l193 -426h-195z" />
    <glyph glyph-name="Aacute" unicode="&#xc1;" horiz-adv-x="1486" 
d="M1004 641l-261 719l-260 -719h521zM27 0l616 1620h201l616 -1620h-221l-170 461h-651l-170 -461h-221zM844 2109h229l-227 -426h-195z" />
    <glyph glyph-name="Acircumflex" unicode="&#xc2;" horiz-adv-x="1486" 
d="M1004 641l-261 719l-260 -719h521zM27 0l616 1620h201l616 -1620h-221l-170 461h-651l-170 -461h-221zM1149 1683h-199l-207 259l-204 -259h-199l311 426h187z" />
    <glyph glyph-name="Atilde" unicode="&#xc3;" horiz-adv-x="1486" 
d="M905 1880q-39 0 -79 -37t-96 -75t-120 -38t-108 16q-81 27 -142 122l-6 16l95 115q41 -80 129 -84h4q39 0 80 37q41 38 96 74q56 36 120 36t118 -18t104 -80q18 -23 33 -53l-93 -119q-45 88 -135 88zM1004 641l-261 719l-260 -719h521zM27 0l616 1620h201l616 -1620h-221
l-170 461h-651l-170 -461h-221z" />
    <glyph glyph-name="Adieresis" unicode="&#xc4;" horiz-adv-x="1486" 
d="M1004 641l-261 719l-260 -719h521zM27 0l616 1620h201l616 -1620h-221l-170 461h-651l-170 -461h-221zM1063 2005v-227h-229v227h229zM653 2005v-227h-229v227h229z" />
    <glyph glyph-name="Aring" unicode="&#xc5;" horiz-adv-x="1486" 
d="M1004 641l-261 719l-260 -719h521zM27 0l616 1620h201l616 -1620h-221l-170 461h-651l-170 -461h-221zM743 1995q-43 0 -69 -28t-27 -72q0 -43 26 -71q27 -28 71 -28t70 28t26 72t-27 71q-27 28 -70 28zM508 1895q0 105 62 171t173 66t175 -66t63 -171q0 -105 -63 -171
q-62 -66 -174 -66t-174 66t-62 171z" />
    <glyph glyph-name="AE" unicode="&#xc6;" horiz-adv-x="2338" 
d="M1083 911v351l-139 -215l-92 -136h231zM2183 1597v-188h-895v-498h807v-186h-807v-537h936v-188h-1141v727h-354l-489 -727h-240l1083 1597h1100z" />
    <glyph glyph-name="Ccedilla" unicode="&#xc7;" horiz-adv-x="1550" 
d="M123 810q0 378 172 595t524 217q287 0 442 -120t181 -328l-209 -23q-23 147 -123 216t-291 69q-485 0 -485 -637t485 -637q190 0 291 68q100 69 123 216l209 -22q-27 -196 -165 -314t-396 -133l-13 -49q182 -43 183 -186q0 -88 -70 -132q-71 -44 -183 -44t-186 37l35 108
q53 -29 113 -28q115 0 114 61q0 82 -178 100l45 136q-313 23 -466 237q-152 215 -152 593z" />
    <glyph glyph-name="Egrave" unicode="&#xc8;" horiz-adv-x="1419" 
d="M399 2109h230l192 -426h-194zM164 1597h1100v-188h-895v-498h807v-186h-807v-537h936v-188h-1141v1597z" />
    <glyph glyph-name="Eacute" unicode="&#xc9;" horiz-adv-x="1419" 
d="M807 2109h229l-227 -426h-195zM164 1597h1100v-188h-895v-498h807v-186h-807v-537h936v-188h-1141v1597z" />
    <glyph glyph-name="Ecircumflex" unicode="&#xca;" horiz-adv-x="1419" 
d="M616 2109h189l311 -426h-198l-207 261l-207 -261h-199zM164 1597h1100v-188h-895v-498h807v-186h-807v-537h936v-188h-1141v1597z" />
    <glyph glyph-name="Edieresis" unicode="&#xcb;" horiz-adv-x="1419" 
d="M1030 2007v-227h-229v227h229zM621 2007v-227h-230v227h230zM164 1597h1100v-188h-895v-498h807v-186h-807v-537h936v-188h-1141v1597z" />
    <glyph glyph-name="Igrave" unicode="&#xcc;" horiz-adv-x="606" 
d="M-8 2109h229l193 -426h-195zM406 1597v-1597h-205v1597h205z" />
    <glyph glyph-name="Iacute" unicode="&#xcd;" horiz-adv-x="606" 
d="M399 2109h230l-228 -426h-194zM406 1597v-1597h-205v1597h205z" />
    <glyph glyph-name="Icircumflex" unicode="&#xce;" horiz-adv-x="606" 
d="M209 2109h188l312 -426h-199l-207 261l-207 -261h-198zM406 1597v-1597h-205v1597h205z" />
    <glyph glyph-name="Idieresis" unicode="&#xcf;" horiz-adv-x="606" 
d="M623 2007v-227h-230v227h230zM213 2007v-227h-229v227h229zM406 1597v-1597h-205v1597h205z" />
    <glyph glyph-name="Eth" unicode="&#xd0;" horiz-adv-x="1675" 
d="M479 188h342q276 0 401 158q124 158 124 453t-124 453t-401 157h-342v-498h445v-186h-445v-537zM821 0h-547v725h-235v186h235v686h547q367 1 551 -195t184 -604t-184 -602q-184 -196 -551 -196z" />
    <glyph glyph-name="Ntilde" unicode="&#xd1;" horiz-adv-x="1544" 
d="M904 2064q124 0 180 -53q57 -53 77 -100l-94 -117q-41 82 -129 86q-41 2 -82 -35t-96 -75q-56 -38 -120 -38q-123 1 -180 54q-42 38 -71 82l-6 16l94 119q13 -32 50 -59q38 -27 79 -29t82 36q41 37 96 75t120 38zM1174 1597h206v-1597h-186l-653 965l-176 272l6 -481
v-756h-207v1597h186l654 -964l176 -273l-6 482v755z" />
    <glyph glyph-name="Ograve" unicode="&#xd2;" horiz-adv-x="1638" 
d="M508 2109h229l193 -426h-195zM819 1436q-483 0 -483 -637t483 -637t484 637q-1 637 -484 637zM819 -25q-354 -1 -525 217t-171 607t171 606t525 217q353 0 525 -217t172 -606t-172 -607t-525 -217z" />
    <glyph glyph-name="Oacute" unicode="&#xd3;" horiz-adv-x="1638" 
d="M915 2109h230l-227 -426h-195zM819 1436q-483 0 -483 -637t483 -637t484 637q-1 637 -484 637zM819 -25q-354 -1 -525 217t-171 607t171 606t525 217q353 0 525 -217t172 -606t-172 -607t-525 -217z" />
    <glyph glyph-name="Ocircumflex" unicode="&#xd4;" horiz-adv-x="1638" 
d="M725 2109h188l312 -426h-199l-207 261l-207 -261h-198zM819 -25q-354 -1 -525 217t-171 607t171 606t525 217q353 0 525 -217t172 -606t-172 -607t-525 -217zM819 1436q-483 0 -483 -637t483 -637t484 637q-1 637 -484 637z" />
    <glyph glyph-name="Otilde" unicode="&#xd5;" horiz-adv-x="1638" 
d="M951 2064q65 0 119 -18t106 -82q6 -8 32 -53l-94 -117q-41 82 -129 86q-41 2 -82 -35t-96 -75t-119 -38t-120 19q-55 18 -105 80q-18 23 -33 53l94 117q41 -82 129 -86q41 -2 82 36q41 37 96 75t120 38zM819 1436q-483 0 -483 -637t483 -637t484 637q-1 637 -484 637z
M819 -25q-354 -1 -525 217t-171 607t171 606t525 217q353 0 525 -217t172 -606t-172 -607t-525 -217z" />
    <glyph glyph-name="Odieresis" unicode="&#xd6;" horiz-adv-x="1638" 
d="M1139 2007v-227h-230v227h230zM729 2007v-227h-229v227h229zM819 -25q-354 -1 -525 217t-171 607t171 606t525 217q353 0 525 -217t172 -606t-172 -607t-525 -217zM819 1436q-483 0 -483 -637t483 -637t484 637q-1 637 -484 637z" />
    <glyph glyph-name="multiply" unicode="&#xd7;" horiz-adv-x="1003" 
d="M127 561l240 238l-240 237l137 138l238 -240l237 240l138 -138l-240 -237l240 -238l-138 -137l-237 240l-238 -240z" />
    <glyph glyph-name="Oslash" unicode="&#xd8;" horiz-adv-x="1638" 
d="M336 799q0 -295 102 -455l668 1012q-113 80 -287 80q-483 0 -483 -637zM1303 799q0 295 -103 454l-668 -1011q113 -80 287 -80q484 0 484 637zM1516 818q0 -408 -171 -625t-526 -218q-236 0 -395 103l-51 -78h-162l108 164q-197 208 -197 616t172 625q171 217 525 217
q236 0 395 -102l52 77h161l-108 -163q197 -208 197 -616z" />
    <glyph glyph-name="Ugrave" unicode="&#xd9;" horiz-adv-x="1581" 
d="M479 2109h230l192 -426h-194zM791 -25q-643 0 -644 603v1019h209v-1022q0 -306 215 -382q87 -31 219 -31q261 0 353 122q80 107 82 291v1022h209v-1019q0 -603 -643 -603z" />
    <glyph glyph-name="Uacute" unicode="&#xda;" horiz-adv-x="1581" 
d="M887 2109h229l-227 -426h-195zM791 -25q-643 0 -644 603v1019h209v-1022q0 -306 215 -382q87 -31 219 -31q261 0 353 122q80 107 82 291v1022h209v-1019q0 -603 -643 -603z" />
    <glyph glyph-name="Ucircumflex" unicode="&#xdb;" horiz-adv-x="1581" 
d="M696 2109h189l311 -426h-199l-206 261l-207 -261h-199zM791 -25q-643 0 -644 603v1019h209v-1022q0 -306 215 -382q87 -31 219 -31q261 0 353 122q80 107 82 291v1022h209v-1019q0 -603 -643 -603z" />
    <glyph glyph-name="Udieresis" unicode="&#xdc;" horiz-adv-x="1581" 
d="M1110 2007v-227h-229v227h229zM700 2007v-227h-229v227h229zM791 -25q-643 0 -644 603v1019h209v-1022q0 -306 215 -382q87 -31 219 -31q261 0 353 122q80 107 82 291v1022h209v-1019q0 -603 -643 -603z" />
    <glyph glyph-name="Yacute" unicode="&#xdd;" horiz-adv-x="1495" 
d="M844 2109h229l-227 -426h-195zM850 0h-205v664l-620 933h235l305 -469l183 -288l182 288l305 469h235l-620 -933v-664z" />
    <glyph glyph-name="Thorn" unicode="&#xde;" horiz-adv-x="1351" 
d="M369 1090v-582h407q107 0 189 48q100 60 100 242t-100 243q-79 47 -189 49h-407zM1280 799q0 -137 -45 -235t-123 -149q-150 -96 -356 -96h-387v-319h-205v1597h205v-319h387q205 0 356 -95q78 -51 123 -149t45 -235z" />
    <glyph glyph-name="germandbls" unicode="&#xdf;" horiz-adv-x="1341" 
d="M694 1663q209 0 342 -94t133 -277t-132 -270q-45 -31 -67 -40t-86 -35t-95 -49q-48 -35 -49 -90t18 -78q20 -24 36 -33q17 -9 27 -14t32 -12l33 -11q41 -13 83 -24q170 -45 237 -120q68 -75 68 -197q0 -167 -109 -255t-298 -88t-276 87q-87 88 -104 244l201 25
q10 -86 53 -133t139 -46t143 39q46 38 46 118q0 81 -52 115t-131 52t-145 40t-110 62q-92 84 -90 199q0 165 103 238q52 37 79 50t99 41t110 67q37 39 37 118q0 195 -275 195q-219 0 -282 -122q-33 -62 -43 -127t-11 -165v-1073h-194v1085q0 301 120 439t410 139z" />
    <glyph glyph-name="agrave" unicode="&#xe0;" horiz-adv-x="1189" 
d="M289 1638h229l193 -426h-195zM295 303q0 -156 197 -156q141 -2 247 80t125 181v127l-334 -54q-119 -18 -177 -56t-58 -122zM590 1110q224 0 346 -99q123 -99 123 -298v-443l14 -270h-178l-25 156q-55 -86 -161 -133t-230 -48q-197 0 -293 85t-96 241q0 155 106 229
t316 105l352 51v41q0 111 -67 160q-68 49 -198 52t-186 -43t-75 -140l-203 28q25 156 128 241t327 85z" />
    <glyph glyph-name="aacute" unicode="&#xe1;" horiz-adv-x="1189" 
d="M696 1638h230l-228 -426h-194zM295 303q0 -156 197 -156q141 -2 247 80t125 181v127l-334 -54q-119 -18 -177 -56t-58 -122zM590 1110q224 0 346 -99q123 -99 123 -298v-443l14 -270h-178l-25 156q-55 -86 -161 -133t-230 -48q-197 0 -293 85t-96 241q0 155 106 229
t316 105l352 51v41q0 111 -67 160q-68 49 -198 52t-186 -43t-75 -140l-203 28q25 156 128 241t327 85z" />
    <glyph glyph-name="acircumflex" unicode="&#xe2;" horiz-adv-x="1189" 
d="M506 1638h188l312 -426h-199l-207 261l-207 -261h-198zM295 303q0 -156 197 -156q141 -2 247 80t125 181v127l-334 -54q-119 -18 -177 -56t-58 -122zM590 1110q224 0 346 -99q123 -99 123 -298v-443l14 -270h-178l-25 156q-55 -86 -161 -133t-230 -48q-197 0 -293 85
t-96 241q0 155 106 229t316 105l352 51v41q0 111 -67 160q-68 49 -198 52t-186 -43t-75 -140l-203 28q25 156 128 241t327 85z" />
    <glyph glyph-name="atilde" unicode="&#xe3;" horiz-adv-x="1189" 
d="M732 1593q124 0 180 -53q57 -53 77 -100l-94 -117q-4 9 -12 23t-42 38t-75 25q-41 2 -82 -35t-96 -75q-56 -37 -120 -37q-123 1 -180 53q-42 38 -71 82l-6 16l94 119q13 -32 50 -59q38 -27 79 -29t82 36t96 76q56 38 120 37zM295 303q0 -156 197 -156q141 -2 247 80
t125 181v127l-334 -54q-119 -18 -177 -56t-58 -122zM590 1110q224 0 346 -99q123 -99 123 -298v-443l14 -270h-178l-25 156q-55 -86 -161 -133t-230 -48q-197 0 -293 85t-96 241q0 155 106 229t316 105l352 51v41q0 111 -67 160q-68 49 -198 52t-186 -43t-75 -140l-203 28
q25 156 128 241t327 85z" />
    <glyph glyph-name="adieresis" unicode="&#xe4;" horiz-adv-x="1189" 
d="M920 1536v-227h-230v227h230zM510 1536v-227h-229v227h229zM295 303q0 -156 197 -156q141 -2 247 80t125 181v127l-334 -54q-119 -18 -177 -56t-58 -122zM590 1110q224 0 346 -99q123 -99 123 -298v-443l14 -270h-178l-25 156q-55 -86 -161 -133t-230 -48q-197 0 -293 85
t-96 241q0 155 106 229t316 105l352 51v41q0 111 -67 160q-68 49 -198 52t-186 -43t-75 -140l-203 28q25 156 128 241t327 85z" />
    <glyph glyph-name="aring" unicode="&#xe5;" horiz-adv-x="1189" 
d="M696 1425q0 45 -25 72q-26 27 -71 27t-71 -27q-25 -27 -25 -72t26 -71t70 -27q44 1 70 27t26 71zM362 1425q0 104 64 171t174 67q111 0 174 -67q64 -67 64 -171t-64 -171q-64 -66 -174 -66t-174 66t-64 171zM295 303q0 -156 197 -156q141 -2 247 80t125 181v127l-334 -54
q-119 -18 -177 -56t-58 -122zM590 1110q224 0 346 -99q123 -99 123 -298v-443l14 -270h-178l-25 156q-55 -86 -161 -133t-230 -48q-197 0 -293 85t-96 241q0 155 106 229t316 105l352 51v41q0 111 -67 160q-68 49 -198 52t-186 -43t-75 -140l-203 28q25 156 128 241t327 85z
" />
    <glyph glyph-name="ae" unicode="&#xe6;" horiz-adv-x="1966" 
d="M1657 629q-8 314 -277 312q-135 -1 -217 -79t-92 -233h586zM1386 -25q-301 0 -428 220q-154 -219 -475 -220q-199 0 -296 85t-97 244t124 242t329 83h321v92q0 117 -66 166q-67 49 -197 52t-187 -43t-76 -140l-203 28q25 156 128 241t325 85q293 0 395 -174
q133 174 387 174q498 0 498 -565v-82h-799q20 -315 315 -316q233 -6 271 172l205 -24q-20 -141 -136 -231t-338 -89zM547 463q-246 0 -246 -158t197 -158q147 -2 252 82q104 84 114 183v51h-317z" />
    <glyph glyph-name="ccedilla" unicode="&#xe7;" horiz-adv-x="1150" 
d="M283 543q0 -185 84 -287t231 -106q229 -2 268 186l203 -25q-49 -309 -403 -334l-15 -49q182 -43 183 -186q0 -88 -70 -132t-182 -44t-187 37l35 108q53 -29 113 -28q115 0 114 61q0 82 -178 100l45 136q-206 24 -320 168t-114 404t134 410q134 148 374 148
q418 0 471 -336l-203 -24q-39 188 -268 186q-147 -4 -231 -106t-84 -287z" />
    <glyph glyph-name="egrave" unicode="&#xe8;" horiz-adv-x="1191" 
d="M295 1638h229l193 -426h-195zM883 629q-8 314 -277 312q-135 -1 -217 -79t-92 -233h586zM1094 463h-799q20 -315 315 -316q233 -6 271 172l204 -24q-20 -141 -136 -230q-117 -89 -351 -89t-371 144t-137 423t136 423t380 144t366 -145t122 -420v-82z" />
    <glyph glyph-name="eacute" unicode="&#xe9;" horiz-adv-x="1191" 
d="M702 1638h230l-227 -426h-195zM883 629q-8 314 -277 312q-135 -1 -217 -79t-92 -233h586zM1094 463h-799q20 -315 315 -316q233 -6 271 172l204 -24q-20 -141 -136 -230q-117 -89 -351 -89t-371 144t-137 423t136 423t380 144t366 -145t122 -420v-82z" />
    <glyph glyph-name="ecircumflex" unicode="&#xea;" horiz-adv-x="1191" 
d="M512 1638h188l312 -426h-199l-207 261l-207 -261h-198zM883 629q-8 314 -277 312q-135 -1 -217 -79t-92 -233h586zM1094 463h-799q20 -315 315 -316q233 -6 271 172l204 -24q-20 -141 -136 -230q-117 -89 -351 -89t-371 144t-137 423t136 423t380 144t366 -145t122 -420
v-82z" />
    <glyph glyph-name="edieresis" unicode="&#xeb;" horiz-adv-x="1191" 
d="M926 1536v-227h-230v227h230zM516 1536v-227h-229v227h229zM883 629q-8 314 -277 312q-135 -1 -217 -79t-92 -233h586zM1094 463h-799q20 -315 315 -316q233 -6 271 172l204 -24q-20 -141 -136 -230q-117 -89 -351 -89t-371 144t-137 423t136 423t380 144t366 -145
t122 -420v-82z" />
    <glyph glyph-name="igrave" unicode="&#xec;" horiz-adv-x="528" 
d="M-47 1638h229l193 -426h-195zM166 0v1085h196v-1085h-196z" />
    <glyph glyph-name="iacute" unicode="&#xed;" horiz-adv-x="528" 
d="M360 1638h230l-228 -426h-194zM166 0v1085h196v-1085h-196z" />
    <glyph glyph-name="icircumflex" unicode="&#xee;" horiz-adv-x="528" 
d="M170 1638h188l312 -426h-199l-207 261l-207 -261h-198zM166 0v1085h196v-1085h-196z" />
    <glyph glyph-name="idieresis" unicode="&#xef;" horiz-adv-x="528" 
d="M584 1536v-227h-230v227h230zM174 1536v-227h-229v227h229zM166 0v1085h196v-1085h-196z" />
    <glyph glyph-name="eth" unicode="&#xf0;" horiz-adv-x="1206" 
d="M604 930q-313 0 -313 -388t313 -388t313 388t-313 388zM90 543q0 279 134 423t376 144q141 0 244 -76q-53 168 -187 305l-346 -129v142l236 88q-133 100 -367 198h338q115 -55 211 -131l262 99v-142l-157 -59q281 -303 280 -862q0 -279 -135 -423t-377 -144t-377 144
t-135 423z" />
    <glyph glyph-name="ntilde" unicode="&#xf1;" horiz-adv-x="1202" 
d="M744 1593q64 0 119 -18q54 -18 106 -82q21 -26 32 -53l-94 -117q-4 9 -12 23t-42 38t-75 25q-41 2 -82 -35t-96 -75q-56 -37 -120 -37t-109 15q-83 28 -142 120l-6 16l94 117q41 -82 129 -86q41 -2 82 36q40 38 96 76t120 37zM672 1110q186 0 302 -96t116 -271v-743h-197
v709q0 104 -68 161q-67 58 -187 58t-209 -81t-101 -175v-672h-195v817l-14 268h178l25 -153q55 82 147 130t203 48z" />
    <glyph glyph-name="ograve" unicode="&#xf2;" horiz-adv-x="1208" 
d="M604 -25q-242 1 -377 145t-135 423t135 423t377 144t377 -144t135 -423t-135 -423t-377 -145zM604 152q147 0 232 95q84 95 84 296t-84 296t-232 95t-231 -95q-84 -95 -84 -296t84 -296t231 -95zM293 1638h229l193 -426h-195z" />
    <glyph glyph-name="oacute" unicode="&#xf3;" horiz-adv-x="1208" 
d="M604 -25q-242 1 -377 145t-135 423t135 423t377 144t377 -144t135 -423t-135 -423t-377 -145zM604 152q147 0 232 95q84 95 84 296t-84 296t-232 95t-231 -95q-84 -95 -84 -296t84 -296t231 -95zM700 1638h230l-228 -426h-194z" />
    <glyph glyph-name="ocircumflex" unicode="&#xf4;" horiz-adv-x="1208" 
d="M604 -25q-242 1 -377 145t-135 423t135 423t377 144t377 -144t135 -423t-135 -423t-377 -145zM604 152q147 0 232 95q84 95 84 296t-84 296t-232 95t-231 -95q-84 -95 -84 -296t84 -296t231 -95zM510 1638h188l312 -426h-199l-207 261l-207 -261h-198z" />
    <glyph glyph-name="otilde" unicode="&#xf5;" horiz-adv-x="1208" 
d="M604 -25q-242 1 -377 145t-135 423t135 423t377 144t377 -144t135 -423t-135 -423t-377 -145zM604 152q147 0 232 95q84 95 84 296t-84 296t-232 95t-231 -95q-84 -95 -84 -296t84 -296t231 -95zM736 1593q124 0 180 -53q57 -53 77 -100l-94 -117q-41 82 -129 86
q-41 2 -82 -35t-96 -75q-56 -37 -120 -37q-123 1 -180 53q-42 38 -71 82l-6 16l94 117q41 -82 129 -86q41 -2 82 36t96 76t120 37z" />
    <glyph glyph-name="odieresis" unicode="&#xf6;" horiz-adv-x="1208" 
d="M604 -25q-242 1 -377 145t-135 423t135 423t377 144t377 -144t135 -423t-135 -423t-377 -145zM604 152q147 0 232 95q84 95 84 296t-84 296t-232 95t-231 -95q-84 -95 -84 -296t84 -296t231 -95zM924 1536v-227h-230v227h230zM514 1536v-227h-229v227h229z" />
    <glyph glyph-name="divide" unicode="&#xf7;" horiz-adv-x="1003" 
d="M618 1270v-236h-233v236h233zM618 563v-235h-233v235h233zM907 702h-811v193h811v-193z" />
    <glyph glyph-name="oslash" unicode="&#xf8;" horiz-adv-x="1208" 
d="M604 934q-147 0 -231 -95t-84 -279t61 -281l418 616q-66 39 -164 39zM1116 547q0 -283 -135 -427t-377 -145q-154 0 -268 62l-25 -37h-149l76 111q-146 145 -146 428t135 427t377 144q154 0 268 -61l25 36h150l-76 -110q145 -145 145 -428zM604 152q147 0 232 95
q84 95 84 279t-62 281l-418 -617q66 -38 164 -38z" />
    <glyph glyph-name="ugrave" unicode="&#xf9;" horiz-adv-x="1202" 
d="M279 1638h229l192 -426h-194zM115 1085h196v-708q0 -103 68 -161q67 -58 187 -58t209 81t102 175v671h194v-817l14 -268h-178l-24 154q-55 -82 -147 -130t-204 -49q-186 1 -302 97t-115 270v743z" />
    <glyph glyph-name="uacute" unicode="&#xfa;" horiz-adv-x="1202" 
d="M686 1638h229l-227 -426h-194zM115 1085h196v-708q0 -103 68 -161q67 -58 187 -58t209 81t102 175v671h194v-817l14 -268h-178l-24 154q-55 -82 -147 -130t-204 -49q-186 1 -302 97t-115 270v743z" />
    <glyph glyph-name="ucircumflex" unicode="&#xfb;" horiz-adv-x="1202" 
d="M496 1638h188l311 -426h-198l-207 261l-207 -261h-199zM115 1085h196v-708q0 -103 68 -161q67 -58 187 -58t209 81t102 175v671h194v-817l14 -268h-178l-24 154q-55 -82 -147 -130t-204 -49q-186 1 -302 97t-115 270v743z" />
    <glyph glyph-name="udieresis" unicode="&#xfc;" horiz-adv-x="1202" 
d="M909 1536v-227h-229v227h229zM500 1536v-227h-230v227h230zM115 1085h196v-708q0 -103 68 -161q67 -58 187 -58t209 81t102 175v671h194v-817l14 -268h-178l-24 154q-55 -82 -147 -130t-204 -49q-186 1 -302 97t-115 270v743z" />
    <glyph glyph-name="yacute" unicode="&#xfd;" horiz-adv-x="1150" 
d="M672 1638h229l-227 -426h-195zM1126 1085l-440 -1013l-197 -482h-225l209 463l-448 1032h221l329 -829l330 829h221z" />
    <glyph glyph-name="thorn" unicode="&#xfe;" horiz-adv-x="1251" 
d="M657 158q137 0 220 100q81 100 81 284t-81 285t-219 101t-227 -80t-103 -176v-258q14 -96 103 -176t226 -80zM1161 543q0 -271 -127 -419t-362 -149q-109 1 -200 47t-144 123v-555h-195v2048h195v-698q53 78 144 124t200 46q236 0 362 -148t127 -419z" />
    <glyph glyph-name="ydieresis" unicode="&#xff;" horiz-adv-x="1150" 
d="M895 1536v-227h-229v227h229zM485 1536v-227h-229v227h229zM1126 1085l-440 -1013l-197 -482h-225l209 463l-448 1032h221l329 -829l330 829h221z" />
    <glyph glyph-name="Amacron" unicode="&#x100;" horiz-adv-x="1486" 
d="M1004 641l-261 719l-260 -719h521zM27 0l616 1620h201l616 -1620h-221l-170 461h-651l-170 -461h-221zM449 1804v185h589v-185h-589z" />
    <glyph glyph-name="amacron" unicode="&#x101;" horiz-adv-x="1189" 
d="M895 1335h-590v185h590v-185zM295 303q0 -156 197 -156q141 -2 247 80t125 181v127l-334 -54q-119 -18 -177 -56t-58 -122zM590 1110q224 0 346 -99q123 -99 123 -298v-443l14 -270h-178l-25 156q-55 -86 -161 -133t-230 -48q-197 0 -293 85t-96 241q0 155 106 229
t316 105l352 51v41q0 111 -67 160q-68 49 -198 52t-186 -43t-75 -140l-203 28q25 156 128 241t327 85z" />
    <glyph glyph-name="Abreve" unicode="&#x102;" horiz-adv-x="1486" 
d="M743 1690q-209 0 -297 105t-86 314h160q-2 -135 50 -191t173 -56t173 56t51 191h159q2 -209 -86 -314t-297 -105zM1004 641l-261 719l-260 -719h521zM27 0l616 1620h201l616 -1620h-221l-170 461h-651l-170 -461h-221z" />
    <glyph glyph-name="abreve" unicode="&#x103;" horiz-adv-x="1189" 
d="M600 1219q-209 0 -297 105t-86 314h160q-2 -135 50 -191t173 -56t173 56t50 191h160q2 -209 -86 -314t-297 -105zM295 303q0 -156 197 -156q141 -2 247 80t125 181v127l-334 -54q-119 -18 -177 -56t-58 -122zM590 1110q224 0 346 -99q123 -99 123 -298v-443l14 -270h-178
l-25 156q-55 -86 -161 -133t-230 -48q-197 0 -293 85t-96 241q0 155 106 229t316 105l352 51v41q0 111 -67 160q-68 49 -198 52t-186 -43t-75 -140l-203 28q25 156 128 241t327 85z" />
    <glyph glyph-name="Aogonek" unicode="&#x104;" horiz-adv-x="1486" 
d="M1004 641l-261 719l-260 -719h521zM1202 -201q0 -82 94 -82q60 0 134 33q8 4 8 6l45 -137q-81 -51 -197 -51t-184 52t-68 161q0 160 187 268l-152 412h-651l-170 -461h-221l616 1620h201l616 -1620q-104 -12 -181 -72t-77 -129z" />
    <glyph glyph-name="aogonek" unicode="&#x105;" horiz-adv-x="1189" 
d="M295 303q0 -156 197 -156q141 -2 247 80t125 181v127l-334 -54q-119 -18 -177 -56t-58 -122zM590 1110q224 0 346 -99q123 -99 123 -298v-443l14 -270q-104 -12 -181 -72t-77 -131q0 -82 94 -82q33 0 86 17t56 22l45 -137q-82 -51 -198 -51t-183 52q-68 52 -68 150
q0 193 236 306l-13 82q-55 -86 -161 -133t-230 -48q-197 0 -293 85t-96 241q0 155 106 229t316 105l352 51v41q0 111 -67 160q-68 49 -198 52t-186 -43t-75 -140l-203 28q25 156 128 241t327 85z" />
    <glyph glyph-name="Cacute" unicode="&#x106;" horiz-adv-x="1550" 
d="M897 2109h229l-227 -426h-194zM123 799q0 389 172 606t524 217q287 0 442 -120t181 -328l-209 -23q-23 147 -123 216t-291 69q-485 0 -485 -637t485 -637q190 0 291 68q100 69 123 216l209 -22q-28 -209 -182 -329t-441 -120q-352 -1 -524 217t-172 607z" />
    <glyph glyph-name="cacute" unicode="&#x107;" horiz-adv-x="1150" 
d="M283 543q0 -185 84 -287t231 -106q229 -2 268 186l203 -25q-53 -336 -471 -336q-240 1 -374 149t-134 418t134 420q134 148 374 148q418 0 471 -336l-203 -24q-39 188 -268 186q-147 -4 -231 -106t-84 -287zM694 1638h230l-228 -426h-194z" />
    <glyph glyph-name="Ccircumflex" unicode="&#x108;" horiz-adv-x="1550" 
d="M707 2109h188l311 -426h-198l-207 261l-207 -261h-199zM123 799q0 389 172 606t524 217q287 0 442 -120t181 -328l-209 -23q-23 147 -123 216t-291 69q-485 0 -485 -637t485 -637q190 0 291 68q100 69 123 216l209 -22q-28 -209 -182 -329t-441 -120q-352 -1 -524 217
t-172 607z" />
    <glyph glyph-name="ccircumflex" unicode="&#x109;" horiz-adv-x="1150" 
d="M283 543q0 -185 84 -287t231 -106q229 -2 268 186l203 -25q-53 -336 -471 -336q-240 1 -374 149t-134 418t134 420q134 148 374 148q418 0 471 -336l-203 -24q-39 188 -268 186q-147 -4 -231 -106t-84 -287zM504 1638h188l312 -426h-199l-207 261l-207 -261h-198z" />
    <glyph glyph-name="Cdotaccent" unicode="&#x10a;" horiz-adv-x="1550" 
d="M915 2007v-227h-229v227h229zM123 799q0 389 172 606t524 217q287 0 442 -120t181 -328l-209 -23q-23 147 -123 216t-291 69q-485 0 -485 -637t485 -637q190 0 291 68q100 69 123 216l209 -22q-28 -209 -182 -329t-441 -120q-352 -1 -524 217t-172 607z" />
    <glyph glyph-name="cdotaccent" unicode="&#x10b;" horiz-adv-x="1150" 
d="M283 543q0 -185 84 -287t231 -106q229 -2 268 186l203 -25q-53 -336 -471 -336q-240 1 -374 149t-134 418t134 420q134 148 374 148q418 0 471 -336l-203 -24q-39 188 -268 186q-147 -4 -231 -106t-84 -287zM713 1536v-227h-230v227h230z" />
    <glyph glyph-name="Ccaron" unicode="&#x10c;" horiz-adv-x="1550" 
d="M895 1683h-188l-312 426h199l207 -260l207 260h198zM123 799q0 389 172 606t524 217q287 0 442 -120t181 -328l-209 -23q-23 147 -123 216t-291 69q-485 0 -485 -637t485 -637q190 0 291 68q100 69 123 216l209 -22q-28 -209 -182 -329t-441 -120q-352 -1 -524 217
t-172 607z" />
    <glyph glyph-name="ccaron" unicode="&#x10d;" horiz-adv-x="1150" 
d="M283 543q0 -185 84 -287t231 -106q229 -2 268 186l203 -25q-53 -336 -471 -336q-240 1 -374 149t-134 418t134 420q134 148 374 148q418 0 471 -336l-203 -24q-39 188 -268 186q-147 -4 -231 -106t-84 -287zM692 1212h-188l-311 426h198l207 -260l207 260h199z" />
    <glyph glyph-name="Dcaron" unicode="&#x10e;" horiz-adv-x="1564" 
d="M793 1683h-189l-311 426h199l206 -260l207 260h199zM369 188h342q276 0 400 158t124 453t-124 453t-400 157h-342v-1221zM711 0h-547v1597h547q367 1 551 -195t184 -604t-184 -602q-184 -196 -551 -196z" />
    <glyph glyph-name="dcaron" unicode="&#x10f;" horiz-adv-x="1251" 
d="M1305 1638h221l-142 -426h-176zM594 928q-137 0 -219 -100t-82 -286q0 -184 82 -284t219 -100q136 0 226 79t104 177v258q-14 96 -104 176t-226 80zM580 1110q110 0 200 -46t144 -124v698h194v-1368l15 -270h-179l-24 156q-50 -84 -144 -132t-206 -49q-236 -1 -363 147
t-127 420t127 420t363 148z" />
    <glyph glyph-name="Dcroat" unicode="&#x110;" horiz-adv-x="1675" 
d="M479 188h342q276 0 401 158q124 158 124 453t-124 453t-401 157h-342v-498h445v-186h-445v-537zM821 0h-547v725h-235v186h235v686h547q367 1 551 -195t184 -604t-184 -602q-184 -196 -551 -196z" />
    <glyph glyph-name="dcroat" unicode="&#x111;" horiz-adv-x="1251" 
d="M594 928q-137 0 -219 -100t-82 -286q0 -184 82 -284t219 -100q136 0 226 79t104 177v258q-14 96 -104 176t-226 80zM580 1110q110 0 200 -46t144 -124v328h-279v159h279v211h194v-211h211v-159h-211v-998l15 -270h-179l-24 156q-50 -84 -144 -132t-206 -49
q-236 -1 -363 147t-127 420t127 420t363 148z" />
    <glyph glyph-name="Emacron" unicode="&#x112;" horiz-adv-x="1419" 
d="M1006 1806h-590v185h590v-185zM164 1597h1100v-188h-895v-498h807v-186h-807v-537h936v-188h-1141v1597z" />
    <glyph glyph-name="emacron" unicode="&#x113;" horiz-adv-x="1191" 
d="M901 1335h-590v185h590v-185zM883 629q-8 314 -277 312q-135 -1 -217 -79t-92 -233h586zM1094 463h-799q20 -315 315 -316q233 -6 271 172l204 -24q-20 -141 -136 -230q-117 -89 -351 -89t-371 144t-137 423t136 423t380 144t366 -145t122 -420v-82z" />
    <glyph glyph-name="Ebreve" unicode="&#x114;" horiz-adv-x="1419" 
d="M711 1690q-209 0 -297 105t-86 314h159q-1 -135 51 -191t173 -56t173 56t50 191h160q2 -209 -86 -314t-297 -105zM164 1597h1100v-188h-895v-498h807v-186h-807v-537h936v-188h-1141v1597z" />
    <glyph glyph-name="ebreve" unicode="&#x115;" horiz-adv-x="1191" 
d="M606 1219q-209 0 -297 105t-86 314h160q-2 -135 50 -191t173 -56t173 56t50 191h160q2 -209 -86 -314t-297 -105zM883 629q-8 314 -277 312q-135 -1 -217 -79t-92 -233h586zM1094 463h-799q20 -315 315 -316q233 -6 271 172l204 -24q-20 -141 -136 -230
q-117 -89 -351 -89t-371 144t-137 423t136 423t380 144t366 -145t122 -420v-82z" />
    <glyph glyph-name="Edotaccent" unicode="&#x116;" horiz-adv-x="1419" 
d="M825 2007v-227h-229v227h229zM164 1597h1100v-188h-895v-498h807v-186h-807v-537h936v-188h-1141v1597z" />
    <glyph glyph-name="edotaccent" unicode="&#x117;" horiz-adv-x="1191" 
d="M721 1536v-227h-229v227h229zM883 629q-8 314 -277 312q-135 -1 -217 -79t-92 -233h586zM1094 463h-799q20 -315 315 -316q233 -6 271 172l204 -24q-20 -141 -136 -230q-117 -89 -351 -89t-371 144t-137 423t136 423t380 144t366 -145t122 -420v-82z" />
    <glyph glyph-name="Eogonek" unicode="&#x118;" horiz-adv-x="1419" 
d="M1130 -434q-252 0 -252 220q0 116 119 214h-833v1597h1100v-188h-895v-498h807v-186h-807v-537h936v-188q-103 -12 -181 -72t-77 -131q0 -82 94 -82q59 0 133 33q8 4 8 6l45 -137q-81 -51 -197 -51z" />
    <glyph glyph-name="eogonek" unicode="&#x119;" horiz-adv-x="1191" 
d="M883 629q-8 314 -277 312q-135 -1 -217 -79t-92 -233h586zM1094 463h-799q20 -315 315 -316q233 -6 271 172l204 -24q-13 -102 -81 -181t-172 -108t-157 -90q-54 -61 -54 -119q0 -82 94 -82q59 0 133 33q8 4 8 6l45 -137q-81 -51 -197 -51t-184 52t-67 161q0 109 94 198
q-217 17 -337 161t-120 414t136 414t380 144t366 -145t122 -420v-82z" />
    <glyph glyph-name="Ecaron" unicode="&#x11a;" horiz-adv-x="1419" 
d="M805 1683h-189l-311 426h199l207 -260l207 260h198zM164 1597h1100v-188h-895v-498h807v-186h-807v-537h936v-188h-1141v1597z" />
    <glyph glyph-name="ecaron" unicode="&#x11b;" horiz-adv-x="1191" 
d="M700 1212h-188l-311 426h198l207 -260l207 260h199zM883 629q-8 314 -277 312q-135 -1 -217 -79t-92 -233h586zM1094 463h-799q20 -315 315 -316q233 -6 271 172l204 -24q-20 -141 -136 -230q-117 -89 -351 -89t-371 144t-137 423t136 423t380 144t366 -145t122 -420v-82
z" />
    <glyph glyph-name="Gcircumflex" unicode="&#x11c;" horiz-adv-x="1597" 
d="M707 2109h188l311 -426h-198l-207 261l-207 -261h-199zM123 800q0 388 172 605t524 217q287 0 442 -120t181 -328l-209 -23q-23 147 -123 216t-291 69q-485 0 -485 -636t485 -638q262 0 420 102v406h-344v178h547v-709q-154 -94 -296 -130t-329 -34q-352 1 -523 219
t-171 606z" />
    <glyph glyph-name="gcircumflex" unicode="&#x11d;" horiz-adv-x="1251" 
d="M504 1638h188l312 -426h-199l-207 261l-207 -261h-198zM593 928q-138 0 -218 -89t-80 -271t80 -272q80 -89 218 -89q137 0 227 79t104 177v209q-14 98 -104 177t-227 79zM1118 -25q0 -199 -140 -304t-384 -105t-356 85t-132 240l205 29q31 -190 283 -184q330 4 330 231
v228q-50 -78 -142 -124t-204 -46q-229 0 -359 138q-129 138 -129 404q0 267 129 405t359 138q116 0 208 -48t144 -132l24 155h179l-15 -270v-840z" />
    <glyph glyph-name="Gbreve" unicode="&#x11e;" horiz-adv-x="1597" 
d="M801 1690q-209 0 -297 105t-86 314h160q-2 -135 50 -191t173 -56t173 56t50 191h160q2 -209 -86 -314t-297 -105zM123 800q0 388 172 605t524 217q287 0 442 -120t181 -328l-209 -23q-23 147 -123 216t-291 69q-485 0 -485 -636t485 -638q262 0 420 102v406h-344v178h547
v-709q-154 -94 -296 -130t-329 -34q-352 1 -523 219t-171 606z" />
    <glyph glyph-name="gbreve" unicode="&#x11f;" horiz-adv-x="1251" 
d="M598 1219q-209 0 -297 105t-86 314h160q-2 -135 50 -191t173 -56t173 56t50 191h160q2 -209 -86 -314t-297 -105zM593 928q-138 0 -218 -89t-80 -271t80 -272q80 -89 218 -89q137 0 227 79t104 177v209q-14 98 -104 177t-227 79zM1118 -25q0 -199 -140 -304t-384 -105
t-356 85t-132 240l205 29q31 -190 283 -184q330 4 330 231v228q-50 -78 -142 -124t-204 -46q-229 0 -359 138q-129 138 -129 404q0 267 129 405t359 138q116 0 208 -48t144 -132l24 155h179l-15 -270v-840z" />
    <glyph glyph-name="Gdotaccent" unicode="&#x120;" horiz-adv-x="1597" 
d="M915 2007v-227h-229v227h229zM123 800q0 388 172 605t524 217q287 0 442 -120t181 -328l-209 -23q-23 147 -123 216t-291 69q-485 0 -485 -636t485 -638q262 0 420 102v406h-344v178h547v-709q-154 -94 -296 -130t-329 -34q-352 1 -523 219t-171 606z" />
    <glyph glyph-name="gdotaccent" unicode="&#x121;" horiz-adv-x="1251" 
d="M713 1536v-227h-230v227h230zM593 928q-138 0 -218 -89t-80 -271t80 -272q80 -89 218 -89q137 0 227 79t104 177v209q-14 98 -104 177t-227 79zM1118 -25q0 -199 -140 -304t-384 -105t-356 85t-132 240l205 29q31 -190 283 -184q330 4 330 231v228q-50 -78 -142 -124
t-204 -46q-229 0 -359 138q-129 138 -129 404q0 267 129 405t359 138q116 0 208 -48t144 -132l24 155h179l-15 -270v-840z" />
    <glyph glyph-name="Gcommaaccent" unicode="&#x122;" horiz-adv-x="1597" 
d="M686 -127h240l-95 -283h-180zM123 800q0 388 172 605t524 217q287 0 442 -120t181 -328l-209 -23q-23 147 -123 216t-291 69q-485 0 -485 -636t485 -638q262 0 420 102v406h-344v178h547v-709q-154 -94 -296 -130t-329 -34q-352 1 -523 219t-171 606z" />
    <glyph glyph-name="gcommaaccent" unicode="&#x123;" horiz-adv-x="1251" 
d="M593 928q-138 0 -218 -89t-80 -271t80 -272q80 -89 218 -89q137 0 227 79t104 177v209q-14 98 -104 177t-227 79zM1118 -25q0 -199 -140 -304t-384 -105t-356 85t-132 240l205 29q31 -190 283 -184q330 4 330 231v228q-50 -78 -142 -124t-204 -46q-229 0 -359 138
q-129 138 -129 404q0 267 129 405t359 138q116 0 208 -48t144 -132l24 155h179l-15 -270v-840zM694 1212h-221l141 426h177z" />
    <glyph glyph-name="Hcircumflex" unicode="&#x124;" horiz-adv-x="1536" 
d="M674 2109h188l312 -426h-199l-207 261l-207 -261h-199zM1167 1597h205v-1597h-205v725h-798v-725h-205v1597h205v-686h798v686z" />
    <glyph glyph-name="hcircumflex" unicode="&#x125;" horiz-adv-x="1198" 
d="M135 2109h189l311 -426h-199l-207 261l-206 -261h-199zM324 1638v-700q119 172 344 172q186 0 302 -96t115 -271v-743h-196v709q0 104 -68 161q-67 58 -187 58t-209 -81t-101 -175v-672h-195v1638h195z" />
    <glyph glyph-name="Hbar" unicode="&#x126;" horiz-adv-x="1536" 
d="M369 911h798v236h-798v-236zM1167 1597h205v-1597h-205v725h-798v-725h-205v1597h205v-286h798v286z" />
    <glyph glyph-name="hbar" unicode="&#x127;" horiz-adv-x="1206" 
d="M332 1638v-211h280v-159h-280v-330q119 172 344 172q186 0 302 -96t116 -271v-743h-197v709q0 104 -68 161q-67 58 -187 58t-209 -81t-101 -175v-672h-195v1268h-211v159h211v211h195z" />
    <glyph glyph-name="Itilde" unicode="&#x128;" horiz-adv-x="606" 
d="M435 2064q124 0 179 -52t70 -87l8 -14l-94 -117q-41 82 -129 86q-41 2 -82 -35t-96 -75t-119 -38q-123 1 -178 50q-54 48 -80 102l94 119q13 -32 50 -59q38 -27 79 -29t82 36q41 37 96 75t120 38zM406 1597v-1597h-205v1597h205z" />
    <glyph glyph-name="itilde" unicode="&#x129;" horiz-adv-x="528" 
d="M396 1593q65 0 119 -18t106 -82q21 -26 32 -53l-94 -117q-41 82 -129 86q-41 2 -82 -35t-96 -75q-56 -37 -120 -37t-109 15q-83 28 -142 120l-6 16l94 119q12 -31 51 -59q38 -27 78 -29t82 36q41 38 96 76t120 37zM166 0v1085h196v-1085h-196z" />
    <glyph glyph-name="Imacron" unicode="&#x12a;" horiz-adv-x="606" 
d="M598 1806h-590v185h590v-185zM406 1597v-1597h-205v1597h205z" />
    <glyph glyph-name="imacron" unicode="&#x12b;" horiz-adv-x="528" 
d="M559 1335h-590v185h590v-185zM166 0v1085h196v-1085h-196z" />
    <glyph glyph-name="Ibreve" unicode="&#x12c;" horiz-adv-x="606" 
d="M303 1690q-209 0 -297 105t-86 314h160q-2 -135 50 -191t173 -56t173 56t50 191h160q2 -209 -86 -314t-297 -105zM406 1597v-1597h-205v1597h205z" />
    <glyph glyph-name="ibreve" unicode="&#x12d;" horiz-adv-x="528" 
d="M264 1219q-209 0 -297 105t-86 314h160q-2 -135 50 -191t173 -56t173 56t50 191h160q2 -209 -86 -314t-297 -105zM166 0v1085h196v-1085h-196z" />
    <glyph glyph-name="Iogonek" unicode="&#x12e;" horiz-adv-x="606" 
d="M201 1597h205v-1597q-178 -90 -179 -203q0 -82 95 -82q49 1 98 21t59 33l45 -142q-92 -61 -210 -61q-254 0 -255 211q1 126 142 237v1583z" />
    <glyph glyph-name="iogonek" unicode="&#x12f;" horiz-adv-x="528" 
d="M377 1534v-227h-227v227h227zM182 -203q0 -82 94 -82q48 1 98 21t60 33l45 -142q-93 -61 -211 -61q-254 0 -254 211q0 129 152 246v1062h194v-1085q-178 -90 -178 -203z" />
    <glyph glyph-name="Idotaccent" unicode="&#x130;" horiz-adv-x="606" 
d="M418 2007v-227h-230v227h230zM406 1597v-1597h-205v1597h205z" />
    <glyph glyph-name="dotlessi" unicode="&#x131;" horiz-adv-x="528" 
d="M166 0v1085h196v-1085h-196z" />
    <glyph glyph-name="IJ" unicode="&#x132;" horiz-adv-x="1320" 
d="M967 410v1187h207v-1200q0 -422 -422 -422q-84 0 -150 25l21 190q57 -29 125 -26q111 2 165 56t54 190zM406 1597v-1597h-205v1597h205z" />
    <glyph glyph-name="ij" unicode="&#x133;" horiz-adv-x="1026" 
d="M664 -2v1087h196v-1099q0 -305 -194 -386q-82 -34 -182 -34t-167 24l21 183q54 -29 144 -27t136 54t46 198zM877 1536v-227h-230v227h230zM379 1536v-227h-229v227h229zM166 0v1085h196v-1085h-196z" />
    <glyph glyph-name="Jcircumflex" unicode="&#x134;" horiz-adv-x="1171" 
d="M827 2109h189l311 -426h-199l-206 261l-207 -261h-199zM819 1597h205v-1167q0 -211 -128 -333t-382 -122q-453 0 -481 371l205 27q20 -217 276 -211q158 2 232 65t73 191v1179z" />
    <glyph glyph-name="jcircumflex" unicode="&#x135;" horiz-adv-x="528" 
d="M170 1638h188l312 -426h-199l-207 261l-207 -261h-198zM166 0v1085h194v-1099q0 -303 -193 -384q-81 -34 -183 -34t-162 22l18 185q40 -27 138 -26t143 51t45 200z" />
    <glyph glyph-name="Kcommaaccent" unicode="&#x136;" horiz-adv-x="1458" 
d="M625 -127h239l-94 -283h-180zM369 1597v-794l731 794h289l-687 -720l730 -877h-279l-592 727l-192 -205v-522h-205v1597h205z" />
    <glyph glyph-name="kcommaaccent" unicode="&#x137;" horiz-adv-x="1140" 
d="M479 -127h240l-94 -283h-181zM324 0h-195v1638h195v-1052l188 196l299 303h264l-469 -467l537 -618h-254l-420 492l-145 -140v-352z" />
    <glyph glyph-name="kgreenlandic" unicode="&#x138;" horiz-adv-x="1148" 
d="M324 0h-195v1085h195v-499l188 196l299 303h264l-469 -467l537 -618h-254l-420 492l-145 -140v-352z" />
    <glyph glyph-name="Lacute" unicode="&#x139;" horiz-adv-x="1206" 
d="M362 2109h230l-227 -426h-195zM369 1597v-1409h811v-188h-1016v1597h205z" />
    <glyph glyph-name="lacute" unicode="&#x13a;" horiz-adv-x="528" 
d="M360 2109h230l-228 -426h-194zM166 0v1638h196v-1638h-196z" />
    <glyph glyph-name="Lcommaaccent" unicode="&#x13b;" horiz-adv-x="1206" 
d="M561 -127h240l-94 -283h-181zM369 1597v-1409h811v-188h-1016v1597h205z" />
    <glyph glyph-name="lcommaaccent" unicode="&#x13c;" horiz-adv-x="528" 
d="M143 -127h240l-94 -283h-180zM166 0v1638h196v-1638h-196z" />
    <glyph glyph-name="Lcaron" unicode="&#x13d;" horiz-adv-x="1206" 
d="M793 1638h221l-142 -426h-176zM369 1597v-1409h811v-188h-1016v1597h205z" />
    <glyph glyph-name="lcaron" unicode="&#x13e;" horiz-adv-x="528" 
d="M549 1638h221l-141 -426h-176zM166 0v1638h196v-1638h-196z" />
    <glyph glyph-name="Ldot" unicode="&#x13f;" horiz-adv-x="1218" 
d="M1047 932v-227h-230v227h230zM369 1597v-1409h811v-188h-1016v1597h205z" />
    <glyph glyph-name="ldot" unicode="&#x140;" horiz-adv-x="741" 
d="M750 913v-227h-230v227h230zM166 0v1638h196v-1638h-196z" />
    <glyph glyph-name="Lslash" unicode="&#x141;" horiz-adv-x="1218" 
d="M369 188h811v-188h-1016v543l-152 -76v170l152 76v884h205v-784l544 272v-170l-544 -272v-455z" />
    <glyph glyph-name="lslash" unicode="&#x142;" horiz-adv-x="632" 
d="M410 0h-195v666l-152 -97v174l152 97v798h195v-675l194 122v-174l-194 -123v-788z" />
    <glyph glyph-name="Nacute" unicode="&#x143;" horiz-adv-x="1544" 
d="M868 2109h230l-228 -426h-194zM1174 1597h206v-1597h-186l-653 965l-176 272l6 -481v-756h-207v1597h186l654 -964l176 -273l-6 482v755z" />
    <glyph glyph-name="nacute" unicode="&#x144;" horiz-adv-x="1202" 
d="M709 1638h229l-227 -426h-195zM672 1110q186 0 302 -96t116 -271v-743h-197v709q0 104 -68 161q-67 58 -187 58t-209 -81t-101 -175v-672h-195v817l-14 268h178l25 -153q55 82 147 130t203 48z" />
    <glyph glyph-name="Ncommaaccent" unicode="&#x145;" horiz-adv-x="1544" 
d="M657 -127h240l-94 -283h-180zM1174 1597h206v-1597h-186l-653 965l-176 272l6 -481v-756h-207v1597h186l654 -964l176 -273l-6 482v755z" />
    <glyph glyph-name="ncommaaccent" unicode="&#x146;" horiz-adv-x="1202" 
d="M510 -127h240l-95 -283h-180zM672 1110q186 0 302 -96t116 -271v-743h-197v709q0 104 -68 161q-67 58 -187 58t-209 -81t-101 -175v-672h-195v817l-14 268h178l25 -153q55 82 147 130t203 48z" />
    <glyph glyph-name="Ncaron" unicode="&#x147;" horiz-adv-x="1544" 
d="M866 1683h-188l-311 426h198l207 -260l207 260h199zM1174 1597h206v-1597h-186l-653 965l-176 272l6 -481v-756h-207v1597h186l654 -964l176 -273l-6 482v755z" />
    <glyph glyph-name="ncaron" unicode="&#x148;" horiz-adv-x="1202" 
d="M707 1212h-189l-311 426h199l206 -260l207 260h199zM672 1110q186 0 302 -96t116 -271v-743h-197v709q0 104 -68 161q-67 58 -187 58t-209 -81t-101 -175v-672h-195v817l-14 268h178l25 -153q55 82 147 130t203 48z" />
    <glyph glyph-name="Eng" unicode="&#x14a;" horiz-adv-x="1544" 
d="M1174 -2v33l-633 934l-176 272l6 -481v-756h-207v1597h186l654 -964l176 -273l-6 482v755h206v-1611q0 -304 -199 -386q-83 -34 -185 -34t-169 24l21 185q54 -29 144 -27t136 52t46 198z" />
    <glyph glyph-name="eng" unicode="&#x14b;" horiz-adv-x="1202" 
d="M893 -2v711q0 104 -68 161q-67 58 -187 58t-209 -81t-101 -175v-672h-195v817l-14 268h178l25 -153q55 82 147 130t203 48q186 0 302 -96t116 -271v-757q0 -305 -195 -386q-83 -34 -183 -34t-165 24l20 183q53 -29 143 -27t137 54q46 52 46 198z" />
    <glyph glyph-name="Omacron" unicode="&#x14c;" horiz-adv-x="1638" 
d="M1114 1806h-590v185h590v-185zM819 1436q-483 0 -483 -637t483 -637t484 637q-1 637 -484 637zM819 -25q-354 -1 -525 217t-171 607t171 606t525 217q353 0 525 -217t172 -606t-172 -607t-525 -217z" />
    <glyph glyph-name="omacron" unicode="&#x14d;" horiz-adv-x="1208" 
d="M604 -25q-242 1 -377 145t-135 423t135 423t377 144t377 -144t135 -423t-135 -423t-377 -145zM604 152q147 0 232 95q84 95 84 296t-84 296t-232 95t-231 -95q-84 -95 -84 -296t84 -296t231 -95zM899 1335h-590v185h590v-185z" />
    <glyph glyph-name="Obreve" unicode="&#x14e;" horiz-adv-x="1638" 
d="M819 1690q-209 0 -297 105t-86 314h160q-2 -135 50 -191t173 -56t173 56t50 191h160q2 -209 -86 -314t-297 -105zM819 -25q-354 -1 -525 217t-171 607t171 606t525 217q353 0 525 -217t172 -606t-172 -607t-525 -217zM819 1436q-483 0 -483 -637t483 -637t484 637
q-1 637 -484 637z" />
    <glyph glyph-name="obreve" unicode="&#x14f;" horiz-adv-x="1208" 
d="M604 -25q-242 1 -377 145t-135 423t135 423t377 144t377 -144t135 -423t-135 -423t-377 -145zM604 152q147 0 232 95q84 95 84 296t-84 296t-232 95t-231 -95q-84 -95 -84 -296t84 -296t231 -95zM604 1219q-209 0 -297 105t-86 314h160q-2 -135 50 -191t173 -56t173 56
t50 191h160q2 -209 -86 -314t-297 -105z" />
    <glyph glyph-name="Ohungarumlaut" unicode="&#x150;" horiz-adv-x="1638" 
d="M1075 2109h230l-228 -426h-194zM748 2109h229l-227 -426h-195zM819 -25q-354 -1 -525 217t-171 607t171 606t525 217q353 0 525 -217t172 -606t-172 -607t-525 -217zM819 1436q-483 0 -483 -637t483 -637t484 637q-1 637 -484 637z" />
    <glyph glyph-name="ohungarumlaut" unicode="&#x151;" horiz-adv-x="1208" 
d="M604 -25q-242 1 -377 145t-135 423t135 423t377 144t377 -144t135 -423t-135 -423t-377 -145zM604 152q147 0 232 95q84 95 84 296t-84 296t-232 95t-231 -95q-84 -95 -84 -296t84 -296t231 -95zM860 1638h230l-228 -426h-194zM532 1638h230l-227 -426h-195z" />
    <glyph glyph-name="OE" unicode="&#x152;" horiz-adv-x="2215" 
d="M1042 1409h-188q-276 0 -400 -158q-124 -159 -124 -453t124 -452t400 -158h188v1221zM854 1597h1206v-188h-813v-498h725v-186h-725v-537h854v-188h-1247q-367 0 -551 196t-184 604t184 602q184 195 551 195z" />
    <glyph glyph-name="oe" unicode="&#x153;" horiz-adv-x="2015" 
d="M1917 463h-799q20 -315 316 -316q233 -6 270 172l205 -24q-20 -141 -136 -230t-337 -90q-289 0 -420 187q-131 -186 -412 -187q-242 1 -377 145t-135 423t135 423t377 144q279 0 412 -188q133 188 414 188q244 0 366 -145t121 -420v-82zM1706 629q-8 314 -276 312
q-136 -1 -218 -79t-92 -233h586zM604 156q309 0 309 387t-309 387t-309 -387t309 -387z" />
    <glyph glyph-name="Racute" unicode="&#x154;" horiz-adv-x="1447" 
d="M780 2109h230l-228 -426h-194zM369 858h454q161 0 225 69t64 208q0 201 -135 251q-62 23 -154 23h-454v-551zM369 670v-670h-205v1597h639q522 0 522 -462q0 -385 -350 -449l418 -686h-252l-387 670h-385z" />
    <glyph glyph-name="racute" unicode="&#x155;" horiz-adv-x="847" 
d="M530 1638h230l-228 -426h-194zM668 922q-132 0 -228 -79t-112 -177v-666h-195v817l-14 268h178l27 -165q47 84 138 137q90 53 190 53t155 -23l-19 -190q-44 25 -120 25z" />
    <glyph glyph-name="Rcommaaccent" unicode="&#x156;" horiz-adv-x="1447" 
d="M610 -127h240l-94 -283h-181zM369 858h454q161 0 225 69t64 208q0 201 -135 251q-62 23 -154 23h-454v-551zM369 670v-670h-205v1597h639q522 0 522 -462q0 -385 -350 -449l418 -686h-252l-387 670h-385z" />
    <glyph glyph-name="rcommaaccent" unicode="&#x157;" horiz-adv-x="847" 
d="M111 -127h239l-94 -283h-180zM668 922q-132 0 -228 -79t-112 -177v-666h-195v817l-14 268h178l27 -165q47 84 138 137q90 53 190 53t155 -23l-19 -190q-44 25 -120 25z" />
    <glyph glyph-name="Rcaron" unicode="&#x158;" horiz-adv-x="1447" 
d="M778 1683h-188l-311 426h198l207 -260l207 260h199zM369 858h454q161 0 225 69t64 208q0 201 -135 251q-62 23 -154 23h-454v-551zM369 670v-670h-205v1597h639q522 0 522 -462q0 -385 -350 -449l418 -686h-252l-387 670h-385z" />
    <glyph glyph-name="rcaron" unicode="&#x159;" horiz-adv-x="847" 
d="M528 1212h-188l-311 426h198l207 -260l207 260h199zM668 922q-132 0 -228 -79t-112 -177v-666h-195v817l-14 268h178l27 -165q47 84 138 137q90 53 190 53t155 -23l-19 -190q-44 25 -120 25z" />
    <glyph glyph-name="Sacute" unicode="&#x15a;" horiz-adv-x="1460" 
d="M829 2109h230l-228 -426h-194zM1141 451q0 143 -87 206t-321 86q-319 26 -448 137q-49 42 -82 112t-33 165q-2 229 157 347t400 118q555 0 614 -436l-208 -23q-21 143 -117 208t-289 65q-112 0 -222 -53q-128 -61 -128 -237q0 -96 74 -146t288 -74q160 -14 259 -38
q100 -24 184 -73q163 -95 161 -354q0 -162 -90 -276q-164 -208 -520 -210q-561 0 -622 447l208 20q25 -148 123 -214t278 -65t300 73q121 72 121 215z" />
    <glyph glyph-name="sacute" unicode="&#x15b;" horiz-adv-x="1105" 
d="M649 1638h230l-228 -426h-194zM834 319q0 84 -54 110t-196 40q-12 2 -22 2t-76 8q-67 8 -134 22q-68 13 -100 33t-72 49q-72 55 -73 179q-1 123 70 204q126 144 368 144q418 0 463 -324l-205 -24q-17 90 -77 134t-181 42q-238 -4 -238 -158q0 -56 46 -91q36 -27 238 -48
q203 -21 286 -53q159 -70 159 -253t-144 -271t-345 -89q-430 0 -473 326l205 27q18 -90 79 -137q62 -46 187 -44q289 8 289 172z" />
    <glyph glyph-name="Scircumflex" unicode="&#x15c;" horiz-adv-x="1460" 
d="M639 2109h188l312 -426h-199l-207 261l-207 -261h-198zM1141 451q0 143 -87 206t-321 86q-319 26 -448 137q-49 42 -82 112t-33 165q-2 229 157 347t400 118q555 0 614 -436l-208 -23q-21 143 -117 208t-289 65q-112 0 -222 -53q-128 -61 -128 -237q0 -96 74 -146
t288 -74q160 -14 259 -38q100 -24 184 -73q163 -95 161 -354q0 -162 -90 -276q-164 -208 -520 -210q-561 0 -622 447l208 20q25 -148 123 -214t278 -65t300 73q121 72 121 215z" />
    <glyph glyph-name="scircumflex" unicode="&#x15d;" horiz-adv-x="1105" 
d="M459 1638h188l311 -426h-198l-207 261l-207 -261h-199zM834 319q0 84 -54 110t-196 40q-12 2 -22 2t-76 8q-67 8 -134 22q-68 13 -100 33t-72 49q-72 55 -73 179q-1 123 70 204q126 144 368 144q418 0 463 -324l-205 -24q-17 90 -77 134t-181 42q-238 -4 -238 -158
q0 -56 46 -91q36 -27 238 -48q203 -21 286 -53q159 -70 159 -253t-144 -271t-345 -89q-430 0 -473 326l205 27q18 -90 79 -137q62 -46 187 -44q289 8 289 172z" />
    <glyph glyph-name="Scedilla" unicode="&#x15e;" horiz-adv-x="1460" 
d="M1141 451q0 143 -87 206t-321 86q-319 26 -448 137q-49 42 -82 112t-33 165q-2 229 157 347t400 118q555 0 614 -436l-208 -23q-21 143 -117 208t-289 65q-112 0 -222 -53q-128 -61 -128 -237q0 -96 74 -146t288 -74q160 -14 259 -38q100 -24 184 -73q163 -95 161 -354
q1 -225 -157 -347t-395 -137l-13 -49q182 -43 183 -186q0 -88 -70 -132q-71 -44 -183 -44t-186 37l35 108q53 -29 113 -28q115 0 114 61q0 82 -178 100l45 133q-258 15 -385 131t-155 314l208 20q25 -148 123 -214t278 -65t300 73q121 72 121 215z" />
    <glyph glyph-name="scedilla" unicode="&#x15f;" horiz-adv-x="1105" 
d="M834 319q0 84 -54 110t-196 40q-12 2 -22 2t-76 8q-67 8 -134 22q-68 13 -100 33t-72 49q-72 55 -73 179q-1 123 70 204q126 144 368 144q418 0 463 -324l-205 -24q-17 90 -77 134t-181 42q-238 -4 -238 -158q0 -56 46 -91q36 -27 238 -48q203 -21 286 -53
q160 -70 159 -258q0 -164 -122 -250t-300 -100l-14 -52q182 -43 182 -186q0 -88 -70 -132t-182 -44q-113 0 -186 37l35 108q53 -29 113 -28q115 0 114 61q0 82 -178 100l45 136q-362 27 -399 321l205 27q18 -90 79 -137q62 -46 187 -44q289 8 289 172z" />
    <glyph glyph-name="Scaron" unicode="&#x160;" horiz-adv-x="1460" 
d="M827 1683h-188l-311 426h198l207 -260l207 260h199zM1141 451q0 143 -87 206t-321 86q-319 26 -448 137q-49 42 -82 112t-33 165q-2 229 157 347t400 118q555 0 614 -436l-208 -23q-21 143 -117 208t-289 65q-112 0 -222 -53q-128 -61 -128 -237q0 -96 74 -146t288 -74
q160 -14 259 -38q100 -24 184 -73q163 -95 161 -354q0 -162 -90 -276q-164 -208 -520 -210q-561 0 -622 447l208 20q25 -148 123 -214t278 -65t300 73q121 72 121 215z" />
    <glyph glyph-name="scaron" unicode="&#x161;" horiz-adv-x="1105" 
d="M647 1212h-188l-312 426h199l207 -260l207 260h198zM834 319q0 84 -54 110t-196 40q-12 2 -22 2t-76 8q-67 8 -134 22q-68 13 -100 33t-72 49q-72 55 -73 179q-1 123 70 204q126 144 368 144q418 0 463 -324l-205 -24q-17 90 -77 134t-181 42q-238 -4 -238 -158
q0 -56 46 -91q36 -27 238 -48q203 -21 286 -53q159 -70 159 -253t-144 -271t-345 -89q-430 0 -473 326l205 27q18 -90 79 -137q62 -46 187 -44q289 8 289 172z" />
    <glyph glyph-name="Tcommaaccent" unicode="&#x162;" horiz-adv-x="1273" 
d="M516 -127h240l-94 -283h-181zM739 1409v-1409h-204v1409h-494v188h1192v-188h-494z" />
    <glyph glyph-name="tcommaaccent" unicode="&#x163;" horiz-adv-x="860" 
d="M358 -127h240l-94 -283h-180zM47 920v165h197v291l194 33v-324h332v-165h-332v-512q0 -146 47 -198t158 -54q61 -2 125 26l18 -182q-66 -25 -166 -25t-182 34q-194 80 -194 386v525h-197z" />
    <glyph glyph-name="Tcaron" unicode="&#x164;" horiz-adv-x="1273" 
d="M731 1683h-188l-312 426h199l207 -260l207 260h198zM737 1409v-1409h-205v1409h-491v188h1190v-188h-494z" />
    <glyph glyph-name="tcaron" unicode="&#x165;" horiz-adv-x="860" 
d="M655 1638h222l-142 -426h-176zM47 920v165h197v291l194 33v-324h332v-165h-332v-512q0 -146 47 -198t158 -54q61 -2 125 26l18 -182q-66 -25 -166 -25t-182 34q-194 80 -194 386v525h-197z" />
    <glyph glyph-name="Tbar" unicode="&#x166;" horiz-adv-x="1273" 
d="M739 1409v-506h236v-168h-236v-735h-204v735h-236v168h236v506h-494v188h1192v-188h-494z" />
    <glyph glyph-name="tbar" unicode="&#x167;" horiz-adv-x="860" 
d="M750 567h-312v-159q0 -146 47 -198t158 -54q61 -2 125 26l18 -182q-66 -25 -166 -25t-182 34q-194 80 -194 386v172h-193v156h193v197h-197v165h197v291l194 33v-324h332v-165h-332v-197h312v-156z" />
    <glyph glyph-name="Utilde" unicode="&#x168;" horiz-adv-x="1581" 
d="M922 2064q64 0 119 -18q54 -18 106 -82q18 -23 24 -39l9 -14l-95 -117q-4 8 -12 22t-42 38t-75 26t-82 -35t-96 -75q-56 -38 -120 -38t-119 19q-55 18 -105 80q-11 14 -33 53l95 119q13 -32 50 -59q38 -27 79 -29t82 36q41 37 96 75t119 38zM791 -25q-643 0 -644 603
v1019h209v-1022q0 -306 215 -382q87 -31 219 -31q261 0 353 122q80 107 82 291v1022h209v-1019q0 -603 -643 -603z" />
    <glyph glyph-name="utilde" unicode="&#x169;" horiz-adv-x="1202" 
d="M722 1593q64 0 118 -18t106 -82q10 -13 33 -53l-94 -117q-41 82 -129 86q-41 2 -82 -35t-96 -75q-55 -37 -120 -37q-123 1 -179 51t-70 84l-8 16l94 117q41 -82 129 -86q41 -2 82 36t96 76q56 38 120 37zM115 1085h196v-708q0 -103 68 -161q67 -58 187 -58t209 81
t102 175v671h194v-817l14 -268h-178l-24 154q-55 -82 -147 -130t-204 -49q-186 1 -302 97t-115 270v743z" />
    <glyph glyph-name="Umacron" unicode="&#x16a;" horiz-adv-x="1581" 
d="M1085 1806h-589v185h589v-185zM791 -25q-643 0 -644 603v1019h209v-1022q0 -306 215 -382q87 -31 219 -31q261 0 353 122q80 107 82 291v1022h209v-1019q0 -603 -643 -603z" />
    <glyph glyph-name="umacron" unicode="&#x16b;" horiz-adv-x="1202" 
d="M885 1335h-590v185h590v-185zM115 1085h196v-708q0 -103 68 -161q67 -58 187 -58t209 81t102 175v671h194v-817l14 -268h-178l-24 154q-55 -82 -147 -130t-204 -49q-186 1 -302 97t-115 270v743z" />
    <glyph glyph-name="Ubreve" unicode="&#x16c;" horiz-adv-x="1581" 
d="M791 1690q-209 0 -297 105t-86 314h159q-2 -135 50 -191q51 -56 173 -56t174 56t50 191h160q2 -209 -86 -314t-297 -105zM791 -25q-643 0 -644 603v1019h209v-1022q0 -306 215 -382q87 -31 219 -31q261 0 353 122q80 107 82 291v1022h209v-1019q0 -603 -643 -603z" />
    <glyph glyph-name="ubreve" unicode="&#x16d;" horiz-adv-x="1202" 
d="M590 1219q-209 0 -297 105t-86 314h160q-2 -135 50 -191t173 -56t173 56t50 191h160q2 -209 -86 -314t-297 -105zM115 1085h196v-708q0 -103 68 -161q67 -58 187 -58t209 81t102 175v671h194v-817l14 -268h-178l-24 154q-55 -82 -147 -130t-204 -49q-186 1 -302 97
t-115 270v743z" />
    <glyph glyph-name="Uring" unicode="&#x16e;" horiz-adv-x="1581" 
d="M887 1896q0 45 -26 72q-27 27 -71 27t-70 -27t-26 -72q0 -46 26 -72t71 -26t71 26t25 72zM553 1896q0 104 63 171q62 67 174 67t175 -67t63 -171t-63 -171t-174 -67t-175 67q-63 67 -63 171zM791 -25q-643 0 -644 603v1019h209v-1022q0 -306 215 -382q87 -31 219 -31
q261 0 353 122q80 107 82 291v1022h209v-1019q0 -603 -643 -603z" />
    <glyph glyph-name="uring" unicode="&#x16f;" horiz-adv-x="1202" 
d="M686 1425q0 45 -26 72t-70 27t-71 -27q-25 -27 -25 -72t26 -71t70 -27q44 1 70 27t26 71zM352 1425q0 104 64 171t174 67q111 0 174 -67t63 -171t-63 -171q-63 -66 -174 -66q-110 0 -174 66t-64 171zM115 1085h196v-708q0 -103 68 -161q67 -58 187 -58t209 81t102 175
v671h194v-817l14 -268h-178l-24 154q-55 -82 -147 -130t-204 -49q-186 1 -302 97t-115 270v743z" />
    <glyph glyph-name="Uhungarumlaut" unicode="&#x170;" horiz-adv-x="1581" 
d="M1047 2109h229l-227 -426h-195zM719 2109h229l-227 -426h-195zM791 -25q-643 0 -644 603v1019h209v-1022q0 -306 215 -382q87 -31 219 -31q261 0 353 122q80 107 82 291v1022h209v-1019q0 -603 -643 -603z" />
    <glyph glyph-name="uhungarumlaut" unicode="&#x171;" horiz-adv-x="1202" 
d="M846 1638h229l-227 -426h-195zM518 1638h230l-228 -426h-194zM115 1085h196v-708q0 -103 68 -161q67 -58 187 -58t209 81t102 175v671h194v-817l14 -268h-178l-24 154q-55 -82 -147 -130t-204 -49q-186 1 -302 97t-115 270v743z" />
    <glyph glyph-name="Uogonek" unicode="&#x172;" horiz-adv-x="1581" 
d="M147 578v1019h209v-1022q0 -306 215 -382q87 -31 219 -31q261 0 353 122q80 107 82 291v1022h209v-1019q0 -487 -416 -580q-88 -18 -146 -80t-57 -121q0 -82 94 -82q33 0 86 17t56 22l45 -137q-82 -51 -198 -51t-183 52q-68 52 -68 162t92 197q-592 23 -592 601z" />
    <glyph glyph-name="uogonek" unicode="&#x173;" horiz-adv-x="1202" 
d="M827 -203q0 -82 95 -82q32 0 87 17q54 17 54 22l45 -137q-82 -51 -198 -51t-183 52q-68 52 -68 150q0 193 236 306l-12 80q-55 -82 -147 -130t-204 -49q-186 1 -302 97t-115 270v743h196v-708q0 -103 68 -161q67 -58 187 -58t209 81t102 175v671h194v-817l14 -268
q-104 -12 -181 -72t-77 -131z" />
    <glyph glyph-name="Wcircumflex" unicode="&#x174;" horiz-adv-x="1953" 
d="M883 2109h188l311 -426h-198l-207 261l-207 -261h-199zM1063 1016l-86 305l-86 -305l-326 -1041h-174l-338 1622h213l176 -942l54 -321l92 321l295 942h188l295 -942l92 -321l53 321l177 942h213l-338 -1622h-174z" />
    <glyph glyph-name="wcircumflex" unicode="&#x175;" horiz-adv-x="1665" 
d="M737 1638h189l311 -426h-199l-207 261l-206 -261h-199zM1135 -25l-304 875l-303 -875h-192l-268 1110h198l125 -577l51 -262l88 262l201 577h201l201 -577l88 -262l51 262l125 577h198l-268 -1110h-192z" />
    <glyph glyph-name="Ycircumflex" unicode="&#x176;" horiz-adv-x="1495" 
d="M653 2109h189l311 -426h-199l-206 261l-207 -261h-199zM850 0h-205v664l-620 933h235l305 -469l183 -288l182 288l305 469h235l-620 -933v-664z" />
    <glyph glyph-name="ycircumflex" unicode="&#x177;" horiz-adv-x="1150" 
d="M481 1638h189l311 -426h-199l-207 261l-206 -261h-199zM1126 1085l-440 -1013l-197 -482h-225l209 463l-448 1032h221l329 -829l330 829h221z" />
    <glyph glyph-name="Ydieresis" unicode="&#x178;" horiz-adv-x="1495" 
d="M657 2007v-227h-229v227h229zM1067 2007v-227h-229v227h229zM850 0h-205v664l-620 933h235l305 -469l183 -288l182 288l305 469h235l-620 -933v-664z" />
    <glyph glyph-name="Zacute" unicode="&#x179;" horiz-adv-x="1409" 
d="M791 2109h229l-227 -426h-195zM88 0v154l817 1071l150 186l-475 -2h-453v188h1194v-153l-817 -1071l-150 -187l477 2h490v-188h-1233z" />
    <glyph glyph-name="zacute" unicode="&#x17a;" horiz-adv-x="1120" 
d="M645 1638h229l-227 -426h-194zM113 911v174h911v-143l-549 -610l-147 -160l256 2h458v-174h-968v145l544 607l152 161l-256 -2h-401z" />
    <glyph glyph-name="Zdotaccent" unicode="&#x17b;" horiz-adv-x="1409" 
d="M809 2007v-227h-229v227h229zM88 0v154l817 1071l150 186l-475 -2h-453v188h1194v-153l-817 -1071l-150 -187l477 2h490v-188h-1233z" />
    <glyph glyph-name="zdotaccent" unicode="&#x17c;" horiz-adv-x="1120" 
d="M664 1536v-227h-230v227h230zM113 911v174h911v-143l-549 -610l-147 -160l256 2h458v-174h-968v145l544 607l152 161l-256 -2h-401z" />
    <glyph glyph-name="Zcaron" unicode="&#x17d;" horiz-adv-x="1409" 
d="M788 1683h-188l-311 426h198l207 -260l207 260h199zM88 0v154l817 1071l150 186l-475 -2h-453v188h1194v-153l-817 -1071l-150 -187l477 2h490v-188h-1233z" />
    <glyph glyph-name="zcaron" unicode="&#x17e;" horiz-adv-x="1120" 
d="M113 911v174h911v-143l-549 -610l-147 -160l256 2h458v-174h-968v145l544 607l152 161l-256 -2h-401zM643 1212h-188l-312 426h199l207 -260l207 260h198z" />
    <glyph glyph-name="florin" unicode="&#x192;" horiz-adv-x="845" 
d="M264 -2v729h-223v174h223v268q0 174 73 289q83 131 325 131q84 0 145 -24l-19 -183q-57 29 -124 27q-111 -2 -157 -53t-46 -199v-256h303v-174h-303v-741q0 -174 -73 -289q-83 -131 -322 -131q-82 0 -148 24l19 183q63 -29 124 -27q111 2 157 54t46 198z" />
    <glyph glyph-name="Aringacute" unicode="&#x1fa;" horiz-adv-x="1486" 
d="M1004 641l-261 719l-260 -719h521zM27 0l616 1620h201l616 -1620h-221l-170 461h-651l-170 -461h-221zM743 1995q-43 0 -69 -28t-27 -72q0 -43 26 -71q27 -28 71 -28t70 28t26 72t-27 71q-27 28 -70 28zM981 1893q0 -103 -63 -169q-62 -66 -174 -66t-174 66t-62 153
t31 148l145 297h197l-121 -190q102 -4 162 -70t59 -169z" />
    <glyph glyph-name="aringacute" unicode="&#x1fb;" horiz-adv-x="1189" 
d="M600 1524q-45 0 -71 -27q-25 -27 -25 -72t26 -71t70 -27q45 0 71 27q25 28 25 72t-25 71q-26 27 -71 27zM301 303q0 -156 197 -156q139 -2 243 80t123 181v129l-336 -54q-117 -18 -172 -57t-55 -123zM735 1851l-119 -190q102 -4 162 -70t60 -168t-64 -169
q-64 -66 -174 -66q-111 0 -174 66t-64 171q0 61 31 123l148 303h194zM590 1110q224 0 346 -99q123 -99 123 -298v-443l14 -270h-178l-25 156q-55 -86 -161 -133t-230 -48q-197 0 -293 85t-96 241q0 155 106 227t316 105l352 51v43q0 111 -67 160q-68 49 -198 52t-186 -43
t-75 -140l-203 28q25 156 128 241t327 85z" />
    <glyph glyph-name="AEacute" unicode="&#x1fc;" horiz-adv-x="2338" 
d="M1083 911v351l-139 -215l-92 -136h231zM1300 2109h230l-227 -426h-195zM2183 1597v-188h-895v-498h807v-186h-807v-537h936v-188h-1141v727h-354l-489 -727h-240l1083 1597h1100z" />
    <glyph glyph-name="aeacute" unicode="&#x1fd;" horiz-adv-x="1966" 
d="M1075 1638h230l-228 -426h-194zM547 463q-246 0 -246 -158t197 -158q147 -2 252 82q104 84 114 183v51h-317zM1657 629q-8 314 -277 312q-135 -1 -217 -79t-92 -233h586zM1386 -25q-301 0 -428 220q-154 -219 -475 -220q-199 0 -296 85t-97 244t124 242t329 83h321v92
q0 117 -66 166q-67 49 -197 52t-187 -43t-76 -140l-203 28q25 156 128 241t325 85q293 0 395 -174q133 174 387 174q498 0 498 -565v-82h-799q20 -315 315 -316q233 -6 271 172l205 -24q-20 -141 -136 -231t-338 -89z" />
    <glyph glyph-name="Oslashacute" unicode="&#x1fe;" horiz-adv-x="1638" 
d="M915 2109h230l-227 -426h-195zM1303 799q0 295 -103 454l-668 -1011q113 -80 287 -80q484 0 484 637zM336 799q0 -295 102 -455l668 1012q-113 80 -287 80q-483 0 -483 -637zM1516 818q0 -408 -171 -625t-526 -218q-236 0 -395 103l-51 -78h-162l108 164
q-197 208 -197 616t172 625q171 217 525 217q236 0 395 -102l52 77h161l-108 -163q197 -208 197 -616z" />
    <glyph glyph-name="oslashacute" unicode="&#x1ff;" horiz-adv-x="1208" 
d="M604 934q-147 0 -231 -95t-84 -279t61 -281l418 616q-66 39 -164 39zM1116 547q0 -283 -135 -427t-377 -145q-154 0 -268 62l-25 -37h-149l76 111q-146 145 -146 428t135 427t377 144q154 0 268 -61l25 36h150l-76 -110q145 -145 145 -428zM604 152q147 0 232 95
q84 95 84 279t-62 281l-418 -617q66 -38 164 -38zM700 1638h230l-228 -426h-194z" />
    <glyph glyph-name="Scommaaccent" unicode="&#x218;" horiz-adv-x="1460" 
d="M610 -127h240l-94 -283h-181zM1141 451q0 143 -87 206t-321 86q-319 26 -448 137q-49 42 -82 112t-33 165q-2 229 157 347t400 118q555 0 614 -436l-208 -23q-21 143 -117 208t-289 65q-112 0 -222 -53q-128 -61 -128 -237q0 -96 74 -146t288 -74q160 -14 259 -38
q100 -24 184 -73q163 -95 161 -354q0 -162 -90 -276q-164 -208 -520 -210q-561 0 -622 447l208 20q25 -148 123 -214t278 -65t300 73q121 72 121 215z" />
    <glyph glyph-name="scommaaccent" unicode="&#x219;" horiz-adv-x="1105" 
d="M438 -127h240l-94 -283h-181zM834 319q0 84 -54 110t-196 40q-12 2 -22 2t-76 8q-67 8 -134 22q-68 13 -100 33t-72 49q-72 55 -73 179q-1 123 70 204q126 144 368 144q418 0 463 -324l-205 -24q-17 90 -77 134t-181 42q-238 -4 -238 -158q0 -56 46 -91q36 -27 238 -48
q203 -21 286 -53q159 -70 159 -253t-144 -271t-345 -89q-430 0 -473 326l205 27q18 -90 79 -137q62 -46 187 -44q289 8 289 172z" />
    <glyph glyph-name="bullseye" unicode="&#x298;" horiz-adv-x="1966" 
d="M322 694q0 -231 162 -394t394 -163t396 163t164 394q0 232 -164 396t-395 164t-395 -164q-162 -165 -162 -396zM676 799q0 127 90 217t217 90t217 -90t90 -217t-90 -217t-217 -90t-217 90t-90 217zM164 799q0 339 240 579t579 240q340 0 580 -240q239 -240 239 -580
t-240 -579t-579 -239q-340 0 -580 239q-239 240 -239 580z" />
    <glyph glyph-name="bullseye" unicode="&#x25ce;" horiz-adv-x="1966" 
d="M322 694q0 -231 162 -394t394 -163t396 163t164 394q0 232 -164 396t-395 164t-395 -164q-162 -165 -162 -396zM676 799q0 127 90 217t217 90t217 -90t90 -217t-90 -217t-217 -90t-217 90t-90 217zM164 799q0 339 240 579t579 240q340 0 580 -240q239 -240 239 -580
t-240 -579t-579 -239q-340 0 -580 239q-239 240 -239 580z" />
    <glyph glyph-name="circumflex" unicode="&#x2c6;" 
d="M520 1638h189l311 -426h-199l-207 261l-206 -261h-199z" />
    <glyph glyph-name="caron" unicode="&#x2c7;" 
d="M709 1212h-189l-311 426h199l206 -260l207 260h199z" />
    <glyph glyph-name="breve" unicode="&#x2d8;" 
d="M614 1219q-209 0 -297 105t-86 314h160q-2 -135 50 -191t173 -56t173 56t51 191h159q2 -209 -86 -314t-297 -105z" />
    <glyph glyph-name="dotaccent" unicode="&#x2d9;" 
d="M729 1536v-227h-229v227h229z" />
    <glyph glyph-name="ring" unicode="&#x2da;" 
d="M711 1425q0 45 -26 72t-71 27q-44 0 -70 -27t-26 -72t26 -71t70 -27q44 1 71 27q26 26 26 71zM377 1425q0 104 63 171t174 67t174 -67q64 -67 64 -171t-64 -171q-64 -66 -174 -66q-111 0 -174 66t-63 171z" />
    <glyph glyph-name="ogonek" unicode="&#x2db;" 
d="M778 -203q0 -82 94 -82q60 0 134 33q8 4 8 6l45 -137q-81 -51 -197 -51t-184 52t-68 164t106 207t279 138l41 -127q-104 -12 -181 -72t-77 -131z" />
    <glyph glyph-name="tilde" unicode="&#x2dc;" 
d="M746 1593q64 0 119 -18q54 -18 106 -82q18 -23 24 -39l9 -14l-95 -117q-41 82 -129 86q-41 2 -82 -35t-96 -75q-56 -37 -120 -37t-119 18t-105 80q-18 23 -33 53l94 117q41 -82 130 -86q41 -2 81 36t96 76t120 37z" />
    <glyph glyph-name="hungarumlaut" unicode="&#x2dd;" 
d="M870 1638h230l-228 -426h-194zM543 1638h229l-227 -426h-195z" />
    <glyph glyph-name="commaabovecmb" unicode="&#x313;" 
d="M711 1212h-222l142 426h176z" />
    <glyph glyph-name="pi" unicode="&#x3c0;" horiz-adv-x="1452" 
d="M1352 907h-297v-575q0 -90 35 -132q34 -42 112 -44t135 26l21 -182q-66 -25 -158 -25q-262 0 -324 224q-15 53 -16 112v596h-346v-727l-31 -180h-180l14 268v639h-258v178h1293v-178z" />
    <glyph glyph-name="Wgrave" unicode="&#x1e80;" horiz-adv-x="1953" 
d="M666 2109h229l192 -426h-194zM1063 1016l-86 305l-86 -305l-326 -1041h-174l-338 1622h213l176 -942l54 -321l92 321l295 942h188l295 -942l92 -321l53 321l177 942h213l-338 -1622h-174z" />
    <glyph glyph-name="wgrave" unicode="&#x1e81;" horiz-adv-x="1665" 
d="M520 1638h230l192 -426h-194zM1135 -25l-304 875l-303 -875h-192l-268 1110h198l125 -577l51 -262l88 262l201 577h201l201 -577l88 -262l51 262l125 577h198l-268 -1110h-192z" />
    <glyph glyph-name="Wacute" unicode="&#x1e82;" horiz-adv-x="1953" 
d="M1073 2109h230l-228 -426h-194zM1063 1016l-86 305l-86 -305l-326 -1041h-174l-338 1622h213l176 -942l54 -321l92 321l295 942h188l295 -942l92 -321l53 321l177 942h213l-338 -1622h-174z" />
    <glyph glyph-name="wacute" unicode="&#x1e83;" horiz-adv-x="1665" 
d="M928 1638h229l-227 -426h-195zM1135 -25l-304 875l-303 -875h-192l-268 1110h198l125 -577l51 -262l88 262l201 577h201l201 -577l88 -262l51 262l125 577h198l-268 -1110h-192z" />
    <glyph glyph-name="Wdieresis" unicode="&#x1e84;" horiz-adv-x="1953" 
d="M887 2007v-227h-230v227h230zM1296 2007v-227h-229v227h229zM1063 1016l-86 305l-86 -305l-326 -1041h-174l-338 1622h213l176 -942l54 -321l92 321l295 942h188l295 -942l92 -321l53 321l177 942h213l-338 -1622h-174z" />
    <glyph glyph-name="wdieresis" unicode="&#x1e85;" horiz-adv-x="1665" 
d="M741 1536v-227h-229v227h229zM1151 1536v-227h-229v227h229zM1135 -25l-304 875l-303 -875h-192l-268 1110h198l125 -577l51 -262l88 262l201 577h201l201 -577l88 -262l51 262l125 577h198l-268 -1110h-192z" />
    <glyph glyph-name="Ygrave" unicode="&#x1ef2;" horiz-adv-x="1495" 
d="M436 2109h230l192 -426h-194zM850 0h-205v664l-620 933h235l305 -469l183 -288l182 288l305 469h235l-620 -933v-664z" />
    <glyph glyph-name="ygrave" unicode="&#x1ef3;" horiz-adv-x="1150" 
d="M264 1638h230l192 -426h-194zM1126 1085l-440 -1013l-197 -482h-225l209 463l-448 1032h221l329 -829l330 829h221z" />
    <glyph glyph-name="enspace" unicode="&#x2002;" horiz-adv-x="1269" 
 />
    <glyph glyph-name="emspace" unicode="&#x2003;" horiz-adv-x="1802" 
 />
    <glyph glyph-name="endash" unicode="&#x2013;" horiz-adv-x="1269" 
d="M1167 594h-1065v184h1065v-184z" />
    <glyph glyph-name="emdash" unicode="&#x2014;" horiz-adv-x="1802" 
d="M1700 594h-1598v184h1598v-184z" />
    <glyph glyph-name="quoteleft" unicode="&#x2018;" horiz-adv-x="352" 
d="M213 1085h-233l170 512h126z" />
    <glyph glyph-name="quoteright" unicode="&#x2019;" horiz-adv-x="352" 
d="M139 1597h234l-170 -512h-129z" />
    <glyph glyph-name="quotesinglbase" unicode="&#x201a;" horiz-adv-x="352" 
d="M88 176h236l-172 -512h-127z" />
    <glyph glyph-name="quotedblleft" unicode="&#x201c;" horiz-adv-x="696" 
d="M563 1085h-235l170 512h129zM213 1085h-233l170 512h126z" />
    <glyph glyph-name="quotedblright" unicode="&#x201d;" horiz-adv-x="702" 
d="M139 1597h234l-170 -512h-129zM487 1597h236l-170 -512h-129z" />
    <glyph glyph-name="quotedblbase" unicode="&#x201e;" horiz-adv-x="702" 
d="M88 176h236l-172 -512h-127zM436 176h236l-170 -512h-129z" />
    <glyph glyph-name="dagger" unicode="&#x2020;" horiz-adv-x="634" 
d="M231 1597h172l-24 -241l244 22v-170l-244 25l27 -434h-177l27 434l-244 -25v170l244 -22z" />
    <glyph glyph-name="daggerdbl" unicode="&#x2021;" horiz-adv-x="634" 
d="M231 1597h172l-24 -241l244 22v-170l-244 25l10 -105l-10 -102l244 23v-170l-244 24l27 -434h-177l27 434l-244 -24v170l244 -23l-10 102l10 105l-244 -25v170l244 -22z" />
    <glyph glyph-name="bullet" unicode="&#x2022;" horiz-adv-x="800" 
d="M686 971v-570h-571v570h571z" />
    <glyph glyph-name="ellipsis" unicode="&#x2026;" horiz-adv-x="2088" 
d="M1835 227v-227h-229v227h229zM1159 227v-227h-229v227h229zM483 227v-227h-229v227h229z" />
    <glyph glyph-name="perthousand" unicode="&#x2030;" horiz-adv-x="3198" 
d="M2679 838q186 0 297 -110q110 -110 110 -320t-110 -322q-110 -111 -296 -111q-187 0 -298 111t-111 322q0 210 111 320t297 110zM2679 139q231 -1 231 267t-231 268t-231 -268t231 -267zM1724 838q186 0 297 -110t111 -320t-110 -322q-110 -111 -297 -111t-298 111
t-110 322q1 210 111 320t296 110zM1724 139q232 -1 232 267t-232 268t-231 -268q0 -268 231 -267zM520 727q-186 0 -297 110q-111 111 -111 321t110 321t297 111t298 -112q111 -110 111 -321t-111 -321t-297 -109zM520 1425q-231 0 -231 -267t231 -267t231 267t-231 267z
M1759 1565l-1061 -1565h-213l1061 1565h213z" />
    <glyph glyph-name="guilsinglleft" unicode="&#x2039;" horiz-adv-x="614" 
d="M512 324v-158l-426 289v176l426 289v-158l-252 -219z" />
    <glyph glyph-name="guilsinglright" unicode="&#x203a;" horiz-adv-x="614" 
d="M102 166v158l252 219l-252 219v158l426 -289v-176z" />
    <glyph glyph-name="fraction" unicode="&#x2044;" horiz-adv-x="419" 
d="M846 1565l-1061 -1565h-213l1061 1565h213z" />
    <glyph glyph-name="Euro" unicode="&#x20ac;" horiz-adv-x="1574" 
d="M465 864v-164h555l-51 -157h-484q66 -385 410 -385q170 0 253 70t107 212l209 -20q-59 -442 -569 -443q-530 0 -621 566h-219v157h203v164h-203v158h219q90 565 621 565q510 0 569 -442l-209 -21q-25 143 -107 213q-83 70 -253 70q-344 0 -410 -385h637l-51 -158h-606z
" />
    <glyph glyph-name="afii61289" unicode="&#x2113;" horiz-adv-x="735" 
d="M340 1094v-293q70 88 119 223t49 266t-66 131q-102 1 -102 -327zM143 1040q0 557 297 557q124 0 182 -90t58 -235q0 -205 -102 -403t-238 -332v-222q0 -87 27 -119t101 -33t130 27l27 -188q-61 -25 -185 -25q-124 -1 -211 61q-86 62 -86 189v160q-63 -47 -86 -61v204
q37 25 86 66v444z" />
    <glyph glyph-name="servicemark" unicode="&#x2120;" horiz-adv-x="1136" 
d="M231 1034q-201 0 -219 166l97 10q14 -86 122 -86q43 0 80 23t37 61t-25 56q-26 18 -105 26t-132 40t-53 112t55 122t141 42q195 0 213 -160l-94 -8q-14 80 -119 80q-37 0 -67 -18t-31 -54q0 -35 22 -50q22 -14 108 -24q87 -10 135 -43t48 -119t-62 -131t-151 -45z
M1075 1597v-553h-94v271l2 94l-141 -365h-82l-142 365l3 -94v-271h-95v553h115l125 -319l35 -98l35 98l125 319h114z" />
    <glyph glyph-name="trademark" unicode="&#x2122;" horiz-adv-x="1136" 
d="M266 1505v-461h-98v461h-164v92h428v-92h-166zM1061 1597v-553h-94v271l2 94l-142 -365h-82l-141 365l2 -94v-271h-94v553h115l125 -319l34 -98l35 98l125 319h115z" />
    <glyph glyph-name="estimated" unicode="&#x212e;" horiz-adv-x="1628" 
d="M815 1456q-475 0 -504 -584h1006q-27 584 -502 584zM1614 715h-1303q29 -582 504 -582q504 0 580 406h188q-41 -285 -242 -424t-541 -139t-562 222q-222 224 -222 596t222 595t577 223t577 -223t222 -594v-80z" />
    <glyph glyph-name="arrowleft" unicode="&#x2190;" horiz-adv-x="1802" 
d="M1700 895v-195h-1079l-183 2l180 -96l314 -184v-229l-854 526v158l854 526v-229l-314 -185l-180 -96l183 2h1079z" />
    <glyph glyph-name="arrowup" unicode="&#x2191;" horiz-adv-x="1802" 
d="M997 0h-194v1079l2 183l-96 -181l-185 -313h-229l526 854h158l526 -854h-229l-184 313l-97 181l2 -183v-1079z" />
    <glyph glyph-name="arrowright" unicode="&#x2192;" horiz-adv-x="1802" 
d="M102 700v195h1080l182 -2l-180 96l-314 185v229l854 -526v-158l-854 -526v229l314 184l180 96l-182 -2h-1080z" />
    <glyph glyph-name="arrowdown" unicode="&#x2193;" horiz-adv-x="1802" 
d="M803 1599h194v-1079l-2 -182l97 180l184 313h229l-526 -854h-158l-526 854h229l185 -313l96 -180l-2 182v1079z" />
    <glyph glyph-name="minus" unicode="&#x2212;" horiz-adv-x="1003" 
d="M907 702h-811v193h811v-193z" />
    <glyph glyph-name="approxequal" unicode="&#x2248;" horiz-adv-x="1003" 
d="M696 791q109 0 192 -74q19 -16 25 -29l9 -12l-50 -162q-18 30 -72 58t-117 30t-165 -70t-199 -72t-155 38t-74 65l-8 12l49 160q22 -33 74 -58q53 -26 115 -28t165 70q102 72 211 72zM485 1065q102 72 211 72t192 -74q19 -16 25 -29l9 -12l-50 -162l-4 4q-2 4 -7 8
t-14 15t-56 36q-48 25 -110 26q-61 1 -163 -71t-199 -71q-97 -1 -155 37t-74 65l-8 13l49 159q22 -33 74 -58q53 -26 115 -28t165 70z" />
    <glyph glyph-name="notequal" unicode="&#x2260;" horiz-adv-x="1003" 
d="M96 524v193h258l103 164h-361v192h482l131 209h192l-131 -209h137v-192h-258l-102 -164h360v-193h-481l-131 -209h-193l131 209h-137z" />
    <glyph glyph-name="lessequal" unicode="&#x2264;" horiz-adv-x="1003" 
d="M317 940v-2l590 -219v-207l-811 322v210l811 322v-207zM907 229l-811 324v164l811 -320v-168z" />
    <glyph glyph-name="greaterequal" unicode="&#x2265;" horiz-adv-x="1003" 
d="M686 938v2l-590 219v207l811 -322v-210l-811 -322v207zM907 553l-811 -324v168l811 320v-164z" />
    <glyph glyph-name="blacksquare" unicode="&#x25a0;" horiz-adv-x="2007" 
d="M1802 1597v-1597h-1597v1597h1597z" />
    <glyph glyph-name="whitesquare" unicode="&#x25a1;" horiz-adv-x="2007" 
d="M1597 1401h-1187v-1204h1187v1204zM205 0v1597h1597v-1597h-1597z" />
    <glyph glyph-name="blacksmallsquare" unicode="&#x25aa;" horiz-adv-x="1495" 
d="M1290 1085v-1085h-1085v1085h1085z" />
    <glyph glyph-name="whitesmallsquare" unicode="&#x25ab;" horiz-adv-x="1495" 
d="M1085 889h-675v-692h675v692zM205 0v1085h1085v-1085h-1085z" />
    <glyph glyph-name="circle" unicode="&#x25cb;" horiz-adv-x="1495" 
d="M184 543q0 233 165 398t399 165t398 -165q165 -165 165 -398t-165 -399t-398 -164q-233 0 -399 164q-165 166 -165 399z" />
    <glyph glyph-name="blackcircle" unicode="&#x25cf;" horiz-adv-x="2007" 
d="M184 799q0 339 240 579t580 240t580 -240t239 -580q0 -340 -240 -579q-239 -239 -579 -239t-580 240t-240 579z" />
    <glyph glyph-name="musicflatsign" unicode="&#x266d;" horiz-adv-x="956" 
d="M739 804q0 253 -211 253q-114 -1 -198 -85t-94 -184v-669q72 29 155 93q208 160 296 360q52 118 52 232zM901 821q0 -283 -246 -554t-553 -359v1773h134v-641q43 76 131 125t174 49q186 0 273 -97t87 -296z" />
    <glyph glyph-name="musicsharpsign" unicode="&#x266f;" horiz-adv-x="923" 
d="M344 862v-317l238 190v316zM715 1597v-202l184 147v-235l-184 -148v-315l184 147v-235l-184 -148v-608h-133v500l-238 -189v-311h-133v203l-184 -148v236l184 147v316l-184 -148v236l184 147v608h133v-501l238 190v311h133z" />
    <glyph glyph-name="uniF639" unicode="&#xf639;" horiz-adv-x="1466" 
d="M732 1589q316 0 457 -196q140 -197 140 -611t-139 -610q-140 -196 -456 -197q-316 0 -456 197q-140 196 -140 610t138 611q140 196 456 196zM733 158q209 0 299 145t90 479t-90 480t-299 145q-209 0 -299 -145q-90 -146 -90 -480t90 -479t299 -145z" />
    <glyph glyph-name="uniF63A" unicode="&#xf63a;" horiz-adv-x="1445" 
d="M1331 0h-1214v12q0 315 129 471q47 57 89 95t135 91q93 52 240 113q146 61 178 76q122 60 154 106q54 79 55 158q1 80 -35 140q-60 98 -207 129q-56 12 -114 12q-163 -1 -275 -63t-124 -210l-203 21q55 436 602 436q240 0 398 -122t157 -345q0 -98 -42 -190
q-22 -50 -112 -129q-56 -47 -189 -105q-134 -59 -156 -69q-249 -113 -355 -204t-112 -241l444 2h557v-184z" />
    <glyph glyph-name="uniF63B" unicode="&#xf63b;" horiz-adv-x="1433" 
d="M1075 1155q-1 257 -381 251q-178 -2 -268 -64t-107 -205l-204 20q51 432 587 432q250 0 412 -106t162 -328q0 -143 -71 -229t-177 -111q121 -23 213 -118t92 -257q0 -209 -165 -337t-463 -128t-443 117t-170 322l205 22q17 -144 111 -210t282 -70q442 -4 443 284
q0 206 -184 251q-88 22 -224 22h-225v186h225q86 0 138 7q53 7 107 31q108 47 105 218z" />
    <glyph glyph-name="uniF63C" unicode="&#xf63c;" horiz-adv-x="1378" 
d="M807 549v524l4 203l-123 -191l-369 -538l195 2h293zM1296 365h-292v-365h-197v365h-725v139l745 1083h177v-1038h292v-184z" />
    <glyph glyph-name="uniF63D" unicode="&#xf63d;" horiz-adv-x="1400" 
d="M1194 1565v-187h-756l-45 -420q121 96 363 96t386 -136t144 -398t-166 -403t-436 -141t-406 111q-136 112 -165 323l204 22q23 -152 111 -215t262 -60t284 90t111 269q0 358 -356 365q-254 4 -371 -144l-172 41l82 787h926z" />
    <glyph glyph-name="uniF63E" unicode="&#xf63e;" horiz-adv-x="1429" 
d="M1094 502q0 344 -342 344q-166 0 -276 -92t-109 -260q0 -29 2 -56q74 -279 362 -278q163 0 263 83t100 259zM782 1403q-204 0 -324 -130t-122 -419h4q137 184 432 184q246 0 390 -142t144 -392t-155 -389q-156 -139 -403 -140q-311 0 -459 202q-147 201 -147 605t170 606
q171 202 487 201q219 0 343 -106t148 -264l-205 -25q-41 209 -303 209z" />
    <glyph glyph-name="uniF63F" unicode="&#xf63f;" horiz-adv-x="1284" 
d="M94 1378v187h1096v-135l-662 -1430h-215l559 1194l91 186l-359 -2h-510z" />
    <glyph glyph-name="uniF640" unicode="&#xf640;" horiz-adv-x="1423" 
d="M713 -25q-297 0 -448 114t-150 323q0 172 85 270t206 125q-106 25 -178 120q-71 95 -70 236q0 219 156 323q157 103 399 103q241 0 397 -103t156 -323q0 -141 -71 -236t-177 -120q121 -27 206 -125t85 -270q1 -209 -149 -323t-447 -114zM1108 424q0 293 -396 293
t-397 -293q1 -266 397 -266t396 266zM1063 1153q0 250 -351 250t-352 -250q0 -162 111 -219q88 -45 242 -45q254 0 321 127q29 55 29 137z" />
    <glyph glyph-name="uniF641" unicode="&#xf641;" horiz-adv-x="1429" 
d="M334 1063q0 -344 342 -344q166 0 276 92t109 260q0 29 -2 55q-74 279 -363 279q-162 0 -262 -83t-100 -259zM645 162q205 0 325 130t122 419h-5q-137 -184 -432 -185q-246 0 -390 142t-144 393q0 250 155 389q156 139 404 139q311 0 459 -201q147 -202 147 -606
t-171 -605q-171 -202 -486 -202q-219 1 -343 107t-149 264l205 25q39 -209 303 -209z" />
    <glyph glyph-name="uniF643" unicode="&#xf643;" horiz-adv-x="1433" 
d="M717 -25q-270 0 -435 151t-165 452q0 302 165 452t435 150t435 -151t165 -451t-165 -452q-165 -151 -435 -151zM717 160q177 0 285 98t108 320t-109 319q-109 98 -285 98t-284 -98t-108 -319t108 -320q109 -98 285 -98z" />
    <glyph glyph-name="uniF644" unicode="&#xf644;" horiz-adv-x="1433" 
d="M1296 0h-1067v184h430v697q-156 -152 -458 -230v197q171 49 281 126t210 206h166v-996h438v-184z" />
    <glyph glyph-name="uniF645" unicode="&#xf645;" horiz-adv-x="1433" 
d="M1069 795q0 123 -88 163t-257 39q-169 0 -257 -51t-107 -168l-204 23q44 379 582 379t538 -383q0 -96 -44 -167q-52 -93 -303 -151q-30 -6 -109 -21q-291 -55 -379 -122q-87 -67 -91 -152l346 2h615v-186h-1176q-10 276 116 410t421 188q39 8 145 27q129 23 185 48
q55 25 64 79q3 18 3 43z" />
    <glyph glyph-name="uniF646" unicode="&#xf646;" horiz-adv-x="1433" 
d="M131 748q52 432 553 432q262 0 416 -106t153 -329q1 -143 -71 -229t-176 -110q119 -23 212 -118t93 -257q0 -211 -157 -338t-468 -127q-526 0 -577 438l204 23q17 -147 103 -213t270 -68q422 -4 422 285q0 206 -170 251q-80 21 -217 21h-223v186h223q151 0 241 42
q89 42 89 214q0 256 -353 250q-182 -2 -264 -62t-98 -206z" />
    <glyph glyph-name="uniF647" unicode="&#xf647;" horiz-adv-x="1433" 
d="M834 186v490l2 194l-123 -182l-359 -504l185 2h295zM1323 0h-291v-410h-198v410h-725v139l745 1039h178v-992h291v-186z" />
    <glyph glyph-name="uniF648" unicode="&#xf648;" horiz-adv-x="1433" 
d="M1212 1155v-186h-755l-45 -420q123 96 340 96q264 0 408 -137q144 -136 144 -398t-165 -403q-167 -141 -437 -141t-405 112t-164 322l205 23q23 -152 109 -216q88 -63 262 -60q173 3 283 90t112 269q2 358 -356 365q-256 4 -369 -143l-172 41l80 786h925z" />
    <glyph glyph-name="uniF649" unicode="&#xf649;" horiz-adv-x="1433" 
d="M1083 502q0 344 -342 344q-165 0 -275 -92t-110 -260q0 -29 2 -56q74 -279 363 -278q162 0 262 83t100 259zM772 1403q-205 0 -325 -130t-121 -419h4q137 184 432 184q246 0 390 -142t144 -392t-156 -389t-403 -140q-311 0 -458 202q-147 201 -147 605t170 606
q171 202 486 201q219 0 343 -106t149 -264l-205 -25q-39 209 -303 209z" />
    <glyph glyph-name="uniF64A" unicode="&#xf64a;" horiz-adv-x="1433" 
d="M123 969v186h1196v-135l-709 -1430h-215l600 1194l90 187l-356 -2h-606z" />
    <glyph glyph-name="uniF64B" unicode="&#xf64b;" horiz-adv-x="1433" 
d="M717 -25q-297 0 -447 114t-149 323q0 172 85 270t206 125q-106 25 -178 120q-71 95 -70 236q0 219 155 323q156 103 398 103q241 0 397 -103t156 -323q0 -141 -71 -236t-177 -120q121 -27 206 -125t85 -270q1 -209 -149 -323t-447 -114zM717 717q-395 0 -395 -293
q0 -266 395 -266t395 266q0 293 -395 293zM717 1403q-350 0 -350 -250q0 -163 110 -219q88 -45 240 -45q254 0 321 127q29 55 29 137q0 250 -350 250z" />
    <glyph glyph-name="uniF64C" unicode="&#xf64c;" horiz-adv-x="1433" 
d="M344 653q0 -344 342 -344q166 0 276 92t109 261q0 29 -2 55q-74 279 -362 278q-163 0 -263 -83t-100 -259zM655 -248q205 0 325 130t122 419h-4q-137 -184 -432 -184q-246 0 -391 142q-144 142 -144 392t156 389t403 140q310 0 458 -202t148 -606t-171 -604
q-171 -202 -486 -202q-219 0 -343 106t-149 265l205 24q41 -209 303 -209z" />
    <glyph glyph-name="uniF655" unicode="&#xf655;" horiz-adv-x="1040" 
d="M521 -25q-187 0 -298 110t-111 322q0 211 110 321t297 110t298 -110t111 -320t-110 -322q-110 -111 -297 -111zM520 139q232 -1 232 267t-232 268t-231 -268q0 -268 231 -267z" />
    <glyph glyph-name="uniF656" unicode="&#xf656;" horiz-adv-x="608" 
d="M403 0h-172v594q-57 -49 -176 -80v170q76 30 120 62t91 92h137v-838z" />
    <glyph glyph-name="uniF657" unicode="&#xf657;" horiz-adv-x="860" 
d="M434 838q138 0 228 -68t90 -178t-53 -168q-39 -47 -173 -97q-135 -49 -184 -83t-61 -86l180 4h307v-162h-676q-4 217 87 308q48 48 96 75q49 27 141 63t128 60q36 25 36 69q0 102 -142 103q-80 0 -120 -26t-48 -89l-176 15q25 260 340 260z" />
    <glyph glyph-name="uniF658" unicode="&#xf658;" horiz-adv-x="872" 
d="M608 248q0 52 -29 75t-130 23h-132v143h134q65 1 97 17t32 74q0 100 -144 100q-78 -2 -116 -28t-46 -89l-176 15q18 260 336 260q140 0 230 -60t90 -186q0 -125 -99 -170q51 -18 88 -66t37 -125q0 -119 -90 -187t-266 -69q-319 0 -342 267l174 14q16 -121 172 -117
q180 -4 180 109z" />
    <glyph glyph-name="uniF659" unicode="&#xf659;" horiz-adv-x="823" 
d="M440 322v167l2 82l-170 -249h168zM756 160h-144v-160h-172v160h-374v121l397 557h149v-516h144v-162z" />
    <glyph glyph-name="uniF65A" unicode="&#xf65a;" horiz-adv-x="841" 
d="M575 272q0 145 -143 146q-109 0 -158 -68l-149 33l47 430h535v-164h-385l-17 -133q47 33 139 33q146 2 226 -68t80 -214t-92 -218t-244 -74q-154 0 -232 65t-90 196l174 16q10 -68 47 -94t106 -26q69 1 113 36t43 104z" />
    <glyph glyph-name="uniF65B" unicode="&#xf65b;" horiz-adv-x="860" 
d="M446 131q61 0 102 33q40 33 40 100q0 131 -131 135q-72 0 -116 -37t-43 -101t44 -97t104 -33zM479 543q285 0 285 -279q0 -141 -86 -215t-246 -74q-325 0 -323 435q0 212 94 320t270 108q131 0 207 -62t86 -168l-176 -14q-19 86 -119 88q-188 0 -190 -213q66 74 198 74z
" />
    <glyph glyph-name="uniF65C" unicode="&#xf65c;" horiz-adv-x="776" 
d="M76 649v164h622v-111l-329 -702h-191l311 649h-413z" />
    <glyph glyph-name="uniF65D" unicode="&#xf65d;" horiz-adv-x="860" 
d="M430 -25q-338 0 -338 244q0 147 119 199q-96 49 -96 177t89 185q89 58 226 58t226 -58t89 -185q0 -128 -96 -177q119 -51 119 -199q0 -244 -338 -244zM430 131q162 0 162 107q0 112 -162 112t-162 -112q0 -107 162 -107zM430 481q145 0 145 103q0 96 -145 96t-145 -96
q0 -103 145 -103z" />
    <glyph glyph-name="uniF65E" unicode="&#xf65e;" horiz-adv-x="860" 
d="M412 682q-62 0 -102 -33t-40 -100q0 -131 131 -135q72 0 116 37t43 101t-44 97t-104 33zM379 270q-285 0 -285 279q0 141 86 215t246 74q324 0 324 -435q0 -213 -94 -321t-271 -107q-131 -1 -207 61t-86 169l176 14q19 -86 119 -88q188 0 191 213q-66 -74 -199 -74z" />
    <glyph glyph-name="uniF661" unicode="&#xf661;" horiz-adv-x="1040" 
d="M928 1158q0 -212 -110 -322t-297 -109q-187 0 -298 110q-111 111 -111 321t110 321t297 111t298 -110t111 -322zM520 891q232 0 232 267t-232 267t-231 -267q0 -267 231 -267z" />
    <glyph glyph-name="uniF662" unicode="&#xf662;" horiz-adv-x="608" 
d="M403 752h-172v594q-57 -51 -176 -80v170q76 30 120 62t91 91h137v-837z" />
    <glyph glyph-name="uniF663" unicode="&#xf663;" horiz-adv-x="860" 
d="M434 1589q139 0 229 -67q89 -68 89 -178t-53 -168q-19 -23 -64 -48q-45 -26 -69 -34t-100 -36t-124 -63q-49 -35 -61 -86l180 4h307v-161h-676q-4 217 87 308q48 48 96 75q49 27 141 63t128 60t36 69q0 102 -142 103q-80 0 -120 -26t-48 -89l-176 14q25 260 340 260z" />
    <glyph glyph-name="uniF664" unicode="&#xf664;" horiz-adv-x="872" 
d="M608 999q0 54 -30 77q-30 22 -129 22h-132v143h134q65 0 97 16t32 74q0 100 -144 101q-78 -2 -116 -28t-46 -89l-176 14q18 260 336 260q140 0 230 -60q90 -59 90 -185t-99 -170q51 -18 88 -66t37 -125q0 -119 -90 -187t-266 -69q-319 0 -342 266l174 15
q16 -121 172 -117q180 -4 180 108z" />
    <glyph glyph-name="uniF665" unicode="&#xf665;" horiz-adv-x="823" 
d="M440 1073v168l2 82l-170 -250h168zM756 911h-144v-159h-172v159h-374v121l397 557h149v-516h144v-162z" />
    <glyph glyph-name="uniF666" unicode="&#xf666;" horiz-adv-x="841" 
d="M575 1024q0 145 -143 145q-109 0 -158 -67l-149 33l47 430h535v-164h-385l-17 -133q47 33 139 32q145 2 226 -67q80 -70 80 -214t-92 -218t-244 -74q-298 0 -322 260l174 17q10 -68 47 -94t106 -26q69 1 113 36t43 104z" />
    <glyph glyph-name="uniF667" unicode="&#xf667;" horiz-adv-x="860" 
d="M588 1016q0 131 -131 135q-72 0 -116 -37t-43 -101q1 -63 44 -97t104 -34t102 33q40 33 40 101zM764 1016q0 -141 -86 -215t-246 -74q-325 0 -323 434q0 213 94 321t270 107q131 0 207 -61t86 -168l-176 -14q-19 86 -119 88q-188 0 -190 -213q66 74 198 73
q285 0 285 -278z" />
    <glyph glyph-name="uniF668" unicode="&#xf668;" horiz-adv-x="776" 
d="M76 1401v164h622v-111l-329 -702h-191l311 649h-413z" />
    <glyph glyph-name="uniF669" unicode="&#xf669;" horiz-adv-x="860" 
d="M430 727q-338 0 -338 244q0 147 119 198q-96 49 -96 177t89 186q89 57 226 57t226 -57t89 -185t-96 -178q119 -51 119 -198q0 -244 -338 -244zM430 883q162 0 162 106q0 113 -162 113t-162 -113q0 -106 162 -106zM430 1233q145 0 145 102q0 97 -145 97t-145 -97
q0 -102 145 -102z" />
    <glyph glyph-name="uniF66A" unicode="&#xf66a;" horiz-adv-x="860" 
d="M412 1434q-62 0 -102 -33t-40 -101q0 -131 131 -135q72 0 116 37q44 38 43 102t-44 97t-104 33zM379 1022q-285 0 -285 278q0 142 86 216t246 74q324 -1 324 -435q0 -213 -94 -321t-271 -107q-131 0 -207 61t-86 168l176 15q19 -86 119 -88q188 0 191 213
q-66 -74 -199 -74z" />
    <glyph glyph-name="dotlessj" unicode="&#xf6be;" horiz-adv-x="528" 
d="M166 -2v1087h196v-1099q0 -178 -72 -290q-84 -130 -323 -130q-82 0 -147 24l20 183q54 -29 144 -27t136 54t46 198z" />
    <glyph glyph-name="commaaccent" unicode="&#xf6c3;" 
d="M500 -127h239l-94 -283h-180z" />
    <glyph glyph-name="uniF6DC" unicode="&#xf6dc;" horiz-adv-x="882" 
d="M637 0h-201v1296q-125 -119 -358 -190v194q139 56 220 116t173 173h166v-1589z" />
    <glyph glyph-name="dollaroldstyle" unicode="&#xf724;" horiz-adv-x="1132" 
d="M549 928q-89 0 -155 -42t-66 -102t32 -87q32 -26 123 -42l68 273h-2zM545 154q115 0 195 44t81 116q0 71 -43 101t-160 48l-75 -309h2zM1026 318q0 -92 -46 -165q-79 -126 -291 -165q-87 -17 -187 -17l-35 -129h-182l37 152q-135 31 -228 98l47 178q125 -74 224 -96
l77 315q-231 34 -296 155q-28 52 -28 134t43 151q70 116 264 161q81 18 171 18l33 135h182l-37 -151q154 -29 262 -103l-45 -178q-127 80 -262 102l-70 -284q266 -33 336 -162q31 -57 31 -149z" />
    <glyph glyph-name="zerooldstyle" unicode="&#xf730;" horiz-adv-x="1351" 
d="M1237 543q1 -285 -151 -427t-409 -141q-257 -1 -409 141t-151 427q0 285 150 426q151 141 408 141t409 -141t153 -426zM676 158q162 0 259 90t97 295t-97 295t-259 90t-259 -90t-97 -295t96 -295q98 -90 260 -90z" />
    <glyph glyph-name="oneoldstyle" unicode="&#xf731;" horiz-adv-x="860" 
d="M621 0h-199v813q-125 -119 -359 -190v196q139 53 221 113t171 174h166v-1106z" />
    <glyph glyph-name="twooldstyle" unicode="&#xf732;" horiz-adv-x="1236" 
d="M106 0v6q-8 288 123 415q115 111 307 155q72 16 150 32q137 28 164 71q27 42 29 85q0 172 -273 172q-231 0 -266 -182l-205 26q18 154 137 242t336 88q272 0 407 -144q75 -81 75 -200t-79 -203q-28 -29 -98 -57q-113 -46 -260 -76q-322 -78 -329 -248l323 2h463v-184
h-1004z" />
    <glyph glyph-name="threeoldstyle" unicode="&#xf733;" horiz-adv-x="1335" 
d="M1032 2q0 180 -111 230q-55 26 -111 33t-142 7h-224v181h215q174 0 230 24q96 43 96 207q0 250 -332 246q-159 -4 -239 -66t-97 -196l-204 20q51 422 538 422q242 0 387 -100t146 -326q0 -260 -219 -315q113 -25 191 -116t77 -257q0 -198 -153 -314t-422 -116t-406 112
t-162 310l205 22q18 -136 99 -200t243 -66q395 -10 395 258z" />
    <glyph glyph-name="fouroldstyle" unicode="&#xf734;" horiz-adv-x="1359" 
d="M797 180v471l4 164l-367 -485l-117 -150h480zM1286 0h-293v-410h-196v410h-725v135l749 971h172v-926h293v-180z" />
    <glyph glyph-name="fiveoldstyle" unicode="&#xf735;" horiz-adv-x="1349" 
d="M1171 1085v-184h-755l-39 -389q131 88 338 88q260 4 400 -127t140 -386q-1 -255 -157 -388t-410 -133q-528 0 -584 424l207 20q23 -138 113 -204t260 -63t271 85t102 258q0 334 -348 340q-256 4 -367 -139l-176 43l76 755h929z" />
    <glyph glyph-name="sixoldstyle" unicode="&#xf736;" horiz-adv-x="1411" 
d="M1085 504q-1 344 -347 344q-168 0 -282 -110t-94 -298q74 -279 361 -278q164 0 263 83t99 259zM778 1434q-200 0 -322 -148t-124 -440q123 188 432 188q248 0 388 -137t140 -390t-152 -392t-401 -140q-309 0 -455 203q-146 202 -146 608t171 620q172 214 490 214
q215 0 335 -99t146 -257l-203 -25q-39 195 -299 195z" />
    <glyph glyph-name="sevenoldstyle" unicode="&#xf737;" horiz-adv-x="1171" 
d="M74 901v184h1024v-135l-629 -1360h-215l524 1125l90 188l-360 -2h-434z" />
    <glyph glyph-name="eightoldstyle" unicode="&#xf738;" horiz-adv-x="1404" 
d="M702 1438q-158 0 -254 -62t-96 -196q0 -276 350 -276t351 276q-1 134 -97 196t-254 62zM1255 1192q0 -146 -71 -246q-72 -100 -176 -125q120 -27 206 -126t86 -271q0 -207 -158 -328t-440 -121t-440 121t-158 328q0 172 86 271t207 126q-104 25 -176 125q-71 100 -71 246
t82 247q150 183 471 183t469 -183q83 -101 83 -247zM702 156q186 0 291 69q104 70 105 209q0 175 -130 242q-110 57 -266 57q-155 0 -265 -57q-130 -67 -130 -242q1 -138 105 -208t290 -70z" />
    <glyph glyph-name="nineoldstyle" unicode="&#xf739;" horiz-adv-x="1411" 
d="M322 589q0 -169 88 -249t257 -81q170 -1 285 105t90 285q-39 143 -127 207q-89 64 -243 64t-252 -81t-98 -250zM635 -252q207 0 321 115t117 385q-67 -90 -187 -133t-243 -43q-244 0 -385 134t-141 381t152 384q153 137 401 137q319 0 460 -198q142 -198 142 -594
t-165 -572t-484 -176q-219 0 -336 89t-146 239l209 26q35 -174 285 -174z" />
    <glyph glyph-name="centoldstyle" unicode="&#xf7a2;" horiz-adv-x="1171" 
d="M293 543q0 -238 133 -336l182 729q-147 -4 -231 -106t-84 -287zM100 543q0 271 134 419t374 148q29 0 43 -2l33 135h182l-41 -164q217 -68 254 -305l-202 -24q-25 106 -97 147l-184 -747h12q229 -2 269 186l202 -25q-53 -336 -471 -336l-55 2l-33 -135h-182l43 176
q-281 121 -281 525z" />
    <glyph glyph-name="fi" unicode="&#xfb01;" horiz-adv-x="1363" 
d="M1214 1536v-227h-229v227h229zM1001 0v1085h197v-1085h-197zM61 920v165h220v158q0 306 194 386q83 34 183 34t165 -25l-18 -182q-63 29 -125 27q-111 -2 -158 -53t-47 -199v-146h309v-165h-309v-920h-194v920h-220z" />
    <glyph glyph-name="fl" unicode="&#xfb02;" horiz-adv-x="1363" 
d="M1001 0v1638h197v-1638h-197zM61 920v165h220v158q0 306 194 386q83 34 183 34t165 -25l-18 -182q-63 29 -125 27q-111 -2 -158 -53t-47 -199v-146h309v-165h-309v-920h-194v920h-220z" />
    <glyph glyph-name="underscoremonospace" unicode="&#xff3f;" horiz-adv-x="1433" 
d="M1393 -410h-1352v185h1352v-185z" />
    <glyph glyph-name="idotaccent" horiz-adv-x="528" 
d="M379 1536v-227h-229v227h229zM166 0v1085h196v-1085h-196z" />
    <glyph glyph-name="cordinal" horiz-adv-x="923" 
d="M90 1198q0 204 101 314t286 110q328 0 365 -268l-176 -23q-14 66 -58 100q-44 33 -137 31q-94 -2 -149 -70q-56 -68 -56 -194t56 -194t149 -70q94 -2 137 32t58 99l176 -23q-37 -268 -365 -268q-183 0 -285 110t-102 314z" />
    <glyph glyph-name="acute.cap" 
d="M711 2109h229l-227 -426h-195z" />
    <glyph glyph-name="grave.cap" 
d="M303 2109h229l193 -426h-195z" />
    <glyph glyph-name="circumflex.cap" 
d="M520 2109h189l311 -426h-199l-207 261l-206 -261h-199z" />
    <glyph glyph-name="dieresis.cap" 
d="M934 2007v-227h-229v227h229zM524 2007v-227h-229v227h229z" />
    <glyph glyph-name="tilde.cap" 
d="M746 2064q64 0 119 -18q54 -18 106 -82q18 -23 24 -39l9 -14l-95 -117q-41 82 -129 86q-41 2 -82 -35t-96 -75q-56 -38 -120 -38t-119 19q-55 18 -105 80q-18 23 -33 53l94 117q41 -82 130 -86q41 -2 81 36q40 37 96 75t120 38z" />
    <glyph glyph-name="ring.cap" 
d="M711 1896q0 45 -26 72t-71 27q-44 0 -70 -27t-26 -72q0 -46 26 -72t70 -26t71 26q26 26 26 72zM377 1896q0 104 63 171t174 67t174 -67q64 -67 64 -171t-64 -171t-174 -67q-111 0 -174 68q-63 66 -63 170z" />
    <glyph glyph-name="caron.cap" 
d="M709 1683h-189l-311 426h199l206 -260l207 260h199z" />
    <glyph glyph-name="macron.cap" 
d="M909 1806h-590v185h590v-185z" />
    <glyph glyph-name="breve.cap" 
d="M614 1690q-209 0 -297 105t-86 314h160q-2 -135 50 -191t173 -56t173 56t51 191h159q2 -209 -86 -314t-297 -105z" />
    <glyph glyph-name="hungarumlaut.cap" 
d="M870 2109h230l-228 -426h-194zM543 2109h229l-227 -426h-195z" />
    <glyph glyph-name="dotaccent.cap" 
d="M729 2007v-227h-229v227h229z" />
    <glyph glyph-name="exclamdown.cap" horiz-adv-x="540" 
d="M397 0h-254l62 1176h133zM156 1370v227h229v-227h-229z" />
    <glyph glyph-name="questiondown.cap" horiz-adv-x="1241" 
d="M567 1370v227h230v-227h-230zM823 1000q0 -145 -61 -203q-27 -27 -36 -37t-48 -33t-44 -25q-45 -18 -145 -71q-99 -53 -133 -124q-20 -44 -20 -99q0 -246 293 -246q147 0 229 61t105 201l202 -23q-55 -426 -536 -426q-229 0 -368 113q-138 113 -138 315t126 298
q97 75 207 121t155 91q44 45 44 112t-18 153h147q39 -122 39 -178z" />
    <glyph glyph-name="guilsinglleft.cap" horiz-adv-x="614" 
d="M512 580v-158l-426 289v176l426 289v-158l-252 -219z" />
    <glyph glyph-name="guilsinglright.cap" horiz-adv-x="614" 
d="M102 422v158l252 219l-252 219v158l426 -289v-176z" />
    <glyph glyph-name="guillemotleft.cap" horiz-adv-x="1064" 
d="M963 580v-158l-426 289v176l426 289v-158l-252 -219zM512 580v-158l-426 289v176l426 289v-158l-252 -219z" />
    <glyph glyph-name="guillemotright.cap" horiz-adv-x="1064" 
d="M102 422v158l252 219l-252 219v158l426 -289v-176zM553 422v158l252 219l-252 219v158l426 -289v-176z" />
    <glyph glyph-name="periodcentered.cap" horiz-adv-x="491" 
d="M360 913v-227h-229v227h229z" />
    <glyph glyph-name="hyphen.cap" horiz-adv-x="737" 
d="M635 707h-533v184h533v-184z" />
    <glyph glyph-name="endash.cap" horiz-adv-x="1269" 
d="M1167 707h-1065v184h1065v-184z" />
    <glyph glyph-name="emdash.cap" horiz-adv-x="1802" 
d="M1700 707h-1598v184h1598v-184z" />
    <glyph glyph-name="parenleft.cap" horiz-adv-x="538" 
d="M299 799q0 -520 213 -983h-195q-98 168 -161 431t-64 552q0 289 64 552q63 263 161 431h195q-213 -463 -213 -983z" />
    <glyph glyph-name="parenright.cap" horiz-adv-x="538" 
d="M242 799q0 520 -213 983h194q97 -168 161 -431t64 -552t-62 -552q-64 -263 -163 -431h-194q213 463 213 983z" />
    <glyph glyph-name="bracketleft.cap" horiz-adv-x="538" 
d="M508 1593h-119v-1589h119v-188h-324v1966h324v-189z" />
    <glyph glyph-name="bracketright.cap" horiz-adv-x="538" 
d="M31 4h119v1589h-119v189h323v-1966h-323v188z" />
    <glyph glyph-name="braceleft.cap" horiz-adv-x="616" 
d="M553 4h41v-188h-51q-342 0 -342 340v379q0 102 -34 138t-108 36h-43v180h43q74 0 108 36t34 138v379q0 340 342 340h51v-189h-41q-76 0 -116 -37t-40 -137v-377q0 -170 -108 -243q109 -76 108 -244v-377q0 -100 40 -137t116 -37z" />
    <glyph glyph-name="braceright.cap" horiz-adv-x="616" 
d="M63 1593h-43v189h52q344 0 344 -340v-379q0 -102 34 -138t107 -36h41v-180h-41q-73 0 -107 -36t-34 -138v-379q0 -340 -344 -340h-52v188h43q76 0 116 37t40 137v377q0 170 109 244q-109 76 -109 243v377q0 100 -40 137t-116 37z" />
    <glyph glyph-name="at.cap" horiz-adv-x="2136" 
d="M1468 317h-112l-23 148q-37 -74 -127 -122t-196 -48q-201 0 -332 126t-131 378t131 378t332 126q106 -1 196 -49t127 -121l23 147h180l-14 -270v-516q186 0 258 127t71 370q0 291 -192 478q-193 187 -579 187t-588 -228t-203 -630q0 -402 207 -630t600 -227
q266 -1 414 69t178 164l208 -27q-32 -161 -234 -273t-579 -112q-467 0 -727 276t-260 760q0 482 261 760t725 278t710 -232q246 -231 246 -613q0 -342 -132 -508t-438 -166zM1026 1120q-285 0 -285 -322t285 -321q129 0 210 79t91 177v131q-10 98 -91 177t-210 79z" />
    <glyph glyph-name="registered.superior" horiz-adv-x="716" 
d="M117 1309q1 -100 71 -170t171 -70t171 70t70 171t-70 172q-70 70 -171 70t-172 -71q-70 -72 -70 -172zM285 1333h98q53 0 53 50t-53 51h-98v-101zM285 1266v-144h-68v377h162q127 0 127 -115q0 -90 -74 -110l72 -152h-84l-64 144h-71zM47 1311q0 129 91 220t220 91
q128 0 220 -91t92 -220t-91 -220t-221 -91t-220 90q-91 92 -91 221z" />
    <glyph glyph-name="recording" horiz-adv-x="1843" 
d="M285 799q0 -265 186 -451q187 -186 451 -186t450 186t186 450t-186 451t-450 187t-450 -186t-187 -451zM776 647v-348h-178v999h403q145 0 244 -75q98 -76 98 -248q0 -132 -46 -192q-25 -35 -49 -59t-68 -38t-72 -23q-29 -9 -103 -14t-143 -3q-68 1 -86 1zM776 823h228
q156 0 155 152q0 63 -27 98q-28 35 -61 43t-80 8h-215v-301zM98 799q0 341 242 581t582 240t580 -241t241 -581q0 -340 -241 -580q-242 -241 -582 -241t-581 241t-241 581z" />
    <glyph glyph-name="zero.slash" horiz-adv-x="1433" 
d="M717 158q209 0 299 145t90 453t-59 442l-539 -985q82 -55 209 -55zM717 1407q-209 0 -299 -145q-90 -144 -90 -452t59 -443l539 985q-82 55 -209 55zM718 -25q-316 0 -456 197q-139 196 -139 610t138 611q139 197 455 197t455 -198q139 -196 139 -610t-138 -610
t-454 -197z" />
    <glyph glyph-name="Eurooldstyle" horiz-adv-x="1253" 
d="M51 584v161h150q45 177 170 271t315 94q418 0 471 -336l-203 -24q-39 188 -268 186q-205 -6 -280 -191h460l-51 -161h-444v-82h417l-51 -162h-331q76 -186 280 -190q229 -2 268 186l203 -25q-53 -336 -471 -336q-190 1 -315 95t-170 270h-150v162h127v82h-127z" />
    <glyph glyph-name="sterlingoldstyle" horiz-adv-x="1265" 
d="M459 717v-96h409v-156h-409v-283h721v-182h-1092v182h174v283h-174v156h174v94q0 187 127 291t338 104t322 -90t120 -232l-202 -26q-18 174 -244 168q-264 -4 -264 -213z" />
    <glyph glyph-name="florinoldstyle" horiz-adv-x="860" 
d="M270 465h-223v153h223v72q0 188 92 303t302 115q86 0 149 -23l-18 -184q-49 23 -105 27q-119 0 -171 -50t-52 -202v-58h303v-153h-303v-479q0 -418 -393 -418q-84 0 -148 22l19 185q59 -27 102 -27q121 0 172 50t51 202v465z" />
    <glyph glyph-name="yenoldstyle" horiz-adv-x="1220" 
d="M188 158v161h324v82h-324v162h224l-346 522h231l158 -243l155 -258l156 258l158 243h231l-348 -522h225v-162h-321v-82h321v-161h-321v-158h-199v158h-324z" />
    <glyph glyph-name="numbersignoldstyle" horiz-adv-x="1425" 
d="M612 745l-104 -405h305l105 405h-306zM217 930h246l80 313h198l-82 -313h306l82 313h196l-82 -313h195v-185h-242l-102 -405h196v-184h-245l-80 -314h-197l80 314h-305l-80 -314h-197l80 314h-192v184h239l105 405h-199v185z" />
    <glyph glyph-name="filledbox" horiz-adv-x="2007" 
d="M453 383l415 416l-415 415l135 136l416 -416l415 416l135 -136l-415 -415l415 -416l-135 -135l-415 416l-416 -416zM1597 1401h-1187v-1204h1187v1204zM205 0v1597h1597v-1597h-1597z" />
    <glyph glyph-name="filledsmallbox" horiz-adv-x="1495" 
d="M1085 889h-675v-692h675v692zM205 0v1085h1085v-1085h-1085zM453 383l159 160l-159 159l135 136l160 -160l159 160l135 -136l-159 -159l159 -160l-135 -135l-159 160l-160 -160z" />
    <glyph glyph-name="degree" horiz-adv-x="978" 
d="M489 844q-175 0 -283 95t-108 277t108 278q108 95 284 95t283 -95q108 -95 108 -277q0 -181 -108 -277t-284 -96zM489 1001q223 0 224 216q0 215 -224 215q-104 0 -163 -54q-60 -54 -60 -161q0 -106 60 -161t163 -55z" />
    </font>
</defs>
</svg>
