<?xml version="1.0" standalone="no"?>
<!DOCTYPE svg PUBLIC "-//W3C//DTD SVG 1.1//EN" "http://www.w3.org/Graphics/SVG/1.1/DTD/svg11.dtd" >
<svg xmlns="http://www.w3.org/2000/svg">
<metadata>
Created by FontPrep 20130207 at Wed Apr 20 13:17:56 2016
 By Naomi Rubin
Copyright (c) Thirstype, Inc., 2003. All rights reserved.
</metadata>
<defs>
<font id="1557b20196d946832e552ab4cc1ac0e8" horiz-adv-x='1024' >
  <font-face 
    font-family="ApexSerif-Medium"
    font-weight="400"
    font-stretch="normal"
    units-per-em="2048"
    panose-1="2 0 0 0 0 0 0 0 0 0"
    ascent="1638"
    descent="-410"
    x-height="1024"
    cap-height="1536"
    bbox="-512 -539.104 2765 2075.02"
    underline-thickness="102"
    underline-position="-153"
    unicode-range="U+0020-FB02"
  />
<missing-glyph horiz-adv-x="409" 
 />
    <glyph glyph-name=".notdef" horiz-adv-x="409" 
 />
    <glyph glyph-name=".notdef" horiz-adv-x="409" 
 />
    <glyph glyph-name=".null" horiz-adv-x="0" 
 />
    <glyph glyph-name="nonmarkingreturn" horiz-adv-x="681" 
 />
    <glyph glyph-name="space" unicode=" " horiz-adv-x="409" 
 />
    <glyph glyph-name="space" unicode="&#xa0;" horiz-adv-x="409" 
 />
    <glyph glyph-name="exclam" unicode="!" horiz-adv-x="450" 
d="M102 0v246h246v-246h-246zM291 430h-131l-74 1106h279z" />
    <glyph glyph-name="quotedbl" unicode="&#x22;" horiz-adv-x="798" 
d="M649 1024h-151l-64 512h279zM301 1024h-151l-64 512h279z" />
    <glyph glyph-name="numbersign" unicode="#" horiz-adv-x="1198" 
d="M520 1098l-57 -146h205l57 146h-205zM502 510l88 240h-203l-92 -240h-211l92 240h-156l60 202h174l57 146h-157l59 202h176l88 236h211l-90 -236h207l88 236h211l-90 -236h164l-60 -202h-182l-57 -146h165l-59 -202h-182l-92 -240h-209z" />
    <glyph glyph-name="dollar" unicode="$" 
d="M340 993q0 -35 24 -56t48 -27q24 -7 40 -11t43 -6q28 -2 43 -4t46 -3t45 -3q260 -19 363 -83q104 -64 104 -234t-131 -266q-131 -95 -377 -97l-70 -203h-227l80 215q-152 14 -219 45v209q68 -29 196 -45t249 -16q122 0 205 32t83 121q0 52 -45 76q-64 31 -124 38t-152 14
q-341 26 -404 153q-27 53 -27 137q0 174 129 264t371 90h12l70 203h227l-84 -217q113 -12 193 -47v-201q-151 57 -431 57t-280 -135z" />
    <glyph glyph-name="percent" unicode="%" horiz-adv-x="2017" 
d="M1533 616q-91 0 -131 -51t-40 -172t40 -173t131 -52t130 51t39 174t-39 173t-130 50zM485 920q92 0 131 50t39 173t-39 174t-131 51t-131 -51t-39 -174t39 -173t131 -50zM586 0h-244l1090 1536h243zM1161 393q0 211 89 315t283 105q194 0 283 -104q89 -103 89 -315
t-89 -316t-283 -104t-283 104t-89 315zM858 1143q0 -209 -90 -315t-284 -105q-194 0 -282 104q-88 103 -89 315q0 212 89 316q88 104 282 104t284 -104q90 -106 90 -315z" />
    <glyph glyph-name="ampersand" unicode="&#x26;" horiz-adv-x="1497" 
d="M686 168q45 0 90 8v2q-223 170 -364 502q-96 -70 -96 -218t100 -220q100 -74 270 -74zM823 1282q0 80 -129 80q-94 0 -132 -62t-38 -150q0 -89 28 -208q68 -288 240 -486q99 -116 224 -184q158 109 158 320q0 260 -205 260q-139 0 -275 -49v201q147 47 275 47
q190 0 304 -114q113 -114 113 -344t-155 -396v-2q76 -12 184 -13v-209q-223 0 -399 70q-164 -70 -330 -70q-270 0 -427 120t-157 374q0 143 69 249t177 167q-35 141 -35 243q0 298 201 399q78 38 180 38q332 0 332 -281q0 -55 -18 -106h-205q20 68 20 106z" />
    <glyph glyph-name="quotesingle" unicode="'" horiz-adv-x="450" 
d="M301 1024h-151l-64 512h279z" />
    <glyph glyph-name="parenleft" unicode="(" horiz-adv-x="704" 
d="M133 624q0 350 79 627q79 276 177 420h223q-98 -143 -178 -419t-80 -627q0 -350 80 -627t178 -420h-223q-98 144 -177 420t-79 626z" />
    <glyph glyph-name="parenright" unicode=")" horiz-adv-x="704" 
d="M350 624q0 350 -80 627q-80 276 -178 420h223q97 -143 177 -419t80 -627q0 -350 -80 -627q-79 -277 -177 -420h-223q98 144 178 420t80 626z" />
    <glyph glyph-name="asterisk" unicode="*" horiz-adv-x="860" 
d="M551 1536l-39 -272l252 120l63 -225l-264 -47l191 -201l-193 -131l-129 238l-129 -244l-186 141l182 197l-266 47l71 223l248 -118l-39 272h238z" />
    <glyph glyph-name="plus" unicode="+" horiz-adv-x="1064" 
d="M633 289h-201v309h-309v201h309v309h201v-309h309v-201h-309v-309z" />
    <glyph glyph-name="comma" unicode="," horiz-adv-x="450" 
d="M164 -233h-137l65 479h266z" />
    <glyph glyph-name="hyphen" unicode="-" horiz-adv-x="757" 
d="M655 799v-201h-553v201h553z" />
    <glyph glyph-name="hyphen" unicode="&#xad;" horiz-adv-x="757" 
d="M655 799v-201h-553v201h553z" />
    <glyph glyph-name="period" unicode="." horiz-adv-x="450" 
d="M102 0v246h246v-246h-246z" />
    <glyph glyph-name="slash" unicode="/" horiz-adv-x="937" 
d="M219 -422h-219l719 2093h219z" />
    <glyph glyph-name="zero" unicode="0" 
d="M340 768q0 -94 2 -207t18 -166q15 -53 34 -100t48 -71q68 -56 172 -56q167 0 221 127q38 95 45 185t8 142t1 146q0 306 -20 373q-39 136 -83 171q-68 56 -172 56q-169 0 -220 -127q-38 -95 -45 -185t-8 -142t-1 -146zM123 714q0 173 3 252q8 214 46 319q50 146 151 211
q100 65 291 67q284 0 386 -162q68 -108 84 -232t19 -203t3 -198q0 -382 -50 -522t-152 -207q-103 -66 -290 -66q-188 0 -299 72q-140 91 -175 355q-17 141 -17 314z" />
    <glyph glyph-name="one" unicode="1" 
d="M719 1563v-1373l276 -30v-160h-772v160l277 30v1160l-316 -13v105l428 121h107z" />
    <glyph glyph-name="two" unicode="2" 
d="M872 1130q0 116 -59 176t-197 60t-225 -20l-24 -230h-172v371q170 76 395 76q496 0 495 -426q0 -190 -190 -396l-506 -540h524l21 188h172v-389h-1004v143l693 781q77 90 77 206z" />
    <glyph glyph-name="three" unicode="3" 
d="M1116 454q0 -110 -24 -188t-83 -148q-121 -146 -437 -145q-316 0 -447 68v379h172l25 -232q123 -20 233 -20q218 0 287 90q57 74 57 194q0 118 -68 180t-219 62h-317v201h317q127 0 184 71q56 71 56 172t-64 166t-243 64q-96 0 -223 -20l-25 -232h-172v389q61 25 187 41
q498 63 656 -114q103 -116 101 -302q0 -90 -40 -183t-107 -138q96 -43 145 -144t49 -211z" />
    <glyph glyph-name="four" unicode="4" 
d="M733 608v541l-362 -541h362zM733 414h-622v127l684 1022h143v-955h201v-194h-201v-221l184 -21v-172h-573v172l184 21v221z" />
    <glyph glyph-name="five" unicode="5" 
d="M530 -27q-299 0 -413 68v379h172l26 -236q96 -16 217 -16q375 0 375 313q0 98 -24 134q-23 37 -39 54t-50 28t-63 21t-86 9h-483v809h930v-389h-172l-23 194h-530v-419q105 6 213 6t178 -8q175 -20 260 -109q104 -109 102 -330q0 -317 -192 -423q-92 -50 -184 -68
t-214 -17z" />
    <glyph glyph-name="six" unicode="6" 
d="M346 471q0 -303 285 -303q159 0 216 110q44 85 44 193q0 303 -260 303q-169 0 -234 -105q-51 -84 -51 -198zM1055 1116h-172l-27 236q-84 12 -177 12q-193 0 -268 -157q-68 -137 -83 -359q111 121 303 121q123 0 212 -33t137 -81t77 -121t36 -131t7 -130t-9 -134
t-40 -132t-80 -119q-115 -115 -350 -115t-358 127q-103 109 -125 349q-9 99 -9 249q0 505 159 700q132 165 394 165q223 -1 373 -60v-387z" />
    <glyph glyph-name="seven" unicode="7" 
d="M102 1536h1024v-139l-665 -1397h-236l680 1341h-610l-21 -194h-172v389z" />
    <glyph glyph-name="eight" unicode="8" 
d="M614 891q129 0 193 72q63 71 63 167t-56 167t-200 71t-199 -71q-57 -71 -57 -167t64 -168t192 -71zM614 698q-147 0 -225 -70t-78 -186q0 -118 71 -196q70 -78 232 -78t233 79t71 195t-78 187q-79 69 -226 69zM614 -27q-270 0 -395 129t-125 332q0 113 49 219t142 158
q-66 51 -105 140t-39 175q0 188 114 312q113 124 359 125q246 0 360 -124t113 -313q-1 -86 -39 -175t-104 -140q92 -51 141 -157t50 -220q1 -203 -125 -332t-396 -129z" />
    <glyph glyph-name="nine" unicode="9" 
d="M883 1065q0 303 -285 303q-159 0 -216 -110q-44 -85 -44 -193q0 -303 260 -303q168 0 233 105q52 86 52 198zM174 420h172l27 -238q70 -10 170 -10q200 0 275 157q65 132 83 359q-111 -121 -303 -121q-123 0 -212 33t-137 81t-77 121t-36 131t-7 130t9 134t40 132t80 119
q115 115 350 115t358 -127q103 -109 125 -349q9 -99 9 -249q0 -502 -159 -700q-132 -165 -394 -165q-223 1 -373 60v387z" />
    <glyph glyph-name="colon" unicode=":" horiz-adv-x="450" 
d="M102 645v246h246v-246h-246zM102 0v246h246v-246h-246z" />
    <glyph glyph-name="semicolon" unicode=";" horiz-adv-x="450" 
d="M102 645v246h246v-246h-246zM164 -233h-137l65 479h266z" />
    <glyph glyph-name="semicolon" unicode="&#x37e;" horiz-adv-x="450" 
d="M102 645v246h246v-246h-246zM164 -233h-137l65 479h266z" />
    <glyph glyph-name="less" unicode="&#x3c;" horiz-adv-x="747" 
d="M645 457v-211l-553 368v168l553 369v-211l-317 -242z" />
    <glyph glyph-name="equal" unicode="=" horiz-adv-x="1064" 
d="M942 631v-203h-819v203h819zM942 969v-203h-819v203h819z" />
    <glyph glyph-name="greater" unicode="&#x3e;" horiz-adv-x="747" 
d="M102 246v211l318 241l-318 242v211l553 -369v-168z" />
    <glyph glyph-name="question" unicode="?" horiz-adv-x="1024" 
d="M246 0v246h246v-246h-246zM911 1144q0 -152 -58 -237t-187 -145q-47 -24 -127 -56q-79 -32 -99 -90t-20 -186h-150q-20 115 -20 166q0 205 231 293q123 49 160 84q59 57 59 168t-60 167t-234 56q-70 0 -136 -12l-26 -236h-172v387q57 23 158 41q251 45 435 -16
q246 -82 246 -384z" />
    <glyph glyph-name="at" unicode="@" horiz-adv-x="2072" 
d="M1026 856q-100 0 -148 -27q-84 -48 -104 -184q-8 -55 -8 -133q0 -256 112 -317q48 -27 148 -27t203 49v590q-102 49 -203 49zM1425 0h-127l-20 57q-152 -84 -281 -84q-246 1 -345 139t-99 400t99 400t345 139q129 0 281 -84l20 57h138v-829q174 12 240 134t67 335
q-1 213 -23 307t-53 146q-76 128 -224 187q-147 60 -363 60t-350 -50t-209 -126t-120 -195t-58 -229t-13 -252q0 -143 13 -253q13 -111 58 -229t120 -194t209 -126t317 -50q305 0 522 107l2 -226q-221 -80 -487 -80q-266 1 -438 61t-272 155t-160 237t-80 284
q-20 140 -21 314q0 174 20 314q21 140 81 282t160 238t271 156q172 60 370 60q512 1 724 -189q180 -160 212 -478q9 -90 9 -203q0 -340 -119 -516t-416 -176z" />
    <glyph glyph-name="A" unicode="A" horiz-adv-x="1536" 
d="M768 1264l-186 -617h372zM0 0v172l213 23l375 1144l-209 25v172h504l438 -1341l215 -23v-172h-659v172l215 23l-78 254h-494l-76 -254l215 -23v-172h-659z" />
    <glyph glyph-name="B" unicode="B" horiz-adv-x="1441" 
d="M1038 1114q0 98 -52 158t-200 59h-292v-434h309q235 0 235 217zM494 692v-487h305q289 0 288 241q0 129 -65 188q-66 58 -219 58h-309zM778 1536q260 0 376 -116t116 -308t-150 -303q98 -49 148 -146t51 -217q0 -202 -125 -324t-403 -122h-699v172l184 21v1150l-184 21
v172h686z" />
    <glyph glyph-name="C" unicode="C" horiz-adv-x="1349" 
d="M788 1563q234 0 408 -76v-371h-172l-25 217q-100 25 -221 25q-219 0 -336 -162q-116 -162 -116 -428t116 -428t336 -162q121 0 221 25l25 217h172v-371q-174 -76 -408 -76t-391 110q-295 208 -295 684t295 686q157 110 391 110z" />
    <glyph glyph-name="D" unicode="D" horiz-adv-x="1468" 
d="M492 1331v-1126h229q225 0 321 148q96 149 96 415t-96 414t-321 149h-229zM713 1536q370 0 518 -222q135 -202 135 -545q0 -342 -142 -555q-142 -214 -511 -214h-621v172l184 21v1150l-184 21v172h621z" />
    <glyph glyph-name="E" unicode="E" horiz-adv-x="1312" 
d="M492 1331v-434h321l21 184h172v-573h-172l-21 184h-321v-487h516l20 184h172v-389h-1108v172l184 21v1150l-184 21v172h1108v-389h-172l-20 184h-516z" />
    <glyph glyph-name="F" unicode="F" horiz-adv-x="1234" 
d="M991 508h-172l-20 184h-305v-499l184 -21v-172h-586v172l184 21v1150l-184 21v172h1092v-389h-172l-21 184h-497v-434h305l20 184h172v-573z" />
    <glyph glyph-name="G" unicode="G" horiz-adv-x="1417" 
d="M778 178q168 0 271 31v434l-250 29v172h465v-776q-207 -94 -486 -95q-225 0 -381 110q-295 208 -295 684t295 686q157 110 399 110t431 -93v-354h-172l-23 207q-125 35 -254 35q-219 0 -336 -162q-116 -162 -116 -428t116 -428t336 -162z" />
    <glyph glyph-name="H" unicode="H" horiz-adv-x="1626" 
d="M492 897h643v446l-185 21v172h584v-172l-184 -21v-1150l184 -21v-172h-584v172l185 21v499h-643v-499l184 -21v-172h-584v172l184 21v1150l-184 21v172h584v-172l-184 -21v-446z" />
    <glyph glyph-name="I" unicode="I" horiz-adv-x="808" 
d="M696 0h-583v172l184 21v1150l-184 21v172h583v-172l-184 -21v-1150l184 -21v-172z" />
    <glyph glyph-name="J" unicode="J" horiz-adv-x="903" 
d="M647 305q0 -332 -389 -332q-76 0 -176 25v203q100 -25 176 -25q174 0 174 125v1042l-184 21v172h583v-172l-184 -21v-1038z" />
    <glyph glyph-name="K" unicode="K" horiz-adv-x="1443" 
d="M750 1536h587v-172l-190 -23l-434 -510l501 -638l199 -21v-172h-629v172l156 16l-367 480l-86 -101v-374l185 -21v-172h-580v172l184 21v1150l-184 21v172h580v-172l-185 -21v-497l396 504l-133 14v172z" />
    <glyph glyph-name="L" unicode="L" horiz-adv-x="1214" 
d="M92 1536h584v-172l-184 -21v-1138h479l20 184h172v-389h-1071v172l184 21v1150l-184 21v172z" />
    <glyph glyph-name="M" unicode="M" horiz-adv-x="1974" 
d="M670 0h-578v172l184 21v1150l-184 21v172h488l407 -1053l408 1053h487v-172l-184 -21v-1150l184 -21v-172h-577v172l184 21l8 1079l-410 -1067h-200l-410 1067l8 -1079l185 -21v-172z" />
    <glyph glyph-name="N" unicode="N" horiz-adv-x="1601" 
d="M975 1536h575v-172l-184 -21v-1343h-260l-625 1221l2 -1028l185 -21v-172h-576v172l184 21v1150l-184 21v172h445l624 -1221l-4 1028l-182 21v172z" />
    <glyph glyph-name="O" unicode="O" horiz-adv-x="1372" 
d="M1049 768q0 263 -62 412q-75 178 -301 178t-301 -178q-37 -88 -49 -182t-12 -230q0 -135 12 -229q12 -95 49 -183q75 -178 302 -178t300 178q37 88 49 182t13 230zM1270 768q0 -134 -10 -238t-48 -214t-98 -180q-61 -70 -170 -117q-108 -46 -258 -46t-258 46t-170 117
q-61 70 -97 180t-47 213q-44 413 47 691q36 110 97 180t170 117q108 46 258 46t258 -46t170 -117q61 -70 98 -180q38 -110 48 -214t10 -238z" />
    <glyph glyph-name="P" unicode="P" horiz-adv-x="1374" 
d="M494 1331v-543h276q289 0 289 272t-289 271h-276zM764 1536q274 0 401 -134t127 -342t-127 -342t-401 -134h-270v-391l182 -21v-172h-584v172l184 21v1150l-184 21v172h672z" />
    <glyph glyph-name="Q" unicode="Q" horiz-adv-x="1372" 
d="M1049 768q0 263 -62 412q-75 178 -301 178t-301 -178q-37 -88 -49 -182t-12 -230q0 -135 12 -229q12 -95 49 -183q75 -178 302 -178t300 178q37 88 49 182t13 230zM686 1563q150 0 258 -46t170 -117q61 -70 98 -180q38 -110 48 -213t10 -239q0 -262 -53 -442t-205 -271
v-2l458 -82v-225l-968 252q-198 52 -288 202t-104 362q-32 405 51 658q36 110 97 180t170 117q108 46 258 46z" />
    <glyph glyph-name="R" unicode="R" horiz-adv-x="1495" 
d="M492 1331v-487h309q156 0 207 62t51 182t-52 181q-52 62 -206 62h-309zM772 1536q282 0 400 -114t118 -332q0 -174 -72 -282t-243 -146q23 -27 49 -72l180 -305q70 -115 199 -115q61 0 143 16v-194q-66 -18 -179 -18t-207 56q-94 58 -181 208l-191 321q-31 51 -55 67
q-25 15 -74 17h-167v-450l184 -21v-172h-584v172l184 21v1150l-184 21v172h680z" />
    <glyph glyph-name="S" unicode="S" horiz-adv-x="1255" 
d="M643 1358q-178 0 -245 -67q-66 -67 -66 -169t45 -143t123 -57q78 -15 153 -25q248 -29 369 -126t121 -295t-115 -340q-61 -75 -181 -119t-255 -44t-265 27t-214 66v354h172l22 -215q111 -27 256 -27q354 0 355 281q0 119 -64 165t-238 68q-280 35 -392 129t-111 291
q0 162 98 293q53 72 164 115t268 43q240 0 420 -84v-363h-172l-25 217q-100 25 -223 25z" />
    <glyph glyph-name="T" unicode="T" horiz-adv-x="1292" 
d="M51 1536h1190v-389h-172l-20 184h-295v-1138l184 -21v-172h-584v172l185 21v1138h-295l-21 -184h-172v389z" />
    <glyph glyph-name="U" unicode="U" horiz-adv-x="1581" 
d="M451 516q0 -336 340 -336t339 336v827l-184 21v172h584v-172l-184 -21v-854q0 -127 -41 -224t-99 -150t-161 -96q-102 -43 -253 -45q-151 0 -254 44q-104 44 -162 97t-100 150q-41 97 -40 224v854l-185 21v172h584v-172l-184 -21v-827z" />
    <glyph glyph-name="V" unicode="V" horiz-adv-x="1538" 
d="M1538 1536v-172l-219 -25l-475 -1366h-150l-477 1366l-217 25v172h659v-172l-213 -25l324 -1005l320 1005l-211 25v172h659z" />
    <glyph glyph-name="W" unicode="W" horiz-adv-x="2048" 
d="M1405 1536h643v-172l-215 -25l-270 -1366h-197l-342 1215l-342 -1215h-197l-270 1366l-215 25v172h643v-172l-203 -23l162 -970l318 1165h208l318 -1165l162 970l-203 23v172z" />
    <glyph glyph-name="X" unicode="X" horiz-adv-x="1572" 
d="M61 0v172l215 23l381 583l-370 561l-207 25v172h643v-172l-184 -21l247 -407l248 407l-184 21v172h643v-172l-209 -25l-369 -561l379 -583l217 -23v-172h-657v172l184 21l-252 421l-254 -421l187 -21v-172h-658z" />
    <glyph glyph-name="Y" unicode="Y" horiz-adv-x="1531" 
d="M20 1536h644v-172l-193 -23l295 -522l295 522l-193 23v172h643v-172l-204 -23l-435 -708v-440l185 -21v-172h-582v172l184 21v440l-436 708l-203 23v172z" />
    <glyph glyph-name="Z" unicode="Z" horiz-adv-x="1314" 
d="M141 1536h1043v-139l-793 -1192h629l20 184h172v-389h-1110v139l791 1192h-559l-21 -184h-172v389z" />
    <glyph glyph-name="bracketleft" unicode="[" horiz-adv-x="581" 
d="M369 1466v-1683h131v-205h-346v2093h346v-205h-131z" />
    <glyph glyph-name="backslash" unicode="\" horiz-adv-x="937" 
d="M938 -422h-219l-719 2093h219z" />
    <glyph glyph-name="bracketright" unicode="]" horiz-adv-x="581" 
d="M213 -217v1683h-131v205h346v-2093h-346v205h131z" />
    <glyph glyph-name="asciicircum" unicode="^" horiz-adv-x="1105" 
d="M465 1536h217l369 -512h-136l-342 362l-342 -362h-135z" />
    <glyph glyph-name="underscore" unicode="_" horiz-adv-x="655" 
d="M655 -377v-135h-655v135h655z" />
    <glyph glyph-name="grave" unicode="`" horiz-adv-x="1105" 
d="M651 1178h-155l-256 358h247z" />
    <glyph glyph-name="a" unicode="a" horiz-adv-x="1161" 
d="M303 322q0 -154 174 -154q133 0 240 63v269l-230 -23q-184 -18 -184 -155zM458 -27q-178 -1 -272 101t-94 240t93 229q93 90 304 108l228 21v20q0 86 -41 125q-40 39 -178 39t-340 -68v195q154 68 374 68q220 1 306 -91q88 -92 88 -266v-501l184 -21v-172h-326l-18 53
q-130 -80 -308 -80z" />
    <glyph glyph-name="b" unicode="b" horiz-adv-x="1179" 
d="M594 168q100 0 148 27q84 48 104 184q8 55 8 133q0 164 -47 254t-184 90q-73 0 -139 -16t-93 -31v-592q102 -49 203 -49zM184 0v1343l-184 21v172h391v-541q123 55 232 56q246 -1 345 -139t99 -400t-99 -400t-345 -139q-129 0 -281 84l-20 -57h-138z" />
    <glyph glyph-name="c" unicode="c" horiz-adv-x="1044" 
d="M911 662h-172l-20 190q-82 4 -129 4q-264 0 -264 -344t264 -344q150 0 321 59v-194q-127 -59 -321 -60q-238 -1 -358 143t-119 396q0 252 119 395q120 143 358 144q194 -1 321 -60v-329z" />
    <glyph glyph-name="d" unicode="d" horiz-adv-x="1230" 
d="M557 856q-137 0 -184 -90t-47 -249t32 -227q32 -70 80 -96t148 -26t202 49v592q-26 15 -92 31t-139 16zM557 -27q-246 1 -345 139t-99 400t99 400t345 139q109 0 231 -56v348l-184 21v172h391v-1343l185 -21v-172h-322l-20 57q-152 -84 -281 -84z" />
    <glyph glyph-name="e" unicode="e" horiz-adv-x="1140" 
d="M590 856q-229 0 -260 -260h456q-2 120 -42 190t-154 70zM1008 414h-676q33 -246 258 -246q182 0 352 74v-199q-154 -70 -352 -70q-238 -1 -358 143t-119 396q0 252 119 395q120 143 358 144q289 0 373 -233q43 -119 45 -316v-88z" />
    <glyph glyph-name="f" unicode="f" horiz-adv-x="878" 
d="M276 1239q0 324 381 324q106 0 170 -21v-196q-86 23 -170 22q-174 0 -174 -133v-211h303v-193h-303v-638l185 -21v-172h-576v172l184 21v638h-184v173l184 20v215z" />
    <glyph glyph-name="g" unicode="g" horiz-adv-x="1142" 
d="M537 -344q324 0 323 168q0 53 -26 78q-27 24 -93 32l-266 31q-195 -61 -194 -170q0 -79 60 -109t196 -30zM328 651q0 -98 41 -151q41 -54 169 -54t169 54t41 151t-41 151t-169 54t-169 -54t-41 -151zM946 651q0 -399 -409 -399q-49 0 -72 2q-51 -36 -51 -64t37 -34
l325 -39q147 -18 221 -86t74 -207q0 -182 -151 -273q-152 -90 -383 -90q-465 0 -465 334q0 158 172 248v2q-37 47 -37 126t72 142q-152 96 -152 338q0 399 410 400q100 0 184 -27h330v-172l-136 -16q31 -76 31 -185z" />
    <glyph glyph-name="h" unicode="h" horiz-adv-x="1312" 
d="M463 1536v-541q111 55 237 56q186 0 282 -86t95 -244v-528l185 -21v-172h-396v725q0 131 -166 131q-135 0 -237 -49v-614l184 -21v-172h-575v172l184 21v1150l-184 21v172h391z" />
    <glyph glyph-name="i" unicode="i" horiz-adv-x="718" 
d="M246 1245v246h246v-246h-246zM473 1024v-831l184 -21v-172h-575v172l184 21v638l-184 21v172h391z" />
    <glyph glyph-name="j" unicode="j" horiz-adv-x="587" 
d="M246 1245v246h246v-246h-246zM473 1024v-1204q0 -154 -138 -248t-312 -104v188q102 12 173 56t70 126v993l-184 21v172h391z" />
    <glyph glyph-name="k" unicode="k" horiz-adv-x="1306" 
d="M463 1536v-901l239 203l-122 14v172h606v-172l-207 -23l-250 -213l332 -423l184 -21v-172h-547v172l105 10l-230 305l-110 -94v-200l184 -21v-172h-575v172l184 21v1150l-184 21v172h391z" />
    <glyph glyph-name="l" unicode="l" horiz-adv-x="718" 
d="M473 1536v-1343l184 -21v-172h-575v172l184 21v1150l-184 21v172h391z" />
    <glyph glyph-name="m" unicode="m" horiz-adv-x="1890" 
d="M694 1051q199 0 291 -103q10 6 27 19q133 84 276 84q367 0 367 -330v-528l184 -21v-172h-395v707q0 150 -156 149q-125 0 -227 -49q-4 -4 -6 -4q6 -37 6 -82v-528l184 -21v-172h-395v707q0 150 -156 149q-125 0 -227 -49v-614l184 -21v-172h-579v172l184 21v638l-184 21
v172h325l21 -57q133 84 276 84z" />
    <glyph glyph-name="n" unicode="n" horiz-adv-x="1316" 
d="M718 1051q173 0 268 -86t95 -244v-528l185 -21v-172h-396v725q0 131 -165 131q-135 0 -238 -49v-614l184 -21v-172h-579v172l184 21v638l-184 21v172h325l21 -57q127 84 300 84z" />
    <glyph glyph-name="o" unicode="o" horiz-adv-x="1114" 
d="M322 545q0 -101 3 -145q8 -116 60 -174t172 -58q153 0 199 101q37 84 37 240q0 157 -41 252t-207 95t-204 -140q-19 -70 -19 -171zM1001 512q0 -131 -17 -221q-40 -212 -202 -280q-90 -38 -225 -38q-258 1 -351 137t-93 402t93 402q94 136 356 136t358 -151
q47 -76 64 -166t17 -221z" />
    <glyph glyph-name="p" unicode="p" horiz-adv-x="1230" 
d="M674 168q137 0 184 90t47 249t-32 227q-31 70 -79 96t-148 26t-204 -49v-592q26 -15 92 -31t140 -16zM674 1051q246 -1 345 -139t99 -400t-99 -400t-345 -139q-109 0 -232 56v-348l185 -21v-172h-576v172l185 21v1150l-185 21v172h322l20 -57q152 84 281 84z" />
    <glyph glyph-name="q" unicode="q" horiz-adv-x="1179" 
d="M586 856q-100 0 -149 -27q-83 -47 -103 -184q-8 -55 -8 -133q0 -164 47 -254t184 -90q73 0 139 16t92 31v592q-102 49 -202 49zM995 1024v-1343l185 -21v-172h-576v172l184 21v348q-123 -55 -231 -56q-246 1 -345 139t-99 400t99 400t345 139q129 0 281 -84l20 57h137z
" />
    <glyph glyph-name="r" unicode="r" horiz-adv-x="1007" 
d="M686 1051q134 0 209 -27v-342h-172l-21 174q-125 0 -235 -49v-614l184 -21v-172h-579v172l184 21v638l-184 21v172h325l21 -57q134 84 268 84z" />
    <glyph glyph-name="s" unicode="s" horiz-adv-x="1019" 
d="M524 856q-211 0 -211 -124q0 -58 44 -82t163 -34q219 -20 303 -90t84 -215q-1 -145 -109 -241t-331 -97q-76 -1 -182 17t-162 41v311h172l16 -162q76 -12 158 -12q233 0 233 139q0 59 -43 86t-161 37q-215 18 -300 91t-85 207t102 228t306 94t339 -59v-309h-172l-18 162
q-94 12 -146 12z" />
    <glyph glyph-name="t" unicode="t" horiz-adv-x="837" 
d="M442 281q0 -113 138 -113q74 0 114 10v-190q-41 -14 -106 -15q-186 0 -270 76q-83 76 -82 230v552h-185v173l185 20v279l206 22v-301h303v-193h-303v-550z" />
    <glyph glyph-name="u" unicode="u" horiz-adv-x="1296" 
d="M599 -27q-173 0 -268 86t-95 244v528l-185 21v172h395v-725q0 -131 166 -131q135 0 238 49v614l-184 21v172h395v-831l184 -21v-172h-325l-21 57q-127 -84 -300 -84z" />
    <glyph glyph-name="v" unicode="v" horiz-adv-x="1144" 
d="M553 1024v-172l-160 -18l182 -549l179 549l-160 18v172h551v-172l-170 -18l-328 -861h-145l-330 858l-172 21v172h553z" />
    <glyph glyph-name="w" unicode="w" horiz-adv-x="1611" 
d="M563 1024v-172l-170 -18l113 -504l201 694h198l205 -692l111 499l-170 21v172h551v-172l-172 -21l-236 -858h-162l-225 783l-227 -783h-162l-238 858l-170 21v172h553z" />
    <glyph glyph-name="x" unicode="x" horiz-adv-x="1294" 
d="M82 0v172l182 21l256 321l-252 317l-170 21v172h516v-172l-100 -12l131 -166l133 166l-98 12v172h516v-172l-172 -21l-252 -317l256 -321l184 -21v-172h-532v172l102 10l-137 172l-135 -172l104 -10v-172h-532z" />
    <glyph glyph-name="y" unicode="y" horiz-adv-x="1148" 
d="M553 1024v-172l-154 -18l179 -549l178 549l-158 18v172h551v-172l-170 -18l-516 -1346h-332v172l186 21l162 368l-305 782l-174 21v172h553z" />
    <glyph glyph-name="z" unicode="z" horiz-adv-x="1044" 
d="M932 0h-819v137l522 692h-305l-17 -147h-172v342h772v-137l-522 -692h352l17 147h172v-342z" />
    <glyph glyph-name="braceleft" unicode="{" horiz-adv-x="536" 
d="M115 729q49 0 45 43l-35 643q-8 131 62 194q71 62 198 62h70v-211h-70q-23 0 -34 -11t-9 -30l37 -637q2 -88 -57 -157q59 -74 57 -158l-37 -637q-2 -18 9 -30t34 -11h70v-211h-70q-127 0 -198 62t-62 194l35 643q4 39 -37 43h-66v209h58z" />
    <glyph glyph-name="bar" unicode="|" horiz-adv-x="612" 
d="M414 1671v-2093h-215v2093h215z" />
    <glyph glyph-name="braceright" unicode="}" horiz-adv-x="536" 
d="M152 -211q45 0 43 41l-37 637q-6 80 55 158q-61 75 -55 157l37 637q3 17 -9 29t-34 12h-70v211h70q128 0 198 -62t62 -194l-35 -643q-4 -43 45 -43h57v-209h-57q-49 0 -45 -43l35 -643q8 -131 -63 -193t-197 -63h-70v211h70z" />
    <glyph glyph-name="asciitilde" unicode="~" horiz-adv-x="757" 
d="M550 725q-60 0 -103 -33q-42 -34 -93 -66q-52 -32 -130 -32t-152 74v159q76 -55 136 -55t102 33t93 65t130 33q79 0 153 -74v-159q-76 55 -136 55z" />
    <glyph glyph-name="exclamdown" unicode="&#xa1;" horiz-adv-x="450" 
d="M348 1024v-246h-246v246h246zM160 594h131l74 -1106h-279z" />
    <glyph glyph-name="cent" unicode="&#xa2;" 
d="M123 768q0 565 575 565h9l69 203h228l-84 -221q117 -16 198 -49v-201q-176 68 -432 68q-350 0 -350 -365t350 -365q256 0 432 68v-201q-162 -68 -420 -67h-49l-69 -203h-228l88 240q-317 104 -317 528z" />
    <glyph glyph-name="sterling" unicode="&#xa3;" 
d="M236 705h-185v172l185 20v266q0 399 462 400q82 1 205 -19t195 -51v-391h-172l-27 241q-113 25 -201 25q-252 0 -252 -203v-268h519v-192h-519v-512h496l23 196h172v-389h-1086v172l185 21v512z" />
    <glyph glyph-name="yen" unicode="&#xa5;" 
d="M113 512v203h327l-55 106h-272v203h168l-267 512h254l346 -707l347 707h253l-266 -512h168v-203h-274l-56 -106h330v-203h-395v-319l184 -21v-172h-581v172l184 21v319h-395z" />
    <glyph glyph-name="brokenbar" unicode="&#xa6;" horiz-adv-x="612" 
d="M414 524v-946h-215v946h215zM199 725v946h215v-946h-215z" />
    <glyph glyph-name="section" unicode="&#xa7;" horiz-adv-x="1329" 
d="M309 555q0 -109 55 -143q26 -16 38 -24t58 -19t63 -15t136 -26t230 -64q131 70 131 205q0 108 -54 143q-26 16 -38 24t-58 19t-64 15q-16 4 -142 26t-224 64q-131 -68 -131 -205zM1241 460q0 -212 -168 -339q49 -83 49 -189t-24 -177t-78 -141q-55 -70 -169 -111
q-114 -42 -273 -42q-229 0 -426 84v379h172l24 -229q109 -29 232 -29q182 0 252 64t69 164q0 101 -48 147t-284 92q-285 47 -383 133t-98 297t166 340q-47 79 -47 187t23 179q24 71 79 141t169 111q114 42 274 42q229 0 426 -84v-377h-172l-27 227q-109 29 -229 29
q-182 0 -252 -64t-70 -164q0 -101 48 -147t284 -92q285 -47 383 -133t98 -298z" />
    <glyph glyph-name="dieresis" unicode="&#xa8;" horiz-adv-x="1105" 
d="M676 1245v246h246v-246h-246zM225 1245v246h246v-246h-246z" />
    <glyph glyph-name="copyright" unicode="&#xa9;" horiz-adv-x="1392" 
d="M702 375q64 0 183 31v-168q-102 -23 -189 -23q-141 0 -210 69q-68 68 -68 228t68 228t210 69q86 0 189 -23v-168q-119 31 -183 31q-64 -1 -91 -29q-25 -28 -25 -108t25 -109q27 -28 91 -28zM696 145q182 0 275 75q92 75 92 292t-92 292q-93 75 -275 75t-274 -75t-92 -292
t92 -292t274 -75zM147 512q0 321 166 437q146 102 383 102t383 -102q166 -116 166 -437t-166 -437q-146 -102 -383 -102t-383 102q-166 116 -166 437z" />
    <glyph glyph-name="ordfeminine" unicode="&#xaa;" horiz-adv-x="874" 
d="M371 936q68 0 141 33v147l-139 -10q-100 -8 -101 -84q0 -86 99 -86zM72 1022q0 238 297 258l143 8q-2 48 -22 68t-84 22q-115 6 -277 -51v186q117 49 284 49t233 -71q66 -72 65 -209v-328l133 -14v-172h-275l-10 27q-98 -43 -192 -43q-156 0 -226 68q-69 69 -69 202z" />
    <glyph glyph-name="guillemotleft" unicode="&#xab;" horiz-adv-x="1013" 
d="M502 418v188l389 287v-199l-219 -182l219 -182v-201zM113 418v188l389 287v-199l-219 -182l219 -182v-201z" />
    <glyph glyph-name="logicalnot" unicode="&#xac;" horiz-adv-x="1351" 
d="M1188 0h-1024v1024h1024v-1024z" />
    <glyph glyph-name="registered" unicode="&#xae;" horiz-adv-x="1392" 
d="M637 629v-58h82q31 0 31 29t-31 29h-82zM637 412v-176h-162v552h242q203 0 203 -186q0 -104 -64 -153l111 -213h-181l-86 176h-63zM696 145q180 0 274 75q93 75 93 292t-93 292q-94 75 -274 75t-273 -75t-93 -292t93 -292t273 -75zM313 76q-166 118 -166 438
q0 319 166 435q146 102 383 102t383 -102q166 -116 166 -435t-166 -438q-145 -103 -383 -103t-383 103z" />
    <glyph glyph-name="macron" unicode="&#xaf;" horiz-adv-x="1232" 
d="M856 1178h-561v186h561v-186z" />
    <glyph glyph-name="macron" unicode="&#x2c9;" horiz-adv-x="1232" 
d="M856 1178h-561v186h561v-186z" />
    <glyph glyph-name="degree" unicode="&#xb0;" horiz-adv-x="749" 
d="M375 1411q-129 0 -129 -131t129 -131t129 131t-129 131zM375 997q-123 0 -206 66q-83 65 -83 217t83 218t206 65q123 0 206 -66q83 -65 83 -217t-83 -218t-206 -65z" />
    <glyph glyph-name="plusminus" unicode="&#xb1;" horiz-adv-x="1064" 
d="M942 88h-819v201h819v-201zM633 391h-201v309h-309v201h309v309h201v-309h309v-201h-309v-309z" />
    <glyph glyph-name="twosuperior" unicode="&#xb2;" horiz-adv-x="921" 
d="M819 698h-717v158l406 307q70 57 70 111q0 94 -144 94q-61 0 -102 -10l-15 -156h-180v307q39 19 129 35t160 17q197 0 279 -72t81 -205q0 -68 -21 -102t-33 -54t-42 -46q-31 -26 -45 -39t-68 -48t-106 -65q-51 -29 -63 -37h221l12 94h178v-289z" />
    <glyph glyph-name="threesuperior" unicode="&#xb3;" horiz-adv-x="958" 
d="M821 1296q0 -53 -17 -94t-42 -53q94 -51 94 -189t-97 -212t-278 -74q-246 0 -358 45v268h178l10 -110q66 -13 161 -13t137 25t42 65t-22 54q-23 14 -84 14h-281v190h279q80 0 80 74q0 82 -146 82q-111 0 -158 -12l-12 -109h-180v266q123 47 319 47t286 -70
q89 -71 89 -194z" />
    <glyph glyph-name="acute" unicode="&#xb4;" horiz-adv-x="1105" 
d="M651 1178h-155l163 358h248z" />
    <glyph glyph-name="mu" unicode="&#xb5;" horiz-adv-x="1296" 
d="M612 -27q-92 0 -166 23v-508h-210v1343l-185 21v172h395v-725q0 -131 166 -131q135 0 238 49v614l-184 21v172h395v-831l184 -21v-172h-325l-21 57q-127 -84 -287 -84z" />
    <glyph glyph-name="mu" unicode="&#x3bc;" horiz-adv-x="1296" 
d="M612 -27q-92 0 -166 23v-508h-210v1343l-185 21v172h395v-725q0 -131 166 -131q135 0 238 49v614l-184 21v172h395v-831l184 -21v-172h-325l-21 57q-127 -84 -287 -84z" />
    <glyph glyph-name="paragraph" unicode="&#xb6;" horiz-adv-x="1374" 
d="M315 1060q0 -220 189 -261v522q-189 -41 -189 -261zM881 788v543h-162v-543h162zM82 1071q0 197 127 331t401 134h672v-172l-184 -21v-1150l184 -21v-172h-401v584h-162v-584h-400v172l185 21v397q-219 27 -321 155q-101 129 -101 326z" />
    <glyph glyph-name="periodcentered" unicode="&#xb7;" horiz-adv-x="450" 
d="M102 645v246h246v-246h-246z" />
    <glyph glyph-name="periodcentered" unicode="&#x2219;" horiz-adv-x="450" 
d="M102 645v246h246v-246h-246z" />
    <glyph glyph-name="cedilla" unicode="&#xb8;" horiz-adv-x="1232" 
d="M774 -287q0 -86 -68 -127t-172 -41t-174 35l35 103q65 -25 143 -25t78 57q0 86 -190 107l61 178h144l-19 -94q162 -53 162 -193z" />
    <glyph glyph-name="onesuperior" unicode="&#xb9;" horiz-adv-x="804" 
d="M508 1561v-670l205 -23v-170h-621v170l203 23v461l-203 -11v134l311 86h105z" />
    <glyph glyph-name="ordmasculine" unicode="&#xba;" horiz-adv-x="915" 
d="M287 1157q0 -117 39 -167t128 -50t133 51t44 166t-44 166t-133 51t-128 -50t-39 -167zM92 1157q0 203 86 304t273 102q373 0 373 -406t-373 -405q-186 0 -273 101q-86 101 -86 304z" />
    <glyph glyph-name="guillemotright" unicode="&#xbb;" horiz-adv-x="1013" 
d="M512 606v-188l-389 -289v201l219 182l-219 182v199zM901 606v-188l-389 -289v201l219 182l-219 182v199z" />
    <glyph glyph-name="onequarter" unicode="&#xbc;" horiz-adv-x="1966" 
d="M1505 444v127l-133 -127h133zM1858 0h-504v180l151 17v55h-432v145l483 465h152v-418h166v-192h-166v-55l150 -17v-180zM596 0h-244l1090 1536h244zM526 1561v-670l205 -23v-170h-620v170l202 23v461l-202 -11v134l311 86h104z" />
    <glyph glyph-name="onehalf" unicode="&#xbd;" horiz-adv-x="2078" 
d="M1976 0h-716v158l405 307q70 57 70 110q0 94 -144 95q-61 0 -102 -11l-14 -155h-181v307q39 19 129 35t160 16q197 0 279 -72t82 -204q0 -67 -22 -103q-22 -35 -32 -54q-12 -19 -43 -45t-45 -39t-67 -48t-105 -65q-53 -30 -65 -37h221l12 94h178v-289zM596 0h-244
l1090 1536h244zM526 1561v-670l205 -23v-170h-620v170l202 23v461l-202 -11v134l311 86h104z" />
    <glyph glyph-name="threequarters" unicode="&#xbe;" horiz-adv-x="2009" 
d="M1548 444v127l-133 -127h133zM1901 0h-504v180l151 17v55h-432v145l483 465h152v-418h166v-192h-166v-55l150 -17v-180zM639 0h-244l1090 1536h244zM821 1296q0 -53 -17 -94t-42 -53q94 -51 94 -189t-97 -212t-278 -74q-246 0 -358 45v268h178l10 -110q66 -13 161 -13
t137 25t42 65t-22 54q-23 14 -84 14h-281v190h279q80 0 80 74q0 82 -146 82q-111 0 -158 -12l-12 -109h-180v266q123 47 319 47t286 -70q89 -71 89 -194z" />
    <glyph glyph-name="questiondown" unicode="&#xbf;" horiz-adv-x="1024" 
d="M737 1024v-246h-245v246h245zM72 -120q0 152 58 237t187 145q47 24 127 56t100 90t19 186h150q20 -115 20 -166q0 -205 -231 -293q-123 -49 -160 -84q-59 -57 -59 -168t60 -167t235 -56q70 0 135 12l26 236h172v-387q-57 -23 -158 -41q-251 -45 -435 16q-246 82 -246 384
z" />
    <glyph glyph-name="Agrave" unicode="&#xc0;" horiz-adv-x="1536" 
d="M846 1690h-156l-256 358h248zM768 1264l-186 -617h372zM0 0v172l213 23l375 1144l-209 25v172h504l438 -1341l215 -23v-172h-659v172l215 23l-78 254h-494l-76 -254l215 -23v-172h-659z" />
    <glyph glyph-name="Aacute" unicode="&#xc1;" horiz-adv-x="1536" 
d="M846 1690h-156l164 358h248zM768 1264l-186 -617h372zM0 0v172l213 23l375 1144l-209 25v172h504l438 -1341l215 -23v-172h-659v172l215 23l-78 254h-494l-76 -254l215 -23v-172h-659z" />
    <glyph glyph-name="Acircumflex" unicode="&#xc2;" horiz-adv-x="1536" 
d="M1133 1690h-156l-209 215l-209 -215h-156l256 358h218zM768 1264l-186 -617h372zM0 0v172l213 23l375 1144l-209 25v172h504l438 -1341l215 -23v-172h-659v172l215 23l-78 254h-494l-76 -254l215 -23v-172h-659z" />
    <glyph glyph-name="Atilde" unicode="&#xc3;" horiz-adv-x="1536" 
d="M939 1845q-60 0 -102 -33q-41 -34 -93 -66t-130 -32t-153 74v160q139 -101 238 -23q41 33 93 66t117 32q92 1 166 -73v-160q-76 55 -136 55zM768 1264l-186 -617h372zM0 0v172l213 23l375 1144l-209 25v172h504l438 -1341l215 -23v-172h-659v172l215 23l-78 254h-494
l-76 -254l215 -23v-172h-659z" />
    <glyph glyph-name="Adieresis" unicode="&#xc4;" horiz-adv-x="1536" 
d="M870 1757v246h246v-246h-246zM420 1757v246h246v-246h-246zM768 1264l-186 -617h372zM0 0v172l213 23l375 1144l-209 25v172h504l438 -1341l215 -23v-172h-659v172l215 23l-78 254h-494l-76 -254l215 -23v-172h-659z" />
    <glyph glyph-name="Aring" unicode="&#xc5;" horiz-adv-x="1536" 
d="M768 1780q90 0 90 90t-90 90q-47 0 -69 -20t-21 -72q0 -88 90 -88zM559 1868q0 205 209 207q96 1 152 -51t55 -155q0 -103 -55 -155q-54 -52 -152 -51q-98 0 -154 51q-55 51 -55 154zM768 1264l-186 -617h372zM0 0v172l213 23l375 1144l-209 25v172h504l438 -1341
l215 -23v-172h-659v172l215 23l-78 254h-494l-76 -254l215 -23v-172h-659z" />
    <glyph glyph-name="AE" unicode="&#xc6;" horiz-adv-x="2136" 
d="M1100 897v301l-193 -301h193zM1315 1331v-434h321l21 184h172v-573h-172l-21 184h-321v-487h516l20 184h172v-389h-1108v172l185 21v499h-324l-319 -497l192 -23v-172h-649v172l203 23l753 1146l-190 23v172h1257v-389h-172l-20 184h-516z" />
    <glyph glyph-name="Ccedilla" unicode="&#xc7;" horiz-adv-x="1349" 
d="M788 1563q234 0 408 -76v-371h-172l-25 217q-100 25 -221 25q-219 0 -336 -162q-116 -162 -116 -428t116 -428t336 -162q121 0 221 25l25 217h172v-371q-139 -61 -346 -74l-12 -69q162 -53 161 -193q1 -86 -67 -127t-172 -41t-174 35l35 103q65 -25 143 -25t78 57
q0 86 -191 107l54 155q-201 16 -339 129q-264 216 -264 677t295 670q157 110 391 110z" />
    <glyph glyph-name="Egrave" unicode="&#xc8;" horiz-adv-x="1312" 
d="M774 1690h-156l-256 358h248zM492 1331v-434h321l21 184h172v-573h-172l-21 184h-321v-487h516l20 184h172v-389h-1108v172l184 21v1150l-184 21v172h1108v-389h-172l-20 184h-516z" />
    <glyph glyph-name="Eacute" unicode="&#xc9;" horiz-adv-x="1312" 
d="M774 1690h-156l164 358h248zM492 1331v-434h321l21 184h172v-573h-172l-21 184h-321v-487h516l20 184h172v-389h-1108v172l184 21v1150l-184 21v172h1108v-389h-172l-20 184h-516z" />
    <glyph glyph-name="Ecircumflex" unicode="&#xca;" horiz-adv-x="1312" 
d="M1040 1690h-155l-209 215l-209 -215h-156l256 358h217zM492 1331v-434h321l21 184h172v-573h-172l-21 184h-321v-487h516l20 184h172v-389h-1108v172l184 21v1150l-184 21v172h1108v-389h-172l-20 184h-516z" />
    <glyph glyph-name="Edieresis" unicode="&#xcb;" horiz-adv-x="1312" 
d="M799 1757v246h245v-246h-245zM348 1757v246h246v-246h-246zM492 1331v-434h321l21 184h172v-573h-172l-21 184h-321v-487h516l20 184h172v-389h-1108v172l184 21v1150l-184 21v172h1108v-389h-172l-20 184h-516z" />
    <glyph glyph-name="Igrave" unicode="&#xcc;" horiz-adv-x="808" 
d="M481 1690h-155l-256 358h247zM696 0h-583v172l184 21v1150l-184 21v172h583v-172l-184 -21v-1150l184 -21v-172z" />
    <glyph glyph-name="Iacute" unicode="&#xcd;" horiz-adv-x="808" 
d="M481 1690h-155l163 358h248zM696 0h-583v172l184 21v1150l-184 21v172h583v-172l-184 -21v-1150l184 -21v-172z" />
    <glyph glyph-name="Icircumflex" unicode="&#xce;" horiz-adv-x="808" 
d="M768 1690h-156l-209 215l-208 -215h-156l256 358h217zM696 0h-583v172l184 21v1150l-184 21v172h583v-172l-184 -21v-1150l184 -21v-172z" />
    <glyph glyph-name="Idieresis" unicode="&#xcf;" horiz-adv-x="808" 
d="M506 1757v246h246v-246h-246zM55 1757v246h246v-246h-246zM696 0h-583v172l184 21v1150l-184 21v172h583v-172l-184 -21v-1150l184 -21v-172z" />
    <glyph glyph-name="Eth" unicode="&#xd0;" horiz-adv-x="1468" 
d="M492 1331v-475h256v-168h-256v-483h229q225 0 321 148q96 149 96 415t-96 414t-321 149h-229zM713 1536q370 0 518 -222q135 -202 135 -545q0 -342 -142 -555q-142 -214 -511 -214h-621v172l184 21v495h-184v168h184v487l-184 21v172h621z" />
    <glyph glyph-name="Ntilde" unicode="&#xd1;" horiz-adv-x="1601" 
d="M981 1845q-47 1 -129 -65t-170 -66t-162 74v160q78 -55 154 -56q47 0 130 66t170 66t161 -74v-160q-76 55 -154 55zM975 1536h575v-172l-184 -21v-1343h-260l-625 1221l2 -1028l185 -21v-172h-576v172l184 21v1150l-184 21v172h445l624 -1221l-4 1028l-182 21v172z" />
    <glyph glyph-name="Ograve" unicode="&#xd2;" horiz-adv-x="1372" 
d="M764 1690h-156l-256 358h248zM1049 768q0 263 -62 412q-75 178 -301 178t-301 -178q-37 -88 -49 -182t-12 -230q0 -135 12 -229q12 -95 49 -183q75 -178 302 -178t300 178q37 88 49 182t13 230zM1270 768q0 -134 -10 -238t-48 -214t-98 -180q-61 -70 -170 -117
q-108 -46 -258 -46t-258 46t-170 117q-61 70 -97 180t-47 213q-44 413 47 691q36 110 97 180t170 117q108 46 258 46t258 -46t170 -117q61 -70 98 -180q38 -110 48 -214t10 -238z" />
    <glyph glyph-name="Oacute" unicode="&#xd3;" horiz-adv-x="1372" 
d="M764 1690h-156l164 358h248zM1049 768q0 263 -62 412q-75 178 -301 178t-301 -178q-37 -88 -49 -182t-12 -230q0 -135 12 -229q12 -95 49 -183q75 -178 302 -178t300 178q37 88 49 182t13 230zM1270 768q0 -134 -10 -238t-48 -214t-98 -180q-61 -70 -170 -117
q-108 -46 -258 -46t-258 46t-170 117q-61 70 -97 180t-47 213q-44 413 47 691q36 110 97 180t170 117q108 46 258 46t258 -46t170 -117q61 -70 98 -180q38 -110 48 -214t10 -238z" />
    <glyph glyph-name="Ocircumflex" unicode="&#xd4;" horiz-adv-x="1372" 
d="M1051 1690h-156l-209 215l-209 -215h-155l256 358h217zM1049 768q0 263 -62 412q-75 178 -301 178t-301 -178q-37 -88 -49 -182t-12 -230q0 -135 12 -229q12 -95 49 -183q75 -178 302 -178t300 178q37 88 49 182t13 230zM1270 768q0 -134 -10 -238t-48 -214t-98 -180
q-61 -70 -170 -117q-108 -46 -258 -46t-258 46t-170 117q-61 70 -97 180t-47 213q-44 413 47 691q36 110 97 180t170 117q108 46 258 46t258 -46t170 -117q61 -70 98 -180q38 -110 48 -214t10 -238z" />
    <glyph glyph-name="Otilde" unicode="&#xd5;" horiz-adv-x="1372" 
d="M857 1845q-60 0 -102 -33q-42 -34 -93 -66t-130 -32t-153 74v160q141 -99 238 -23q41 33 93 66t117 32q92 1 166 -73v-160q-76 55 -136 55zM1049 768q0 263 -62 412q-75 178 -301 178t-301 -178q-37 -88 -49 -182t-12 -230q0 -135 12 -229q12 -95 49 -183
q75 -178 302 -178t300 178q37 88 49 182t13 230zM1270 768q0 -134 -10 -238t-48 -214t-98 -180q-61 -70 -170 -117q-108 -46 -258 -46t-258 46t-170 117q-61 70 -97 180t-47 213q-44 413 47 691q36 110 97 180t170 117q108 46 258 46t258 -46t170 -117q61 -70 98 -180
q38 -110 48 -214t10 -238z" />
    <glyph glyph-name="Odieresis" unicode="&#xd6;" horiz-adv-x="1372" 
d="M788 1757v246h246v-246h-246zM338 1757v246h246v-246h-246zM1049 768q0 263 -62 412q-75 178 -301 178t-301 -178q-37 -88 -49 -182t-12 -230q0 -135 12 -229q12 -95 49 -183q75 -178 302 -178t300 178q37 88 49 182t13 230zM1270 768q0 -134 -10 -238t-48 -214t-98 -180
q-61 -70 -170 -117q-108 -46 -258 -46t-258 46t-170 117q-61 70 -97 180t-47 213q-44 413 47 691q36 110 97 180t170 117q108 46 258 46t258 -46t170 -117q61 -70 98 -180q38 -110 48 -214t10 -238z" />
    <glyph glyph-name="multiply" unicode="&#xd7;" horiz-adv-x="1064" 
d="M313 338l-141 141l219 219l-219 220l141 141l219 -219l220 219l141 -141l-219 -220l219 -219l-141 -141l-220 219z" />
    <glyph glyph-name="Oslash" unicode="&#xd8;" horiz-adv-x="1372" 
d="M1049 820q0 186 -43 313l-535 -889q82 -66 206 -66t199 45q128 77 160 315q12 96 13 282zM324 716q0 -188 43 -313l534 889q-82 66 -206 66t-198 -45q-131 -79 -161 -315q-12 -94 -12 -282zM1270 768q0 -134 -10 -238t-48 -214t-98 -180q-61 -70 -170 -117
q-109 -46 -285 -46t-303 80l-32 -53h-201l106 176q-127 180 -127 592q0 134 12 238t47 214q36 110 97 180t170 117q109 46 285 46t303 -80l33 53h200l-106 -176q127 -180 127 -592z" />
    <glyph glyph-name="Ugrave" unicode="&#xd9;" horiz-adv-x="1581" 
d="M868 1690h-155l-256 358h248zM451 516q0 -336 340 -336t339 336v827l-184 21v172h584v-172l-184 -21v-854q0 -127 -41 -224t-99 -150t-161 -96q-102 -43 -253 -45q-151 0 -254 44q-104 44 -162 97t-100 150q-41 97 -40 224v854l-185 21v172h584v-172l-184 -21v-827z" />
    <glyph glyph-name="Uacute" unicode="&#xda;" horiz-adv-x="1581" 
d="M868 1690h-155l164 358h247zM451 516q0 -336 340 -336t339 336v827l-184 21v172h584v-172l-184 -21v-854q0 -127 -41 -224t-99 -150t-161 -96q-102 -43 -253 -45q-151 0 -254 44q-104 44 -162 97t-100 150q-41 97 -40 224v854l-185 21v172h584v-172l-184 -21v-827z" />
    <glyph glyph-name="Ucircumflex" unicode="&#xdb;" horiz-adv-x="1581" 
d="M1155 1690h-156l-208 215l-209 -215h-156l256 358h217zM451 516q0 -336 340 -336t339 336v827l-184 21v172h584v-172l-184 -21v-854q0 -127 -41 -224t-99 -150t-161 -96q-102 -43 -253 -45q-151 0 -254 44q-104 44 -162 97t-100 150q-41 97 -40 224v854l-185 21v172h584
v-172l-184 -21v-827z" />
    <glyph glyph-name="Udieresis" unicode="&#xdc;" horiz-adv-x="1581" 
d="M893 1757v246h246v-246h-246zM442 1757v246h246v-246h-246zM451 516q0 -336 340 -336t339 336v827l-184 21v172h584v-172l-184 -21v-854q0 -127 -41 -224t-99 -150t-161 -96q-102 -43 -253 -45q-151 0 -254 44q-104 44 -162 97t-100 150q-41 97 -40 224v854l-185 21v172
h584v-172l-184 -21v-827z" />
    <glyph glyph-name="Yacute" unicode="&#xdd;" horiz-adv-x="1531" 
d="M864 1690h-196l163 358h248zM20 1536h644v-172l-193 -23l295 -522l295 522l-193 23v172h643v-172l-204 -23l-435 -708v-440l185 -21v-172h-582v172l184 21v440l-436 708l-203 23v172z" />
    <glyph glyph-name="Thorn" unicode="&#xde;" horiz-adv-x="1374" 
d="M494 1038v-542h276q289 0 289 271t-289 271h-276zM494 291v-98l184 -21v-172h-586v172l184 21v1150l-184 21v172h586v-172l-184 -21v-100h270q274 0 401 -134t127 -342t-127 -342t-401 -134h-270z" />
    <glyph glyph-name="germandbls" unicode="&#xdf;" horiz-adv-x="1255" 
d="M739 799q0 -83 156 -141q155 -58 227 -129t72 -204t-68 -233q-80 -119 -276 -119t-297 54v313h172l18 -164q35 -8 95 -8q150 0 149 156q0 109 -166 165q-143 49 -212 122t-69 200t91 204q37 33 75 59q91 63 91 139q-1 75 -51 115t-128 40t-128 -40t-50 -109v-1219h-389
v172l185 21v1030q0 162 94 251t288 89t289 -89q94 -89 94 -242t-92 -230q-39 -32 -78 -58q-92 -62 -92 -145z" />
    <glyph glyph-name="agrave" unicode="&#xe0;" horiz-adv-x="1161" 
d="M606 1178h-155l-256 358h247zM303 322q0 -154 174 -154q133 0 240 63v269l-230 -23q-184 -18 -184 -155zM458 -27q-178 -1 -272 101t-94 240t93 229q93 90 304 108l228 21v20q0 86 -41 125q-40 39 -178 39t-340 -68v195q154 68 374 68q220 1 306 -91q88 -92 88 -266v-501
l184 -21v-172h-326l-18 53q-130 -80 -308 -80z" />
    <glyph glyph-name="aacute" unicode="&#xe1;" horiz-adv-x="1161" 
d="M606 1178h-155l163 358h248zM303 322q0 -154 174 -154q133 0 240 63v269l-230 -23q-184 -18 -184 -155zM458 -27q-178 -1 -272 101t-94 240t93 229q93 90 304 108l228 21v20q0 86 -41 125q-40 39 -178 39t-340 -68v195q154 68 374 68q220 1 306 -91q88 -92 88 -266v-501
l184 -21v-172h-326l-18 53q-130 -80 -308 -80z" />
    <glyph glyph-name="acircumflex" unicode="&#xe2;" horiz-adv-x="1161" 
d="M893 1178h-156l-209 215l-209 -215h-155l256 358h217zM303 322q0 -154 174 -154q133 0 240 63v269l-230 -23q-184 -18 -184 -155zM458 -27q-178 -1 -272 101t-94 240t93 229q93 90 304 108l228 21v20q0 86 -41 125q-40 39 -178 39t-340 -68v195q154 68 374 68
q220 1 306 -91q88 -92 88 -266v-501l184 -21v-172h-326l-18 53q-130 -80 -308 -80z" />
    <glyph glyph-name="atilde" unicode="&#xe3;" horiz-adv-x="1161" 
d="M682 1333q-47 1 -129 -65t-170 -66t-162 74v160q78 -55 154 -56q47 0 129 66t170 66t162 -74v-160q-78 55 -154 55zM303 322q0 -154 174 -154q133 0 240 63v269l-230 -23q-184 -18 -184 -155zM458 -27q-178 -1 -272 101t-94 240t93 229q93 90 304 108l228 21v20
q0 86 -41 125q-40 39 -178 39t-340 -68v195q154 68 374 68q220 1 306 -91q88 -92 88 -266v-501l184 -21v-172h-326l-18 53q-130 -80 -308 -80z" />
    <glyph glyph-name="adieresis" unicode="&#xe4;" horiz-adv-x="1161" 
d="M631 1245v246h246v-246h-246zM180 1245v246h246v-246h-246zM303 322q0 -154 174 -154q133 0 240 63v269l-230 -23q-184 -18 -184 -155zM458 -27q-178 -1 -272 101t-94 240t93 229q93 90 304 108l228 21v20q0 86 -41 125q-40 39 -178 39t-340 -68v195q154 68 374 68
q220 1 306 -91q88 -92 88 -266v-501l184 -21v-172h-326l-18 53q-130 -80 -308 -80z" />
    <glyph glyph-name="aring" unicode="&#xe5;" horiz-adv-x="1161" 
d="M528 1268q90 0 90 90t-90 90q-46 0 -68 -20t-22 -72q0 -88 90 -88zM735 1357q0 -103 -55 -155q-54 -52 -152 -51q-98 0 -153 51q-55 50 -55 154t54 155q56 51 153 51t153 -50q56 -52 55 -155zM303 322q0 -154 174 -154q133 0 240 63v269l-230 -23q-184 -18 -184 -155z
M458 -27q-178 -1 -272 101t-94 240t93 229q93 90 304 108l228 21v20q0 86 -41 125q-40 39 -178 39t-340 -68v195q154 68 374 68q220 1 306 -91q88 -92 88 -266v-501l184 -21v-172h-326l-18 53q-130 -80 -308 -80z" />
    <glyph glyph-name="ae" unicode="&#xe6;" horiz-adv-x="1691" 
d="M1166 852q-114 0 -162 -65t-62 -179h418q-4 120 -42 182t-152 62zM481 424q-168 0 -168 -119q0 -133 191 -133q152 0 244 78q12 6 14 8q-17 57 -29 166h-252zM731 688q0 86 -49 127q-50 41 -190 41t-324 -68v195q158 68 352 68q242 0 338 -115q104 108 308 108t299 -101
q79 -83 97 -261q7 -70 7 -170v-88h-627q8 -116 58 -184t169 -68q180 0 353 74v-197q-154 -69 -358 -69t-312 112q-25 -18 -31 -22q-127 -90 -325 -90t-296 89t-98 233t86 225t304 81h239v80z" />
    <glyph glyph-name="ccedilla" unicode="&#xe7;" horiz-adv-x="1044" 
d="M813 -287q0 -86 -68 -127t-172 -41t-174 35l35 103q66 -25 144 -25t77 57q0 86 -190 107l53 155q-203 19 -304 161t-101 384t119 385q120 143 358 144q195 0 321 -60v-329h-172l-20 190q-82 4 -129 4q-264 0 -264 -344t264 -344q150 0 321 59v-194q-104 -48 -247 -58
l-13 -69q162 -53 162 -193z" />
    <glyph glyph-name="egrave" unicode="&#xe8;" horiz-adv-x="1140" 
d="M668 1178h-156l-256 358h248zM590 856q-229 0 -260 -260h456q-2 120 -42 190t-154 70zM1008 414h-676q33 -246 258 -246q182 0 352 74v-199q-154 -70 -352 -70q-238 -1 -358 143t-119 396q0 252 119 395q120 143 358 144q289 0 373 -233q43 -119 45 -316v-88z" />
    <glyph glyph-name="eacute" unicode="&#xe9;" horiz-adv-x="1140" 
d="M668 1178h-156l164 358h248zM590 856q-229 0 -260 -260h456q-2 120 -42 190t-154 70zM1008 414h-676q33 -246 258 -246q182 0 352 74v-199q-154 -70 -352 -70q-238 -1 -358 143t-119 396q0 252 119 395q120 143 358 144q289 0 373 -233q43 -119 45 -316v-88z" />
    <glyph glyph-name="ecircumflex" unicode="&#xea;" horiz-adv-x="1140" 
d="M590 856q-229 0 -260 -260h456q-2 120 -42 190t-154 70zM954 1178h-155l-209 215l-209 -215h-156l256 358h217zM1008 414h-676q33 -246 258 -246q182 0 352 74v-199q-154 -70 -352 -70q-238 -1 -358 143t-119 396q0 252 119 395q120 143 358 144q289 0 373 -233
q43 -119 45 -316v-88z" />
    <glyph glyph-name="edieresis" unicode="&#xeb;" horiz-adv-x="1140" 
d="M692 1245v246h246v-246h-246zM242 1245v246h245v-246h-245zM590 856q-229 0 -260 -260h456q-2 120 -42 190t-154 70zM1008 414h-676q33 -246 258 -246q182 0 352 74v-199q-154 -70 -352 -70q-238 -1 -358 143t-119 396q0 252 119 395q120 143 358 144q289 0 373 -233
q43 -119 45 -316v-88z" />
    <glyph glyph-name="igrave" unicode="&#xec;" horiz-adv-x="718" 
d="M449 1178h-156l-256 358h248zM473 1024v-831l184 -21v-172h-575v172l184 21v638l-184 21v172h391z" />
    <glyph glyph-name="iacute" unicode="&#xed;" horiz-adv-x="718" 
d="M449 1178h-156l164 358h248zM473 1024v-831l184 -21v-172h-575v172l184 21v638l-184 21v172h391z" />
    <glyph glyph-name="icircumflex" unicode="&#xee;" horiz-adv-x="718" 
d="M735 1178h-155l-209 215l-209 -215h-156l256 358h217zM473 1024v-831l184 -21v-172h-575v172l184 21v638l-184 21v172h391z" />
    <glyph glyph-name="idieresis" unicode="&#xef;" horiz-adv-x="718" 
d="M473 1245v246h246v-246h-246zM23 1245v246h245v-246h-245zM473 1024v-831l184 -21v-172h-575v172l184 21v638l-184 21v172h391z" />
    <glyph glyph-name="eth" unicode="&#xf0;" horiz-adv-x="1114" 
d="M322 545q0 -101 3 -145q8 -116 60 -174t172 -58q153 0 199 101q37 84 37 240q0 157 -41 252t-207 95t-204 -140q-19 -70 -19 -171zM1001 512q0 -131 -17 -221q-40 -212 -202 -280q-90 -38 -225 -38q-258 1 -351 137t-93 402t93 402t351 137q61 0 117 -19q-43 88 -119 176
l-291 -147v172l178 90q-117 102 -309 213h318q100 -63 167 -123l240 123v-172l-127 -66q270 -315 270 -786z" />
    <glyph glyph-name="ntilde" unicode="&#xf1;" horiz-adv-x="1316" 
d="M821 1333q-47 1 -129 -65t-170 -66t-162 74v160q78 -55 154 -56q47 0 129 66t170 66t162 -74v-160q-76 55 -154 55zM718 1051q173 0 268 -86t95 -244v-528l185 -21v-172h-396v725q0 131 -165 131q-135 0 -238 -49v-614l184 -21v-172h-579v172l184 21v638l-184 21v172h325
l21 -57q127 84 300 84z" />
    <glyph glyph-name="ograve" unicode="&#xf2;" horiz-adv-x="1114" 
d="M635 1178h-156l-256 358h248zM322 545q0 -101 3 -145q8 -116 60 -174t172 -58q153 0 199 101q37 84 37 240q0 157 -41 252t-207 95t-204 -140q-19 -70 -19 -171zM1001 512q0 -131 -17 -221q-40 -212 -202 -280q-90 -38 -225 -38q-258 1 -351 137t-93 402t93 402
q94 136 356 136t358 -151q47 -76 64 -166t17 -221z" />
    <glyph glyph-name="oacute" unicode="&#xf3;" horiz-adv-x="1114" 
d="M635 1178h-156l164 358h248zM322 545q0 -101 3 -145q8 -116 60 -174t172 -58q153 0 199 101q37 84 37 240q0 157 -41 252t-207 95t-204 -140q-19 -70 -19 -171zM1001 512q0 -131 -17 -221q-40 -212 -202 -280q-90 -38 -225 -38q-258 1 -351 137t-93 402t93 402
q94 136 356 136t358 -151q47 -76 64 -166t17 -221z" />
    <glyph glyph-name="ocircumflex" unicode="&#xf4;" horiz-adv-x="1114" 
d="M922 1178h-156l-209 215l-209 -215h-155l256 358h217zM322 545q0 -101 3 -145q8 -116 60 -174t172 -58q153 0 199 101q37 84 37 240q0 157 -41 252t-207 95t-204 -140q-19 -70 -19 -171zM1001 512q0 -131 -17 -221q-40 -212 -202 -280q-90 -38 -225 -38q-258 1 -351 137
t-93 402t93 402q94 136 356 136t358 -151q47 -76 64 -166t17 -221z" />
    <glyph glyph-name="otilde" unicode="&#xf5;" horiz-adv-x="1114" 
d="M711 1333q-47 1 -130 -65t-170 -66t-161 74v160q78 -55 153 -56q47 0 129 66t170 66t162 -74v-160q-78 55 -153 55zM322 545q0 -101 3 -145q8 -116 60 -174t172 -58q153 0 199 101q37 84 37 240q0 157 -41 252t-207 95t-204 -140q-19 -70 -19 -171zM1001 512
q0 -131 -17 -221q-40 -212 -202 -280q-90 -38 -225 -38q-258 1 -351 137t-93 402t93 402q94 136 356 136t358 -151q47 -76 64 -166t17 -221z" />
    <glyph glyph-name="odieresis" unicode="&#xf6;" horiz-adv-x="1114" 
d="M659 1245v246h246v-246h-246zM209 1245v246h246v-246h-246zM322 545q0 -101 3 -145q8 -116 60 -174t172 -58q153 0 199 101q37 84 37 240q0 157 -41 252t-207 95t-204 -140q-19 -70 -19 -171zM1001 512q0 -131 -17 -221q-40 -212 -202 -280q-90 -38 -225 -38
q-258 1 -351 137t-93 402t93 402q94 136 356 136t358 -151q47 -76 64 -166t17 -221z" />
    <glyph glyph-name="divide" unicode="&#xf7;" horiz-adv-x="1064" 
d="M410 262v246h245v-246h-245zM410 889v246h245v-246h-245zM123 799h819v-201h-819v201z" />
    <glyph glyph-name="oslash" unicode="&#xf8;" horiz-adv-x="1126" 
d="M557 168q154 0 199 102q23 52 30 104q7 54 7 150t-13 158l-352 -487q53 -27 129 -27zM322 492q0 -88 10 -150l352 487q-50 27 -120 27t-115 -18t-70 -46t-38 -76t-16 -92t-3 -132zM548 -27q-144 0 -243 52l-16 -25h-203l100 139q-74 119 -74 379t94 396q93 136 351 137
q154 0 250 -52l18 25h203l-100 -137q74 -121 73 -375q0 -131 -17 -221t-64 -166q-48 -76 -138 -114t-234 -38z" />
    <glyph glyph-name="ugrave" unicode="&#xf9;" horiz-adv-x="1296" 
d="M725 1178h-156l-256 358h248zM599 -27q-173 0 -268 86t-95 244v528l-185 21v172h395v-725q0 -131 166 -131q135 0 238 49v614l-184 21v172h395v-831l184 -21v-172h-325l-21 57q-127 -84 -300 -84z" />
    <glyph glyph-name="uacute" unicode="&#xfa;" horiz-adv-x="1296" 
d="M725 1178h-156l164 358h248zM599 -27q-173 0 -268 86t-95 244v528l-185 21v172h395v-725q0 -131 166 -131q135 0 238 49v614l-184 21v172h395v-831l184 -21v-172h-325l-21 57q-127 -84 -300 -84z" />
    <glyph glyph-name="ucircumflex" unicode="&#xfb;" horiz-adv-x="1296" 
d="M1012 1178h-156l-209 215l-209 -215h-155l256 358h217zM599 -27q-173 0 -268 86t-95 244v528l-185 21v172h395v-725q0 -131 166 -131q135 0 238 49v614l-184 21v172h395v-831l184 -21v-172h-325l-21 57q-127 -84 -300 -84z" />
    <glyph glyph-name="udieresis" unicode="&#xfc;" horiz-adv-x="1296" 
d="M750 1245v246h245v-246h-245zM299 1245v246h246v-246h-246zM599 -27q-173 0 -268 86t-95 244v528l-185 21v172h395v-725q0 -131 166 -131q135 0 238 49v614l-184 21v172h395v-831l184 -21v-172h-325l-21 57q-127 -84 -300 -84z" />
    <glyph glyph-name="yacute" unicode="&#xfd;" horiz-adv-x="1148" 
d="M653 1178h-155l164 358h247zM553 1024v-172l-154 -18l179 -549l178 549l-158 18v172h551v-172l-170 -18l-516 -1346h-332v172l186 21l162 368l-305 782l-174 21v172h553z" />
    <glyph glyph-name="thorn" unicode="&#xfe;" horiz-adv-x="1179" 
d="M623 168q137 0 184 90t47 254t-47 254t-184 90q-73 0 -139 -16t-93 -31v-594q27 -15 93 -31t139 -16zM0 1536h391v-541q123 55 232 56q246 -1 345 -139t99 -400t-99 -400t-345 -139q-109 0 -232 56v-348l184 -21v-172h-575v172l184 21v1662l-184 21v172z" />
    <glyph glyph-name="ydieresis" unicode="&#xff;" horiz-adv-x="1148" 
d="M680 1245v246h246v-246h-246zM229 1245v246h246v-246h-246zM553 1024v-172l-154 -18l179 -549l178 549l-158 18v172h551v-172l-170 -18l-516 -1346h-332v172l186 21l162 368l-305 782l-174 21v172h553z" />
    <glyph glyph-name="dotlessi" unicode="&#x131;" horiz-adv-x="718" 
d="M473 1024v-831l184 -21v-172h-575v172l184 21v638l-184 21v172h391z" />
    <glyph glyph-name="Lslash" unicode="&#x141;" horiz-adv-x="1214" 
d="M492 205h479l20 184h172v-389h-1071v172l184 21v348l-184 -95v183l184 94v620l-184 21v172h584v-172l-184 -21v-512l454 234v-182l-454 -234v-444z" />
    <glyph glyph-name="lslash" unicode="&#x142;" horiz-adv-x="718" 
d="M657 0h-575v172l184 21v411l-184 -104v192l184 105v546l-184 21v172h391v-623l205 117v-192l-205 -117v-528l184 -21v-172z" />
    <glyph glyph-name="OE" unicode="&#x152;" horiz-adv-x="1900" 
d="M915 205v1126h-127q-225 0 -321 -148q-96 -149 -96 -415t96 -414t321 -149h127zM797 1536h960v-389h-172l-20 184h-435v-434h240l21 184h172v-573h-172l-21 184h-240v-487h435l20 184h172v-389h-960q-372 0 -518 222q-136 204 -136 546t136 546q148 222 518 222z" />
    <glyph glyph-name="oe" unicode="&#x153;" horiz-adv-x="1816" 
d="M1683 414h-675q33 -246 258 -246q182 0 352 74v-199q-154 -70 -366 -70t-341 140q-100 -139 -356 -139t-349 136t-93 402t93 402t347 136t358 -139q127 139 355 140q291 0 372 -233q45 -125 45 -316v-88zM1266 856q-229 0 -260 -260h456q-2 120 -42 190t-154 70zM322 545
q0 -101 3 -145q8 -116 60 -174t172 -58q153 0 199 101q37 84 37 240q0 157 -41 252t-207 95t-204 -140q-19 -70 -19 -171z" />
    <glyph glyph-name="Scaron" unicode="&#x160;" horiz-adv-x="1255" 
d="M821 2048h156l-256 -358h-217l-256 358h155l209 -215zM643 1358q-178 0 -245 -67q-66 -67 -66 -169t45 -143t123 -57q78 -15 153 -25q248 -29 369 -126t121 -295t-115 -340q-61 -75 -181 -119t-255 -44t-265 27t-214 66v354h172l22 -215q111 -27 256 -27q354 0 355 281
q0 119 -64 165t-238 68q-280 35 -392 129t-111 291q0 162 98 293q53 72 164 115t268 43q240 0 420 -84v-363h-172l-25 217q-100 25 -223 25z" />
    <glyph glyph-name="scaron" unicode="&#x161;" horiz-adv-x="1019" 
d="M698 1536h156l-256 -358h-217l-256 358h156l208 -215zM524 856q-211 0 -211 -124q0 -58 44 -82t163 -34q219 -20 303 -90t84 -215q-1 -145 -109 -241t-331 -97q-76 -1 -182 17t-162 41v311h172l16 -162q76 -12 158 -12q233 0 233 139q0 59 -43 86t-161 37
q-215 18 -300 91t-85 207t102 228t306 94t339 -59v-309h-172l-18 162q-94 12 -146 12z" />
    <glyph glyph-name="Ydieresis" unicode="&#x178;" horiz-adv-x="1531" 
d="M868 1757v246h246v-246h-246zM418 1757v246h246v-246h-246zM20 1536h644v-172l-193 -23l295 -522l295 522l-193 23v172h643v-172l-204 -23l-435 -708v-440l185 -21v-172h-582v172l184 21v440l-436 708l-203 23v172z" />
    <glyph glyph-name="Zcaron" unicode="&#x17d;" horiz-adv-x="1314" 
d="M854 2048h156l-256 -358h-217l-256 358h155l209 -215zM141 1536h1043v-139l-793 -1192h629l20 184h172v-389h-1110v139l791 1192h-559l-21 -184h-172v389z" />
    <glyph glyph-name="zcaron" unicode="&#x17e;" horiz-adv-x="1044" 
d="M723 1536h156l-256 -358h-217l-256 358h155l209 -215zM932 0h-819v137l522 692h-305l-17 -147h-172v342h772v-137l-522 -692h352l17 147h172v-342z" />
    <glyph glyph-name="florin" unicode="&#x192;" 
d="M285 705h-185v172l185 20v252q1 193 111 303t342 111q232 0 376 -64v-192q-180 61 -387 61q-96 0 -167 -57t-71 -162v-252h555v-192h-555v-705h-204v705z" />
    <glyph glyph-name="circumflex" unicode="&#x2c6;" horiz-adv-x="1105" 
d="M938 1178h-156l-209 215l-208 -215h-156l256 358h217z" />
    <glyph glyph-name="caron" unicode="&#x2c7;" horiz-adv-x="1105" 
d="M782 1536h156l-256 -358h-217l-256 358h156l208 -215z" />
    <glyph glyph-name="breve" unicode="&#x2d8;" horiz-adv-x="1232" 
d="M573 1147q-155 0 -247 100t-97 289h158q4 -111 48 -162t138 -51t139 51q44 51 48 162h158q-4 -188 -96 -288t-249 -101z" />
    <glyph glyph-name="dotaccent" unicode="&#x2d9;" horiz-adv-x="1105" 
d="M451 1245v246h245v-246h-245z" />
    <glyph glyph-name="ring" unicode="&#x2da;" horiz-adv-x="1232" 
d="M483 1356q1 -88 91 -88t90 90t-91 90q-47 0 -69 -20t-21 -72zM780 1357q0 -103 -55 -155t-153 -51q-98 0 -152 51q-55 50 -55 154t55 155t152 51q96 0 152 -50q56 -52 56 -155z" />
    <glyph glyph-name="ogonek" unicode="&#x2db;" horiz-adv-x="1232" 
d="M1049 0q-99 0 -181 -62t-82 -155q0 -76 87 -76t135 23l20 8v-174q-72 -39 -182 -39t-180 55t-70 158q0 143 127 265t326 149v-152z" />
    <glyph glyph-name="tilde" unicode="&#x2dc;" horiz-adv-x="1232" 
d="M727 1333q-47 1 -129 -65t-170 -66t-162 74v160q141 -100 239 -23q42 33 93 66t117 32q92 1 166 -73v-160q-78 55 -154 55z" />
    <glyph glyph-name="hungarumlaut" unicode="&#x2dd;" horiz-adv-x="1105" 
d="M811 1178h-156l164 358h248zM451 1178h-158l164 358h250z" />
    <glyph glyph-name="Delta" unicode="&#x394;" horiz-adv-x="1351" 
d="M137 512q0 223 158 381t381 158t381 -158q157 -158 157 -381t-158 -381t-380 -158q-223 0 -381 158t-158 381z" />
    <glyph glyph-name="Delta" unicode="&#x2206;" horiz-adv-x="1351" 
d="M137 512q0 223 158 381t381 158t381 -158q157 -158 157 -381t-158 -381t-380 -158q-223 0 -381 158t-158 381z" />
    <glyph glyph-name="Omega" unicode="&#x3a9;" horiz-adv-x="839" 
d="M494 940q102 0 233 33v-191q-125 -31 -233 -30q-193 0 -297 104t-105 301q0 197 104 301t298 105q109 0 233 -31v-338h-172l-20 178q-12 2 -41 2q-205 0 -205 -217t205 -217z" />
    <glyph glyph-name="Omega" unicode="&#x2126;" horiz-adv-x="839" 
d="M494 940q102 0 233 33v-191q-125 -31 -233 -30q-193 0 -297 104t-105 301q0 197 104 301t298 105q109 0 233 -31v-338h-172l-20 178q-12 2 -41 2q-205 0 -205 -217t205 -217z" />
    <glyph glyph-name="pi" unicode="&#x3c0;" horiz-adv-x="1392" 
d="M657 629v-78h93q41 0 41 39t-41 39h-93zM754 397h-97v-161h-163v552h260q104 0 153 -54t49 -140t-49 -142t-153 -55zM696 145q180 0 274 75q93 75 93 292t-93 292q-94 75 -274 75t-273 -75t-93 -292t93 -292t273 -75zM313 76q-166 118 -166 438q0 319 166 435
q146 102 383 102t383 -102q166 -116 166 -435t-166 -438q-145 -103 -383 -103t-383 103z" />
    <glyph glyph-name="endash" unicode="&#x2013;" horiz-adv-x="1179" 
d="M1057 799v-201h-934v201h934z" />
    <glyph glyph-name="emdash" unicode="&#x2014;" horiz-adv-x="1560" 
d="M1438 799v-201h-1315v201h1315z" />
    <glyph glyph-name="quoteleft" unicode="&#x2018;" horiz-adv-x="389" 
d="M203 1536h119l-70 -512h-256z" />
    <glyph glyph-name="quoteright" unicode="&#x2019;" horiz-adv-x="389" 
d="M186 1024h-118l69 512h256z" />
    <glyph glyph-name="quotesinglbase" unicode="&#x201a;" horiz-adv-x="389" 
d="M186 -328h-118l69 512h256z" />
    <glyph glyph-name="quotedblleft" unicode="&#x201c;" horiz-adv-x="757" 
d="M571 1536h119l-69 -512h-256zM203 1536h119l-70 -512h-256z" />
    <glyph glyph-name="quotedblright" unicode="&#x201d;" horiz-adv-x="757" 
d="M555 1024h-119l70 512h256zM186 1024h-118l69 512h256z" />
    <glyph glyph-name="quotedblbase" unicode="&#x201e;" horiz-adv-x="757" 
d="M555 -328h-119l70 512h256zM186 -328h-118l69 512h256z" />
    <glyph glyph-name="dagger" unicode="&#x2020;" horiz-adv-x="827" 
d="M532 1536l-40 -283l284 39v-235l-284 39l61 -492h-279l62 492l-285 -39v235l283 -39l-39 283h237z" />
    <glyph glyph-name="daggerdbl" unicode="&#x2021;" horiz-adv-x="827" 
d="M532 1536l-40 -283l284 39v-235l-284 39l16 -113l-16 -109l284 39v-237l-284 41l61 -492h-279l62 492l-285 -41v237l283 -39l-15 109l15 113l-283 -39v235l283 -39l-39 283h237z" />
    <glyph glyph-name="bullet" unicode="&#x2022;" horiz-adv-x="819" 
d="M154 512v512h512v-512h-512z" />
    <glyph glyph-name="ellipsis" unicode="&#x2026;" horiz-adv-x="2027" 
d="M1567 0v246h245v-246h-245zM891 0v246h246v-246h-246zM215 0v246h246v-246h-246z" />
    <glyph glyph-name="perthousand" unicode="&#x2030;" horiz-adv-x="2877" 
d="M1533 616q-91 0 -131 -51t-40 -172t40 -173t131 -52t130 51t39 174t-39 173t-130 50zM2393 616q-91 0 -131 -51t-40 -172t40 -173t131 -52t130 51t39 174t-39 173t-130 50zM485 920q92 0 131 50t39 173t-39 174t-131 51t-131 -51t-39 -174t39 -173t131 -50zM586 0h-244
l1090 1536h243zM2021 393q0 211 89 315t283 105q194 0 283 -104q89 -103 89 -315t-89 -316t-283 -104t-283 104t-89 315zM1161 393q0 211 89 315t283 105q194 0 283 -104q89 -103 89 -315t-89 -316t-283 -104t-283 104t-89 315zM858 1143q0 -209 -90 -315t-284 -105
q-194 0 -282 104q-88 103 -89 315q0 212 89 316q88 104 282 104t284 -104q90 -106 90 -315z" />
    <glyph glyph-name="guilsinglleft" unicode="&#x2039;" horiz-adv-x="624" 
d="M113 418v188l389 287v-199l-219 -182l219 -182v-201z" />
    <glyph glyph-name="guilsinglright" unicode="&#x203a;" horiz-adv-x="624" 
d="M512 606v-188l-389 -289v201l219 182l-219 182v199z" />
    <glyph glyph-name="fraction" unicode="&#x2044;" horiz-adv-x="309" 
d="M-268 0h-244l1090 1536h243z" />
    <glyph glyph-name="fraction" unicode="&#x2215;" horiz-adv-x="309" 
d="M-268 0h-244l1090 1536h243z" />
    <glyph glyph-name="Euro" unicode="&#x20ac;" horiz-adv-x="1118" 
d="M184 821h-112v203h125q29 274 152 407q124 132 388 132q190 0 322 -56v-198q-165 53 -317 53t-227 -83t-99 -255h532l-67 -203h-480v-106h445l-68 -203h-362q26 -174 100 -256t226 -82t317 53v-198q-131 -55 -322 -56q-264 0 -388 132t-152 407h-125v203h112v106z" />
    <glyph glyph-name="trademark" unicode="&#x2122;" horiz-adv-x="1177" 
d="M471 1442h-156v-418h-106v418h-158v94h420v-94zM535 1024v512h112l152 -319l155 319h111v-512h-98l4 324l-131 -263h-78l-131 263l4 -324h-100z" />
    <glyph glyph-name="partialdiff" unicode="&#x2202;" horiz-adv-x="1130" 
d="M754 771q-43 83 -176 83t-183 -56t-58 -171q-3 -43 -3 -113t3 -113q8 -118 59 -174q50 -57 169 -57q152 0 196 100q36 83 36 251q0 167 -43 250zM1008 555q0 -170 -18 -262q-43 -215 -203 -282q-89 -38 -222 -38q-252 1 -347 139t-95 401t95 400t347 138q133 0 211 -54
q-43 369 -287 369q-199 0 -337 -70v199q121 68 350 68t351 -175q155 -222 155 -833z" />
    <glyph glyph-name="product" unicode="&#x220f;" horiz-adv-x="1392" 
d="M637 629v-58h82q31 0 31 29t-31 29h-82zM637 412v-176h-162v552h242q203 0 203 -186q0 -104 -64 -153l111 -213h-181l-86 176h-63zM696 145q180 0 274 75q93 75 93 292t-93 292q-94 75 -274 75t-273 -75t-93 -292t93 -292t273 -75zM313 76q-166 118 -166 438
q0 319 166 435q146 102 383 102t383 -102q166 -116 166 -435t-166 -438q-145 -103 -383 -103t-383 103z" />
    <glyph glyph-name="summation" unicode="&#x2211;" horiz-adv-x="1863" 
d="M137 768q1 330 233 562t562 232t562 -232t232 -562t-232 -562t-562 -232t-562 232t-233 562z" />
    <glyph glyph-name="minus" unicode="&#x2212;" horiz-adv-x="1064" 
d="M123 598v201h819v-201h-819z" />
    <glyph glyph-name="radical" unicode="&#x221a;" horiz-adv-x="1351" 
d="M973 819h-594v-614h594v614zM164 0v1024h1024v-1024h-1024z" />
    <glyph glyph-name="infinity" unicode="&#x221e;" horiz-adv-x="1177" 
d="M160 1392q0 -30 24 -40t112 -18q87 -8 131 -44q44 -35 44 -112q0 -166 -225 -166q-109 0 -176 28v95q86 -29 178 -29q123 0 123 70q0 31 -24 45t-111 22t-131 39t-44 104q0 162 215 162q102 0 170 -28v-95q-86 29 -160 29t-101 -15q-25 -16 -25 -47zM535 1024v512h112
l154 -319l153 319h111v-512h-98l4 324l-131 -263h-78l-131 263l4 -324h-100z" />
    <glyph glyph-name="integral" unicode="&#x222b;" horiz-adv-x="1863" 
d="M1485 1331h-1106v-1126h1106v1126zM164 0v1536h1536v-1536h-1536z" />
    <glyph glyph-name="approxequal" unicode="&#x2248;" horiz-adv-x="1351" 
d="M559 254l-141 141l117 117l-117 117l141 141l117 -117l117 117l141 -141l-117 -117l117 -117l-141 -141l-117 117zM973 819h-594v-614h594v614zM164 0v1024h1024v-1024h-1024z" />
    <glyph glyph-name="notequal" unicode="&#x2260;" horiz-adv-x="1863" 
d="M1700 0h-1536v1536h1536v-1536z" />
    <glyph glyph-name="lessequal" unicode="&#x2264;" horiz-adv-x="1761" 
d="M1638 868v-200h-1155l43 -25l625 -412v-258l-1049 740v110l1049 740v-258l-627 -412l-43 -25h1157z" />
    <glyph glyph-name="greaterequal" unicode="&#x2265;" horiz-adv-x="1761" 
d="M123 668v200h1157l-43 25l-627 412v258l1049 -740v-110l-1049 -740v258l625 412l43 25h-1155z" />
    <glyph glyph-name="lozenge" unicode="&#x25ca;" horiz-adv-x="1863" 
d="M791 768l-373 373l141 141l373 -373l373 373l141 -141l-373 -373l373 -373l-141 -141l-373 373l-373 -373l-141 141zM1485 1331h-1106v-1126h1106v1126zM164 0v1536h1536v-1536h-1536z" />
    <glyph glyph-name="fi" unicode="&#xfb01;" horiz-adv-x="1556" 
d="M1311 1024v-831l184 -21v-172h-575v172l184 21v638h-621v-638l185 -21v-172h-576v172l184 21v638h-184v173l184 20v113q0 190 140 305q140 114 420 114q282 0 475 -67v-191q-193 66 -431 66t-317 -59q-80 -59 -80 -177v-104h828z" />
    <glyph glyph-name="fl" unicode="&#xfb02;" horiz-adv-x="1556" 
d="M1495 0h-575v172l184 21v1150q-127 20 -254 21q-207 0 -287 -59t-80 -177v-104h303v-193h-303v-638l185 -21v-172h-576v172l184 21v638h-184v173l184 20v113q0 190 140 305t420 115q282 0 475 -68v-1296l184 -21v-172z" />
    </font>
</defs>
</svg>
