<?xml version="1.0" standalone="no"?>
<!DOCTYPE svg PUBLIC "-//W3C//DTD SVG 1.1//EN" "http://www.w3.org/Graphics/SVG/1.1/DTD/svg11.dtd" >
<svg xmlns="http://www.w3.org/2000/svg">
<metadata>
Created by FontPrep 20130207 at Wed Apr 20 13:17:18 2016
 By Naomi Rubin
Copyright (c) 2008 by Village Type &#38; Design LLC. All rights reserved.
</metadata>
<defs>
<font id="d7e67a65d1bd3f53d38ea2e37b2bbdfa" horiz-adv-x='1024' >
  <font-face 
    font-family="GalaxiePolarisCondensed-Medium"
    font-weight="700"
    font-stretch="normal"
    units-per-em="2048"
    panose-1="0 0 0 0 0 0 0 0 0 0"
    ascent="1638"
    descent="-410"
    x-height="1085"
    cap-height="1597"
    bbox="-250 -514 2791 2150"
    underline-thickness="61"
    underline-position="-144"
    unicode-range="U+0020-E597"
  />
<missing-glyph horiz-adv-x="1988" 
d="M1085 799l564 -563v1126zM901 799l-563 563v-1126zM422 1462l571 -571l572 571h-1143zM993 707l-571 -572h1143zM195 0v1597h1597v-1597h-1597z" />
    <glyph glyph-name="interrobang" unicode="&#x21;&#x3f;" horiz-adv-x="960" 
d="M582 231v-231h-234v231h234zM670 1201q0 110 -34 163t-106 63l-16 -495q84 49 120 104t36 165zM891 1224q0 -216 -79 -311q-95 -116 -306 -206l-10 -318h-41l-35 1036q-80 -15 -112 -81t-32 -203l-208 26q0 242 91 350q91 107 315 107t320 -92t97 -308z" />
    <glyph glyph-name="interrobangdown" unicode="&#xa1;&#xbf;" horiz-adv-x="960" 
d="M289 -41q0 -174 143 -195l12 418q-84 -49 -120 -95t-35 -128zM385 854v231h233v-231h-233zM486 -432q-222 0 -320 91t-98 288t114 285q97 78 271 155l8 252h51l31 -872q75 15 107 79t32 195l209 -27q0 -236 -91 -341q-92 -105 -314 -105z" />
    <glyph glyph-name=".notdef" horiz-adv-x="1988" 
d="M1085 799l564 -563v1126zM901 799l-563 563v-1126zM422 1462l571 -571l572 571h-1143zM993 707l-571 -572h1143zM195 0v1597h1597v-1597h-1597z" />
    <glyph glyph-name=".null" horiz-adv-x="0" 
 />
    <glyph glyph-name="nonmarkingreturn" horiz-adv-x="681" 
 />
    <glyph glyph-name="space" unicode=" " horiz-adv-x="350" 
 />
    <glyph glyph-name="exclam" unicode="!" horiz-adv-x="432" 
d="M88 1597h256l-49 -1151h-158zM332 227v-227h-232v227h232z" />
    <glyph glyph-name="quotedbl" unicode="&#x22;" horiz-adv-x="763" 
d="M418 1597h252l-39 -512h-176zM94 1597h254l-37 -512h-178z" />
    <glyph glyph-name="numbersign" unicode="#" horiz-adv-x="1064" 
d="M457 987l-68 -409h219l68 409h-219zM147 987v193h164l66 385h178l-66 -385h220l65 385h178l-65 -385h117v-193h-150l-68 -409h132v-193h-164l-66 -385h-178l65 385h-219l-65 -385h-178l65 385h-117v193h150l68 409h-132z" />
    <glyph glyph-name="dollar" unicode="$" horiz-adv-x="886" 
d="M428 399q188 0 188 154q0 76 -43 109t-155 57q-74 12 -121 27q-47 14 -96 48q-99 68 -99 234q0 317 369 324l66 213h190l-72 -226q86 -12 164 -53l-49 -186q-111 70 -270 69q-178 0 -178 -141q0 -66 36 -96t128 -51t137 -35q137 -44 179 -144q26 -61 25 -151
q0 -172 -94 -254t-291 -84l-63 -213h-191l72 229q-123 23 -194 68l57 186q143 -84 305 -84z" />
    <glyph glyph-name="percent" unicode="%" horiz-adv-x="1689" 
d="M989 413q1 241 69 337t241 96t242 -96t69 -337t-69 -338t-242 -97t-241 96q-68 98 -69 339zM1299 682q-79 0 -107 -54t-27 -215q-1 -161 27 -217t107 -55q79 -1 107 55t28 217t-28 215t-107 54zM389 719q-172 0 -241 96q-68 96 -68 337t68 338q69 97 241 97t241 -97
q68 -97 68 -338t-68 -337t-241 -96zM344 0l799 1565h203l-801 -1565h-201zM390 1423q-80 0 -108 -55t-28 -215t29 -215t107 -55t107 54q27 54 27 215t-27 216q-28 55 -107 55z" />
    <glyph glyph-name="ampersand" unicode="&#x26;" horiz-adv-x="1087" 
d="M315 1251q0 -119 68 -260q100 83 149 145t50 138q0 76 -28 116t-99 40q-140 -1 -140 -179zM266 442q0 -146 56 -212t170 -66q116 0 198 110q-184 195 -352 424q-72 -109 -72 -256zM997 745q0 -242 -73 -423q70 -61 100 -78v-267q-82 51 -203 166q-139 -166 -347 -166
q-411 0 -413 455q0 246 172 424q-121 213 -121 396t78 276q78 92 256 92t246 -81q70 -81 70 -234q0 -95 -42 -181t-92 -137t-155 -145q131 -193 305 -379q35 127 35 261t-25 220l181 23q28 -91 28 -222z" />
    <glyph glyph-name="quotesingle" unicode="'" horiz-adv-x="444" 
d="M94 1597h254l-37 -512h-178z" />
    <glyph glyph-name="parenleft" unicode="(" horiz-adv-x="598" 
d="M313 717q1 -283 53 -512t162 -471h-209q-98 168 -161 431t-64 552q0 289 64 552q63 263 161 431h209q-111 -242 -163 -471t-52 -512z" />
    <glyph glyph-name="parenright" unicode=")" horiz-adv-x="598" 
d="M287 717q0 281 -53 511q-52 230 -164 472h209q98 -168 161 -431q64 -263 64 -552t-64 -552t-161 -431h-209q113 242 164 472q53 230 53 511z" />
    <glyph glyph-name="asterisk" unicode="*" horiz-adv-x="704" 
d="M279 1597h147l-18 -211l198 84l45 -141l-198 -45l131 -151l-121 -86l-111 182l-110 -182l-121 86l129 151l-197 45l45 141l197 -84z" />
    <glyph glyph-name="plus" unicode="+" horiz-adv-x="1474" 
d="M641 246v456h-457v193h457v457h193v-457h456v-193h-456v-456h-193z" />
    <glyph glyph-name="comma" unicode="," horiz-adv-x="432" 
d="M100 227h238l-115 -508h-157z" />
    <glyph glyph-name="hyphen" unicode="-" horiz-adv-x="808" 
d="M692 588h-575v196h575v-196z" />
    <glyph glyph-name="period" unicode="." horiz-adv-x="432" 
d="M332 227v-227h-232v227h232z" />
    <glyph glyph-name="slash" unicode="/" horiz-adv-x="759" 
d="M725 1782l-471 -1966h-219l471 1966h219z" />
    <glyph glyph-name="zero" unicode="0" horiz-adv-x="1064" 
d="M969 782q0 -340 -41 -511t-129 -232q-89 -61 -267 -61t-266 60q-88 62 -129 233t-41 511t41 511t129 233t266 61q178 0 266 -61q88 -60 130 -232q41 -172 41 -512zM311 782q1 -270 21 -398t63 -171t137 -43t138 43q43 43 63 171t21 398q0 270 -20 400t-64 172
q-44 43 -138 43t-137 -43q-43 -42 -63 -172t-21 -400z" />
    <glyph glyph-name="one" unicode="1" horiz-adv-x="1064" 
d="M983 0h-850v193h320v1077q-111 -154 -340 -228v215q240 80 379 330h172v-1394h319v-193z" />
    <glyph glyph-name="two" unicode="2" horiz-adv-x="1064" 
d="M717 1158q0 126 -38 184q-39 58 -147 57q-108 0 -149 -67t-41 -224l-213 27q0 117 14 191q33 176 181 232q82 30 211 29q227 0 311 -99t84 -333t-143 -357q-61 -54 -217 -156t-197 -186t-41 -266h622v-190h-845q0 281 30 437q16 83 61 138q84 105 251 213
q168 109 217 177q49 67 49 193z" />
    <glyph glyph-name="three" unicode="3" horiz-adv-x="1064" 
d="M521 166q120 0 170 64t50 216q0 150 -55 205t-147 56h-144v192h144q78 0 123 50q45 51 45 195t-39 199t-150 55q-112 0 -150 -64q-38 -65 -38 -218l-209 29q2 227 87 335t307 108t313 -95q91 -94 92 -328q0 -289 -175 -356q211 -55 211 -393q0 -215 -101 -327t-338 -112
t-323 115t-85 338l206 29q0 -153 43 -223t163 -70z" />
    <glyph glyph-name="four" unicode="4" horiz-adv-x="1064" 
d="M618 547l11 766l-353 -770zM983 358h-164v-358h-203v358h-534v177l483 1052h254v-1040h164v-189z" />
    <glyph glyph-name="five" unicode="5" horiz-adv-x="1064" 
d="M523 166q116 0 167 83t51 273t-47 268q-47 77 -145 76q-72 0 -127 -41t-84 -98l-184 29l34 809h721v-193h-534l-21 -450q94 127 261 127t253 -121t86 -410t-104 -415t-330 -126t-317 108q-92 108 -92 331l215 28q2 -150 42 -214t155 -64z" />
    <glyph glyph-name="six" unicode="6" horiz-adv-x="1064" 
d="M567 836q-86 0 -137 -48t-100 -149q0 -269 46 -373t160 -104t156 76t43 260q0 184 -41 261t-127 77zM541 1403q-139 0 -176 -117t-37 -459q102 197 317 197q168 0 237 -121q68 -121 68 -396t-92 -403t-336 -127q-244 0 -327 169q-82 169 -82 636q0 351 45 524
q27 103 74 160q102 121 320 121t302 -99t88 -302l-213 -29q-3 131 -41 189t-147 57z" />
    <glyph glyph-name="seven" unicode="7" horiz-adv-x="1064" 
d="M125 1372v193h819v-135l-444 -1430h-228l351 1077l100 297l-229 -2h-369z" />
    <glyph glyph-name="eight" unicode="8" horiz-adv-x="1064" 
d="M532 -23q-236 0 -334 110t-100 321q0 322 205 401q-78 29 -129 121t-51 233q0 231 93 327t316 97q222 0 316 -96t94 -328q0 -141 -51 -233t-129 -121q205 -80 205 -401q1 -211 -99 -321t-336 -110zM532 715q-113 1 -170 -59t-57 -210t54 -214t173 -64t174 63
q54 63 54 214t-58 211t-170 59zM532 1395q-110 1 -154 -55t-44 -195t51 -197t147 -57q96 0 148 57q51 56 51 196t-45 196t-154 55z" />
    <glyph glyph-name="nine" unicode="9" horiz-adv-x="1064" 
d="M497 729q85 0 138 46t98 140q0 270 -46 379t-159 109q-112 0 -156 -76t-44 -260t42 -261t127 -77zM418 541q-162 0 -234 123t-72 396t93 400t337 127t326 -169t82 -578t-45 -581q-27 -103 -75 -161q-101 -122 -319 -121q-218 -1 -302 99t-86 303l213 29q2 -134 40 -190
t148 -56q111 0 159 76q41 60 49 268q3 82 3 223q-102 -188 -317 -188z" />
    <glyph glyph-name="colon" unicode=":" horiz-adv-x="432" 
d="M332 944v-225h-232v225h232zM332 227v-227h-232v227h232z" />
    <glyph glyph-name="semicolon" unicode=";" horiz-adv-x="432" 
d="M100 227h238l-115 -508h-157zM332 944v-225h-232v225h232z" />
    <glyph glyph-name="less" unicode="&#x3c;" horiz-adv-x="1474" 
d="M645 901l-246 -102l246 -103l645 -284v-209l-1106 499v193l1106 500v-209z" />
    <glyph glyph-name="equal" unicode="=" horiz-adv-x="1474" 
d="M1290 508h-1106v192h1106v-192zM1290 897h-1106v193h1106v-193z" />
    <glyph glyph-name="greater" unicode="&#x3e;" horiz-adv-x="1474" 
d="M829 696l246 103l-246 102l-645 285v209l1106 -500v-193l-1106 -499v209z" />
    <glyph glyph-name="question" unicode="?" horiz-adv-x="960" 
d="M571 227v-227h-229v227h229zM328 674q0 94 40 151t133 111t131 108q38 53 38 169t-46 167q-46 52 -153 52t-151 -66t-44 -225l-208 26q0 242 91 350q91 107 315 107t320 -92t97 -299q0 -207 -79 -294q-68 -74 -161 -126q-94 -52 -120 -92q-55 -82 1 -275h-149
q-55 134 -55 228z" />
    <glyph glyph-name="at" unicode="@" horiz-adv-x="1939" 
d="M1315 129h-137l-13 121q-101 -144 -285 -144t-266 125t-82 376t82 376t266 125t287 -141l11 118h184l-6 -235v-541q170 2 228 119t58 371q0 157 -24 265q-57 260 -288 343q-132 47 -335 47q-383 0 -537 -198t-155 -654q0 -456 159 -652t566 -196q219 0 373 36t315 108
l76 -172q-338 -158 -764 -158q-498 0 -717 249t-219 785t215 788q215 250 692 250t672 -244q94 -118 135 -263t41 -334q1 -340 -121 -505t-411 -165zM946 920q-114 0 -158 -78t-43 -234q0 -156 43 -234t156 -79q113 0 201 129v367q-85 129 -199 129z" />
    <glyph glyph-name="A" unicode="A" horiz-adv-x="1019" 
d="M510 1419l-162 -923h322zM346 1614h326l305 -1614h-219l-56 315h-385l-55 -315h-219z" />
    <glyph glyph-name="B" unicode="B" horiz-adv-x="1085" 
d="M580 1405h-248v-492h250q166 0 166 252q0 139 -40 189t-128 51zM332 193h256q102 0 151 52q49 53 49 205t-51 212t-139 59h-266v-528zM637 0h-522v1597h508q170 0 257 -90q87 -89 87 -343t-160 -330q201 -51 201 -396q0 -242 -92 -340t-279 -98z" />
    <glyph glyph-name="C" unicode="C" horiz-adv-x="1060" 
d="M309 799q0 -347 49 -489q48 -142 186 -142t182 66t46 239l215 -29q-2 -248 -92 -358t-340 -109q-249 -1 -357 181t-108 641t108 640t358 181t339 -110q90 -110 92 -357l-215 -29q-2 174 -46 240t-181 66t-187 -142t-49 -489z" />
    <glyph glyph-name="D" unicode="D" horiz-adv-x="1116" 
d="M332 193h155q156 0 234 82q63 68 80 287q6 91 6 303q0 364 -81 452t-239 88h-155v-1212zM473 0h-358v1597h358q164 -1 266 -37q209 -75 259 -374q26 -150 26 -388t-26 -386q-26 -150 -92 -244t-167 -131q-102 -37 -266 -37z" />
    <glyph glyph-name="E" unicode="E" horiz-adv-x="925" 
d="M115 1597h706v-192h-491v-492h418v-190h-418v-530h524v-193h-739v1597z" />
    <glyph glyph-name="F" unicode="F" horiz-adv-x="872" 
d="M330 723v-723h-215v1597h700v-192h-485v-492h420v-190h-420z" />
    <glyph glyph-name="G" unicode="G" horiz-adv-x="1101" 
d="M559 -23q-271 1 -370 183t-99 636t106 639t372 185q264 0 351 -108t89 -359l-215 -29q-3 174 -47 240t-171 66q-157 0 -211 -142t-54 -458q0 -317 18 -423q20 -106 49 -148q63 -91 195 -91t227 43v461h-193v180h402v-766q-178 -109 -449 -109z" />
    <glyph glyph-name="H" unicode="H" horiz-adv-x="1105" 
d="M774 1597h215v-1597h-215v723h-444v-723h-215v1597h215v-684h444v684z" />
    <glyph glyph-name="I" unicode="I" horiz-adv-x="466" 
d="M342 1597v-1597h-217v1597h217z" />
    <glyph glyph-name="J" unicode="J" horiz-adv-x="892" 
d="M567 1597h215v-1198q0 -227 -90 -324t-292 -97t-276 98q-75 100 -75 295l211 26q0 -121 31 -177t122 -54t123 54t31 177v1200z" />
    <glyph glyph-name="K" unicode="K" horiz-adv-x="1030" 
d="M115 0v1597h215l-4 -811l381 811h254l-363 -700l395 -897h-256l-282 705l-129 -242l4 -463h-215z" />
    <glyph glyph-name="L" unicode="L" horiz-adv-x="821" 
d="M330 1597v-1404h450v-193h-665v1597h215z" />
    <glyph glyph-name="M" unicode="M" horiz-adv-x="1372" 
d="M115 0v1597h305l266 -1218l264 1218h305v-1597h-213l13 1159l-273 -1159h-194l-271 1159l11 -1159h-213z" />
    <glyph glyph-name="N" unicode="N" horiz-adv-x="1103" 
d="M786 1597h203v-1597h-246l-288 786l-142 408l4 -440l2 -754h-204v1597h247l287 -786l144 -408l-7 441v753z" />
    <glyph glyph-name="O" unicode="O" horiz-adv-x="1089" 
d="M780 799q0 362 -47 496q-47 135 -189 135t-188 -134t-47 -498q0 -364 46 -497q47 -133 189 -133t189 134t47 497zM90 799q0 455 94 638t360 183t361 -183q94 -183 94 -638t-94 -638t-360 -183q-267 0 -361 182q-94 184 -94 639z" />
    <glyph glyph-name="P" unicode="P" horiz-adv-x="983" 
d="M334 606v-606h-217v1597h395q193 1 299 -107q107 -108 107 -393t-110 -388t-292 -103h-182zM334 801h168q102 1 149 67t47 234t-47 236t-149 67h-168v-604z" />
    <glyph glyph-name="Q" unicode="Q" horiz-adv-x="1089" 
d="M780 799q0 362 -47 496q-47 135 -189 135t-188 -134t-47 -498q0 -364 46 -497q47 -133 189 -133t189 134t47 497zM90 799q0 455 94 638t360 183t361 -183q94 -183 94 -621t-78 -625q-79 -185 -298 -209l305 -220l-99 -198l-575 506q-92 82 -128 255t-36 474z" />
    <glyph glyph-name="R" unicode="R" horiz-adv-x="1017" 
d="M332 834h164q108 0 158 58t51 228q-1 170 -51 228t-158 57h-164v-571zM332 639v-639h-217v1597h405q94 0 161 -17q67 -16 125 -66q118 -101 118 -394q0 -207 -56 -311t-157 -143l245 -666h-243l-209 639h-172z" />
    <glyph glyph-name="S" unicode="S" horiz-adv-x="1003" 
d="M482 166q128 0 185 59q56 59 56 199t-54 194t-173 88t-174 60q-150 69 -196 206q-28 83 -28 199q0 236 98 345q98 108 311 108q214 0 308 -84q79 -71 95 -228q6 -62 8 -155l-211 -29q1 146 -23 205q-24 60 -63 79q-39 20 -123 20t-133 -60t-49 -192t46 -182
q47 -50 167 -79q121 -29 183 -57t117 -79q105 -99 107 -346t-110 -355t-355 -109q-243 0 -329 124q-44 65 -61 147t-18 205l209 26q2 -169 42 -239t168 -70z" />
    <glyph glyph-name="T" unicode="T" horiz-adv-x="886" 
d="M551 1405v-1405h-215v1405h-295v192h805v-192h-295z" />
    <glyph glyph-name="U" unicode="U" horiz-adv-x="1069" 
d="M535 166q131 0 171 55t39 195v1181h218v-1189q-1 -230 -89 -332t-340 -102t-339 102q-88 102 -89 332v1189h218v-1181q0 -138 40 -194t171 -56z" />
    <glyph glyph-name="V" unicode="V" horiz-adv-x="1019" 
d="M672 -16h-326l-303 1613h219l248 -1419l248 1419h219z" />
    <glyph glyph-name="W" unicode="W" horiz-adv-x="1425" 
d="M899 -23l-186 1311l-187 -1311h-293l-170 1620h203l127 -1304l195 1304h250l194 -1304l127 1304h203l-170 -1620h-293z" />
    <glyph glyph-name="X" unicode="X" horiz-adv-x="1114" 
d="M817 0l-260 674l-262 -674h-250l332 829l-295 768h242l233 -630l234 630h241l-295 -768l330 -829h-250z" />
    <glyph glyph-name="Y" unicode="Y" horiz-adv-x="1028" 
d="M514 805l264 792h226l-386 -1024l5 -573h-215l2 573l-383 1024h223z" />
    <glyph glyph-name="Z" unicode="Z" horiz-adv-x="995" 
d="M61 0v158l514 1052l99 197l-295 -2h-289v192h823v-157l-512 -1053l-100 -197l297 3h328v-193h-865z" />
    <glyph glyph-name="bracketleft" unicode="[" horiz-adv-x="598" 
d="M549 1507h-154v-1581h154v-192h-369v1966h369v-193z" />
    <glyph glyph-name="backslash" unicode="\" horiz-adv-x="759" 
d="M506 -184l-471 1966h219l471 -1966h-219z" />
    <glyph glyph-name="bracketright" unicode="]" horiz-adv-x="600" 
d="M49 -74h154v1581h-154v193h371v-1966h-371v192z" />
    <glyph glyph-name="asciicircum" unicode="^" horiz-adv-x="1116" 
d="M463 1624h190l420 -805h-225l-289 580l-291 -580h-225z" />
    <glyph glyph-name="underscore" unicode="_" horiz-adv-x="702" 
d="M639 -410h-576v160h576v-160z" />
    <glyph glyph-name="grave" unicode="`" horiz-adv-x="1269" 
d="M412 1638h233l98 -426h-206z" />
    <glyph glyph-name="a" unicode="a" horiz-adv-x="946" 
d="M281 319q0 -168 143 -167q125 0 205 110v279l-140 -21q-109 -14 -159 -58t-49 -143zM629 801q0 73 -35 109t-118 36t-119 -42t-35 -140l-213 27q-1 161 79 239t287 78t287 -76t80 -252v-516l6 -264h-186l-13 119q-104 -141 -303 -142q-279 0 -278 326q0 166 95 245
t308 111l158 23v119z" />
    <glyph glyph-name="b" unicode="b" horiz-adv-x="1001" 
d="M521 166q110 0 149 88t39 289t-39 289t-149 88t-206 -125v-504q96 -125 206 -125zM587 1108q171 0 255 -139t84 -426t-83 -426t-261 -139t-285 141l-12 -119h-187l6 264v1374h211v-653q100 123 272 123z" />
    <glyph glyph-name="c" unicode="c" horiz-adv-x="905" 
d="M287 543q0 -211 45 -296t145 -85t132 42t32 128l205 -27q0 -162 -77 -245t-290 -83q-213 1 -308 131t-95 435t95 435t308 130t290 -83t77 -245l-205 -26q0 86 -32 128t-132 42t-145 -85t-45 -296z" />
    <glyph glyph-name="d" unicode="d" horiz-adv-x="1001" 
d="M483 920q-111 0 -151 -88t-39 -290q0 -200 40 -288q41 -88 151 -88t202 125v504q-92 125 -203 125zM414 1108q172 0 272 -123v653h211v-1374l6 -264h-186l-12 119q-103 -141 -283 -141t-263 138q-83 140 -83 427t83 426t255 139z" />
    <glyph glyph-name="e" unicode="e" horiz-adv-x="944" 
d="M478 936q-101 0 -139 -70t-40 -237h352q-2 163 -37 235t-136 72zM299 463q0 -164 38 -239q38 -74 137 -74t136 42t37 127l215 -26q0 -154 -79 -235t-307 -81q-228 1 -314 137t-86 429t87 429t317 136t312 -135t82 -430v-80h-575z" />
    <glyph glyph-name="f" unicode="f" horiz-adv-x="657" 
d="M53 907v178h123v314q0 127 74 195t221 67q92 0 156 -23l-13 -178q-139 41 -197 -5q-30 -24 -30 -87v-283h205v-178h-205v-907h-211v907h-123z" />
    <glyph glyph-name="g" unicode="g" horiz-adv-x="999" 
d="M482 920q-112 0 -150 -83t-39 -271q0 -188 39 -270q40 -83 150 -83t204 127v455q-92 125 -204 125zM416 27q-174 0 -257 134t-83 406q0 273 83 407t261 134t282 -141l13 118h188l-6 -264v-897q0 -180 -98 -268t-311 -88t-302 79q-88 79 -88 251l207 28q0 -96 39 -141
q38 -45 146 -45t152 48t44 140v222q-96 -123 -270 -123z" />
    <glyph glyph-name="h" unicode="h" horiz-adv-x="987" 
d="M315 1638v-655q115 125 308 125q135 0 201 -72t67 -198v-838h-211v784q0 136 -140 136t-225 -121v-799h-211v1638h211z" />
    <glyph glyph-name="i" unicode="i" horiz-adv-x="425" 
d="M328 1550v-227h-230v227h230zM109 0v1085h208v-1085h-208z" />
    <glyph glyph-name="j" unicode="j" horiz-adv-x="425" 
d="M328 1550v-227h-230v227h230zM317 1085v-1257q0 -264 -276 -264q-92 0 -154 24l15 179q41 -19 97 -19t83 24t27 85v1228h208z" />
    <glyph glyph-name="k" unicode="k" horiz-adv-x="952" 
d="M104 0v1638h211l-6 -1038l330 485h252l-334 -444l369 -641h-246l-256 471l-115 -156l6 -315h-211z" />
    <glyph glyph-name="l" unicode="l" horiz-adv-x="430" 
d="M111 0v1638h208v-1638h-208z" />
    <glyph glyph-name="m" unicode="m" horiz-adv-x="1462" 
d="M594 1108q100 0 156 -41t71 -98q109 139 299 139q126 0 186 -69t60 -185v-854h-211v799q0 121 -123 121q-117 0 -192 -117v-803h-209v799q0 121 -125 121q-117 0 -191 -117v-803h-211v821l-6 264h187l12 -120q111 143 297 143z" />
    <glyph glyph-name="n" unicode="n" horiz-adv-x="985" 
d="M621 1108q135 0 201 -72t67 -198v-838h-211v784q0 136 -140 136t-225 -121v-799h-211v821l-4 264h187l12 -118q121 141 324 141z" />
    <glyph glyph-name="o" unicode="o" horiz-adv-x="968" 
d="M484 -23q-218 0 -313 126q-95 125 -95 439t95 440t313 126t314 -126t95 -439q0 -313 -95 -440q-96 -126 -314 -126zM485 162q104 0 151 84q46 84 46 297t-46 297t-150 84t-151 -84q-46 -84 -46 -297t46 -297t150 -84z" />
    <glyph glyph-name="p" unicode="p" horiz-adv-x="1001" 
d="M521 166q110 0 149 88t39 289t-39 289t-149 88t-206 -125v-504q96 -125 206 -125zM926 543q0 -287 -84 -427t-255 -139q-172 0 -272 123v-510h-211v1231l-6 264h187l12 -118q109 141 285 141t260 -139t84 -426z" />
    <glyph glyph-name="q" unicode="q" horiz-adv-x="1019" 
d="M501 920q-110 0 -150 -88t-40 -290q0 -200 40 -288t150 -88t206 125v504q-96 125 -206 125zM434 -23q-172 -1 -255 139t-83 427t83 426t261 139t283 -141l12 118h187l-7 -264v-1231h-208v510q-101 -123 -273 -123z" />
    <glyph glyph-name="r" unicode="r" horiz-adv-x="661" 
d="M537 903q-129 0 -224 -121v-782h-211v821l-4 264h187l12 -124q88 147 235 147q47 0 84 -18l-10 -195q-24 8 -69 8z" />
    <glyph glyph-name="s" unicode="s" horiz-adv-x="888" 
d="M430 141q98 0 136 42q38 41 38 113q0 120 -84 149q-33 11 -108 26q-174 27 -251 90t-77 230q0 317 367 317q211 0 281 -72t69 -239l-211 -29q0 90 -28 133t-109 43q-141 0 -142 -156q0 -76 32 -100t134 -47q180 -27 265 -93t85 -237q0 -172 -100 -253t-315 -81t-286 83
q-38 44 -51 98t-14 139l209 27q0 -94 31 -138t129 -45z" />
    <glyph glyph-name="t" unicode="t" horiz-adv-x="698" 
d="M55 907v178h127v287l211 6v-293h230v-178h-230v-639q0 -61 27 -85q27 -23 80 -23t100 18l14 -178q-68 -23 -155 -23q-276 0 -277 265v665h-127z" />
    <glyph glyph-name="u" unicode="u" horiz-adv-x="987" 
d="M96 248v837h211v-784q0 -135 140 -135t225 121v798h211v-821l6 -264h-187l-12 119q-121 -141 -323 -142q-135 0 -203 72t-68 199z" />
    <glyph glyph-name="v" unicode="v" horiz-adv-x="894" 
d="M850 1085l-250 -1095h-303l-252 1095h221l180 -913l183 913h221z" />
    <glyph glyph-name="w" unicode="w" horiz-adv-x="1284" 
d="M535 1085h215l163 -815l101 815h205l-164 -1095h-246l-168 837l-166 -837h-248l-161 1095h204l101 -815z" />
    <glyph glyph-name="x" unicode="x" horiz-adv-x="950" 
d="M651 0l-176 444l-176 -444h-244l248 559l-223 526h233l162 -430l164 430h231l-223 -526l248 -559h-244z" />
    <glyph glyph-name="y" unicode="y" horiz-adv-x="940" 
d="M471 252l203 833h223l-307 -1040l-152 -455h-237l153 414l-311 1081h223z" />
    <glyph glyph-name="z" unicode="z" horiz-adv-x="833" 
d="M55 0v150l451 753l-424 -4v186h670v-149l-451 -754l475 4v-186h-721z" />
    <glyph glyph-name="braceleft" unicode="{" horiz-adv-x="671" 
d="M637 -74v-192h-72q-223 0 -298 113q-62 93 -62 235v385q0 88 -33 122t-100 34h-43v190h43q70 0 102 33t31 121v385q0 249 174 318q76 30 186 30h72v-193h-66q-154 0 -153 -155v-400q0 -184 -123 -235q123 -51 123 -234v-401q0 -156 153 -156h66z" />
    <glyph glyph-name="bar" unicode="|" horiz-adv-x="610" 
d="M414 1700v-1966h-215v1966h215z" />
    <glyph glyph-name="braceright" unicode="}" horiz-adv-x="671" 
d="M96 1507h-65v193h71q224 0 298 -114q63 -94 63 -234v-385q0 -88 33 -122t100 -34h43v-190h-43q-68 0 -100 -33t-33 -121v-385q0 -249 -174 -319q-76 -30 -187 -29h-71v192h65q154 0 154 156v399q0 182 125 236q-61 27 -93 91t-32 142v402q0 155 -154 155z" />
    <glyph glyph-name="asciitilde" unicode="~" horiz-adv-x="1032" 
d="M730 539q-99 0 -217 56t-172 56q-110 0 -169 -71l-96 120q18 37 89 86q153 106 387 -7q118 -56 194 -56t147 70l96 -121q-18 -35 -89 -84t-170 -49z" />
    <glyph glyph-name="nbspace" unicode="&#xa0;" horiz-adv-x="350" 
 />
    <glyph glyph-name="exclamdown" unicode="&#xa1;" horiz-adv-x="526" 
d="M387 -410h-248l45 1049h158zM379 1085v-229h-232v229h232z" />
    <glyph glyph-name="cent" unicode="&#xa2;" horiz-adv-x="905" 
d="M287 782q0 -213 45 -299t145 -86t132 42t32 128l205 -26q0 -162 -77 -245t-286 -83l-63 -213h-191l76 242q-121 45 -175 175t-54 365q0 306 95 438t312 132h6l66 213h188l-75 -240q100 -33 139 -109t39 -192l-205 -27q0 86 -32 128t-132 42t-145 -86t-45 -299z" />
    <glyph glyph-name="sterling" unicode="&#xa3;" horiz-adv-x="1093" 
d="M627 1587q125 1 203 -25t116 -83q39 -57 52 -125t14 -176l-211 -29q0 145 -31 201q-32 56 -144 57q-112 0 -143 -56t-30 -202v-244h354v-178h-354v-532h559v-195h-928v195h158v532h-158v178h158v273q0 108 13 176q31 162 169 208q78 25 203 25z" />
    <glyph glyph-name="currency" unicode="&#xa4;" horiz-adv-x="1595" 
d="M796 1386q214 0 369 -104l207 207l141 -139l-204 -205q106 -145 106 -363t-106 -362l204 -205l-141 -139l-207 207q-155 -105 -369 -105t-366 105l-209 -207l-139 139l205 205q-106 143 -107 362q0 219 107 363l-205 205l139 139l209 -207q152 104 366 104zM798 377
q185 0 292 104q106 104 106 301t-106 301q-106 105 -292 105t-292 -104t-106 -302q0 -197 106 -301q107 -104 292 -104z" />
    <glyph glyph-name="yen" unicode="&#xa5;" horiz-adv-x="1071" 
d="M950 745v-143h-297l-14 -39v-96h311v-143h-309l2 -324h-215l2 324h-309v143h309l2 96l-14 39h-297v143h241l-309 820h223l261 -772l258 772h223l-311 -820h243z" />
    <glyph glyph-name="brokenbar" unicode="&#xa6;" horiz-adv-x="632" 
d="M426 1700v-907h-219v907h219zM426 641v-907h-219v907h219z" />
    <glyph glyph-name="section" unicode="&#xa7;" horiz-adv-x="1009" 
d="M688 605q0 124 -44 168t-138 44t-139 -55t-45 -179t44 -168t138 -44t139 55t45 179zM375 1230q0 -108 40 -158q40 -52 135 -66t148 -32q52 -18 106 -56q104 -76 103 -287q0 -164 -51 -245t-147 -116q73 -24 111 -108t38 -182q0 -212 -94 -312t-315 -100t-286 113
q-36 59 -48 125t-13 171l209 29q0 -138 29 -198t121 -60t133 51t41 159t-40 158q-40 52 -135 66q-94 14 -148 32t-107 56q-103 76 -103 287q0 164 52 245t147 116q-74 24 -112 108t-37 182q0 212 94 312t313 100t288 -113q36 -59 48 -125t12 -172l-209 -28q0 139 -28 198
q-29 60 -121 60t-133 -51t-41 -159z" />
    <glyph glyph-name="dieresis" unicode="&#xa8;" horiz-adv-x="1269" 
d="M946 1550v-227h-229v227h229zM553 1550v-227h-229v227h229z" />
    <glyph glyph-name="copyright" unicode="&#xa9;" horiz-adv-x="1884" 
d="M305 799q1 -265 187 -451t450 -186t451 186q186 186 186 450t-186 451q-187 187 -451 187t-450 -186t-187 -451zM444 799q0 250 131 387t367 137q397 0 463 -346l-205 -27q-20 94 -80 142t-191 44q-130 -3 -207 -88t-77 -249t77 -249t207 -88t190 44t81 141l205 -26
q-66 -346 -463 -347q-236 0 -367 138t-131 387zM119 799q-1 339 241 581t582 242t582 -242t242 -582t-242 -581q-242 -242 -582 -242t-582 242q-241 242 -241 582z" />
    <glyph glyph-name="ordfeminine" unicode="&#xaa;" horiz-adv-x="768" 
d="M244 1032q0 -115 102 -114q98 0 158 96v188l-103 -18q-81 -12 -119 -46t-38 -106zM504 1348q0 69 -14 93q-14 25 -38 33t-84 9q-60 0 -82 -31q-24 -31 -22 -106l-174 24q-2 130 56 192t234 62t236 -68q61 -68 64 -225l2 -358l2 -174h-154l-10 86q-84 -113 -237 -113
q-223 0 -224 244q0 127 79 187t247 87l119 19v39z" />
    <glyph glyph-name="guillemotleft" unicode="&#xab;" horiz-adv-x="1093" 
d="M971 449v-183l-426 312v135l426 311v-182l-236 -197zM532 449v-183l-426 312v135l426 311v-182l-235 -197z" />
    <glyph glyph-name="logicalnot" unicode="&#xac;" horiz-adv-x="1474" 
d="M1092 426v549h-908v196h1106v-745h-198z" />
    <glyph glyph-name="uni00AD" unicode="&#xad;" horiz-adv-x="808" 
d="M692 588h-575v196h575v-196z" />
    <glyph glyph-name="registered" unicode="&#xae;" horiz-adv-x="1884" 
d="M305 799q1 -265 187 -451t450 -186t451 186q186 186 186 450t-186 451q-187 187 -451 187t-450 -186t-187 -451zM748 856h253q103 0 131 62q13 29 13 92q0 116 -144 114h-253v-268zM748 684v-385h-181v999h426q338 0 338 -307q0 -231 -198 -289l192 -403h-219l-166 385
h-192zM119 799q-1 339 241 581t582 242t582 -242t242 -582t-242 -581q-242 -242 -582 -242t-582 242q-241 242 -241 582z" />
    <glyph glyph-name="macron" unicode="&#xaf;" horiz-adv-x="1269" 
d="M410 1348v194h450v-194h-450z" />
    <glyph glyph-name="degree" unicode="&#xb0;" horiz-adv-x="1009" 
d="M504 842q-176 0 -285 95t-109 279t109 280q109 95 285 95t284 -95t109 -279q-1 -183 -109 -279t-284 -96zM504 1001q223 -1 223 215t-223 216t-223 -216t223 -215z" />
    <glyph glyph-name="plusminus" unicode="&#xb1;" horiz-adv-x="1474" 
d="M1290 283h-1106v192h1106v-192zM641 614v273h-457v192h457v273h193v-273h456v-192h-456v-273h-193z" />
    <glyph glyph-name="twosuperior" unicode="&#xb2;" 
d="M289 1464q-43 0 -60 -31q-16 -32 -16 -112l-143 18q2 135 44 193t172 57q130 0 175 -51q45 -52 45 -164t-35 -160t-129 -111t-114 -101t-19 -115h305v-127h-455q0 115 4 168t25 104q20 51 54 81t104 76t94 78t22 90q0 59 -15 83t-58 24z" />
    <glyph glyph-name="threesuperior" unicode="&#xb3;" 
d="M284 872q50 0 70 30t20 96t-22 92q-23 25 -65 24h-70v129h70q33 0 49 22q16 21 16 87t-14 90t-59 22q-45 0 -61 -29q-15 -30 -15 -108l-140 19q1 129 47 186t167 57t169 -49t50 -185q0 -136 -82 -171q104 -29 104 -203q0 -115 -54 -174t-185 -59t-177 61q-45 61 -45 188
l140 21q1 -80 19 -113t68 -33z" />
    <glyph glyph-name="acute" unicode="&#xb4;" horiz-adv-x="1269" 
d="M625 1638h233l-125 -426h-207z" />
    <glyph glyph-name="mu" unicode="&#xb5;" horiz-adv-x="987" 
d="M426 -23q-64 0 -121 9l2 -68v-328h-211v1495h211v-784q0 -135 140 -135t225 121v798h211v-821l6 -264h-187l-12 119q-43 -63 -121 -103q-79 -40 -143 -39z" />
    <glyph glyph-name="paragraph" unicode="&#xb6;" horiz-adv-x="997" 
d="M481 1405q-104 -1 -150 -67t-46 -235t46 -236t150 -66h37v604h-37zM465 608q-191 0 -295 108t-104 387t106 387t297 107h412v-1597h-215v1405h-74v-1405h-74v608h-53z" />
    <glyph glyph-name="periodcentered" unicode="&#xb7;" horiz-adv-x="548" 
d="M397 809v-244h-245v244h245z" />
    <glyph glyph-name="cedilla" unicode="&#xb8;" horiz-adv-x="1269" 
d="M598 -436q-120 0 -195 41l35 106q53 -29 115 -35q133 -8 133 76q0 50 -51 70t-141 33l57 170h121l-29 -103q109 -20 166 -65t52 -126t-74 -124t-189 -43z" />
    <glyph glyph-name="onesuperior" unicode="&#xb9;" 
d="M526 760h-450v129h153v491q-55 -70 -166 -100v145q127 37 193 164h115v-700h155v-129z" />
    <glyph glyph-name="ordmasculine" unicode="&#xba;" horiz-adv-x="819" 
d="M569 1198q0 158 -39 218q-38 60 -120 60t-121 -60t-39 -218t39 -218t121 -60t120 60t39 218zM745 1198q0 -229 -77 -328q-78 -98 -258 -98t-258 98t-78 328t78 328t258 98t258 -98q77 -99 77 -328z" />
    <glyph glyph-name="guillemotright" unicode="&#xbb;" horiz-adv-x="1093" 
d="M123 266v183l235 196l-235 197v182l426 -311v-135zM561 266v183l236 196l-236 197v182l426 -311v-135z" />
    <glyph glyph-name="onequarter" unicode="&#xbc;" horiz-adv-x="1527" 
d="M1272 309l6 342l-152 -346zM1481 180h-72v-180h-137v180h-273v115l240 534h170v-520h72v-129zM285 0l798 1565h160l-799 -1565h-159zM526 760h-450v129h153v491q-55 -70 -166 -100v145q127 37 193 164h115v-700h155v-129z" />
    <glyph glyph-name="onehalf" unicode="&#xbd;" horiz-adv-x="1527" 
d="M1241 705q-43 0 -59 -32t-17 -112l-143 19q2 135 44 192t172 57t175 -51q45 -52 45 -164t-35 -159t-129 -111t-113 -102q-19 -37 -20 -115h305v-127h-454q0 115 4 168q9 125 79 185q33 30 103 76t94 78t23 90q1 58 -15 83t-59 25zM285 0l798 1565h160l-799 -1565h-159z
M526 760h-450v129h153v491q-55 -70 -166 -100v145q127 37 193 164h115v-700h155v-129z" />
    <glyph glyph-name="threequarters" unicode="&#xbe;" horiz-adv-x="1527" 
d="M1272 309l6 342l-152 -346zM1481 180h-72v-180h-137v180h-273v115l240 534h170v-520h72v-129zM285 0l798 1565h160l-799 -1565h-159zM284 872q50 0 70 30t20 96t-22 92q-23 25 -65 24h-70v129h70q33 0 49 22q16 21 16 87t-14 90t-59 22q-45 0 -61 -29q-15 -30 -15 -108
l-140 19q1 129 47 186t167 57t169 -49t50 -185q0 -136 -82 -171q104 -29 104 -203q0 -115 -54 -174t-185 -59t-177 61q-45 61 -45 188l140 21q1 -80 19 -113t68 -33z" />
    <glyph glyph-name="questiondown" unicode="&#xbf;" horiz-adv-x="960" 
d="M385 854v231h233v-231h-233zM631 433q0 -89 -40 -143t-134 -104t-131 -96q-37 -47 -37 -131q0 -199 190 -199q113 0 158 64t45 217l209 -27q0 -236 -91 -341q-92 -105 -314 -105t-320 91t-98 288q0 109 41 185t78 105q38 28 87 55q50 28 54 30l8 4q68 36 92 68
q48 65 0 245h152q51 -117 51 -206z" />
    <glyph glyph-name="Agrave" unicode="&#xc0;" horiz-adv-x="1019" 
d="M279 2109h233l98 -426h-207zM510 1419l-162 -923h322zM346 1614h326l305 -1614h-219l-56 315h-385l-55 -315h-219z" />
    <glyph glyph-name="Aacute" unicode="&#xc1;" horiz-adv-x="1019" 
d="M508 2109h233l-125 -426h-206zM510 1419l-162 -923h322zM346 1614h326l305 -1614h-219l-56 315h-385l-55 -315h-219z" />
    <glyph glyph-name="Acircumflex" unicode="&#xc2;" horiz-adv-x="1019" 
d="M367 1683h-172l196 426h238l196 -426h-172l-143 273zM510 1419l-162 -923h322zM346 1614h326l305 -1614h-219l-56 315h-385l-55 -315h-219z" />
    <glyph glyph-name="Atilde" unicode="&#xc3;" horiz-adv-x="1019" 
d="M662 1724q-60 0 -114 38t-97 76t-74 39t-48 -19t-21 -40t-7 -55l-151 21q8 133 58 211t138 76t174 -77t124 -76t52 32t19 84l151 -21q-16 -289 -204 -289zM510 1419l-162 -923h322zM346 1614h326l305 -1614h-219l-56 315h-385l-55 -315h-219z" />
    <glyph glyph-name="Adieresis" unicode="&#xc4;" horiz-adv-x="1019" 
d="M821 2021v-227h-229v227h229zM428 2021v-227h-229v227h229zM510 1419l-162 -923h322zM346 1614h326l305 -1614h-219l-56 315h-385l-55 -315h-219z" />
    <glyph glyph-name="Aring" unicode="&#xc5;" horiz-adv-x="1019" 
d="M625 1896q0 119 -115 119t-115 -119t115 -118q115 -1 115 118zM270 1896q0 106 65 174t175 66q110 0 176 -66q64 -66 64 -174q0 -106 -65 -173t-175 -67t-176 68q-64 66 -64 172zM510 1419l-162 -923h322zM346 1614h326l305 -1614h-219l-56 315h-385l-55 -315h-219z" />
    <glyph glyph-name="AE" unicode="&#xc6;" horiz-adv-x="1480" 
d="M655 1397l-258 -901h326zM1378 1597v-192h-526l43 -492h408v-190h-392l45 -530h453v-193h-649l-25 315h-389l-90 -315h-221l487 1597h856z" />
    <glyph glyph-name="Ccedilla" unicode="&#xc7;" horiz-adv-x="1060" 
d="M309 799q0 -347 49 -489q48 -142 186 -142t182 66t46 239l215 -29q-2 -238 -85 -348t-302 -116l-14 -58q109 -20 166 -65t52 -126t-74 -124q-68 -43 -188 -43t-196 41l35 106q53 -29 115 -35q133 -8 133 76q0 50 -51 70t-142 33l43 127q-211 26 -300 210t-89 625t108 622
t358 181t339 -110q90 -110 92 -357l-215 -29q-2 174 -46 240t-181 66t-187 -142t-49 -489z" />
    <glyph glyph-name="Egrave" unicode="&#xc8;" horiz-adv-x="925" 
d="M260 2109h234l98 -426h-207zM115 1597h706v-192h-491v-492h418v-190h-418v-530h524v-193h-739v1597z" />
    <glyph glyph-name="Eacute" unicode="&#xc9;" horiz-adv-x="925" 
d="M473 2109h234l-125 -426h-207zM115 1597h706v-192h-491v-492h418v-190h-418v-530h524v-193h-739v1597z" />
    <glyph glyph-name="Ecircumflex" unicode="&#xca;" horiz-adv-x="925" 
d="M330 1683h-172l196 426h238l196 -426h-172l-143 273zM115 1597h706v-192h-491v-492h418v-190h-418v-530h524v-193h-739v1597z" />
    <glyph glyph-name="Edieresis" unicode="&#xcb;" horiz-adv-x="925" 
d="M795 2021v-227h-230v227h230zM401 2021v-227h-229v227h229zM115 1597h706v-192h-491v-492h418v-190h-418v-530h524v-193h-739v1597z" />
    <glyph glyph-name="Igrave" unicode="&#xcc;" horiz-adv-x="466" 
d="M4 2109h234l98 -426h-207zM342 1597v-1597h-217v1597h217z" />
    <glyph glyph-name="Iacute" unicode="&#xcd;" horiz-adv-x="466" 
d="M229 2109h234l-125 -426h-207zM342 1597v-1597h-217v1597h217z" />
    <glyph glyph-name="Icircumflex" unicode="&#xce;" horiz-adv-x="466" 
d="M90 1683h-172l197 426h237l197 -426h-172l-144 273zM342 1597v-1597h-217v1597h217z" />
    <glyph glyph-name="Idieresis" unicode="&#xcf;" horiz-adv-x="466" 
d="M524 2021v-227h-229v227h229zM172 2021v-227h-229v227h229zM342 1597v-1597h-217v1597h217z" />
    <glyph glyph-name="Eth" unicode="&#xd0;" horiz-adv-x="1204" 
d="M420 193h155q156 0 234 82q63 68 80 287q6 91 6 303q0 364 -81 452t-239 88h-155v-492h248v-190h-248v-530zM561 0h-358v723h-142v190h142v684h358q164 -1 266 -37q209 -75 259 -374q26 -150 26 -388t-26 -386q-26 -150 -92 -244t-167 -131q-102 -37 -266 -37z" />
    <glyph glyph-name="Ntilde" unicode="&#xd1;" horiz-adv-x="1103" 
d="M702 1724q-61 0 -114 38t-96 76t-74 39t-48 -19q-18 -20 -22 -40t-6 -55l-152 21q8 133 58 211t139 76q88 -2 174 -77t124 -76q39 -1 53 32t18 84l151 -21q-16 -289 -205 -289zM786 1597h203v-1597h-246l-288 786l-142 408l4 -440l2 -754h-204v1597h247l287 -786
l144 -408l-7 441v753z" />
    <glyph glyph-name="Ograve" unicode="&#xd2;" horiz-adv-x="1089" 
d="M322 2109h233l98 -426h-207zM780 799q0 362 -47 496q-47 135 -189 135t-188 -134t-47 -498q0 -364 46 -497q47 -133 189 -133t189 134t47 497zM90 799q0 455 94 638t360 183t361 -183q94 -183 94 -638t-94 -638t-360 -183q-267 0 -361 182q-94 184 -94 639z" />
    <glyph glyph-name="Oacute" unicode="&#xd3;" horiz-adv-x="1089" 
d="M535 2109h233l-125 -426h-207zM780 799q0 362 -47 496q-47 135 -189 135t-188 -134t-47 -498q0 -364 46 -497q47 -133 189 -133t189 134t47 497zM90 799q0 455 94 638t360 183t361 -183q94 -183 94 -638t-94 -638t-360 -183q-267 0 -361 182q-94 184 -94 639z" />
    <glyph glyph-name="Ocircumflex" unicode="&#xd4;" horiz-adv-x="1089" 
d="M401 1683h-172l197 426h238l196 -426h-172l-143 273zM780 799q0 362 -47 496q-47 135 -189 135t-188 -134t-47 -498q0 -364 46 -497q47 -133 189 -133t189 134t47 497zM90 799q0 455 94 638t360 183t361 -183q94 -183 94 -638t-94 -638t-360 -183q-267 0 -361 182
q-94 184 -94 639z" />
    <glyph glyph-name="Otilde" unicode="&#xd5;" horiz-adv-x="1089" 
d="M696 1724q-61 0 -114 38q-52 38 -96 76t-74 39t-48 -19t-22 -40t-6 -55l-152 21q8 133 58 211t139 76q88 -2 174 -77t124 -76q39 -1 53 32t18 84l151 -21q-16 -289 -205 -289zM780 799q0 362 -47 496q-47 135 -189 135t-188 -134t-47 -498q0 -364 46 -497
q47 -133 189 -133t189 134t47 497zM90 799q0 455 94 638t360 183t361 -183q94 -183 94 -638t-94 -638t-360 -183q-267 0 -361 182q-94 184 -94 639z" />
    <glyph glyph-name="Odieresis" unicode="&#xd6;" horiz-adv-x="1089" 
d="M856 2021v-227h-229v227h229zM463 2021v-227h-230v227h230zM780 799q0 362 -47 496q-47 135 -189 135t-188 -134t-47 -498q0 -364 46 -497q47 -133 189 -133t189 134t47 497zM90 799q0 455 94 638t360 183t361 -183q94 -183 94 -638t-94 -638t-360 -183q-267 0 -361 182
q-94 184 -94 639z" />
    <glyph glyph-name="multiply" unicode="&#xd7;" horiz-adv-x="1474" 
d="M199 397l403 402l-403 401l137 137l401 -403l402 403l137 -137l-404 -401l404 -402l-137 -137l-402 404l-401 -404z" />
    <glyph glyph-name="Oslash" unicode="&#xd8;" horiz-adv-x="1089" 
d="M541 1430q-139 0 -185 -133t-47 -443q0 -310 15 -418l405 869q-49 125 -188 125zM780 736q0 302 -16 423l-406 -868q48 -123 188 -123t187 133t47 435zM90 789q0 465 94 648t361 183q190 0 289 -92l32 69h103l-70 -149q100 -174 100 -639t-94 -648t-360 -184
q-188 0 -291 91l-31 -68h-102l69 150q-100 174 -100 639z" />
    <glyph glyph-name="Ugrave" unicode="&#xd9;" horiz-adv-x="1069" 
d="M311 2109h234l98 -426h-207zM535 166q131 0 171 55t39 195v1181h218v-1189q-1 -230 -89 -332t-340 -102t-339 102q-88 102 -89 332v1189h218v-1181q0 -138 40 -194t171 -56z" />
    <glyph glyph-name="Uacute" unicode="&#xda;" horiz-adv-x="1069" 
d="M524 2109h234l-125 -426h-207zM535 166q131 0 171 55t39 195v1181h218v-1189q-1 -230 -89 -332t-340 -102t-339 102q-88 102 -89 332v1189h218v-1181q0 -138 40 -194t171 -56z" />
    <glyph glyph-name="Ucircumflex" unicode="&#xdb;" horiz-adv-x="1069" 
d="M391 1683h-172l197 426h237l197 -426h-172l-143 273zM535 166q131 0 171 55t39 195v1181h218v-1189q-1 -230 -89 -332t-340 -102t-339 102q-88 102 -89 332v1189h218v-1181q0 -138 40 -194t171 -56z" />
    <glyph glyph-name="Udieresis" unicode="&#xdc;" horiz-adv-x="1069" 
d="M846 2021v-227h-230v227h230zM453 2021v-227h-230v227h230zM535 166q131 0 171 55t39 195v1181h218v-1189q-1 -230 -89 -332t-340 -102t-339 102q-88 102 -89 332v1189h218v-1181q0 -138 40 -194t171 -56z" />
    <glyph glyph-name="Yacute" unicode="&#xdd;" horiz-adv-x="1028" 
d="M504 2109h233l-125 -426h-206zM514 805l264 792h226l-386 -1024l5 -573h-215l2 573l-383 1024h223z" />
    <glyph glyph-name="Thorn" unicode="&#xde;" horiz-adv-x="983" 
d="M334 496h166q104 0 151 66t47 236t-47 236t-151 66h-166v-604zM334 1597v-305h178q193 0 299 -108q107 -108 107 -386q0 -280 -106 -388t-296 -107h-182v-303h-217v1597h217z" />
    <glyph glyph-name="germandbls" unicode="&#xdf;" horiz-adv-x="1202" 
d="M657 821q0 -75 36 -107t143 -59q168 -41 240 -113t71 -231q0 -334 -389 -334q-193 0 -269 76t-69 244l188 27q-2 -96 27 -140t121 -43q92 0 128 39t36 125t-44 124t-168 67q-124 30 -195 98t-71 211q0 88 33 147t69 84t105 60q86 39 124 79t38 119q0 182 -247 182
t-247 -216v-1260h-211v1262q0 207 109 303t350 96q438 0 439 -346q0 -121 -50 -188t-137 -113q-86 -46 -123 -82q-37 -37 -37 -111z" />
    <glyph glyph-name="agrave" unicode="&#xe0;" horiz-adv-x="946" 
d="M248 1638h233l99 -426h-207zM281 319q0 -168 143 -167q125 0 205 110v279l-140 -21q-109 -14 -159 -58t-49 -143zM629 801q0 73 -35 109t-118 36t-119 -42t-35 -140l-213 27q-1 161 79 239t287 78t287 -76t80 -252v-516l6 -264h-186l-13 119q-104 -141 -303 -142
q-279 0 -278 326q0 166 95 245t308 111l158 23v119z" />
    <glyph glyph-name="aacute" unicode="&#xe1;" horiz-adv-x="946" 
d="M461 1638h233l-125 -426h-207zM281 319q0 -168 143 -167q125 0 205 110v279l-140 -21q-109 -14 -159 -58t-49 -143zM629 801q0 73 -35 109t-118 36t-119 -42t-35 -140l-213 27q-1 161 79 239t287 78t287 -76t80 -252v-516l6 -264h-186l-13 119q-104 -141 -303 -142
q-279 0 -278 326q0 166 95 245t308 111l158 23v119z" />
    <glyph glyph-name="acircumflex" unicode="&#xe2;" horiz-adv-x="946" 
d="M328 1212h-172l196 426h238l196 -426h-172l-143 273zM281 319q0 -168 143 -167q125 0 205 110v279l-140 -21q-109 -14 -159 -58t-49 -143zM629 801q0 73 -35 109t-118 36t-119 -42t-35 -140l-213 27q-1 161 79 239t287 78t287 -76t80 -252v-516l6 -264h-186l-13 119
q-104 -141 -303 -142q-279 0 -278 326q0 166 95 245t308 111l158 23v119z" />
    <glyph glyph-name="atilde" unicode="&#xe3;" horiz-adv-x="946" 
d="M623 1253q-61 0 -115 38t-96 76q-80 71 -122 19q-18 -20 -22 -39t-6 -55l-151 21q8 133 58 211t138 76t174 -78q86 -74 124 -75q39 -1 53 32t18 84l151 -21q-16 -289 -204 -289zM281 319q0 -168 143 -167q125 0 205 110v279l-140 -21q-109 -14 -159 -58t-49 -143z
M629 801q0 73 -35 109t-118 36t-119 -42t-35 -140l-213 27q-1 161 79 239t287 78t287 -76t80 -252v-516l6 -264h-186l-13 119q-104 -141 -303 -142q-279 0 -278 326q0 166 95 245t308 111l158 23v119z" />
    <glyph glyph-name="adieresis" unicode="&#xe4;" horiz-adv-x="946" 
d="M782 1550v-227h-229v227h229zM389 1550v-227h-229v227h229zM281 319q0 -168 143 -167q125 0 205 110v279l-140 -21q-109 -14 -159 -58t-49 -143zM629 801q0 73 -35 109t-118 36t-119 -42t-35 -140l-213 27q-1 161 79 239t287 78t287 -76t80 -252v-516l6 -264h-186
l-13 119q-104 -141 -303 -142q-279 0 -278 326q0 166 95 245t308 111l158 23v119z" />
    <glyph glyph-name="aring" unicode="&#xe5;" horiz-adv-x="946" 
d="M586 1425q0 119 -115 119t-115 -119t115 -118q115 -1 115 118zM231 1425q0 106 65 173q66 67 176 67t174 -67t65 -173q0 -106 -65 -173q-66 -66 -176 -66t-174 66t-65 173zM281 319q0 -168 143 -167q125 0 205 110v279l-140 -21q-109 -14 -159 -58t-49 -143zM629 801
q0 73 -35 109t-118 36t-119 -42t-35 -140l-213 27q-1 161 79 239t287 78t287 -76t80 -252v-516l6 -264h-186l-13 119q-104 -141 -303 -142q-279 0 -278 326q0 166 95 245t308 111l158 23v119z" />
    <glyph glyph-name="ae" unicode="&#xe6;" horiz-adv-x="1495" 
d="M1029 938q-103 0 -142 -74t-39 -250h352q0 174 -34 249t-137 75zM281 309q0 -160 143 -159q141 0 223 135q-16 78 -20 192h-135q-109 0 -160 -37t-51 -131zM377 -23q-311 0 -309 329q0 157 98 233t309 75h154v187q0 73 -35 109t-118 36t-119 -42t-35 -140l-213 27
q-1 161 79 239t289 78t283 -115q88 115 270 115q229 0 312 -135t83 -430v-66h-577q0 -174 38 -252t138 -78t137 43t37 129l215 -26q0 -154 -80 -235t-303 -81t-317 138q-137 -137 -336 -138z" />
    <glyph glyph-name="ccedilla" unicode="&#xe7;" horiz-adv-x="905" 
d="M287 543q0 -211 45 -296t145 -85t132 42t32 128l205 -27q0 -153 -70 -235t-258 -90l-14 -58q109 -20 166 -65t52 -126t-74 -124q-68 -43 -188 -43t-196 41l35 106q53 -29 115 -35q133 -8 133 76q0 50 -51 70t-142 33l43 129q-169 20 -245 152t-76 422t95 420t308 130
t290 -83t77 -245l-205 -26q0 86 -32 128t-132 42t-145 -85t-45 -296z" />
    <glyph glyph-name="egrave" unicode="&#xe8;" horiz-adv-x="944" 
d="M258 1638h234l98 -426h-207zM478 936q-101 0 -139 -70t-40 -237h352q-2 163 -37 235t-136 72zM299 463q0 -164 38 -239q38 -74 137 -74t136 42t37 127l215 -26q0 -154 -79 -235t-307 -81q-228 1 -314 137t-86 429t87 429t317 136t312 -135t82 -430v-80h-575z" />
    <glyph glyph-name="eacute" unicode="&#xe9;" horiz-adv-x="944" 
d="M471 1638h234l-125 -426h-207zM478 936q-101 0 -139 -70t-40 -237h352q-2 163 -37 235t-136 72zM299 463q0 -164 38 -239q38 -74 137 -74t136 42t37 127l215 -26q0 -154 -79 -235t-307 -81q-228 1 -314 137t-86 429t87 429t317 136t312 -135t82 -430v-80h-575z" />
    <glyph glyph-name="ecircumflex" unicode="&#xea;" horiz-adv-x="944" 
d="M338 1212h-172l196 426h238l197 -426h-172l-144 273zM478 936q-101 0 -139 -70t-40 -237h352q-2 163 -37 235t-136 72zM299 463q0 -164 38 -239q38 -74 137 -74t136 42t37 127l215 -26q0 -154 -79 -235t-307 -81q-228 1 -314 137t-86 429t87 429t317 136t312 -135
t82 -430v-80h-575z" />
    <glyph glyph-name="edieresis" unicode="&#xeb;" horiz-adv-x="944" 
d="M793 1550v-227h-230v227h230zM399 1550v-227h-229v227h229zM478 936q-101 0 -139 -70t-40 -237h352q-2 163 -37 235t-136 72zM299 463q0 -164 38 -239q38 -74 137 -74t136 42t37 127l215 -26q0 -154 -79 -235t-307 -81q-228 1 -314 137t-86 429t87 429t317 136t312 -135
t82 -430v-80h-575z" />
    <glyph glyph-name="igrave" unicode="&#xec;" horiz-adv-x="425" 
d="M-16 1638h233l98 -426h-206zM109 0v1085h208v-1085h-208z" />
    <glyph glyph-name="iacute" unicode="&#xed;" horiz-adv-x="425" 
d="M209 1638h233l-125 -426h-206zM109 0v1085h208v-1085h-208z" />
    <glyph glyph-name="icircumflex" unicode="&#xee;" horiz-adv-x="425" 
d="M70 1212h-172l196 426h238l196 -426h-172l-143 273zM109 0v1085h208v-1085h-208z" />
    <glyph glyph-name="idieresis" unicode="&#xef;" horiz-adv-x="425" 
d="M504 1550v-227h-230v227h230zM152 1550v-227h-230v227h230zM109 0v1085h208v-1085h-208z" />
    <glyph glyph-name="eth" unicode="&#xf0;" horiz-adv-x="968" 
d="M485 162q104 0 151 84q46 84 46 297t-46 297t-150 84t-151 -84q-46 -84 -46 -297t46 -297t150 -84zM893 551v-8q0 -313 -95 -439q-96 -126 -314 -127q-218 0 -313 126q-95 125 -95 435t94 440t272 130q143 0 220 -104q-53 193 -168 339l-347 -126v145l246 90
q-106 100 -280 186h282q86 -51 166 -125l277 103v-148l-174 -63q229 -297 229 -854z" />
    <glyph glyph-name="ntilde" unicode="&#xf1;" horiz-adv-x="985" 
d="M645 1253q-61 0 -115 38t-96 76q-80 71 -122 19q-17 -20 -21 -39t-6 -55l-152 21q8 133 58 211q51 78 139 76t174 -78q86 -74 124 -75t52 32t18 84l152 -21q-16 -289 -205 -289zM621 1108q135 0 201 -72t67 -198v-838h-211v784q0 136 -140 136t-225 -121v-799h-211v821
l-4 264h187l12 -118q121 141 324 141z" />
    <glyph glyph-name="ograve" unicode="&#xf2;" horiz-adv-x="968" 
d="M262 1638h234l98 -426h-207zM484 -23q-218 0 -313 126q-95 125 -95 439t95 440t313 126t314 -126t95 -439q0 -313 -95 -440q-96 -126 -314 -126zM485 162q104 0 151 84q46 84 46 297t-46 297t-150 84t-151 -84q-46 -84 -46 -297t46 -297t150 -84z" />
    <glyph glyph-name="oacute" unicode="&#xf3;" horiz-adv-x="968" 
d="M475 1638h234l-125 -426h-207zM484 -23q-218 0 -313 126q-95 125 -95 439t95 440t313 126t314 -126t95 -439q0 -313 -95 -440q-96 -126 -314 -126zM485 162q104 0 151 84q46 84 46 297t-46 297t-150 84t-151 -84q-46 -84 -46 -297t46 -297t150 -84z" />
    <glyph glyph-name="ocircumflex" unicode="&#xf4;" horiz-adv-x="968" 
d="M342 1212h-172l197 426h237l197 -426h-172l-144 273zM484 -23q-218 0 -313 126q-95 125 -95 439t95 440t313 126t314 -126t95 -439q0 -313 -95 -440q-96 -126 -314 -126zM485 162q104 0 151 84q46 84 46 297t-46 297t-150 84t-151 -84q-46 -84 -46 -297t46 -297t150 -84z
" />
    <glyph glyph-name="otilde" unicode="&#xf5;" horiz-adv-x="968" 
d="M637 1253q-61 0 -115 38t-96 76q-80 71 -122 19q-17 -20 -21 -39t-7 -55l-151 21q8 133 58 211q51 78 139 76t174 -78q86 -74 124 -75t52 32t18 84l152 -21q-16 -289 -205 -289zM484 -23q-218 0 -313 126q-95 125 -95 439t95 440t313 126t314 -126t95 -439
q0 -313 -95 -440q-96 -126 -314 -126zM485 162q104 0 151 84q46 84 46 297t-46 297t-150 84t-151 -84q-46 -84 -46 -297t46 -297t150 -84z" />
    <glyph glyph-name="odieresis" unicode="&#xf6;" horiz-adv-x="968" 
d="M797 1550v-227h-230v227h230zM403 1550v-227h-229v227h229zM484 -23q-218 0 -313 126q-95 125 -95 439t95 440t313 126t314 -126t95 -439q0 -313 -95 -440q-96 -126 -314 -126zM485 162q104 0 151 84q46 84 46 297t-46 297t-150 84t-151 -84q-46 -84 -46 -297t46 -297
t150 -84z" />
    <glyph glyph-name="divide" unicode="&#xf7;" horiz-adv-x="1474" 
d="M854 1352v-236h-233v236h233zM854 481v-235h-233v235h233zM1290 702h-1106v193h1106v-193z" />
    <glyph glyph-name="oslash" unicode="&#xf8;" horiz-adv-x="968" 
d="M289 581q0 -175 16 -247l322 520q-41 70 -143 70t-149 -84q-46 -84 -46 -259zM488 162q101 0 148 84q46 84 46 252t-16 254l-324 -523q45 -67 146 -67zM893 536q0 -306 -95 -432t-313 -127q-168 0 -258 68l-26 -45h-103l68 109q-90 129 -90 438t95 435t314 126
q166 0 256 -70l29 47h100l-67 -110q90 -133 90 -439z" />
    <glyph glyph-name="ugrave" unicode="&#xf9;" horiz-adv-x="987" 
d="M268 1638h234l98 -426h-207zM96 248v837h211v-784q0 -135 140 -135t225 121v798h211v-821l6 -264h-187l-12 119q-121 -141 -323 -142q-135 0 -203 72t-68 199z" />
    <glyph glyph-name="uacute" unicode="&#xfa;" horiz-adv-x="987" 
d="M481 1638h234l-125 -426h-207zM96 248v837h211v-784q0 -135 140 -135t225 121v798h211v-821l6 -264h-187l-12 119q-121 -141 -323 -142q-135 0 -203 72t-68 199z" />
    <glyph glyph-name="ucircumflex" unicode="&#xfb;" horiz-adv-x="987" 
d="M348 1212h-172l197 426h237l197 -426h-172l-143 273zM96 248v837h211v-784q0 -135 140 -135t225 121v798h211v-821l6 -264h-187l-12 119q-121 -141 -323 -142q-135 0 -203 72t-68 199z" />
    <glyph glyph-name="udieresis" unicode="&#xfc;" horiz-adv-x="987" 
d="M803 1550v-227h-230v227h230zM410 1550v-227h-230v227h230zM96 248v837h211v-784q0 -135 140 -135t225 121v798h211v-821l6 -264h-187l-12 119q-121 -141 -323 -142q-135 0 -203 72t-68 199z" />
    <glyph glyph-name="yacute" unicode="&#xfd;" horiz-adv-x="940" 
d="M459 1638h233l-125 -426h-207zM471 252l203 833h223l-307 -1040l-152 -455h-237l153 414l-311 1081h223z" />
    <glyph glyph-name="thorn" unicode="&#xfe;" horiz-adv-x="1001" 
d="M709 543q0 201 -39 289t-149 88t-206 -125v-504q96 -125 206 -125t149 88t39 289zM104 -410v2048h211v-653q100 123 272 123q171 0 255 -139t84 -426t-83 -426t-255 -139t-273 122v-510h-211z" />
    <glyph glyph-name="ydieresis" unicode="&#xff;" horiz-adv-x="940" 
d="M780 1550v-227h-229v227h229zM387 1550v-227h-229v227h229zM471 252l203 833h223l-307 -1040l-152 -455h-237l153 414l-311 1081h223z" />
    <glyph glyph-name="Amacron" unicode="&#x100;" horiz-adv-x="1019" 
d="M285 1819v194h450v-194h-450zM510 1419l-162 -923h322zM346 1614h326l305 -1614h-219l-56 315h-385l-55 -315h-219z" />
    <glyph glyph-name="amacron" unicode="&#x101;" horiz-adv-x="946" 
d="M246 1348v194h450v-194h-450zM281 319q0 -168 143 -167q125 0 205 110v279l-140 -21q-109 -14 -159 -58t-49 -143zM629 801q0 73 -35 109t-118 36t-119 -42t-35 -140l-213 27q-1 161 79 239t287 78t287 -76t80 -252v-516l6 -264h-186l-13 119q-104 -141 -303 -142
q-279 0 -278 326q0 166 95 245t308 111l158 23v119z" />
    <glyph glyph-name="Abreve" unicode="&#x102;" horiz-adv-x="1019" 
d="M510 1679q-180 1 -245 107t-62 323h162q-1 -129 29 -188t116 -59t117 59t28 188h162q1 -217 -63 -323t-244 -107zM510 1419l-162 -923h322zM346 1614h326l305 -1614h-219l-56 315h-385l-55 -315h-219z" />
    <glyph glyph-name="abreve" unicode="&#x103;" horiz-adv-x="946" 
d="M471 1208q-180 0 -245 106t-62 324h162q-2 -129 28 -188t117 -59q86 0 117 59t28 188h162q2 -218 -62 -324t-245 -106zM281 319q0 -168 143 -167q125 0 205 110v279l-140 -21q-109 -14 -159 -58t-49 -143zM629 801q0 73 -35 109t-118 36t-119 -42t-35 -140l-213 27
q-1 161 79 239t287 78t287 -76t80 -252v-516l6 -264h-186l-13 119q-104 -141 -303 -142q-279 0 -278 326q0 166 95 245t308 111l158 23v119z" />
    <glyph glyph-name="Aogonek" unicode="&#x104;" horiz-adv-x="1019" 
d="M510 1419l-162 -923h322zM850 -436q-203 0 -225 184q-27 164 129 272l-52 295h-385l-55 -315h-219l303 1614h326l305 -1614q-88 -16 -142 -70q-55 -54 -53 -112q3 -114 107 -101q59 4 100 39l45 -141q-72 -51 -184 -51z" />
    <glyph glyph-name="aogonek" unicode="&#x105;" horiz-adv-x="946" 
d="M281 319q0 -170 143 -169q125 0 205 112v281l-140 -21q-106 -14 -157 -60t-51 -143zM629 801q0 73 -35 109t-118 36t-119 -42t-35 -140l-213 27q-1 161 79 239t287 78t287 -76t80 -252v-516l6 -264q-90 -16 -144 -70t-52 -112q6 -114 108 -101q51 4 100 39l45 -141
q-72 -51 -173 -51q-215 0 -238 184q-29 178 163 295l-8 76q-104 -141 -303 -142q-279 0 -278 326q0 166 94 244t309 110l158 23v121z" />
    <glyph glyph-name="Cacute" unicode="&#x106;" horiz-adv-x="1060" 
d="M543 2109h233l-125 -426h-207zM309 799q0 -347 49 -489q48 -142 186 -142t182 66t46 239l215 -29q-2 -248 -92 -358t-340 -109q-249 -1 -357 181t-108 641t108 640t358 181t339 -110q90 -110 92 -357l-215 -29q-2 174 -46 240t-181 66t-187 -142t-49 -489z" />
    <glyph glyph-name="cacute" unicode="&#x107;" horiz-adv-x="905" 
d="M471 1638h234l-125 -426h-207zM287 543q0 -211 45 -296t145 -85t132 42t32 128l205 -27q0 -162 -77 -245t-290 -83q-213 1 -308 131t-95 435t95 435t308 130t290 -83t77 -245l-205 -26q0 86 -32 128t-132 42t-145 -85t-45 -296z" />
    <glyph glyph-name="Ccircumflex" unicode="&#x108;" horiz-adv-x="1060" 
d="M422 1683h-172l196 426h238l197 -426h-172l-144 273zM309 799q0 -347 49 -489q48 -142 186 -142t182 66t46 239l215 -29q-2 -248 -92 -358t-340 -109q-249 -1 -357 181t-108 641t108 640t358 181t339 -110q90 -110 92 -357l-215 -29q-2 174 -46 240t-181 66t-187 -142
t-49 -489z" />
    <glyph glyph-name="ccircumflex" unicode="&#x109;" horiz-adv-x="905" 
d="M338 1212h-172l196 426h238l197 -426h-172l-144 273zM287 543q0 -211 45 -296t145 -85t132 42t32 128l205 -27q0 -162 -77 -245t-290 -83q-213 1 -308 131t-95 435t95 435t308 130t290 -83t77 -245l-205 -26q0 86 -32 128t-132 42t-145 -85t-45 -296z" />
    <glyph glyph-name="Cdotaccent" unicode="&#x10a;" horiz-adv-x="1060" 
d="M680 2021v-227h-229v227h229zM309 799q0 -347 49 -489q48 -142 186 -142t182 66t46 239l215 -29q-2 -248 -92 -358t-340 -109q-249 -1 -357 181t-108 641t108 640t358 181t339 -110q90 -110 92 -357l-215 -29q-2 174 -46 240t-181 66t-187 -142t-49 -489z" />
    <glyph glyph-name="cdotaccent" unicode="&#x10b;" horiz-adv-x="905" 
d="M596 1550v-227h-229v227h229zM287 543q0 -211 45 -296t145 -85t132 42t32 128l205 -27q0 -162 -77 -245t-290 -83q-213 1 -308 131t-95 435t95 435t308 130t290 -83t77 -245l-205 -26q0 86 -32 128t-132 42t-145 -85t-45 -296z" />
    <glyph glyph-name="Ccaron" unicode="&#x10c;" horiz-adv-x="1060" 
d="M713 2109h174l-201 -426h-242l-200 426h174l147 -268zM309 799q0 -347 49 -489q48 -142 186 -142t182 66t46 239l215 -29q-2 -248 -92 -358t-340 -109q-249 -1 -357 181t-108 641t108 640t358 181t339 -110q90 -110 92 -357l-215 -29q-2 174 -46 240t-181 66t-187 -142
t-49 -489z" />
    <glyph glyph-name="ccaron" unicode="&#x10d;" horiz-adv-x="905" 
d="M629 1638h174l-201 -426h-242l-200 426h174l147 -268zM287 543q0 -211 45 -296t145 -85t132 42t32 128l205 -27q0 -162 -77 -245t-290 -83q-213 1 -308 131t-95 435t95 435t308 130t290 -83t77 -245l-205 -26q0 86 -32 128t-132 42t-145 -85t-45 -296z" />
    <glyph glyph-name="Dcaron" unicode="&#x10e;" horiz-adv-x="1116" 
d="M659 2109h175l-201 -426h-242l-201 426h175l147 -268zM332 193h155q156 0 234 82q63 68 80 287q6 91 6 303q0 364 -81 452t-239 88h-155v-1212zM473 0h-358v1597h358q164 -1 266 -37q209 -75 259 -374q26 -150 26 -388t-26 -386q-26 -150 -92 -244t-167 -131
q-102 -37 -266 -37z" />
    <glyph glyph-name="dcaron" unicode="&#x10f;" horiz-adv-x="1062" 
d="M999 1638h177l-62 -426h-115v426zM483 920q-111 0 -151 -88t-39 -290q0 -200 40 -288q41 -88 151 -88t202 125v504q-92 125 -203 125zM414 1108q172 0 272 -123v653h211v-1374l6 -264h-186l-12 119q-103 -141 -283 -141t-263 138q-83 140 -83 427t83 426t255 139z" />
    <glyph glyph-name="Dcroat" unicode="&#x110;" horiz-adv-x="1116" 
d="M287 1819v194h450v-194h-450zM332 193h155q156 0 234 82q63 68 80 287q6 91 6 303q0 364 -81 452t-239 88h-155v-1212zM473 0h-358v1597h358q164 -1 266 -37q209 -75 259 -374q26 -150 26 -388t-26 -386q-26 -150 -92 -244t-167 -131q-102 -37 -266 -37z" />
    <glyph glyph-name="dcroat" unicode="&#x111;" horiz-adv-x="1042" 
d="M483 920q-111 0 -151 -88t-39 -290q0 -200 40 -288q41 -88 151 -88t202 125v504q-92 125 -203 125zM494 1284v178h192v176h211v-176h127v-178h-127v-1020l6 -264h-186l-12 119q-103 -141 -283 -141t-263 138q-83 140 -83 427t83 426t255 139t272 -123v299h-192z" />
    <glyph glyph-name="Emacron" unicode="&#x112;" horiz-adv-x="925" 
d="M238 1819v194h450v-194h-450zM115 1597h706v-192h-491v-492h418v-190h-418v-530h524v-193h-739v1597z" />
    <glyph glyph-name="emacron" unicode="&#x113;" horiz-adv-x="944" 
d="M256 1348v194h451v-194h-451zM478 936q-101 0 -139 -70t-40 -237h352q-2 163 -37 235t-136 72zM299 463q0 -164 38 -239q38 -74 137 -74t136 42t37 127l215 -26q0 -154 -79 -235t-307 -81q-228 1 -314 137t-86 429t87 429t317 136t312 -135t82 -430v-80h-575z" />
    <glyph glyph-name="Ebreve" unicode="&#x114;" horiz-adv-x="925" 
d="M463 1679q-180 1 -245 107t-62 323h161q-2 -129 29 -188t117 -59t117 59t28 188h162q2 -217 -62 -323t-245 -107zM115 1597h706v-192h-491v-492h418v-190h-418v-530h524v-193h-739v1597z" />
    <glyph glyph-name="ebreve" unicode="&#x115;" horiz-adv-x="944" 
d="M481 1208q-181 0 -245 106t-62 324h162q-2 -129 29 -188t117 -59t116 59q31 59 29 188h161q2 -218 -62 -324t-245 -106zM478 936q-101 0 -139 -70t-40 -237h352q-2 163 -37 235t-136 72zM299 463q0 -164 38 -239q38 -74 137 -74t136 42t37 127l215 -26q0 -154 -79 -235
t-307 -81q-228 1 -314 137t-86 429t87 429t317 136t312 -135t82 -430v-80h-575z" />
    <glyph glyph-name="Edotaccent" unicode="&#x116;" horiz-adv-x="925" 
d="M598 2021v-227h-229v227h229zM115 1597h706v-192h-491v-492h418v-190h-418v-530h524v-193h-739v1597z" />
    <glyph glyph-name="edotaccent" unicode="&#x117;" horiz-adv-x="944" 
d="M596 1550v-227h-229v227h229zM478 936q-101 0 -139 -70t-40 -237h352q-2 163 -37 235t-136 72zM299 463q0 -164 38 -239q38 -74 137 -74t136 42t37 127l215 -26q0 -154 -79 -235t-307 -81q-228 1 -314 137t-86 429t87 429t317 136t312 -135t82 -430v-80h-575z" />
    <glyph glyph-name="Eogonek" unicode="&#x118;" horiz-adv-x="925" 
d="M115 1597h706v-192h-491v-492h418v-190h-418v-530h524v-193q-88 -16 -142 -70t-52 -112q3 -114 106 -101q59 4 100 39l45 -141q-72 -51 -184 -51q-203 0 -225 184q-23 143 102 252h-489v1597z" />
    <glyph glyph-name="eogonek" unicode="&#x119;" horiz-adv-x="944" 
d="M478 936q-101 0 -139 -70t-40 -237h352q-2 163 -37 235t-136 72zM299 463q0 -164 38 -239q38 -74 137 -74t136 42t37 127l215 -26q0 -119 -44 -194t-161 -103q-77 -23 -121 -74q-44 -52 -42 -108q4 -111 106 -97q59 4 100 39l45 -141q-72 -51 -184 -51q-203 0 -225 184
q-20 131 82 234q-197 18 -270 153q-72 135 -72 418t87 419t317 136t312 -135t82 -430v-80h-575z" />
    <glyph glyph-name="Ecaron" unicode="&#x11a;" horiz-adv-x="925" 
d="M631 2109h174l-201 -426h-242l-200 426h174l147 -268zM115 1597h706v-192h-491v-492h418v-190h-418v-530h524v-193h-739v1597z" />
    <glyph glyph-name="ecaron" unicode="&#x11b;" horiz-adv-x="944" 
d="M629 1638h174l-201 -426h-242l-200 426h174l147 -268zM478 936q-101 0 -139 -70t-40 -237h352q-2 163 -37 235t-136 72zM299 463q0 -164 38 -239q38 -74 137 -74t136 42t37 127l215 -26q0 -154 -79 -235t-307 -81q-228 1 -314 137t-86 429t87 429t317 136t312 -135
t82 -430v-80h-575z" />
    <glyph glyph-name="Gcircumflex" unicode="&#x11c;" horiz-adv-x="1101" 
d="M430 1683h-172l197 426h237l197 -426h-172l-144 273zM559 -23q-271 1 -370 183t-99 636t106 639t372 185q264 0 351 -108t89 -359l-215 -29q-3 174 -47 240t-171 66q-157 0 -211 -142t-54 -458q0 -317 18 -423q20 -106 49 -148q63 -91 195 -91t227 43v461h-193v180h402
v-766q-178 -109 -449 -109z" />
    <glyph glyph-name="gcircumflex" unicode="&#x11d;" horiz-adv-x="999" 
d="M346 1212h-172l197 426h237l197 -426h-172l-144 273zM482 920q-112 0 -150 -83t-39 -271q0 -188 39 -270q40 -83 150 -83t204 127v455q-92 125 -204 125zM416 27q-174 0 -257 134t-83 406q0 273 83 407t261 134t282 -141l13 118h188l-6 -264v-897q0 -180 -98 -268
t-311 -88t-302 79q-88 79 -88 251l207 28q0 -96 39 -141q38 -45 146 -45t152 48t44 140v222q-96 -123 -270 -123z" />
    <glyph glyph-name="Gbreve" unicode="&#x11e;" horiz-adv-x="1101" 
d="M573 1679q-181 1 -245 107t-62 323h162q-2 -129 29 -188t117 -59t116 59q31 59 29 188h162q2 -217 -63 -323t-245 -107zM559 -23q-271 1 -370 183t-99 636t106 639t372 185q264 0 351 -108t89 -359l-215 -29q-3 174 -47 240t-171 66q-157 0 -211 -142t-54 -458
q0 -317 18 -423q20 -106 49 -148q63 -91 195 -91t227 43v461h-193v180h402v-766q-178 -109 -449 -109z" />
    <glyph glyph-name="gbreve" unicode="&#x11f;" horiz-adv-x="999" 
d="M489 1208q-181 0 -245 106t-62 324h162q-2 -129 29 -188t117 -59t116 59q31 59 29 188h162q2 -218 -63 -324t-245 -106zM482 920q-112 0 -150 -83t-39 -271q0 -188 39 -270q40 -83 150 -83t204 127v455q-92 125 -204 125zM416 27q-174 0 -257 134t-83 406q0 273 83 407
t261 134t282 -141l13 118h188l-6 -264v-897q0 -180 -98 -268t-311 -88t-302 79q-88 79 -88 251l207 28q0 -96 39 -141q38 -45 146 -45t152 48t44 140v222q-96 -123 -270 -123z" />
    <glyph glyph-name="Gdotaccent" unicode="&#x120;" horiz-adv-x="1101" 
d="M688 2021v-227h-229v227h229zM559 -23q-271 1 -370 183t-99 636t106 639t372 185q264 0 351 -108t89 -359l-215 -29q-3 174 -47 240t-171 66q-157 0 -211 -142t-54 -458q0 -317 18 -423q20 -106 49 -148q63 -91 195 -91t227 43v461h-193v180h402v-766
q-178 -109 -449 -109z" />
    <glyph glyph-name="gdotaccent" unicode="&#x121;" horiz-adv-x="999" 
d="M604 1550v-227h-229v227h229zM482 920q-112 0 -150 -83t-39 -271q0 -188 39 -270q40 -83 150 -83t204 127v455q-92 125 -204 125zM416 27q-174 0 -257 134t-83 406q0 273 83 407t261 134t282 -141l13 118h188l-6 -264v-897q0 -180 -98 -268t-311 -88t-302 79
q-88 79 -88 251l207 28q0 -96 39 -141q38 -45 146 -45t152 48t44 140v222q-96 -123 -270 -123z" />
    <glyph glyph-name="Gcommaaccent" unicode="&#x122;" horiz-adv-x="1101" 
d="M459 -127h239l-94 -283h-180zM559 -23q-271 1 -370 183t-99 636t106 639t372 185q264 0 351 -108t89 -359l-215 -29q-3 174 -47 240t-171 66q-157 0 -211 -142t-54 -458q0 -317 18 -423q20 -106 49 -148q63 -91 195 -91t227 43v461h-193v180h402v-766
q-178 -109 -449 -109z" />
    <glyph glyph-name="gcommaaccent" unicode="&#x123;" horiz-adv-x="999" 
d="M575 1212h-233l104 426h187zM482 920q-112 0 -150 -83t-39 -271q0 -188 39 -270q40 -83 150 -83t204 127v455q-92 125 -204 125zM416 27q-174 0 -257 134t-83 406q0 273 83 407t261 134t282 -141l13 118h188l-6 -264v-897q0 -180 -98 -268t-311 -88t-302 79
q-88 79 -88 251l207 28q0 -96 39 -141q38 -45 146 -45t152 48t44 140v222q-96 -123 -270 -123z" />
    <glyph glyph-name="Hcircumflex" unicode="&#x124;" horiz-adv-x="1105" 
d="M408 1683h-172l196 426h238l196 -426h-172l-143 273zM774 1597h215v-1597h-215v723h-444v-723h-215v1597h215v-684h444v684z" />
    <glyph glyph-name="hcircumflex" unicode="&#x125;" horiz-adv-x="987" 
d="M68 1724h-172l196 426h238l196 -426h-172l-143 273zM315 1638v-655q115 125 308 125q135 0 201 -72t67 -198v-838h-211v784q0 136 -140 136t-225 -121v-799h-211v1638h211z" />
    <glyph glyph-name="Hbar" unicode="&#x126;" horiz-adv-x="1105" 
d="M326 1819v194h450v-194h-450zM774 1597h215v-1597h-215v723h-444v-723h-215v1597h215v-684h444v684z" />
    <glyph glyph-name="hbar" unicode="&#x127;" horiz-adv-x="1028" 
d="M18 1284v178h127v176h211v-176h193v-178h-193v-301q115 125 308 125q136 0 202 -72t66 -198v-838h-211v784q0 136 -140 136t-225 -121v-799h-211v1284h-127z" />
    <glyph glyph-name="Itilde" unicode="&#x128;" horiz-adv-x="466" 
d="M385 1724q-61 0 -115 38t-96 76q-43 38 -74 39t-48 -19t-21 -40t-6 -55l-152 21q8 133 58 211q51 78 139 76t174 -77t124 -76t52 32t18 84l152 -21q-16 -289 -205 -289zM342 1597v-1597h-217v1597h217z" />
    <glyph glyph-name="itilde" unicode="&#x129;" horiz-adv-x="425" 
d="M365 1253q-61 0 -115 38t-96 76q-80 71 -122 19q-18 -20 -22 -39t-6 -55l-151 21q8 133 58 211t138 76t174 -78q86 -74 124 -75q39 -1 53 32t18 84l151 -21q-16 -289 -204 -289zM109 0v1085h208v-1085h-208z" />
    <glyph glyph-name="Imacron" unicode="&#x12a;" horiz-adv-x="466" 
d="M8 1819v194h451v-194h-451zM342 1597v-1597h-217v1597h217z" />
    <glyph glyph-name="imacron" unicode="&#x12b;" horiz-adv-x="425" 
d="M-12 1348v194h450v-194h-450zM109 0v1085h208v-1085h-208z" />
    <glyph glyph-name="Ibreve" unicode="&#x12c;" horiz-adv-x="466" 
d="M233 1679q-181 1 -245 107t-62 323h162q-2 -129 29 -188t117 -59t116 59q31 59 29 188h162q2 -217 -63 -323t-245 -107zM342 1597v-1597h-217v1597h217z" />
    <glyph glyph-name="ibreve" unicode="&#x12d;" horiz-adv-x="425" 
d="M213 1208q-180 0 -245 106t-62 324h162q-2 -129 28 -188t117 -59q86 0 117 59t28 188h162q2 -218 -62 -324t-245 -106zM109 0v1085h208v-1085h-208z" />
    <glyph glyph-name="Iogonek" unicode="&#x12e;" horiz-adv-x="466" 
d="M342 1597v-1597q-80 -16 -128 -70t-46 -112q4 -114 106 -101q59 4 101 39l45 -141q-72 -51 -184 -51q-203 0 -226 184q-23 158 115 268v1581h217z" />
    <glyph glyph-name="iogonek" unicode="&#x12f;" horiz-adv-x="425" 
d="M328 1550v-227h-230v227h230zM317 1085v-1085q-80 -16 -128 -70t-46 -112q4 -114 107 -101q59 4 100 39l45 -141q-72 -51 -184 -51q-203 0 -225 184q-23 166 123 275v1062h208z" />
    <glyph glyph-name="Idotaccent" unicode="&#x130;" horiz-adv-x="466" 
d="M348 2021v-227h-229v227h229zM342 1597v-1597h-217v1597h217z" />
    <glyph glyph-name="dotlessi" unicode="&#x131;" horiz-adv-x="425" 
d="M109 0v1085h208v-1085h-208z" />
    <glyph glyph-name="IJ" unicode="&#x132;" horiz-adv-x="993" 
d="M881 1597v-1343q0 -276 -289 -277q-92 0 -160 27l14 182q38 -20 100 -20t90 24t28 91v1316h217zM342 1597v-1597h-217v1597h217z" />
    <glyph glyph-name="ij" unicode="&#x133;" horiz-adv-x="819" 
d="M721 1550v-227h-229v227h229zM711 1085v-1257q0 -264 -277 -264q-92 0 -153 24l14 179q41 -19 97 -19t83 24t27 85v1228h209zM328 1550v-227h-230v227h230zM109 0v1085h208v-1085h-208z" />
    <glyph glyph-name="Jcircumflex" unicode="&#x134;" horiz-adv-x="892" 
d="M530 1683h-172l197 426h238l196 -426h-172l-143 273zM567 1597h215v-1198q0 -227 -90 -324t-292 -97t-276 98q-75 100 -75 295l211 26q0 -121 31 -177t122 -54t123 54t31 177v1200z" />
    <glyph glyph-name="jcircumflex" unicode="&#x135;" horiz-adv-x="425" 
d="M70 1212h-172l196 426h238l196 -426h-172l-143 273zM317 1085v-1259q0 -262 -276 -262q-92 0 -154 24l15 176q37 -16 95 -16t85 24t27 85v1228h208z" />
    <glyph glyph-name="Kcommaaccent" unicode="&#x136;" horiz-adv-x="1030" 
d="M399 -127h240l-94 -283h-180zM115 0v1597h215l-4 -811l381 811h254l-363 -700l395 -897h-256l-282 705l-129 -242l4 -463h-215z" />
    <glyph glyph-name="kcommaaccent" unicode="&#x137;" horiz-adv-x="952" 
d="M377 -127h239l-94 -283h-180zM104 0v1638h211l-6 -1038l330 485h252l-334 -444l369 -641h-246l-256 471l-115 -156l6 -315h-211z" />
    <glyph glyph-name="kgreenlandic" unicode="&#x138;" horiz-adv-x="952" 
d="M104 0v1085h211l-6 -485l330 485h252l-334 -444l369 -641h-246l-256 471l-115 -156l6 -315h-211z" />
    <glyph glyph-name="Lacute" unicode="&#x139;" horiz-adv-x="821" 
d="M217 2109h234l-125 -426h-207zM330 1597v-1404h450v-193h-665v1597h215z" />
    <glyph glyph-name="lacute" unicode="&#x13a;" horiz-adv-x="430" 
d="M211 2150h233l-125 -426h-206zM111 0v1638h208v-1638h-208z" />
    <glyph glyph-name="Lcommaaccent" unicode="&#x13b;" horiz-adv-x="821" 
d="M330 -127h239l-94 -283h-180zM330 1597v-1404h450v-193h-665v1597h215z" />
    <glyph glyph-name="lcommaaccent" unicode="&#x13c;" horiz-adv-x="430" 
d="M98 -127h240l-94 -283h-181zM111 0v1638h208v-1638h-208z" />
    <glyph glyph-name="Lcaron" unicode="&#x13d;" horiz-adv-x="821" 
d="M504 1638h176l-62 -426h-114v426zM330 1597v-1404h450v-193h-665v1597h215z" />
    <glyph glyph-name="lcaron" unicode="&#x13e;" horiz-adv-x="491" 
d="M422 1638h176l-61 -426h-115v426zM111 0v1638h208v-1638h-208z" />
    <glyph glyph-name="Ldot" unicode="&#x13f;" horiz-adv-x="821" 
d="M745 942v-244h-245v244h245zM330 1597v-1404h450v-193h-665v1597h215z" />
    <glyph glyph-name="ldot" unicode="&#x140;" horiz-adv-x="659" 
d="M647 809v-244h-246v244h246zM111 0v1638h208v-1638h-208z" />
    <glyph glyph-name="Lslash" unicode="&#x141;" horiz-adv-x="890" 
d="M397 193h453v-193h-668v612l-131 -65v151l131 66v833h215v-727l279 142v-152l-279 -141v-526z" />
    <glyph glyph-name="lslash" unicode="&#x142;" horiz-adv-x="602" 
d="M389 0h-211v711l-137 -84v170l137 84v757h211v-628l158 98v-170l-158 -98v-840z" />
    <glyph glyph-name="Nacute" unicode="&#x143;" horiz-adv-x="1103" 
d="M541 2109h233l-125 -426h-207zM786 1597h203v-1597h-246l-288 786l-142 408l4 -440l2 -754h-204v1597h247l287 -786l144 -408l-7 441v753z" />
    <glyph glyph-name="nacute" unicode="&#x144;" horiz-adv-x="985" 
d="M483 1638h234l-125 -426h-207zM621 1108q135 0 201 -72t67 -198v-838h-211v784q0 136 -140 136t-225 -121v-799h-211v821l-4 264h187l12 -118q121 141 324 141z" />
    <glyph glyph-name="Ncommaaccent" unicode="&#x145;" horiz-adv-x="1103" 
d="M442 -127h240l-94 -283h-180zM786 1597h203v-1597h-246l-288 786l-142 408l4 -440l2 -754h-204v1597h247l287 -786l144 -408l-7 441v753z" />
    <glyph glyph-name="ncommaaccent" unicode="&#x146;" horiz-adv-x="985" 
d="M375 -127h239l-94 -283h-180zM621 1108q135 0 201 -72t67 -198v-838h-211v784q0 136 -140 136t-225 -121v-799h-211v821l-4 264h187l12 -118q121 141 324 141z" />
    <glyph glyph-name="Ncaron" unicode="&#x147;" horiz-adv-x="1103" 
d="M698 2109h174l-200 -426h-242l-201 426h174l148 -268zM786 1597h203v-1597h-246l-288 786l-142 408l4 -440l2 -754h-204v1597h247l287 -786l144 -408l-7 441v753z" />
    <glyph glyph-name="ncaron" unicode="&#x148;" horiz-adv-x="985" 
d="M641 1638h174l-201 -426h-241l-201 426h174l148 -268zM621 1108q135 0 201 -72t67 -198v-838h-211v784q0 136 -140 136t-225 -121v-799h-211v821l-4 264h187l12 -118q121 141 324 141z" />
    <glyph glyph-name="Eng" unicode="&#x14a;" horiz-adv-x="1103" 
d="M786 1597h203v-1769q0 -264 -276 -264q-92 0 -154 24l14 179q41 -19 97 -19t84 24q27 24 26 85v47l-325 882l-142 408l4 -440l2 -754h-204v1597h247l287 -786l144 -408l-7 441v753z" />
    <glyph glyph-name="eng" unicode="&#x14b;" horiz-adv-x="985" 
d="M621 1108q135 0 201 -72t67 -198v-1012q0 -262 -277 -262q-92 0 -153 24l14 176q37 -16 95 -16t84 24t26 85v927q0 136 -140 136t-225 -121v-799h-211v821l-4 264h187l12 -118q121 141 324 141z" />
    <glyph glyph-name="Omacron" unicode="&#x14c;" horiz-adv-x="1089" 
d="M319 1819v194h451v-194h-451zM780 799q0 362 -47 496q-47 135 -189 135t-188 -134t-47 -498q0 -364 46 -497q47 -133 189 -133t189 134t47 497zM90 799q0 455 94 638t360 183t361 -183q94 -183 94 -638t-94 -638t-360 -183q-267 0 -361 182q-94 184 -94 639z" />
    <glyph glyph-name="omacron" unicode="&#x14d;" horiz-adv-x="968" 
d="M260 1348v194h451v-194h-451zM484 -23q-218 0 -313 126q-95 125 -95 439t95 440t313 126t314 -126t95 -439q0 -313 -95 -440q-96 -126 -314 -126zM485 162q104 0 151 84q46 84 46 297t-46 297t-150 84t-151 -84q-46 -84 -46 -297t46 -297t150 -84z" />
    <glyph glyph-name="Obreve" unicode="&#x14e;" horiz-adv-x="1089" 
d="M545 1679q-180 1 -245 107t-62 323h161q-2 -129 29 -188t117 -59t117 59t28 188h162q2 -217 -62 -323t-245 -107zM780 799q0 362 -47 496q-47 135 -189 135t-188 -134t-47 -498q0 -364 46 -497q47 -133 189 -133t189 134t47 497zM90 799q0 455 94 638t360 183t361 -183
q94 -183 94 -638t-94 -638t-360 -183q-267 0 -361 182q-94 184 -94 639z" />
    <glyph glyph-name="obreve" unicode="&#x14f;" horiz-adv-x="968" 
d="M485 1208q-181 0 -245 106t-62 324h162q-2 -129 29 -188t117 -59t116 59q31 59 29 188h162q2 -218 -63 -324t-245 -106zM484 -23q-218 0 -313 126q-95 125 -95 439t95 440t313 126t314 -126t95 -439q0 -313 -95 -440q-96 -126 -314 -126zM485 162q104 0 151 84
q46 84 46 297t-46 297t-150 84t-151 -84q-46 -84 -46 -297t46 -297t150 -84z" />
    <glyph glyph-name="Ohungarumlaut" unicode="&#x150;" horiz-adv-x="1089" 
d="M709 2109h245l-141 -426h-215zM389 2109h246l-141 -426h-215zM780 799q0 362 -47 496q-47 135 -189 135t-188 -134t-47 -498q0 -364 46 -497q47 -133 189 -133t189 134t47 497zM90 799q0 455 94 638t360 183t361 -183q94 -183 94 -638t-94 -638t-360 -183
q-267 0 -361 182q-94 184 -94 639z" />
    <glyph glyph-name="ohungarumlaut" unicode="&#x151;" horiz-adv-x="968" 
d="M649 1638h246l-141 -426h-215zM330 1638h245l-141 -426h-215zM484 -23q-218 0 -313 126q-95 125 -95 439t95 440t313 126t314 -126t95 -439q0 -313 -95 -440q-96 -126 -314 -126zM485 162q104 0 151 84q46 84 46 297t-46 297t-150 84t-151 -84q-46 -84 -46 -297t46 -297
t150 -84z" />
    <glyph glyph-name="OE" unicode="&#x152;" horiz-adv-x="1503" 
d="M629 193h84v1212h-84q-203 0 -261 -125t-58 -481t58 -481t261 -125zM1432 0h-791q-164 0 -266 37q-209 76 -259 375q-26 150 -26 388t26 386q52 299 259 375q102 37 266 36h758v-192h-471v-492h397v-190h-397v-530h504v-193z" />
    <glyph glyph-name="oe" unicode="&#x153;" horiz-adv-x="1550" 
d="M1084 938q-103 0 -142 -74t-39 -250h352q0 174 -33 249q-35 75 -138 75zM485 162q104 0 151 84q46 84 46 297t-46 297t-150 84t-151 -84q-46 -84 -46 -297t46 -297t150 -84zM1479 477h-576q0 -174 37 -252t138 -78t139 43q37 43 36 129l213 -26q0 -154 -78 -235t-298 -81
q-219 0 -306 158q-86 -158 -302 -158t-311 126q-95 125 -95 439t95 440t310 126t303 -160q84 160 307 160t305 -135t83 -430v-66z" />
    <glyph glyph-name="Racute" unicode="&#x154;" horiz-adv-x="1017" 
d="M461 2109h233l-125 -426h-207zM332 834h164q108 0 158 58t51 228q-1 170 -51 228t-158 57h-164v-571zM332 639v-639h-217v1597h405q94 0 161 -17q67 -16 125 -66q118 -101 118 -394q0 -207 -56 -311t-157 -143l245 -666h-243l-209 639h-172z" />
    <glyph glyph-name="racute" unicode="&#x155;" horiz-adv-x="661" 
d="M346 1638h234l-125 -426h-207zM537 903q-129 0 -224 -121v-782h-211v821l-4 264h187l12 -124q88 147 235 147q47 0 84 -18l-10 -195q-24 8 -69 8z" />
    <glyph glyph-name="Rcommaaccent" unicode="&#x156;" horiz-adv-x="1017" 
d="M387 -127h240l-95 -283h-180zM332 834h164q108 0 158 58t51 228q-1 170 -51 228t-158 57h-164v-571zM332 639v-639h-217v1597h405q94 0 161 -17q67 -16 125 -66q118 -101 118 -394q0 -207 -56 -311t-157 -143l245 -666h-243l-209 639h-172z" />
    <glyph glyph-name="rcommaaccent" unicode="&#x157;" horiz-adv-x="661" 
d="M86 -127h240l-95 -283h-180zM537 903q-129 0 -224 -121v-782h-211v821l-4 264h187l12 -124q88 147 235 147q47 0 84 -18l-10 -195q-24 8 -69 8z" />
    <glyph glyph-name="Rcaron" unicode="&#x158;" horiz-adv-x="1017" 
d="M618 2109h175l-201 -426h-242l-200 426h174l147 -268zM332 834h164q108 0 158 58t51 228q-1 170 -51 228t-158 57h-164v-571zM332 639v-639h-217v1597h405q94 0 161 -17q67 -16 125 -66q118 -101 118 -394q0 -207 -56 -311t-157 -143l245 -666h-243l-209 639h-172z" />
    <glyph glyph-name="rcaron" unicode="&#x159;" horiz-adv-x="661" 
d="M504 1638h174l-201 -426h-241l-201 426h174l147 -268zM537 903q-129 0 -224 -121v-782h-211v821l-4 264h187l12 -124q88 147 235 147q47 0 84 -18l-10 -195q-24 8 -69 8z" />
    <glyph glyph-name="Sacute" unicode="&#x15a;" horiz-adv-x="1003" 
d="M502 2109h233l-125 -426h-207zM482 166q128 0 185 59q56 59 56 199t-54 194t-173 88t-174 60q-150 69 -196 206q-28 83 -28 199q0 236 98 345q98 108 311 108q214 0 308 -84q79 -71 95 -228q6 -62 8 -155l-211 -29q1 146 -23 205q-24 60 -63 79q-39 20 -123 20t-133 -60
t-49 -192t46 -182q47 -50 167 -79q121 -29 183 -57t117 -79q105 -99 107 -346t-110 -355t-355 -109q-243 0 -329 124q-44 65 -61 147t-18 205l209 26q2 -169 42 -239t168 -70z" />
    <glyph glyph-name="sacute" unicode="&#x15b;" horiz-adv-x="888" 
d="M440 1638h234l-125 -426h-207zM430 141q98 0 136 42q38 41 38 113q0 120 -84 149q-33 11 -108 26q-174 27 -251 90t-77 230q0 317 367 317q211 0 281 -72t69 -239l-211 -29q0 90 -28 133t-109 43q-141 0 -142 -156q0 -76 32 -100t134 -47q180 -27 265 -93t85 -237
q0 -172 -100 -253t-315 -81t-286 83q-38 44 -51 98t-14 139l209 27q0 -94 31 -138t129 -45z" />
    <glyph glyph-name="Scircumflex" unicode="&#x15c;" horiz-adv-x="1003" 
d="M369 1683h-172l196 426h238l196 -426h-172l-143 273zM482 166q128 0 185 59q56 59 56 199t-54 194t-173 88t-174 60q-150 69 -196 206q-28 83 -28 199q0 236 98 345q98 108 311 108q214 0 308 -84q79 -71 95 -228q6 -62 8 -155l-211 -29q1 146 -23 205q-24 60 -63 79
q-39 20 -123 20t-133 -60t-49 -192t46 -182q47 -50 167 -79q121 -29 183 -57t117 -79q105 -99 107 -346t-110 -355t-355 -109q-243 0 -329 124q-44 65 -61 147t-18 205l209 26q2 -169 42 -239t168 -70z" />
    <glyph glyph-name="scircumflex" unicode="&#x15d;" horiz-adv-x="888" 
d="M307 1212h-172l197 426h237l197 -426h-172l-143 273zM430 141q98 0 136 42q38 41 38 113q0 120 -84 149q-33 11 -108 26q-174 27 -251 90t-77 230q0 317 367 317q211 0 281 -72t69 -239l-211 -29q0 90 -28 133t-109 43q-141 0 -142 -156q0 -76 32 -100t134 -47
q180 -27 265 -93t85 -237q0 -172 -100 -253t-315 -81t-286 83q-38 44 -51 98t-14 139l209 27q0 -94 31 -138t129 -45z" />
    <glyph glyph-name="Scedilla" unicode="&#x15e;" horiz-adv-x="1003" 
d="M482 166q128 0 185 59q56 59 56 199t-54 194t-173 88t-174 60q-150 69 -196 206q-28 83 -28 199q0 236 98 345q98 108 311 108q214 0 308 -84q79 -71 95 -228q6 -62 8 -155l-211 -29q1 146 -23 205q-24 60 -63 79q-39 20 -123 20t-133 -60t-49 -192t46 -182
q47 -50 167 -79q121 -29 183 -57t117 -79q105 -99 107 -340t-99 -349t-313 -119l-14 -53q109 -20 166 -65t52 -126t-74 -124q-70 -43 -188 -43t-196 41l35 106q53 -29 115 -35q133 -8 133 76q0 50 -51 70t-142 33l41 122q-195 16 -265 129t-73 343l209 26q2 -169 42 -239
t168 -70z" />
    <glyph glyph-name="scedilla" unicode="&#x15f;" horiz-adv-x="886" 
d="M428 141q98 0 136 42q38 41 38 113q0 120 -84 149q-33 11 -108 26q-174 27 -251 90t-77 230q0 317 367 317q211 0 281 -72t69 -239l-211 -29q0 90 -28 133t-109 43q-141 0 -142 -156q0 -76 32 -100t134 -47q180 -27 265 -93t85 -231q0 -167 -86 -247t-256 -90l-16 -58
q109 -20 166 -65t52 -126t-74 -124t-189 -43t-195 41l35 106q53 -29 115 -35q133 -8 133 76q0 50 -51 70t-142 33l41 125q-182 12 -240 85t-59 232l209 27q0 -94 31 -138t129 -45z" />
    <glyph glyph-name="Scaron" unicode="&#x160;" horiz-adv-x="1003" 
d="M659 2109h175l-201 -426h-242l-201 426h175l147 -268zM482 166q128 0 185 59q56 59 56 199t-54 194t-173 88t-174 60q-150 69 -196 206q-28 83 -28 199q0 236 98 345q98 108 311 108q214 0 308 -84q79 -71 95 -228q6 -62 8 -155l-211 -29q1 146 -23 205q-24 60 -63 79
q-39 20 -123 20t-133 -60t-49 -192t46 -182q47 -50 167 -79q121 -29 183 -57t117 -79q105 -99 107 -346t-110 -355t-355 -109q-243 0 -329 124q-44 65 -61 147t-18 205l209 26q2 -169 42 -239t168 -70z" />
    <glyph glyph-name="scaron" unicode="&#x161;" horiz-adv-x="888" 
d="M598 1638h174l-201 -426h-241l-201 426h174l148 -268zM430 141q98 0 136 42q38 41 38 113q0 120 -84 149q-33 11 -108 26q-174 27 -251 90t-77 230q0 317 367 317q211 0 281 -72t69 -239l-211 -29q0 90 -28 133t-109 43q-141 0 -142 -156q0 -76 32 -100t134 -47
q180 -27 265 -93t85 -237q0 -172 -100 -253t-315 -81t-286 83q-38 44 -51 98t-14 139l209 27q0 -94 31 -138t129 -45z" />
    <glyph glyph-name="Tcommaaccent" unicode="&#x162;" horiz-adv-x="886" 
d="M319 -127h240l-94 -283h-180zM551 1405v-1405h-215v1405h-295v192h805v-192h-295z" />
    <glyph glyph-name="tcommaaccent" unicode="&#x163;" horiz-adv-x="698" 
d="M258 -127h240l-95 -283h-180zM55 907v178h127v287l211 6v-293h230v-178h-230v-639q0 -61 27 -85q27 -23 80 -23t100 18l14 -178q-68 -23 -155 -23q-276 0 -277 265v665h-127z" />
    <glyph glyph-name="Tcaron" unicode="&#x164;" horiz-adv-x="886" 
d="M590 2109h174l-201 -426h-241l-201 426h174l147 -268zM551 1405v-1405h-215v1405h-295v192h805v-192h-295z" />
    <glyph glyph-name="tcaron" unicode="&#x165;" horiz-adv-x="698" 
d="M475 1638h176l-61 -426h-115v426zM55 907v178h127v287l211 6v-293h230v-178h-230v-639q0 -61 27 -85q27 -23 80 -23t100 18l14 -178q-68 -23 -155 -23q-276 0 -277 265v665h-127z" />
    <glyph glyph-name="Tbar" unicode="&#x166;" horiz-adv-x="886" 
d="M160 741v156h176v508h-295v192h805v-192h-295v-508h174v-156h-174v-741h-215v741h-176z" />
    <glyph glyph-name="tbar" unicode="&#x167;" horiz-adv-x="698" 
d="M55 457v178h127v272h-127v178h127v287l211 6v-293h230v-178h-230v-272h172v-178h-172v-189q0 -61 27 -85q27 -23 80 -23t100 18l14 -178q-68 -23 -155 -23q-276 0 -277 265v215h-127z" />
    <glyph glyph-name="Utilde" unicode="&#x168;" horiz-adv-x="1069" 
d="M686 1724q-60 0 -114 38t-97 76t-74 39t-48 -19t-21 -40t-6 -55l-152 21q8 133 58 211t138 76t175 -77q86 -75 124 -76t52 32t18 84l152 -21q-16 -289 -205 -289zM535 166q131 0 171 55t39 195v1181h218v-1189q-1 -230 -89 -332t-340 -102t-339 102q-88 102 -89 332v1189
h218v-1181q0 -138 40 -194t171 -56z" />
    <glyph glyph-name="utilde" unicode="&#x169;" horiz-adv-x="987" 
d="M643 1253q-61 0 -115 38t-96 76q-80 71 -122 19q-17 -20 -21 -39t-6 -55l-152 21q8 133 58 211q51 78 139 76t174 -78q86 -74 124 -75t52 32t18 84l152 -21q-16 -289 -205 -289zM96 248v837h211v-784q0 -135 140 -135t225 121v798h211v-821l6 -264h-187l-12 119
q-121 -141 -323 -142q-135 0 -203 72t-68 199z" />
    <glyph glyph-name="Umacron" unicode="&#x16a;" horiz-adv-x="1069" 
d="M309 1819v194h451v-194h-451zM535 166q131 0 171 55t39 195v1181h218v-1189q-1 -230 -89 -332t-340 -102t-339 102q-88 102 -89 332v1189h218v-1181q0 -138 40 -194t171 -56z" />
    <glyph glyph-name="umacron" unicode="&#x16b;" horiz-adv-x="987" 
d="M266 1348v194h451v-194h-451zM96 248v837h211v-784q0 -135 140 -135t225 121v798h211v-821l6 -264h-187l-12 119q-121 -141 -323 -142q-135 0 -203 72t-68 199z" />
    <glyph glyph-name="Ubreve" unicode="&#x16c;" horiz-adv-x="1069" 
d="M535 1679q-180 1 -245 107t-63 323h162q-2 -129 29 -188t117 -59q87 0 117 59t28 188h162q2 -217 -62 -323t-245 -107zM535 166q131 0 171 55t39 195v1181h218v-1189q-1 -230 -89 -332t-340 -102t-339 102q-88 102 -89 332v1189h218v-1181q0 -138 40 -194t171 -56z" />
    <glyph glyph-name="ubreve" unicode="&#x16d;" horiz-adv-x="987" 
d="M492 1208q-180 0 -245 106t-63 324h162q-2 -129 29 -188t117 -59t116 59t29 188h162q1 -218 -63 -324t-244 -106zM96 248v837h211v-784q0 -135 140 -135t225 121v798h211v-821l6 -264h-187l-12 119q-121 -141 -323 -142q-135 0 -203 72t-68 199z" />
    <glyph glyph-name="Uring" unicode="&#x16e;" horiz-adv-x="1069" 
d="M649 1896q-1 119 -115 119t-114 -119t115 -118q114 -1 114 118zM295 1896q0 106 64 174q65 66 176 66t175 -66t64 -174q0 -106 -64 -173t-176 -67q-110 0 -175 67q-64 67 -64 173zM535 166q131 0 171 55t39 195v1181h218v-1189q-1 -230 -89 -332t-340 -102t-339 102
q-88 102 -89 332v1189h218v-1181q0 -138 40 -194t171 -56z" />
    <glyph glyph-name="uring" unicode="&#x16f;" horiz-adv-x="987" 
d="M606 1425q0 119 -114 119t-115 -119q0 -119 115 -118q114 -1 114 118zM252 1425q0 106 64 173q65 67 176 67q112 0 176 -67t64 -173t-66 -173q-64 -66 -174 -66t-176 66q-64 67 -64 173zM96 248v837h211v-784q0 -135 140 -135t225 121v798h211v-821l6 -264h-187l-12 119
q-121 -141 -323 -142q-135 0 -203 72t-68 199z" />
    <glyph glyph-name="Uhungarumlaut" unicode="&#x170;" horiz-adv-x="1069" 
d="M698 2109h246l-141 -426h-215zM379 2109h246l-142 -426h-215zM535 166q131 0 171 55t39 195v1181h218v-1189q-1 -230 -89 -332t-340 -102t-339 102q-88 102 -89 332v1189h218v-1181q0 -138 40 -194t171 -56z" />
    <glyph glyph-name="uhungarumlaut" unicode="&#x171;" horiz-adv-x="987" 
d="M655 1638h246l-141 -426h-215zM336 1638h246l-142 -426h-215zM96 248v837h211v-784q0 -135 140 -135t225 121v798h211v-821l6 -264h-187l-12 119q-121 -141 -323 -142q-135 0 -203 72t-68 199z" />
    <glyph glyph-name="Uogonek" unicode="&#x172;" horiz-adv-x="1069" 
d="M627 -436q-203 0 -226 184q-20 125 76 227q-215 11 -293 113t-78 320v1189h218v-1181q0 -138 40 -194t171 -56t171 55t39 195v1181h218v-1189q-1 -180 -51 -278t-185 -134l-2 -2q-76 -15 -122 -70q-46 -54 -44 -110q4 -110 107 -97q59 4 100 39l45 -141q-72 -51 -184 -51
z" />
    <glyph glyph-name="uogonek" unicode="&#x173;" horiz-adv-x="987" 
d="M762 -436q-203 0 -225 184q-29 180 161 295l-8 76q-121 -141 -323 -142q-135 0 -203 72t-68 199v837h211v-784q0 -135 140 -135t225 121v798h211v-821l6 -264q-89 -16 -143 -70t-52 -112q4 -114 107 -101q59 4 100 39l45 -141q-72 -51 -184 -51z" />
    <glyph glyph-name="Wcircumflex" unicode="&#x174;" horiz-adv-x="1425" 
d="M569 1683h-172l197 426h237l197 -426h-172l-143 273zM899 -23l-186 1311l-187 -1311h-293l-170 1620h203l127 -1304l195 1304h250l194 -1304l127 1304h203l-170 -1620h-293z" />
    <glyph glyph-name="wcircumflex" unicode="&#x175;" horiz-adv-x="1284" 
d="M498 1212h-172l196 426h238l196 -426h-172l-143 273zM535 1085h215l163 -815l101 815h205l-164 -1095h-246l-168 837l-166 -837h-248l-161 1095h204l101 -815z" />
    <glyph glyph-name="Ycircumflex" unicode="&#x176;" horiz-adv-x="1028" 
d="M371 1683h-172l196 426h238l196 -426h-172l-143 273zM514 805l264 792h226l-386 -1024l5 -573h-215l2 573l-383 1024h223z" />
    <glyph glyph-name="ycircumflex" unicode="&#x177;" horiz-adv-x="940" 
d="M326 1212h-172l196 426h238l196 -426h-172l-143 273zM471 252l203 833h223l-307 -1040l-152 -455h-237l153 414l-311 1081h223z" />
    <glyph glyph-name="Ydieresis" unicode="&#x178;" horiz-adv-x="1028" 
d="M825 2021v-227h-229v227h229zM432 2021v-227h-229v227h229zM514 805l264 792h226l-386 -1024l5 -573h-215l2 573l-383 1024h223z" />
    <glyph glyph-name="Zacute" unicode="&#x179;" horiz-adv-x="995" 
d="M483 2109h234l-125 -426h-207zM61 0v158l514 1052l99 197l-295 -2h-289v192h823v-157l-512 -1053l-100 -197l297 3h328v-193h-865z" />
    <glyph glyph-name="zacute" unicode="&#x17a;" horiz-adv-x="833" 
d="M406 1638h233l-125 -426h-207zM55 0v150l451 753l-424 -4v186h670v-149l-451 -754l475 4v-186h-721z" />
    <glyph glyph-name="Zdotaccent" unicode="&#x17b;" horiz-adv-x="995" 
d="M608 2021v-227h-229v227h229zM61 0v158l514 1052l99 197l-295 -2h-289v192h823v-157l-512 -1053l-100 -197l297 3h328v-193h-865z" />
    <glyph glyph-name="zdotaccent" unicode="&#x17c;" horiz-adv-x="833" 
d="M530 1550v-227h-229v227h229zM55 0v150l451 753l-424 -4v186h670v-149l-451 -754l475 4v-186h-721z" />
    <glyph glyph-name="Zcaron" unicode="&#x17d;" horiz-adv-x="995" 
d="M641 2109h174l-201 -426h-241l-201 426h174l148 -268zM61 0v158l514 1052l99 197l-295 -2h-289v192h823v-157l-512 -1053l-100 -197l297 3h328v-193h-865z" />
    <glyph glyph-name="zcaron" unicode="&#x17e;" horiz-adv-x="833" 
d="M563 1638h174l-200 -426h-242l-201 426h174l148 -268zM55 0v150l451 753l-424 -4v186h670v-149l-451 -754l475 4v-186h-721z" />
    <glyph glyph-name="florin" unicode="&#x192;" horiz-adv-x="718" 
d="M51 727v178h168v422q0 260 295 260q92 0 156 -22l-13 -179q-47 18 -107 18t-89 -23q-29 -24 -29 -87v-389h203v-178h-203v-899q0 -260 -295 -260q-94 0 -157 22l14 179q41 -19 104 -19t92 24t29 87v866h-168z" />
    <glyph glyph-name="Scommaaccent" unicode="&#x218;" horiz-adv-x="1003" 
d="M375 -127h239l-94 -283h-180zM482 166q128 0 185 59q56 59 56 199t-54 194t-173 88t-174 60q-150 69 -196 206q-28 83 -28 199q0 236 98 345q98 108 311 108q214 0 308 -84q79 -71 95 -228q6 -62 8 -155l-211 -29q1 146 -23 205q-24 60 -63 79q-39 20 -123 20t-133 -60
t-49 -192t46 -182q47 -50 167 -79q121 -29 183 -57t117 -79q105 -99 107 -346t-110 -355t-355 -109q-243 0 -329 124q-44 65 -61 147t-18 205l209 26q2 -169 42 -239t168 -70z" />
    <glyph glyph-name="scommaaccent" unicode="&#x219;" horiz-adv-x="886" 
d="M322 -127h239l-94 -283h-180zM428 141q98 0 136 42q38 41 38 113q0 120 -84 149q-33 11 -108 26q-174 27 -251 90t-77 230q0 317 367 317q211 0 281 -72t69 -239l-211 -29q0 90 -28 133t-109 43q-141 0 -142 -156q0 -76 32 -100t134 -47q180 -27 265 -93t85 -237
q0 -172 -100 -253t-315 -81t-286 83q-38 44 -51 98t-14 139l209 27q0 -94 31 -138t129 -45z" />
    <glyph glyph-name="dotlessj" unicode="&#x237;" horiz-adv-x="425" 
d="M317 1085v-1259q0 -262 -276 -262q-92 0 -154 24l15 176q37 -16 95 -16t85 24t27 85v1228h208z" />
    <glyph glyph-name="circumflex" unicode="&#x2c6;" horiz-adv-x="1269" 
d="M492 1212h-173l197 426h238l196 -426h-172l-143 273z" />
    <glyph glyph-name="caron" unicode="&#x2c7;" horiz-adv-x="1269" 
d="M782 1638h174l-200 -426h-242l-201 426h174l148 -268z" />
    <glyph glyph-name="breve" unicode="&#x2d8;" horiz-adv-x="1269" 
d="M635 1208q-180 0 -245 106t-62 324h161q-2 -129 29 -188t117 -59t117 59t28 188h162q2 -218 -62 -324t-245 -106z" />
    <glyph glyph-name="dotaccent" unicode="&#x2d9;" horiz-adv-x="1269" 
d="M750 1550v-227h-230v227h230z" />
    <glyph glyph-name="ring" unicode="&#x2da;" horiz-adv-x="1269" 
d="M750 1425q0 119 -115 119t-115 -119t115 -118q115 -1 115 118zM395 1425q0 106 65 173q66 67 176 67t174 -67t64 -173t-64 -173q-64 -66 -176 -66q-110 0 -174 66t-65 173z" />
    <glyph glyph-name="ogonek" unicode="&#x2db;" horiz-adv-x="1269" 
d="M930 -436q-203 0 -225 184q-18 123 65 215q84 92 225 139l62 -102q-89 -16 -143 -70t-52 -112q4 -114 107 -101q59 4 100 39l45 -141q-72 -51 -184 -51z" />
    <glyph glyph-name="tilde" unicode="&#x2dc;" horiz-adv-x="1269" 
d="M786 1253q-61 0 -114 38q-52 38 -96 76q-80 70 -122 19q-18 -20 -22 -39t-6 -55l-152 21q8 133 58 211t139 76q88 -2 174 -78q86 -74 124 -75q39 -1 53 32t18 84l151 -21q-16 -289 -205 -289z" />
    <glyph glyph-name="hungarumlaut" unicode="&#x2dd;" horiz-adv-x="1269" 
d="M799 1638h245l-141 -426h-215zM479 1638h246l-141 -426h-215z" />
    <glyph glyph-name="pi" unicode="&#x3c0;" horiz-adv-x="1191" 
d="M684 240v669h-248v-680l-26 -229h-189l6 264v645h-168v176h1045v-176h-209v-641q0 -61 27 -85q26 -23 80 -23t102 18l12 -178q-68 -23 -153 -23q-279 1 -279 263z" />
    <glyph glyph-name="uni0E3F" unicode="&#xe3f;" horiz-adv-x="976" 
d="M528 1159h-202v-270h202q100 0 101 141q0 74 -25 102t-76 27zM326 406h211q61 0 92 30t30 109q0 158 -114 157h-219v-296zM594 217h-170l-66 -217h-190l68 217h-119v1131h377l67 217h191l-72 -228q160 -41 160 -290q0 -182 -115 -238q145 -37 145 -272q0 -176 -68 -248
t-208 -72z" />
    <glyph glyph-name="enspace" unicode="&#x2002;" horiz-adv-x="1024" 
 />
    <glyph glyph-name="emspace" unicode="&#x2003;" horiz-adv-x="2048" 
 />
    <glyph glyph-name="threeperemspace" unicode="&#x2004;" horiz-adv-x="681" 
 />
    <glyph glyph-name="fourperemspace" unicode="&#x2005;" horiz-adv-x="512" 
 />
    <glyph glyph-name="sixperemspace" unicode="&#x2006;" horiz-adv-x="342" 
 />
    <glyph glyph-name="figurespace" unicode="&#x2007;" horiz-adv-x="1433" 
 />
    <glyph glyph-name="punctuationspace" unicode="&#x2008;" horiz-adv-x="552" 
 />
    <glyph glyph-name="thinspace" unicode="&#x2009;" horiz-adv-x="409" 
 />
    <glyph glyph-name="hairspace" unicode="&#x200a;" horiz-adv-x="204" 
 />
    <glyph glyph-name="zerowidthspace" unicode="&#x200b;" horiz-adv-x="0" 
 />
    <glyph glyph-name="figuredash" unicode="&#x2012;" horiz-adv-x="1474" 
d="M1358 588h-1241v196h1241v-196z" />
    <glyph glyph-name="endash" unicode="&#x2013;" horiz-adv-x="1064" 
d="M948 588h-831v196h831v-196z" />
    <glyph glyph-name="emdash" unicode="&#x2014;" horiz-adv-x="2088" 
d="M1972 588h-1855v196h1855v-196z" />
    <glyph glyph-name="uni2015" unicode="&#x2015;" horiz-adv-x="2908" 
d="M2791 588h-2674v196h2674v-196z" />
    <glyph glyph-name="doublebar" unicode="&#x2016;" horiz-adv-x="960" 
d="M756 1700v-1966h-221v1966h221zM426 1700v-1966h-219v1966h219z" />
    <glyph glyph-name="quoteleft" unicode="&#x2018;" horiz-adv-x="391" 
d="M266 1085h-246l115 512h168z" />
    <glyph glyph-name="quoteright" unicode="&#x2019;" horiz-adv-x="391" 
d="M125 1597h246l-117 -512h-166z" />
    <glyph glyph-name="quotesinglbase" unicode="&#x201a;" horiz-adv-x="391" 
d="M104 176h248l-116 -512h-168z" />
    <glyph glyph-name="reversequoteleft" unicode="&#x201b;" horiz-adv-x="391" 
d="M20 1597h246l37 -512h-166z" />
    <glyph glyph-name="quotedblleft" unicode="&#x201c;" horiz-adv-x="700" 
d="M584 1085h-246l117 512h168zM266 1085h-246l115 512h168z" />
    <glyph glyph-name="quotedblright" unicode="&#x201d;" horiz-adv-x="710" 
d="M125 1597h246l-117 -512h-166zM444 1597h246l-117 -512h-167z" />
    <glyph glyph-name="quotedblbase" unicode="&#x201e;" horiz-adv-x="708" 
d="M104 176h248l-116 -512h-168zM424 176h246l-117 -512h-168z" />
    <glyph glyph-name="reversequotedblleft" unicode="&#x201f;" horiz-adv-x="710" 
d="M340 1597h246l37 -512h-166zM20 1597h246l39 -512h-168z" />
    <glyph glyph-name="dagger" unicode="&#x2020;" horiz-adv-x="686" 
d="M268 1597h150l-21 -249l254 20v-147l-254 20l39 -442h-186l39 442l-254 -20v147l254 -20z" />
    <glyph glyph-name="daggerdbl" unicode="&#x2021;" horiz-adv-x="686" 
d="M268 1597h150l-21 -249l254 20v-147l-256 20l11 -113l-11 -110l256 20v-147l-254 20l39 -442h-186l39 442l-254 -20v147l254 -20l-10 110l10 113l-254 -20v147l254 -20z" />
    <glyph glyph-name="bullet" unicode="&#x2022;" horiz-adv-x="878" 
d="M743 989v-606h-608v606h608z" />
    <glyph glyph-name="ellipsis" unicode="&#x2026;" horiz-adv-x="2111" 
d="M1851 240v-240h-239v240h239zM1176 240v-240h-240v240h240zM500 240v-240h-240v240h240z" />
    <glyph glyph-name="perthousand" unicode="&#x2030;" horiz-adv-x="2408" 
d="M1992 846q174 0 242 -96t68 -337t-69 -338t-241 -97t-240 96q-69 96 -69 338t68 338t241 96zM1992 141q80 -1 108 55t28 216t-29 215t-107 55t-107 -54q-27 -54 -27 -215t28 -217t106 -55zM989 413q1 241 69 337t241 96t242 -96t69 -337t-69 -338t-242 -97t-241 96
q-68 98 -69 339zM1299 682q-79 0 -107 -54t-27 -215q-1 -161 27 -217t107 -55q79 -1 107 55t28 217t-28 215t-107 54zM389 719q-172 0 -241 96q-68 96 -68 337t68 338q69 97 241 97t241 -97q68 -97 68 -338t-68 -337t-241 -96zM344 0l799 1565h203l-801 -1565h-201z
M390 1423q-80 0 -108 -55t-28 -215t29 -215t107 -55t107 54q27 54 27 215t-27 216q-28 55 -107 55z" />
    <glyph glyph-name="minute" unicode="&#x2032;" horiz-adv-x="444" 
d="M94 1597h254l-37 -512h-178z" />
    <glyph glyph-name="second" unicode="&#x2033;" horiz-adv-x="763" 
d="M418 1597h252l-78 -512h-176zM94 1597h254l-76 -512h-178v512z" />
    <glyph glyph-name="tripleprime" unicode="&#x2034;" horiz-adv-x="1085" 
d="M739 1597h252l-39 -512h-176zM418 1597h252l-39 -512h-176zM94 1597h254l-37 -512h-178z" />
    <glyph glyph-name="guilsinglleft" unicode="&#x2039;" horiz-adv-x="655" 
d="M532 449v-183l-426 312v135l426 311v-182l-235 -197z" />
    <glyph glyph-name="guilsinglright" unicode="&#x203a;" horiz-adv-x="655" 
d="M123 266v183l235 196l-235 197v182l426 -311v-135z" />
    <glyph glyph-name="fraction" unicode="&#x2044;" horiz-adv-x="458" 
d="M-250 0l799 1565h160l-799 -1565h-160z" />
    <glyph glyph-name="uni2070" unicode="&#x2070;" 
d="M520 1167q0 -258 -47 -339q-47 -80 -185 -80t-186 80q-47 81 -47 339t47 340q48 82 186 82t185 -82t47 -340zM201 1168q0 -189 16 -241q17 -53 71 -53t70 52t16 242t-16 242t-70 52t-71 -52q-16 -53 -16 -242z" />
    <glyph glyph-name="uni2074" unicode="&#x2074;" 
d="M319 1069l7 342l-152 -346zM528 940h-71v-180h-138v180h-272v115l240 534h170v-520h71v-129z" />
    <glyph glyph-name="uni2075" unicode="&#x2075;" 
d="M287 872q88 0 88 158q1 94 -19 129t-73 35t-86 -68l-121 17l20 434h396v-129h-271l-10 -195q51 61 135 61t128 -62q44 -64 44 -219t-57 -221t-180 -64q-123 0 -172 56t-50 183l144 19q-1 -74 17 -104t67 -30z" />
    <glyph glyph-name="uni2076" unicode="&#x2076;" 
d="M303 1180q-35 0 -54 -18t-42 -64q0 -127 18 -177q19 -51 65 -51t62 35t16 120t-14 120q-16 35 -51 35zM285 1466q-49 0 -63 -50t-15 -204q49 92 144 92t129 -62t34 -210t-50 -217q-50 -67 -182 -67t-177 89q-44 89 -44 326t45 331t193 95q117 0 162 -51t47 -162l-143 -18
q-3 60 -17 84t-63 24z" />
    <glyph glyph-name="uni2077" unicode="&#x2077;" 
d="M61 1448v129h455v-88l-223 -729h-156l178 536l54 152h-308z" />
    <glyph glyph-name="uni2078" unicode="&#x2078;" 
d="M288 748q-130 0 -184 57q-53 57 -53 170q0 164 101 209q-39 14 -63 62t-23 118q0 123 50 174t172 51t172 -51t50 -174q0 -70 -24 -118t-62 -62q100 -45 100 -209q0 -113 -53 -170t-183 -57zM385 995q-1 73 -25 99t-72 26t-73 -26t-25 -94t23 -97t76 -29q96 0 96 121z
M369 1350q-1 62 -19 86t-62 24t-63 -24q-18 -25 -18 -86q0 -113 81 -113t81 113z" />
    <glyph glyph-name="uni2079" unicode="&#x2079;" 
d="M274 1157q57 0 95 76q-1 127 -19 180t-64 53t-63 -34q-16 -35 -16 -121q-1 -154 67 -154zM292 870q50 0 63 48t14 198q-45 -84 -141 -84t-131 65q-36 65 -36 211q-1 146 49 214t184 68t177 -89t43 -327t-45 -332t-193 -94q-116 0 -160 51t-46 162l141 18q3 -61 17 -85
t64 -24z" />
    <glyph glyph-name="uni207A" unicode="&#x207a;" horiz-adv-x="790" 
d="M328 881v221h-222v133h222v221h133v-221h223v-133h-223v-221h-133z" />
    <glyph glyph-name="uni207B" unicode="&#x207b;" horiz-adv-x="790" 
d="M684 1102h-578v133h578v-133z" />
    <glyph glyph-name="uni207C" unicode="&#x207c;" horiz-adv-x="790" 
d="M684 1219h-578v131h578v-131zM684 987h-578v133h578v-133z" />
    <glyph glyph-name="uni207D" unicode="&#x207d;" horiz-adv-x="346" 
d="M199 1168q0 -273 112 -513h-141q-117 203 -117 514q0 150 33 288t84 224h141q-112 -240 -112 -513z" />
    <glyph glyph-name="uni207E" unicode="&#x207e;" horiz-adv-x="346" 
d="M150 1168q0 265 -113 513h139q51 -86 85 -223t34 -289q0 -313 -119 -514h-139q113 248 113 513z" />
    <glyph glyph-name="uni2080" unicode="&#x2080;" 
d="M520 408q0 -258 -47 -339t-185 -81t-186 81q-47 81 -47 339t47 340q48 82 186 82t185 -82t47 -340zM288 702q-54 0 -70 -52t-17 -241q0 -189 16 -241q17 -52 71 -53q54 0 70 52q16 51 16 241t-16 242t-70 52z" />
    <glyph glyph-name="uni2081" unicode="&#x2081;" 
d="M526 0h-450v129h153v492q-55 -70 -166 -101v146q127 37 193 163h115v-700h155v-129z" />
    <glyph glyph-name="uni2082" unicode="&#x2082;" 
d="M289 705q-43 0 -59 -32t-17 -112l-143 19q2 135 44 192t172 57t175 -51q45 -52 45 -164t-35 -159t-129 -111t-114 -102q-20 -37 -19 -115h305v-127h-455q0 115 4 168t25 104q20 51 54 81t104 76t94 78t22 90q0 58 -15 83t-58 25z" />
    <glyph glyph-name="uni2083" unicode="&#x2083;" 
d="M284 113q50 -1 70 29t20 97t-22 91q-23 24 -65 24h-70v129h70q33 0 49 22q16 23 16 87t-14 88t-59 25q-45 0 -61 -30t-15 -108l-140 19q1 129 47 186t167 57t169 -50t50 -185q0 -135 -82 -170q104 -29 104 -203q0 -115 -54 -174t-185 -59t-177 61q-45 61 -45 189l140 20
q0 -80 18 -113q19 -32 69 -32z" />
    <glyph glyph-name="uni2084" unicode="&#x2084;" 
d="M319 309l7 342l-152 -346zM528 180h-71v-180h-138v180h-272v115l240 534h170v-520h71v-129z" />
    <glyph glyph-name="uni2085" unicode="&#x2085;" 
d="M287 113q88 0 88 157q1 94 -19 129t-73 35t-86 -67l-121 16l20 434h396v-129h-271l-10 -194q51 61 135 61t128 -63q44 -62 44 -218t-57 -222t-180 -64q-123 0 -172 56t-50 183l144 19q0 -74 17 -104q18 -29 67 -29z" />
    <glyph glyph-name="uni2086" unicode="&#x2086;" 
d="M290 111q46 1 62 35t16 119t-14 120q-16 35 -51 35t-54 -18t-42 -64q0 -127 18 -177q19 -50 65 -50zM285 707q-49 -1 -63 -51t-15 -203q49 92 144 92q95 -1 129 -63t34 -210t-50 -217q-50 -67 -182 -67t-177 89q-44 89 -44 327t45 331q46 94 178 94t177 -51t47 -162
l-143 -18q-3 61 -17 85t-63 24z" />
    <glyph glyph-name="uni2087" unicode="&#x2087;" 
d="M61 688v129h455v-88l-223 -729h-156l178 537l54 151h-308z" />
    <glyph glyph-name="uni2088" unicode="&#x2088;" 
d="M288 -12q-130 0 -184 57q-53 57 -53 170q0 164 101 209q-39 14 -63 62t-23 118q0 123 50 174t172 51t172 -51t50 -174q0 -70 -24 -118t-62 -62q100 -45 100 -209q0 -113 -53 -170t-183 -57zM385 236q-1 74 -25 99t-72 25t-73 -26t-25 -93t23 -97t76 -29q96 0 96 121z
M369 590q-1 62 -19 86t-62 24t-63 -24q-18 -25 -18 -86q0 -113 81 -113t81 113z" />
    <glyph glyph-name="uni2089" unicode="&#x2089;" 
d="M274 397q57 0 95 76q-1 127 -19 180t-64 53t-62 -34q-16 -35 -17 -121q-1 -154 67 -154zM292 111q50 0 63 47t14 198q-45 -84 -141 -84t-131 65q-36 65 -36 211q-1 146 49 214t184 68t177 -89q43 -88 43 -326q0 -239 -45 -333t-193 -94q-116 0 -160 51t-46 162l141 18
q2 -61 16 -85q15 -23 65 -23z" />
    <glyph glyph-name="uni208A" unicode="&#x208a;" horiz-adv-x="790" 
d="M328 121v221h-222v133h222v221h133v-221h223v-133h-223v-221h-133z" />
    <glyph glyph-name="uni208B" unicode="&#x208b;" horiz-adv-x="790" 
d="M684 342h-578v133h578v-133z" />
    <glyph glyph-name="uni208C" unicode="&#x208c;" horiz-adv-x="790" 
d="M684 459h-578v131h578v-131zM684 227h-578v133h578v-133z" />
    <glyph glyph-name="uni208D" unicode="&#x208d;" horiz-adv-x="346" 
d="M199 409q0 -273 112 -513h-141q-117 203 -117 514q0 150 33 288t84 224h141q-112 -240 -112 -513z" />
    <glyph glyph-name="uni208E" unicode="&#x208e;" horiz-adv-x="346" 
d="M150 409q0 265 -113 513h139q51 -86 85 -224t34 -288q0 -313 -119 -514h-139q113 248 113 513z" />
    <glyph glyph-name="uni20A1" unicode="&#x20a1;" horiz-adv-x="1015" 
d="M713 1288q-16 47 -43 72l-310 -1098q16 -35 48 -59zM305 825q0 -319 17 -428l280 996q-27 6 -67 6q-145 0 -188 -127q-42 -128 -42 -447zM535 166q113 0 153 56t41 200l213 -29q2 -221 -82 -318t-317 -98q-59 0 -121 11l-23 -82h-75l26 98q-25 8 -55 27l-35 -125h-76
l49 174q-80 84 -111 249q-32 165 -32 453q0 461 92 633t361 172q63 0 112 -6l23 78h76l-27 -92q27 -8 57 -23l33 115h76l-45 -158q94 -88 94 -330l-194 -26l-275 -973q27 -6 62 -6z" />
    <glyph glyph-name="uni20A2" unicode="&#x20a2;" horiz-adv-x="1015" 
d="M860 762q-121 0 -211 -123v-485q84 14 115 74t33 194l145 -29q2 -221 -82 -318t-317 -98q-269 1 -361 173t-92 632t92 633q92 172 361 172q233 0 317 -97t82 -319l-213 -28q-2 143 -42 199t-152 57q-145 0 -187 -127q-42 -126 -43 -478q0 -352 36 -485t157 -155v524
l-6 264h126l13 -125q88 147 225 148q49 0 86 -19l-12 -192q-25 8 -70 8z" />
    <glyph glyph-name="franc" unicode="&#x20a3;" horiz-adv-x="913" 
d="M438 993h307v-143h-307v-135h307v-144h-307v-571h-215v571h-139v144h139v135h-139v143h139v572h635v-193h-420v-379z" />
    <glyph glyph-name="lira" unicode="&#x20a4;" horiz-adv-x="1097" 
d="M764 535h-311v-340h569v-195h-938v195h158v340h-158v143h158v137h-158v141h158v222q0 108 13 176t52 125q75 110 320 109t319 -109q39 -57 52 -125t14 -176l-211 -29q0 145 -31 201q-32 56 -144 57q-112 0 -143 -56t-30 -202v-193h311v-141h-311v-137h311v-143z" />
    <glyph glyph-name="uni20A6" unicode="&#x20a6;" horiz-adv-x="1282" 
d="M410 1192l2 -199h63zM889 373l-2 198h-64zM731 850l19 -49l26 -86h109l-2 135h-152zM522 850h-108l4 -135h149zM883 993v572h194v-572h140v-143h-140v-135h140v-144h-140v-571h-250l-206 571h-203v-571h-195v571h-139v144h139v135h-139v143h139v572h250l207 -572h203z
" />
    <glyph glyph-name="peseta" unicode="&#x20a7;" horiz-adv-x="2326" 
d="M334 768h166q104 0 151 66t47 234t-47 237q-47 68 -151 67h-166v-604zM1870 141q98 0 136 42t38 127t-44 118t-151 55q-88 11 -139 27q-129 39 -166 138q-20 56 -20 143q0 317 364 317q211 0 281 -72t69 -239l-208 -29q0 90 -28 133t-107 43t-111 -39t-33 -117
q0 -78 33 -106t131 -51q92 -15 145 -29q54 -14 106 -47q101 -64 100 -240t-100 -257t-304 -81t-277 70q-92 -70 -244 -70q-299 0 -299 267v665h-137q-29 -190 -129 -262t-264 -72h-178v-575h-217v1565h395q190 -1 296 -103t110 -377h124v287l211 6v-293h209v-176h-209v-637
q0 -115 125 -114q92 0 144 53q-2 27 -2 88l190 25q0 -94 31 -138t129 -45z" />
    <glyph glyph-name="uni20A8" unicode="&#x20a8;" horiz-adv-x="1796" 
d="M334 786h166q104 0 151 66t47 228t-48 227q-48 66 -150 65h-166v-586zM1212 141q180 0 240 40q59 40 59 127t-44 120t-150 55q-88 11 -139 27q-131 40 -166 138q-20 56 -21 143q0 317 367 317q212 0 280 -71t68 -240l-209 -29q0 90 -28 133t-109 43q-141 0 -141 -156
q1 -78 33 -106t132 -51q182 -27 266 -87t85 -236q0 -176 -120 -253q-120 -78 -407 -78q-288 0 -440 154t-248 463h-186v-594h-217v1565h395q190 -1 298 -107t108 -379q0 -356 -203 -448q157 -490 497 -490z" />
    <glyph glyph-name="uni20A9" unicode="&#x20a9;" horiz-adv-x="1533" 
d="M483 571h-55l29 -299l86 578h-140l13 -135h67v-144zM1051 571v144h67l12 135h-139l86 -578l27 299h-53zM782 993h27l-41 295l-82 -573h162l-19 135h-47v143zM84 571v144h141l-14 135h-127v143h111l-64 572h207l51 -572h174l86 572h236l84 -572h174l55 572h205l-64 -572
h111v-143h-127l-14 -135h141v-144h-158l-65 -587h-275l-84 587h-202l-84 -587h-275l-65 587h-158z" />
    <glyph glyph-name="uni20AA" unicode="&#x20aa;" horiz-adv-x="1204" 
d="M719 0h-295v1257h123v-1071h172q90 0 131 41t41 131v1207h196v-1215q1 -350 -368 -350zM117 1565h293q369 0 368 -351v-907h-121v899q0 90 -41 131t-131 41h-172v-1378h-196v1565z" />
    <glyph glyph-name="Euro" unicode="&#x20ac;" horiz-adv-x="1116" 
d="M644 166q116 0 156 56t42 200l213 -29q2 -221 -82 -318q-83 -97 -317 -97t-332 126q-98 127 -117 447h-139v145h135v172h-135v146h139q19 319 117 446t331 127t317 -97t83 -319l-213 -28q-2 143 -42 199t-156 56t-163 -84q-47 -85 -57 -300h426l-41 -146h-389v-172h338
l-41 -145h-293q10 -215 57 -300t163 -85z" />
    <glyph glyph-name="uni20AE" unicode="&#x20ae;" horiz-adv-x="854" 
d="M319 1372h-243v193h702v-193h-243v-385l192 107v-148l-192 -106v-144l192 107v-148l-192 -106v-549h-216v432l-178 -98v145l178 99v145l-178 -98v145l178 98v504z" />
    <glyph glyph-name="uni20B1" unicode="&#x20b1;" horiz-adv-x="1230" 
d="M608 1362h-166v-92h330q-41 92 -164 92zM442 758h166q123 0 164 92h-330v-92zM442 1128v-135h363l2 68l-2 67h-363zM1149 993v-143h-143q-38 -166 -136 -230t-249 -65h-179v-555h-217v850h-141v143h141v135h-141v142h141v295h396q151 0 249 -66t136 -229h143v-142h-125
l2 -67l-2 -68h125z" />
    <glyph glyph-name="afii61289" unicode="&#x2113;" horiz-adv-x="847" 
d="M387 1155v-354q78 88 132 220t54 259t-81 127q-105 0 -105 -252zM524 -27q-170 0 -252 69t-94 206v147l-112 -76v189q51 33 106 78v508q0 498 315 497q258 0 258 -313q0 -215 -105 -409t-253 -334v-218q0 -85 31 -115q32 -30 110 -35t150 32l20 -197q-74 -29 -174 -29z
" />
    <glyph glyph-name="published" unicode="&#x2117;" horiz-adv-x="1884" 
d="M305 799q1 -265 187 -451t450 -186t451 186q186 186 186 450t-186 451q-187 187 -451 187t-450 -186t-187 -451zM797 647v-348h-179v999h404q145 0 244 -75q98 -76 98 -248q0 -132 -46 -192q-26 -35 -50 -59t-67 -38q-44 -14 -91 -29t-171 -12q-124 2 -142 2zM797 823
h227q156 0 156 152q0 63 -28 98t-60 43t-80 8h-215v-301zM119 799q-1 341 241 581t582 240t581 -241t241 -581t-242 -580q-240 -241 -581 -241t-582 241q-240 241 -240 581z" />
    <glyph glyph-name="servicemark" unicode="&#x2120;" horiz-adv-x="1177" 
d="M252 1034q-201 0 -219 166l96 10q14 -86 123 -86q43 0 80 23t37 61t-26 56q-27 18 -105 26t-132 40q-53 32 -53 112q-1 80 55 122t142 42q195 0 213 -160l-94 -8q-14 80 -119 80q-37 0 -68 -18q-30 -18 -30 -54q0 -35 22 -50q22 -14 107 -24q86 -10 135 -43t49 -119
q-1 -86 -63 -131t-150 -45zM1096 1597v-553h-95v271l3 94l-142 -365h-82l-141 365l2 -94v-271h-94v553h115l124 -319l35 -98l35 98l125 319h115z" />
    <glyph glyph-name="trademark" unicode="&#x2122;" horiz-adv-x="1177" 
d="M287 1505v-461h-99v461h-163v92h428v-92h-166zM1081 1597v-553h-94v271l2 94l-141 -365h-82l-141 365l2 -94v-271h-95v553h115l125 -319l35 -98l35 98l125 319h114z" />
    <glyph glyph-name="ohm" unicode="&#x2126;" horiz-adv-x="1474" 
d="M737 1393q-207 0 -325 -125t-117 -349q0 -224 102 -419t250 -324v-176h-586v197h172l189 -4q-146 149 -242 347t-96 406q0 293 175 469t478 176t478 -176t176 -469q-1 -208 -97 -406t-241 -347l188 4h172v-197h-586v176q147 129 250 324t103 419t-118 349t-325 125z" />
    <glyph glyph-name="estimated" unicode="&#x212e;" horiz-adv-x="1699" 
d="M850 1464q-256 0 -380 -168t-136 -432h1034q-12 250 -127 418q-59 86 -159 134t-232 48zM1649 717h-1317q14 -264 139 -429t379 -168q254 -2 406 106t178 309h184q-82 -559 -784 -561q-340 0 -562 222q-222 224 -221 595q0 371 221 593q222 222 578 224q356 0 577 -224
t222 -593v-74z" />
    <glyph glyph-name="uni2153" unicode="&#x2153;" horiz-adv-x="1527" 
d="M1236 113q50 0 71 29q20 30 20 97q-1 67 -23 91t-65 24h-70v129h70q33 0 49 22q16 23 16 87t-14 88t-59 25q-45 0 -61 -30t-15 -108l-139 19q2 129 47 186t165 57t170 -50t50 -185t-82 -170q104 -29 104 -203q0 -115 -54 -174t-185 -59t-176 61t-45 189l139 20
q0 -80 18 -113q19 -32 69 -32zM285 0l798 1565h160l-799 -1565h-159zM526 760h-450v129h153v491q-55 -70 -166 -100v145q127 37 193 164h115v-700h155v-129z" />
    <glyph glyph-name="uni2154" unicode="&#x2154;" horiz-adv-x="1527" 
d="M1236 113q50 0 71 29q20 30 20 97q-1 67 -23 91t-65 24h-70v129h70q33 0 49 22q16 23 16 87t-14 88t-59 25q-45 0 -61 -30t-15 -108l-139 19q2 129 47 186t165 57t170 -50t50 -185t-82 -170q104 -29 104 -203q0 -115 -54 -174t-185 -59t-176 61t-45 189l139 20
q0 -80 18 -113q19 -32 69 -32zM285 0l798 1565h160l-799 -1565h-159zM289 1464q-43 0 -60 -31q-16 -32 -16 -112l-143 18q2 135 44 193t172 57q130 0 175 -51q45 -52 45 -164t-35 -160t-129 -111t-114 -101t-19 -115h305v-127h-455q0 115 4 168t25 104q20 51 54 81t104 76
t94 78t22 90q0 59 -15 83t-58 24z" />
    <glyph glyph-name="uni2155" unicode="&#x2155;" horiz-adv-x="1527" 
d="M1239 113q88 0 88 157q0 94 -19 129q-18 35 -72 35t-87 -67l-121 16l21 434h395v-129h-270l-11 -194q53 61 136 61t127 -63q44 -62 44 -218t-57 -222t-180 -64q-123 0 -172 56t-49 183l143 19q0 -74 17 -104q18 -29 67 -29zM285 0l798 1565h160l-799 -1565h-159zM526 760
h-450v129h153v491q-55 -70 -166 -100v145q127 37 193 164h115v-700h155v-129z" />
    <glyph glyph-name="uni2156" unicode="&#x2156;" horiz-adv-x="1527" 
d="M1239 113q88 0 88 157q0 94 -19 129q-18 35 -72 35t-87 -67l-121 16l21 434h395v-129h-270l-11 -194q53 61 136 61t127 -63q44 -62 44 -218t-57 -222t-180 -64q-123 0 -172 56t-49 183l143 19q0 -74 17 -104q18 -29 67 -29zM285 0l798 1565h160l-799 -1565h-159z
M289 1464q-43 0 -60 -31q-16 -32 -16 -112l-143 18q2 135 44 193t172 57q130 0 175 -51q45 -52 45 -164t-35 -160t-129 -111t-114 -101t-19 -115h305v-127h-455q0 115 4 168t25 104q20 51 54 81t104 76t94 78t22 90q0 59 -15 83t-58 24z" />
    <glyph glyph-name="uni2157" unicode="&#x2157;" horiz-adv-x="1527" 
d="M1239 113q88 0 88 157q0 94 -19 129q-18 35 -72 35t-87 -67l-121 16l21 434h395v-129h-270l-11 -194q53 61 136 61t127 -63q44 -62 44 -218t-57 -222t-180 -64q-123 0 -172 56t-49 183l143 19q0 -74 17 -104q18 -29 67 -29zM285 0l798 1565h160l-799 -1565h-159zM284 872
q50 0 70 30t20 96t-22 92q-23 25 -65 24h-70v129h70q33 0 49 22q16 21 16 87t-14 90t-59 22q-45 0 -61 -29q-15 -30 -15 -108l-140 19q1 129 47 186t167 57t169 -49t50 -185q0 -136 -82 -171q104 -29 104 -203q0 -115 -54 -174t-185 -59t-177 61q-45 61 -45 188l140 21
q1 -80 19 -113t68 -33z" />
    <glyph glyph-name="uni2158" unicode="&#x2158;" horiz-adv-x="1527" 
d="M1239 113q88 0 88 157q0 94 -19 129q-18 35 -72 35t-87 -67l-121 16l21 434h395v-129h-270l-11 -194q53 61 136 61t127 -63q44 -62 44 -218t-57 -222t-180 -64q-123 0 -172 56t-49 183l143 19q0 -74 17 -104q18 -29 67 -29zM285 0l798 1565h160l-799 -1565h-159z
M319 1069l7 342l-152 -346zM528 940h-71v-180h-138v180h-272v115l240 534h170v-520h71v-129z" />
    <glyph glyph-name="uni2159" unicode="&#x2159;" horiz-adv-x="1527" 
d="M1255 420q-35 0 -54 -18t-42 -64q1 -127 19 -177t64 -50t63 34q16 35 16 120t-15 120q-16 35 -51 35zM1237 707q-49 -1 -63 -51t-15 -203q49 92 145 92q96 -1 129 -63t33 -210t-50 -217q-50 -67 -182 -67t-176 89t-44 327t45 331q45 94 177 94t177 -51t47 -162l-143 -18
q-3 61 -17 85t-63 24zM285 0l798 1565h160l-799 -1565h-159zM526 760h-450v129h153v491q-55 -70 -166 -100v145q127 37 193 164h115v-700h155v-129z" />
    <glyph glyph-name="uni215A" unicode="&#x215a;" horiz-adv-x="1527" 
d="M1255 420q-35 0 -54 -18t-42 -64q1 -127 19 -177t64 -50t63 34q16 35 16 120t-15 120q-16 35 -51 35zM1237 707q-49 -1 -63 -51t-15 -203q49 92 145 92q96 -1 129 -63t33 -210t-50 -217q-50 -67 -182 -67t-176 89t-44 327t45 331q45 94 177 94t177 -51t47 -162l-143 -18
q-3 61 -17 85t-63 24zM285 0l798 1565h160l-799 -1565h-159zM287 872q88 0 88 158q1 94 -19 129t-73 35t-86 -68l-121 17l20 434h396v-129h-271l-10 -195q51 61 135 61t128 -62q44 -64 44 -219t-57 -221t-180 -64q-123 0 -172 56t-50 183l144 19q-1 -74 17 -104t67 -30z" />
    <glyph glyph-name="uni215B" unicode="&#x215b;" horiz-adv-x="1527" 
d="M1240 -12q-130 0 -183 57t-53 170q0 164 100 209q-39 14 -63 62t-23 118q0 123 50 174t172 51t172 -51t50 -174q0 -70 -24 -118t-62 -62q100 -45 101 -209q1 -113 -53 -170t-184 -57zM1240 360q-48 0 -73 -26t-25 -93q0 -68 23 -98q23 -29 76 -28q96 0 96 121
q0 74 -24 99q-25 25 -73 25zM1240 700q-44 0 -62 -24t-19 -86q0 -113 81 -113t81 113q0 61 -18 86q-19 24 -63 24zM285 0l798 1565h160l-799 -1565h-159zM526 760h-450v129h153v491q-55 -70 -166 -100v145q127 37 193 164h115v-700h155v-129z" />
    <glyph glyph-name="uni215C" unicode="&#x215c;" horiz-adv-x="1527" 
d="M1240 -12q-130 0 -183 57t-53 170q0 164 100 209q-39 14 -63 62t-23 118q0 123 50 174t172 51t172 -51t50 -174q0 -70 -24 -118t-62 -62q100 -45 101 -209q1 -113 -53 -170t-184 -57zM1240 360q-48 0 -73 -26t-25 -93q0 -68 23 -98q23 -29 76 -28q96 0 96 121
q0 74 -24 99q-25 25 -73 25zM1240 700q-44 0 -62 -24t-19 -86q0 -113 81 -113t81 113q0 61 -18 86q-19 24 -63 24zM285 0l798 1565h160l-799 -1565h-159zM284 872q50 0 70 30t20 96t-22 92q-23 25 -65 24h-70v129h70q33 0 49 22q16 21 16 87t-14 90t-59 22q-45 0 -61 -29
q-15 -30 -15 -108l-140 19q1 129 47 186t167 57t169 -49t50 -185q0 -136 -82 -171q104 -29 104 -203q0 -115 -54 -174t-185 -59t-177 61q-45 61 -45 188l140 21q1 -80 19 -113t68 -33z" />
    <glyph glyph-name="uni215D" unicode="&#x215d;" horiz-adv-x="1527" 
d="M1240 -12q-130 0 -183 57t-53 170q0 164 100 209q-39 14 -63 62t-23 118q0 123 50 174t172 51t172 -51t50 -174q0 -70 -24 -118t-62 -62q100 -45 101 -209q1 -113 -53 -170t-184 -57zM1240 360q-48 0 -73 -26t-25 -93q0 -68 23 -98q23 -29 76 -28q96 0 96 121
q0 74 -24 99q-25 25 -73 25zM1240 700q-44 0 -62 -24t-19 -86q0 -113 81 -113t81 113q0 61 -18 86q-19 24 -63 24zM285 0l798 1565h160l-799 -1565h-159zM287 872q88 0 88 158q1 94 -19 129t-73 35t-86 -68l-121 17l20 434h396v-129h-271l-10 -195q51 61 135 61t128 -62
q44 -64 44 -219t-57 -221t-180 -64q-123 0 -172 56t-50 183l144 19q-1 -74 17 -104t67 -30z" />
    <glyph glyph-name="uni215E" unicode="&#x215e;" horiz-adv-x="1445" 
d="M1158 700q-44 0 -62 -24t-19 -86q0 -113 81 -113t81 113q0 61 -18 86q-19 24 -63 24zM1158 360q-48 0 -73 -26t-25 -93q0 -68 23 -98q23 -29 76 -28q96 0 96 121q0 74 -24 99q-25 25 -73 25zM61 1448v129h455v-88l-223 -729h-156l178 536l54 152h-308zM203 0l798 1565
h160l-799 -1565h-159zM1158 -12q-130 0 -183 57t-53 170q0 164 100 209q-39 14 -63 62t-23 118q0 123 50 174t172 51t172 -51t50 -174q0 -70 -24 -118t-62 -62q100 -45 101 -209q1 -113 -53 -170t-184 -57z" />
    <glyph glyph-name="uni215F" unicode="&#x215f;" horiz-adv-x="993" 
d="M285 0l798 1565h160l-799 -1565h-159zM526 760h-450v129h153v491q-55 -70 -166 -100v145q127 37 193 164h115v-700h155v-129z" />
    <glyph glyph-name="arrowleft" unicode="&#x2190;" horiz-adv-x="1802" 
d="M1700 901v-205h-905l-320 6l475 -288v-244l-874 563v131l874 563v-243l-475 -289l320 6h905z" />
    <glyph glyph-name="arrowup" unicode="&#x2191;" horiz-adv-x="1802" 
d="M1004 0h-205v905l6 322l-289 -477h-244l562 874h135l561 -874h-244l-289 477l7 -322v-905z" />
    <glyph glyph-name="arrowright" unicode="&#x2192;" horiz-adv-x="1802" 
d="M102 696v205h906l319 -6l-475 289v243l874 -563v-131l-874 -563v244l475 288l-319 -6h-906z" />
    <glyph glyph-name="arrowdown" unicode="&#x2193;" horiz-adv-x="1802" 
d="M799 1597h205v-905l-7 -321l289 477h244l-561 -875h-135l-562 875h244l289 -477l-6 321v905z" />
    <glyph glyph-name="uni2196" unicode="&#x2196;" horiz-adv-x="1802" 
d="M455 686l-170 -172l-222 1016l93 94l1018 -221l-173 -170l-540 131l229 -223l641 -639l-145 -146l-639 641l-223 230z" />
    <glyph glyph-name="uni2197" unicode="&#x2197;" horiz-adv-x="1802" 
d="M1518 514l-170 172l131 541l-224 -230l-639 -641l-145 146l641 639l229 223l-540 -131l-172 170l1018 221l92 -94z" />
    <glyph glyph-name="uni2198" unicode="&#x2198;" horiz-adv-x="1802" 
d="M1348 922l170 172l221 -1018l-92 -92l-1018 221l172 170l540 -131l-229 223l-641 639l145 145l639 -641l224 -229z" />
    <glyph glyph-name="uni2199" unicode="&#x2199;" horiz-adv-x="1802" 
d="M285 1094l170 -172l-131 -541l223 229l639 641l145 -145l-641 -639l-229 -223l540 131l173 -170l-1018 -221l-93 92z" />
    <glyph glyph-name="partialdiff" unicode="&#x2202;" horiz-adv-x="1480" 
d="M978 738q-116 95 -276 93q-160 -1 -250 -81t-92 -247q0 -167 104 -249t257 -84q291 -6 366 266v35q6 172 -109 267zM1343 776q1 -402 -151 -602t-471 -201q-260 -1 -423 139t-163 395t140 388t399 133q135 0 264 -59t182 -187l2 37v35q6 279 -123 418t-335 140t-388 -114
l-92 172q219 137 480 138q328 0 504 -215t175 -617z" />
    <glyph glyph-name="increment" unicode="&#x2206;" horiz-adv-x="1802" 
d="M995 1057l-94 207l-94 -207l-410 -862l201 4h606l201 -4zM129 0v104l711 1481h123l710 -1481v-104h-1544z" />
    <glyph glyph-name="product" unicode="&#x220f;" horiz-adv-x="1626" 
d="M1098 1366h-570v-1366h-225v1366h-227v199h1474v-199h-227v-1366h-225v1366z" />
    <glyph glyph-name="summation" unicode="&#x2211;" horiz-adv-x="1433" 
d="M188 1565h1090v-199h-424l-328 2l564 -496v-139l-594 -536l327 2h498v-199h-1178v182l707 619l-662 571v193z" />
    <glyph glyph-name="minus" unicode="&#x2212;" horiz-adv-x="1474" 
d="M1290 702h-1106v193h1106v-193z" />
    <glyph glyph-name="radical" unicode="&#x221a;" horiz-adv-x="1693" 
d="M784 467l625 1098h246l-910 -1575h-233l-209 878l-221 -49v205l379 88l141 -625l55 -258z" />
    <glyph glyph-name="infinity" unicode="&#x221e;" horiz-adv-x="1679" 
d="M1378 799q0 88 -51 128t-131 38q-145 -8 -258 -166q113 -158 258 -166q80 -4 131 37t51 129zM485 471q-160 0 -255 85t-95 243q0 159 95 243t255 84q186 0 355 -194q164 195 354 194q160 0 255 -85t95 -243t-95 -242q-95 -85 -255 -85q-192 0 -354 195
q-166 -195 -355 -195zM301 799q0 -88 51 -128t133 -38q143 8 256 166q-113 158 -256 166q-80 4 -132 -37t-52 -129z" />
    <glyph glyph-name="integral" unicode="&#x222b;" horiz-adv-x="567" 
d="M393 1219v-1244q0 -174 -71 -281q-86 -130 -332 -130q-102 0 -172 28l22 199q66 -39 154 -34t134 49t46 165v1243q0 178 72 283q87 129 332 129q102 0 172 -29l-23 -198q-63 41 -151 36t-136 -50t-47 -166z" />
    <glyph glyph-name="approxequal" unicode="&#x2248;" horiz-adv-x="1474" 
d="M994 651q78 0 134 30q55 31 80 55t29 32l90 -160q-12 -16 -36 -41q-25 -25 -107 -65t-192 -39q-110 0 -272 71q-161 71 -261 70q-57 0 -113 -30t-80 -54q-25 -24 -28 -33l-91 160q12 16 36 41t107 65q84 40 194 40t271 -71t239 -71zM994 997q78 0 134 30q55 31 80 55
t29 32l90 -160q-12 -16 -36 -41q-25 -25 -107 -65t-192 -39q-110 0 -272 71q-161 71 -261 70q-57 0 -113 -30t-80 -54q-25 -25 -28 -32l-91 159q12 16 36 41t107 65q84 40 194 40t271 -71t239 -71z" />
    <glyph glyph-name="notequal" unicode="&#x2260;" horiz-adv-x="1474" 
d="M184 508v192h396l122 197h-518v193h639l131 208h193l-131 -208h274v-193h-395l-123 -197h498v-192h-619l-131 -209h-192l131 209h-275z" />
    <glyph glyph-name="equivalence" unicode="&#x2261;" horiz-adv-x="1474" 
d="M184 1159v193h1106v-193h-1106zM184 246v192h1106v-192h-1106zM184 702v193h1106v-193h-1106z" />
    <glyph glyph-name="lessequal" unicode="&#x2264;" horiz-adv-x="1474" 
d="M457 942v-2l176 -39l657 -182v-207l-1106 322v210l1106 342v-206l-657 -197zM1290 209l-1106 344v164l1106 -340v-168z" />
    <glyph glyph-name="greaterequal" unicode="&#x2265;" horiz-adv-x="1474" 
d="M1018 940v2l-176 41l-658 197v206l1106 -342v-210l-1106 -322v207l658 182zM1290 553l-1106 -344v168l1106 340v-164z" />
    <glyph glyph-name="squaremultiply" unicode="&#x22a0;" horiz-adv-x="2048" 
d="M473 383l416 416l-416 415l135 136l416 -416l416 416l135 -136l-416 -415l416 -416l-135 -135l-416 416l-416 -416zM1618 1401h-1188v-1204h1188v1204zM225 0v1597h1598v-1597h-1598z" />
    <glyph glyph-name="house" unicode="&#x2302;" horiz-adv-x="1781" 
d="M1618 0h-1454v922l727 696l727 -696v-922z" />
    <glyph glyph-name="blacksquare" unicode="&#x25a0;" horiz-adv-x="2048" 
d="M1823 1597v-1597h-1598v1597h1598z" />
    <glyph glyph-name="whitesquare" unicode="&#x25a1;" horiz-adv-x="2048" 
d="M1618 1401h-1188v-1204h1188v1204zM225 0v1597h1598v-1597h-1598z" />
    <glyph glyph-name="blacksmallsquare" unicode="&#x25aa;" horiz-adv-x="1536" 
d="M1311 1085v-1085h-1086v1085h1086z" />
    <glyph glyph-name="whitesmallsquare" unicode="&#x25ab;" horiz-adv-x="1536" 
d="M1106 889h-676v-692h676v692zM225 0v1085h1086v-1085h-1086z" />
    <glyph glyph-name="triagup" unicode="&#x25b2;" horiz-adv-x="1781" 
d="M1690 0h-1598l799 1618z" />
    <glyph glyph-name="triagrt" unicode="&#x25ba;" horiz-adv-x="1781" 
d="M102 0v1597l1618 -798z" />
    <glyph glyph-name="triagdn" unicode="&#x25bc;" horiz-adv-x="1781" 
d="M92 1597h1598l-799 -1617z" />
    <glyph glyph-name="triaglf" unicode="&#x25c4;" horiz-adv-x="1781" 
d="M1679 1597v-1597l-1618 799z" />
    <glyph glyph-name="lozenge" unicode="&#x25ca;" horiz-adv-x="1884" 
d="M469 799l473 -523l473 523l-473 522zM942 -20l-754 819l754 819l754 -819z" />
    <glyph glyph-name="whitecircle" unicode="&#x25cb;" horiz-adv-x="2048" 
d="M1634 799q0 268 -173 448t-437 180t-437 -180t-173 -448q0 -269 173 -449t437 -180t437 180t173 449zM205 799q-1 339 239 579t580 240t580 -240t240 -580t-240 -579t-580 -239t-580 239q-239 240 -239 580z" />
    <glyph glyph-name="whitecircle" unicode="&#x25ef;" horiz-adv-x="2048" 
d="M1634 799q0 268 -173 448t-437 180t-437 -180t-173 -448q0 -269 173 -449t437 -180t437 180t173 449zM205 799q-1 339 239 579t580 240t580 -240t240 -580t-240 -579t-580 -239t-580 239q-239 240 -239 580z" />
    <glyph glyph-name="bullseye" unicode="&#x25ce;" horiz-adv-x="2007" 
d="M342 694q0 -231 163 -394t394 -163t395 163t164 394q0 232 -164 396t-395 164t-394 -165q-163 -164 -163 -395zM696 799q0 127 90 217t218 90t217 -90q90 -90 90 -217t-90 -217t-217 -90t-218 90q-90 90 -90 217zM184 799q0 339 240 579t580 240t580 -240t239 -580
q0 -340 -240 -579q-239 -239 -579 -239t-580 240t-240 579z" />
    <glyph glyph-name="blackcircle" unicode="&#x25cf;" horiz-adv-x="2048" 
d="M205 799q-1 339 239 579t580 240t580 -240t240 -580t-240 -579t-580 -239t-580 239q-239 240 -239 580z" />
    <glyph glyph-name="uni25E2" unicode="&#x25e2;" horiz-adv-x="1781" 
d="M82 489l1128 1129l510 -1638z" />
    <glyph glyph-name="uni25E3" unicode="&#x25e3;" horiz-adv-x="1781" 
d="M571 1618l1129 -1129l-1639 -509z" />
    <glyph glyph-name="uni25E4" unicode="&#x25e4;" horiz-adv-x="1781" 
d="M1700 1108l-1129 -1128l-510 1638z" />
    <glyph glyph-name="uni25E5" unicode="&#x25e5;" horiz-adv-x="1781" 
d="M1210 -20l-1128 1128l1638 510z" />
    <glyph glyph-name="uni2605" unicode="&#x2605;" horiz-adv-x="1843" 
d="M922 369l-533 -389l203 628l-533 387h660l203 627l202 -627h660l-533 -387l203 -628z" />
    <glyph glyph-name="ballotboxwithx" unicode="&#x2612;" horiz-adv-x="1536" 
d="M1106 889h-676v-692h676v692zM225 0v1085h1086v-1085h-1086zM473 383l160 160l-160 159l135 136l160 -160l160 160l135 -136l-160 -159l160 -160l-135 -135l-160 160l-160 -160z" />
    <glyph glyph-name="uni263C" unicode="&#x263c;" horiz-adv-x="2007" 
d="M1823 799l-346 -62l317 -149l-350 30l270 -229l-332 121l201 -289l-289 201l119 -332l-227 266l31 -348l-152 318l-61 -346l-62 346l-151 -318l30 348l-227 -266l119 332l-289 -201l201 289l-332 -121l270 229l-350 -30l317 149l-346 62l346 61l-317 150l350 -31
l-270 229l332 -121l-201 289l289 -200l-119 331l227 -266l-30 348l151 -317l62 346l61 -346l152 317l-31 -348l227 266l-119 -331l289 200l-201 -289l332 121l-270 -229l350 31l-317 -150z" />
    <glyph glyph-name="uni263E" unicode="&#x263e;" horiz-adv-x="2007" 
d="M1298 1491q-285 0 -474 -196q-189 -197 -189 -497t189 -496t474 -196q102 0 197 31q-219 -158 -491 -157q-340 0 -580 240t-240 579t240 579t580 240q268 0 491 -158q-107 31 -197 31z" />
    <glyph glyph-name="spade" unicode="&#x2660;" horiz-adv-x="1884" 
d="M1757 682q0 -148 -104 -251q-105 -103 -251 -103t-252 94q-105 94 -163 235l-6 -2q16 -209 54 -356t114 -299h-414q76 152 114 299t54 356l-6 2q-57 -141 -163 -235t-252 -94q-147 0 -251 103t-104 251t88 254q89 106 241 206t285 238q133 139 199 238h4q66 -98 199 -238
t285 -238q152 -100 241 -206q88 -106 88 -254z" />
    <glyph glyph-name="club" unicode="&#x2663;" horiz-adv-x="1884" 
d="M482 328q-147 0 -251 103t-104 259t99 259t257 104q82 0 172 -47l4 4q-78 117 -77 239q0 153 103 261t257 108t257 -108t103 -246t-77 -254l4 -4q90 47 172 47q158 1 257 -103t99 -260t-104 -259q-105 -103 -251 -103t-252 94q-105 94 -163 235l-6 -2q16 -209 54 -356
t114 -299h-414q76 152 114 299t54 356l-6 2q-57 -141 -163 -235t-252 -94z" />
    <glyph glyph-name="heart" unicode="&#x2665;" horiz-adv-x="1884" 
d="M127 1196q0 184 106 303q107 119 283 119t274 -87t148 -235h8q50 146 148 234t274 88t282 -119t107 -303q0 -238 -336 -616q-150 -170 -285 -341t-192 -259h-4q-57 88 -192 259t-285 341q-336 379 -336 616z" />
    <glyph glyph-name="diamond" unicode="&#x2666;" horiz-adv-x="1884" 
d="M1694 799q-217 -170 -415 -386t-335 -433h-4q-137 217 -335 433t-415 386q217 170 415 386t335 433h4q137 -217 335 -433t415 -386z" />
    <glyph glyph-name="musicflatsign" unicode="&#x266d;" horiz-adv-x="1038" 
d="M788 711q0 240 -219 239q-102 0 -183 -80t-95 -174v-581q163 63 316 201q81 72 131 176t50 219zM147 1681h144v-727q39 66 125 112t170 46q369 0 368 -391q0 -186 -117 -361q-119 -174 -299 -292t-391 -181v1794z" />
    <glyph glyph-name="musicsharpsign" unicode="&#x266f;" horiz-adv-x="995" 
d="M375 877v-353l246 195v354zM762 1802v-395l172 137v-219l-172 -137v-354l172 139v-219l-172 -140v-614h-141v500l-246 -195v-510h-142v395l-172 -137v219l172 138v354l-172 -139v219l172 139v614h142v-501l246 196v510h141z" />
    <glyph glyph-name="uni267B" unicode="&#x267b;" horiz-adv-x="2007" 
d="M1671 1079l141 -239q20 -37 21 -90q2 -98 -78 -178t-151 -80l-238 411zM934 84h-277q-45 0 -90 27q-87 51 -117 163t9 164h475v-354zM430 1225l137 243q20 35 70 64q95 49 199 20t139 -92l-238 -411zM848 1597h395q49 -2 74 -5q25 -4 57 -26t58 -65l57 -100l88 49
l-125 -340l-354 64l84 49l-148 256q-28 47 -74 77t-79 33l-33 6v2zM401 250h-4l-196 344q-23 44 -31 66q-25 70 23 145l57 100l-86 49l356 64l121 -340l-84 49q-143 -246 -147 -256q-27 -47 -29 -102t8 -86zM1413 84h-117v-100l-231 278l231 277v-101h297q53 0 103 27t69 53
l23 27l2 -4l-197 -342q-31 -45 -44 -61t-49 -36q-36 -18 -87 -18z" />
    <glyph glyph-name="uni267C" unicode="&#x267c;" horiz-adv-x="2007" 
d="M1456 522h-229v78l-180 -215l180 -215v78h90q57 0 85 22t54 66l154 266l-2 2q-24 -32 -67 -57q-44 -25 -85 -25zM1626 834l-108 186l-238 -137l184 -320q56 -1 118 61t60 140q0 41 -16 70zM530 377h2q-41 90 7 172l114 199l66 -39l-94 264l-277 -49l68 -39l-45 -78
q-21 -33 -23 -65t4 -48t25 -51zM723 248h215v274h-369q-31 -41 -7 -128t91 -126q35 -20 70 -20zM870 1421v-2q98 -10 146 -90l114 -199l-65 -38l274 -50l97 265l-68 -39l-45 78q-29 49 -60 62q-32 13 -85 13h-308zM662 1321l-107 -188l238 -138l184 320q-27 49 -108 71
t-154 -16q-37 -22 -53 -49zM184 798q0 340 240 580t581 240t579 -240t239 -580q0 -341 -239 -580q-240 -238 -580 -238t-580 238t-240 580z" />
    <glyph glyph-name="uni267D" unicode="&#x267d;" horiz-adv-x="2007" 
d="M1317 248h-90v-78l-180 215l180 215v-78h229q41 0 79 20t54 42l19 20l2 -2l-154 -266q-18 -31 -30 -46q-34 -42 -109 -42zM1518 1020l108 -186q16 -29 16 -70q2 -78 -60 -139t-118 -62l-184 320zM532 377h-2l-153 266q-18 35 -25 51q-6 16 -4 48t23 65l45 78l-68 39
l277 49l94 -264l-66 39l-114 -199q-21 -37 -23 -80t8 -68zM938 248h-215q-35 0 -70 20q-68 39 -91 126q-24 87 7 128h369v-274zM870 1421h308q53 0 85 -13t60 -62l45 -78l68 39l-97 -265l-274 50l65 38l-114 199q-20 35 -58 57t-61 27l-27 6v2zM555 1133l107 188
q16 27 53 49q75 37 155 15t107 -70l-184 -320zM1782 798q0 323 -228 551t-550 228t-550 -228t-228 -551t228 -550q228 -228 551 -228t550 228t227 550zM184 798q0 340 240 580t581 240t579 -240t239 -580q0 -341 -239 -580q-240 -238 -580 -238t-580 238t-240 580z" />
    <glyph glyph-name="anglebracketleft" unicode="&#x3008;" horiz-adv-x="598" 
d="M528 1700l-221 -983l221 -983h-209l-225 983l225 983h209z" />
    <glyph glyph-name="anglebracketright" unicode="&#x3009;" horiz-adv-x="598" 
d="M291 717l-221 983h209l225 -983l-225 -983h-209z" />
    <glyph glyph-name="aogonek.school" unicode="&#xe150;" horiz-adv-x="1001" 
d="M482 920q-112 0 -150 -88t-39 -290q0 -200 39 -288q38 -88 150 -88t204 125v504q-92 125 -204 125zM788 -436q-214 0 -239 184q-29 178 164 295l-8 76q-103 -141 -283 -141t-263 138q-83 140 -83 427t83 426t262 139t284 -141l12 118h186l-6 -264v-557l6 -264
q-90 -16 -144 -70t-51 -112q6 -113 107 -101q51 4 100 39l46 -141q-71 -51 -173 -51z" />
    <glyph glyph-name="a.school" unicode="&#xe151;" horiz-adv-x="1001" 
d="M76 543q0 287 83 426t262 139t284 -141l12 118h186l-6 -264v-557l6 -264h-186l-12 119q-103 -141 -283 -141t-263 138q-83 140 -83 427zM482 920q-112 0 -150 -88t-39 -290q0 -200 39 -288q38 -88 150 -88t204 125v504q-92 125 -204 125z" />
    <glyph glyph-name="agrave.school" unicode="&#xe152;" horiz-adv-x="1001" 
d="M266 1638h234l98 -426h-207zM76 543q0 287 83 426t262 139t284 -141l12 118h186l-6 -264v-557l6 -264h-186l-12 119q-103 -141 -283 -141t-263 138q-83 140 -83 427zM482 920q-112 0 -150 -88t-39 -290q0 -200 39 -288q38 -88 150 -88t204 125v504q-92 125 -204 125z" />
    <glyph glyph-name="aacute.school" unicode="&#xe153;" horiz-adv-x="1001" 
d="M479 1638h234l-125 -426h-207zM76 543q0 287 83 426t262 139t284 -141l12 118h186l-6 -264v-557l6 -264h-186l-12 119q-103 -141 -283 -141t-263 138q-83 140 -83 427zM482 920q-112 0 -150 -88t-39 -290q0 -200 39 -288q38 -88 150 -88t204 125v504q-92 125 -204 125z
" />
    <glyph glyph-name="acircumflex.school" unicode="&#xe154;" horiz-adv-x="1001" 
d="M346 1212h-172l197 426h237l197 -426h-172l-144 273zM76 543q0 287 83 426t262 139t284 -141l12 118h186l-6 -264v-557l6 -264h-186l-12 119q-103 -141 -283 -141t-263 138q-83 140 -83 427zM482 920q-112 0 -150 -88t-39 -290q0 -200 39 -288q38 -88 150 -88t204 125
v504q-92 125 -204 125z" />
    <glyph glyph-name="adieresis.school" unicode="&#xe155;" horiz-adv-x="1001" 
d="M801 1550v-227h-230v227h230zM408 1550v-227h-230v227h230zM76 543q0 287 83 426t262 139t284 -141l12 118h186l-6 -264v-557l6 -264h-186l-12 119q-103 -141 -283 -141t-263 138q-83 140 -83 427zM482 920q-112 0 -150 -88t-39 -290q0 -200 39 -288q38 -88 150 -88
t204 125v504q-92 125 -204 125z" />
    <glyph glyph-name="atilde.school" unicode="&#xe156;" horiz-adv-x="1001" 
d="M641 1253q-61 0 -115 38t-96 76q-80 71 -122 19q-17 -20 -21 -39t-6 -55l-152 21q8 133 58 211q51 78 139 76t174 -78q86 -74 124 -75t52 32t18 84l152 -21q-16 -289 -205 -289zM76 543q0 287 83 426t262 139t284 -141l12 118h186l-6 -264v-557l6 -264h-186l-12 119
q-103 -141 -283 -141t-263 138q-83 140 -83 427zM482 920q-112 0 -150 -88t-39 -290q0 -200 39 -288q38 -88 150 -88t204 125v504q-92 125 -204 125z" />
    <glyph glyph-name="aring.school" unicode="&#xe157;" horiz-adv-x="1001" 
d="M604 1425q0 119 -115 119t-115 -119t115 -118q115 -1 115 118zM250 1425q0 106 64 173q66 67 176 67t175 -67t65 -173t-66 -173q-64 -66 -175 -66t-175 66t-64 173zM76 543q0 287 83 426t262 139t284 -141l12 118h186l-6 -264v-557l6 -264h-186l-12 119
q-103 -141 -283 -141t-263 138q-83 140 -83 427zM482 920q-112 0 -150 -88t-39 -290q0 -200 39 -288q38 -88 150 -88t204 125v504q-92 125 -204 125z" />
    <glyph glyph-name="amacron.school" unicode="&#xe159;" horiz-adv-x="1001" 
d="M264 1348v194h451v-194h-451zM76 543q0 287 83 426t262 139t284 -141l12 118h186l-6 -264v-557l6 -264h-186l-12 119q-103 -141 -283 -141t-263 138q-83 140 -83 427zM482 920q-112 0 -150 -88t-39 -290q0 -200 39 -288q38 -88 150 -88t204 125v504q-92 125 -204 125z
" />
    <glyph glyph-name="abreve.school" unicode="&#xe15a;" horiz-adv-x="1001" 
d="M489 1208q-181 0 -245 106t-62 324h162q-2 -129 29 -188t117 -59t116 59q31 59 29 188h162q2 -218 -63 -324t-245 -106zM76 543q0 287 83 426t262 139t284 -141l12 118h186l-6 -264v-557l6 -264h-186l-12 119q-103 -141 -283 -141t-263 138q-83 140 -83 427zM482 920
q-112 0 -150 -88t-39 -290q0 -200 39 -288q38 -88 150 -88t204 125v504q-92 125 -204 125z" />
    <glyph glyph-name="cordinal" unicode="&#xe181;" horiz-adv-x="802" 
d="M74 1198q0 226 83 326t257 100t240 -74t67 -209l-186 -24q0 160 -117 160q-86 -1 -127 -63t-41 -216t41 -215t119 -61t102 41t23 116l186 -24q0 -135 -67 -209q-66 -74 -240 -74t-257 100t-83 326z" />
    <glyph glyph-name="ordfeminine.school" unicode="&#xe182;" horiz-adv-x="776" 
d="M379 1464q-129 0 -129 -266t129 -266q70 0 125 80v372q-55 80 -125 80zM330 772q-118 0 -187 106q-70 106 -69 320q0 213 69 320q70 106 188 106t189 -113l10 86h154l-2 -176v-446l2 -176h-154l-10 86q-72 -113 -190 -113z" />
    <glyph glyph-name="fi" unicode="&#xe38c;" horiz-adv-x="1083" 
d="M985 1550v-227h-229v227h229zM766 0v1085h209v-1085h-209zM53 907v178h123v314q0 127 74 195t221 67q92 0 156 -23l-13 -178q-139 41 -197 -5q-30 -24 -30 -87v-283h205v-178h-205v-907h-211v907h-123z" />
    <glyph glyph-name="fi" unicode="&#xfb01;" horiz-adv-x="1083" 
d="M985 1550v-227h-229v227h229zM766 0v1085h209v-1085h-209zM53 907v178h123v314q0 127 74 195t221 67q92 0 156 -23l-13 -178q-139 41 -197 -5q-30 -24 -30 -87v-283h205v-178h-205v-907h-211v907h-123z" />
    <glyph glyph-name="fl" unicode="&#xe38d;" horiz-adv-x="1087" 
d="M768 0v1638h209v-1638h-209zM53 907v178h123v314q0 127 74 195t221 67q92 0 156 -23l-13 -178q-139 41 -197 -5q-30 -24 -30 -87v-283h205v-178h-205v-907h-211v907h-123z" />
    <glyph glyph-name="fl" unicode="&#xfb02;" horiz-adv-x="1087" 
d="M768 0v1638h209v-1638h-209zM53 907v178h123v314q0 127 74 195t221 67q92 0 156 -23l-13 -178q-139 41 -197 -5q-30 -24 -30 -87v-283h205v-178h-205v-907h-211v907h-123z" />
    <glyph glyph-name="invertedbreve" unicode="&#xe411;" horiz-adv-x="1269" 
d="M635 1642q180 0 245 -106t62 -324h-162q2 129 -28 189q-31 59 -117 59t-117 -59t-29 -189h-161q-2 217 62 324q65 106 245 106z" />
    <glyph glyph-name="doublegrave" unicode="&#xe412;" horiz-adv-x="1269" 
d="M225 1638h246l111 -426h-215zM545 1638h246l110 -426h-215z" />
    <glyph glyph-name="caronSlovak" unicode="&#xe413;" horiz-adv-x="1269" 
d="M717 1638h176l-62 -426h-114v426z" />
    <glyph glyph-name="commaaccent" unicode="&#xe414;" horiz-adv-x="1269" 
d="M520 -127h240l-94 -283h-181z" />
    <glyph glyph-name="commaaccent" unicode="&#xf6c3;" horiz-adv-x="1269" 
d="M520 -127h240l-94 -283h-181z" />
    <glyph glyph-name="dotbelow" unicode="&#xe415;" horiz-adv-x="1269" 
d="M754 -195v-215h-238v215h238z" />
    <glyph glyph-name="altcedilla" unicode="&#xe416;" horiz-adv-x="1269" 
d="M598 -436q-120 0 -195 41l35 106q53 -29 115 -35q133 -8 133 76q0 49 -51 70t-141 33l28 84q348 -23 340 -205q-6 -84 -75 -127t-189 -43z" />
    <glyph glyph-name="exclamdown.cap" unicode="&#xe441;" horiz-adv-x="432" 
d="M344 0h-256l49 1151h158zM100 1370v227h232v-227h-232z" />
    <glyph glyph-name="questiondown.cap" unicode="&#xe444;" horiz-adv-x="960" 
d="M387 1370v227h229v-227h-229zM289 384q0 -116 46 -167q47 -51 153 -51t150 66t44 225l209 -27q0 -242 -91 -350q-92 -108 -316 -107t-320 93t-96 300t78 292q67 73 161 127q94 53 120 92q55 82 -1 274h149q104 -251 16 -379q-40 -58 -133 -112t-131 -107t-38 -169z" />
    <glyph glyph-name="guilsinglleft.cap" unicode="&#xe451;" horiz-adv-x="655" 
d="M532 602v-182l-426 311v135l426 312v-183l-235 -196z" />
    <glyph glyph-name="guilsinglright.cap" unicode="&#xe452;" horiz-adv-x="655" 
d="M123 420v182l235 197l-235 196v183l426 -312v-135z" />
    <glyph glyph-name="guillemotleft.cap" unicode="&#xe453;" horiz-adv-x="1093" 
d="M971 602v-182l-426 311v135l426 312v-183l-236 -196zM532 602v-182l-426 311v135l426 312v-183l-235 -196z" />
    <glyph glyph-name="guillemotright.cap" unicode="&#xe454;" horiz-adv-x="1093" 
d="M123 420v182l235 197l-235 196v183l426 -312v-135zM561 420v182l236 197l-236 196v183l426 -312v-135z" />
    <glyph glyph-name="slash.cap" unicode="&#xe461;" horiz-adv-x="716" 
d="M55 -41l402 1679h205l-402 -1679h-205z" />
    <glyph glyph-name="backslash.cap" unicode="&#xe462;" horiz-adv-x="716" 
d="M457 -41l-402 1679h205l402 -1679h-205z" />
    <glyph glyph-name="bar.cap" unicode="&#xe463;" horiz-adv-x="610" 
d="M199 -41v1679h215v-1679h-215z" />
    <glyph glyph-name="doublebar.cap" unicode="&#xe464;" horiz-adv-x="960" 
d="M756 1638v-1679h-221v1679h221zM426 1638v-1679h-219v1679h219z" />
    <glyph glyph-name="brokenbar.cap" unicode="&#xe465;" horiz-adv-x="632" 
d="M426 1638v-764h-219v764h219zM426 723v-764h-219v764h219z" />
    <glyph glyph-name="bullet.cap" unicode="&#xe466;" horiz-adv-x="878" 
d="M743 1102v-606h-608v606h608z" />
    <glyph glyph-name="onethirdemdash" unicode="&#xe471;" horiz-adv-x="722" 
d="M606 588h-489v196h489v-196z" />
    <glyph glyph-name="threequarteremdash" unicode="&#xe472;" horiz-adv-x="1576" 
d="M1460 588h-1343v196h1343v-196z" />
    <glyph glyph-name="periodcentered.cap" unicode="&#xe481;" horiz-adv-x="548" 
d="M397 920v-242h-245v242h245z" />
    <glyph glyph-name="hyphen.cap" unicode="&#xe482;" horiz-adv-x="808" 
d="M692 698h-575v199h575v-199z" />
    <glyph glyph-name="onethirdemdash.cap" unicode="&#xe483;" horiz-adv-x="722" 
d="M606 698h-489v199h489v-199z" />
    <glyph glyph-name="endash.cap" unicode="&#xe484;" horiz-adv-x="1064" 
d="M948 698h-831v199h831v-199z" />
    <glyph glyph-name="threequarteremdash.cap" unicode="&#xe485;" horiz-adv-x="1576" 
d="M1460 698h-1343v199h1343v-199z" />
    <glyph glyph-name="emdash.cap" unicode="&#xe486;" horiz-adv-x="2088" 
d="M1972 698h-1855v199h1855v-199z" />
    <glyph glyph-name="figuredash.cap" unicode="&#xe487;" horiz-adv-x="1474" 
d="M1358 698h-1241v199h1241v-199z" />
    <glyph glyph-name="uni2015.cap" unicode="&#xe488;" horiz-adv-x="2908" 
d="M2791 698h-2674v199h2674v-199z" />
    <glyph glyph-name="parenleft.cap" unicode="&#xe491;" horiz-adv-x="598" 
d="M313 799q1 -283 53 -512t162 -471h-209q-98 168 -161 431t-64 552q0 289 64 552q63 263 161 431h209q-111 -242 -163 -471t-52 -512z" />
    <glyph glyph-name="parenright.cap" unicode="&#xe492;" horiz-adv-x="598" 
d="M287 799q0 281 -53 511q-52 230 -164 472h209q98 -168 161 -431q64 -263 64 -552t-64 -552t-161 -431h-209q113 242 164 472q53 230 53 511z" />
    <glyph glyph-name="bracketleft.cap" unicode="&#xe493;" horiz-adv-x="598" 
d="M549 1589h-154v-1581h154v-192h-369v1966h369v-193z" />
    <glyph glyph-name="bracketright.cap" unicode="&#xe494;" horiz-adv-x="600" 
d="M49 8h154v1581h-154v193h371v-1966h-371v192z" />
    <glyph glyph-name="braceleft.cap" unicode="&#xe495;" horiz-adv-x="671" 
d="M637 8v-192h-72q-223 0 -298 113q-62 93 -62 235v385q0 88 -33 122t-100 34h-43v190h43q70 0 102 33t31 121v385q0 249 174 318q76 30 186 30h72v-193h-66q-154 0 -153 -155v-400q0 -184 -123 -235q123 -51 123 -234v-401q0 -156 153 -156h66z" />
    <glyph glyph-name="braceright.cap" unicode="&#xe496;" horiz-adv-x="671" 
d="M96 1589h-65v193h71q224 0 298 -114q63 -94 63 -234v-385q0 -88 33 -122t100 -34h43v-191h-43q-68 0 -100 -32t-33 -121v-385q0 -249 -174 -319q-76 -30 -187 -29h-71v192h65q154 0 154 156v399q0 182 125 236q-61 27 -93 91t-32 142v402q0 155 -154 155z" />
    <glyph glyph-name="anglebracketleft.cap" unicode="&#xe497;" horiz-adv-x="598" 
d="M528 1782l-221 -983l221 -983h-209l-225 983l225 983h209z" />
    <glyph glyph-name="anglebracketright.cap" unicode="&#xe498;" horiz-adv-x="598" 
d="M291 799l-221 983h209l225 -983l-225 -983h-209z" />
    <glyph glyph-name="lowline" unicode="&#xe511;" horiz-adv-x="702" 
d="M639 0h-576v160h576v-160z" />
    <glyph glyph-name="underscoremonospace" unicode="&#xe512;" horiz-adv-x="1492" 
d="M1432 -410h-1371v160h1371v-160z" />
    <glyph glyph-name="underscoremonospace" unicode="&#xff3f;" horiz-adv-x="1492" 
d="M1432 -410h-1371v160h1371v-160z" />
    <glyph glyph-name="at.cap" unicode="&#xe513;" horiz-adv-x="1939" 
d="M1315 324h-137l-13 120q-101 -143 -285 -143t-266 125t-82 376t82 376t266 125t287 -142l11 119h184l-6 -236v-540q170 2 228 119t58 370q0 157 -24 265q-57 259 -288 344q-132 47 -335 47q-383 0 -537 -198q-154 -199 -155 -655q0 -456 159 -652t566 -195q219 0 373 36
t315 107l76 -172q-338 -158 -764 -158q-498 0 -717 249t-219 786t215 787t693 251q478 0 671 -245q94 -118 135 -263t41 -334q1 -341 -121 -505t-411 -164zM946 1114q-114 0 -158 -78t-43 -234q0 -156 43 -234q43 -79 156 -79t201 129v367q-85 129 -199 129z" />
    <glyph glyph-name="registered.superior" unicode="&#xe514;" horiz-adv-x="757" 
d="M137 1309q0 -100 71 -170t172 -70t171 70t70 171t-70 172q-70 70 -171 70t-172 -72t-71 -171zM305 1333h98q53 0 54 51q0 49 -54 50h-98v-101zM305 1266v-144h-67v377h161q127 0 127 -115q0 -90 -73 -110l71 -152h-84l-63 144h-72zM68 1311q0 129 91 220t220 91t220 -91
t91 -220t-91 -220t-220 -91t-220 90q-91 92 -91 221z" />
    <glyph glyph-name="numbersign.LP" unicode="&#xe533;" horiz-adv-x="1101" 
d="M444 987l-67 -409h219l68 409h-220zM135 987v193h164l66 385h178l-66 -385h219l66 385h178l-66 -385h117v-193h-149l-68 -409h131v-193h-164l-65 -385h-178l65 385h-219l-65 -385h-179l66 385h-117v193h150l67 409h-131z" />
    <glyph glyph-name="zero.LP" unicode="&#xe534;" horiz-adv-x="1138" 
d="M569 1587q145 0 233 -35q178 -70 219 -373q19 -149 19 -397t-19 -396t-75 -244t-143 -130q-87 -35 -233 -35t-234 35q-177 71 -218 374q-19 148 -20 396q0 248 20 396t74 244q56 95 144 130t233 35zM825 780q0 382 -46 499q-46 118 -209 118t-210 -115t-47 -452
q1 -337 21 -444q20 -108 50 -144q59 -71 185 -72q162 0 209 114t47 496z" />
    <glyph glyph-name="one.LP" unicode="&#xe536;" horiz-adv-x="784" 
d="M565 1587l2 -1587h-213l-2 1286q-94 -104 -243 -170v213q154 78 284 258h172z" />
    <glyph glyph-name="two.LP" unicode="&#xe537;" horiz-adv-x="1042" 
d="M715 1158q0 126 -40 184t-156 57q-116 0 -159 -65t-43 -218l-213 29q0 231 85 337t323 105q238 0 328 -100t90 -330q0 -98 -18 -167t-72 -130q-52 -61 -106 -102t-165 -115q-170 -111 -215 -193t-45 -260h645v-190h-870q0 268 27 393t97 207q71 82 237 188t218 175
t52 195z" />
    <glyph glyph-name="three.LP" unicode="&#xe538;" horiz-adv-x="999" 
d="M488 166q128 0 185 65q56 65 56 215t-60 205t-163 56h-141v192h141q86 0 134 50q48 51 48 195t-43 199t-160 55t-159 -64q-42 -65 -43 -218l-209 27q0 113 17 189q38 171 190 227q82 29 206 28q229 0 323 -94t93 -328q0 -287 -180 -356q221 -57 221 -393
q0 -215 -105 -327t-355 -112t-340 114q-89 114 -89 339l209 29q0 -153 48 -223t176 -70z" />
    <glyph glyph-name="four.LP" unicode="&#xe539;" horiz-adv-x="1040" 
d="M606 549l10 764l-366 -770zM983 356h-176v-356h-203v356h-547v158l516 1073h234v-1038h176v-193z" />
    <glyph glyph-name="five.LP" unicode="&#xe53a;" horiz-adv-x="1011" 
d="M497 166q116 0 171 84t55 272t-50 266q-49 76 -139 76t-149 -41t-86 -96l-184 29l35 809h741v-193h-555l-21 -450q101 125 273 125t260 -120t88 -409t-106 -415t-336 -126q-230 -1 -322 99t-92 346l215 31q2 -167 44 -227t158 -60z" />
    <glyph glyph-name="six.LP" unicode="&#xe53b;" horiz-adv-x="1056" 
d="M585 836q-99 0 -159 -52t-113 -159q-1 -265 53 -363t180 -98t180 77t54 260t-48 259t-147 76zM563 1401q-150 0 -201 -128t-51 -456q117 207 361 207q170 0 247 -124t77 -394t-103 -400q-102 -130 -359 -129q-257 0 -348 171q-90 171 -90 634q0 224 18 364
q41 313 218 396q94 45 243 45q209 0 303 -86t97 -284l-213 -29q-2 119 -51 166q-50 47 -148 47z" />
    <glyph glyph-name="seven.LP" unicode="&#xe53c;" horiz-adv-x="929" 
d="M66 1372v193h806v-135l-430 -1430h-229l336 1077l102 297l-229 -2h-356z" />
    <glyph glyph-name="eight.LP" unicode="&#xe53d;" horiz-adv-x="1005" 
d="M504 -23q-236 0 -336 110t-100 321q0 319 204 401q-78 29 -128 120t-50 234q0 231 93 327t315 97q222 0 316 -97q93 -97 93 -327q0 -143 -50 -234t-128 -120q205 -82 205 -401q0 -211 -99 -321t-335 -110zM503 713q-112 -1 -169 -59q-58 -58 -58 -208t54 -214t174 -64
q119 0 172 64t53 214t-57 208t-169 59zM702 1144q0 140 -44 196t-155 55q-110 1 -155 -55t-45 -195t51 -195q50 -56 148 -57q98 0 149 56q51 55 51 195z" />
    <glyph glyph-name="nine.LP" unicode="&#xe53e;" horiz-adv-x="1056" 
d="M474 729q99 0 160 52q60 52 111 159q0 264 -53 362t-180 99q-127 0 -180 -77t-53 -260t48 -259t147 -76zM485 164q158 0 210 126t53 458q-119 -207 -353 -207q-170 0 -251 125t-81 394q-1 269 101 398t360 129t348 -171q90 -172 90 -624t-98 -633q-100 -181 -391 -182
q-213 -1 -308 87t-97 284l213 29q2 -119 53 -166t151 -47z" />
    <glyph glyph-name="zero.inf" unicode="&#xe571;" 
d="M520 -2q0 -258 -47 -339t-185 -81t-186 81q-47 81 -47 339t47 340q48 82 186 82t185 -82t47 -340zM201 -1q0 -189 16 -241q17 -52 71 -53q54 0 70 52q16 51 16 241t-16 242t-70 53q-54 0 -71 -52q-16 -53 -16 -242z" />
    <glyph glyph-name="one.inf" unicode="&#xe572;" 
d="M526 -410h-450v129h153v492q-55 -70 -166 -100v145q127 37 193 164h115v-701h155v-129z" />
    <glyph glyph-name="two.inf" unicode="&#xe573;" 
d="M289 295q-43 0 -59 -32t-17 -111l-143 18q2 135 44 192q42 58 172 58t175 -51t45 -163t-35 -160t-129 -112t-114 -102q-20 -37 -19 -115h305v-127h-455q0 115 4 168q5 52 25 104t54 82t104 76t94 77q24 32 22 90q0 58 -15 83t-58 25z" />
    <glyph glyph-name="three.inf" unicode="&#xe574;" 
d="M284 -297q50 0 70 30q20 31 20 97t-22 90q-23 24 -65 25h-70v129h70q33 0 49 22t16 86t-14 88t-59 25q-45 0 -61 -30t-15 -107l-140 18q1 129 47 186q46 58 167 58t169 -50t50 -185q0 -135 -82 -171q104 -29 104 -202q0 -115 -54 -174q-54 -60 -185 -60t-177 62t-45 188
l140 20q1 -80 19 -112t68 -33z" />
    <glyph glyph-name="four.inf" unicode="&#xe575;" 
d="M319 -100l7 342l-152 -346zM528 -229h-71v-181h-138v181h-272v114l240 535h170v-520h71v-129z" />
    <glyph glyph-name="five.inf" unicode="&#xe576;" 
d="M287 -297q88 0 88 158q1 94 -19 129t-73 35t-86 -68l-121 16l20 435h396v-129h-271l-10 -195q51 61 135 61t128 -63t44 -218q0 -154 -57 -220t-180 -66t-172 56t-50 184l144 18q-1 -74 17 -104t67 -29z" />
    <glyph glyph-name="six.inf" unicode="&#xe577;" 
d="M303 10q-35 0 -54 -18t-42 -64q0 -127 18 -177q19 -50 65 -50t62 35t16 120q0 86 -14 120q-16 34 -51 34zM285 297q-49 0 -63 -50t-15 -204q49 92 144 92t129 -62q34 -63 34 -211t-50 -216t-182 -68t-177 89q-44 89 -44 327t45 332t193 94q117 0 162 -51t47 -162
l-143 -19q-3 61 -17 85t-63 24z" />
    <glyph glyph-name="seven.inf" unicode="&#xe578;" 
d="M61 279v129h455v-89l-223 -729h-156l178 537l54 152h-308z" />
    <glyph glyph-name="eight.inf" unicode="&#xe579;" 
d="M288 -422q-130 0 -184 57q-53 57 -53 170q0 164 101 209q-39 14 -63 62t-23 119q0 123 50 174t172 51t172 -51t50 -174q0 -70 -24 -118t-62 -63q100 -45 100 -209q0 -113 -53 -170t-183 -57zM385 -174q-1 74 -25 100t-72 25q-48 0 -73 -26t-25 -94t23 -97t76 -29
q96 0 96 121zM369 180q-1 61 -19 86t-62 25t-62 -25t-19 -86q0 -113 82 -112q80 0 80 112z" />
    <glyph glyph-name="nine.inf" unicode="&#xe57a;" 
d="M274 -12q57 0 95 75q-1 127 -19 181t-64 53q-46 0 -62 -35t-17 -121q-1 -153 67 -153zM292 -299q50 0 63 47t14 199q-45 -84 -141 -84q-96 1 -131 65q-36 64 -36 210q-1 146 49 214t184 68t177 -88t43 -326t-45 -334q-45 -94 -193 -94q-116 0 -160 51t-46 162l141 19
q3 -61 17 -85t64 -24z" />
    <glyph glyph-name="plus.inf" unicode="&#xe57b;" horiz-adv-x="790" 
d="M328 -289v221h-222v134h222v221h133v-221h223v-134h-223v-221h-133z" />
    <glyph glyph-name="minus.inf" unicode="&#xe57c;" horiz-adv-x="790" 
d="M684 -68h-578v134h578v-134z" />
    <glyph glyph-name="equal.inf" unicode="&#xe57d;" horiz-adv-x="790" 
d="M684 49h-578v131h578v-131zM684 -182h-578v133h578v-133z" />
    <glyph glyph-name="parenleft.inf" unicode="&#xe57e;" horiz-adv-x="346" 
d="M199 -1q0 -273 112 -513h-141q-117 203 -117 514q0 150 33 288t84 224h141q-112 -240 -112 -513z" />
    <glyph glyph-name="parenright.inf" unicode="&#xe57f;" horiz-adv-x="346" 
d="M150 -1q0 265 -113 513h139q51 -86 85 -223t34 -289q0 -313 -119 -514h-139q113 248 113 513z" />
    <glyph glyph-name="plus.cap" unicode="&#xe591;" horiz-adv-x="1802" 
d="M805 0v702h-703v193h703v702h192v-702h703v-193h-703v-702h-192z" />
    <glyph glyph-name="minus.cap" unicode="&#xe592;" horiz-adv-x="1802" 
d="M102 702v193h1598v-193h-1598z" />
    <glyph glyph-name="multiply.cap" unicode="&#xe593;" horiz-adv-x="1802" 
d="M78 113l688 686l-688 686l137 137l686 -688l686 688l137 -137l-688 -686l688 -686l-137 -138l-686 689l-686 -689z" />
    <glyph glyph-name="divide.cap" unicode="&#xe594;" horiz-adv-x="1802" 
d="M1018 1597v-235h-234v235h234zM1018 236v-236h-234v236h234zM102 702v193h1598v-193h-1598z" />
    <glyph glyph-name="equal.cap" unicode="&#xe595;" horiz-adv-x="1802" 
d="M102 987v195h1598v-195h-1598zM102 416v194h1598v-194h-1598z" />
    <glyph glyph-name="less.cap" unicode="&#xe596;" horiz-adv-x="1802" 
d="M1700 1417l-1376 -618l278 -123l1098 -496v-205l-1598 727v193l1598 727v-205z" />
    <glyph glyph-name="greater.cap" unicode="&#xe597;" horiz-adv-x="1802" 
d="M1200 676l279 123l-279 123l-1098 495v205l1598 -727v-193l-1598 -727v205z" />
    <glyph glyph-name="idotaccent" horiz-adv-x="425" 
d="M328 1550v-227h-230v227h230zM109 0v1085h208v-1085h-208z" />
    <glyph glyph-name="f_dotlessi" horiz-adv-x="1083" 
d="M766 0v1085h209v-1085h-209zM53 907v178h123v314q0 127 74 195t221 67q92 0 156 -23l-13 -178q-139 41 -197 -5q-30 -24 -30 -87v-283h205v-178h-205v-907h-211v907h-123z" />
    <glyph glyph-name="interrobangdown.cap" horiz-adv-x="960" 
d="M377 1366v231h233v-231h-233zM289 395q0 -111 34 -163t105 -62l16 496q-84 -48 -120 -104t-35 -167zM484 -27q-224 1 -320 93t-96 308t78 310q42 51 106 98t199 107l12 319h41l35 -1038q79 14 111 81t32 206l209 -27q0 -242 -91 -350q-92 -108 -316 -107z" />
    <glyph glyph-name="period.T" horiz-adv-x="532" 
d="M381 227v-227h-231v227h231z" />
    <glyph glyph-name="comma.T" horiz-adv-x="532" 
d="M150 227h237l-115 -508h-157z" />
    <glyph glyph-name="colon.T" horiz-adv-x="532" 
d="M381 944v-225h-231v225h231zM381 227v-227h-231v227h231z" />
    <glyph glyph-name="semicolon.T" horiz-adv-x="532" 
d="M150 227h237l-115 -508h-157zM381 944v-225h-231v225h231z" />
    <glyph glyph-name="musicnaturalsign" horiz-adv-x="823" 
d="M289 877v-353l246 195v354zM676 -102h-141v602l-388 -310v1510h142v-604l387 311v-1509z" />
    <glyph glyph-name="circle" horiz-adv-x="1536" 
d="M205 543q0 233 165 398t398 165t398 -165t165 -398t-165 -399t-398 -164q-233 0 -398 165t-165 398z" />
    </font>
</defs>
</svg>
